<svg id="Layer_1" data-name="Layer 1" xmlns="http://www.w3.org/2000/svg" viewBox="0 0 409.52 405.75"><title>buy</title><path d="M-665,279.77c1.85-7.16,4.54-13.85,10.17-19,7.09-6.51,15.6-8.67,25-8.66q66.8.09,133.6,0,100.59,0,201.2,0c8.17,0,15.89,1.35,22.58,6.47,8.92,6.84,12.89,16.08,12.89,27.09q.06,94.39.05,188.8c0,19.84-14.4,33.27-30.9,33.55-8.79.15-17.59.14-26.36-.21-3.84-.15-6.33-3.21-6.63-6.85a7.39,7.39,0,0,1,4.75-8,16.21,16.21,0,0,1,5.88-.81c6.53-.09,13.07,0,19.6,0,11.3-.13,17.53-6.34,17.54-17.71q0-94.2,0-188.4c0-11.52-6.3-17.75-17.91-17.75q-168.79,0-337.59,0c-11.6,0-17.82,6.28-17.83,17.79q0,94.2,0,188.4c0,11.31,6.2,17.63,17.54,17.66,24.4.08,48.8,0,73.2.05a28.7,28.7,0,0,1,5.56.43,7.61,7.61,0,0,1,6.09,7.81,7.58,7.58,0,0,1-6.11,7.39,28.81,28.81,0,0,1-5.57.43c-22.79,0-45.61-.44-68.39.16-19.84.53-33.92-8-38.37-27.79Z" transform="translate(665 -252.09)" fill="#e61632"/><path d="M-338,617.41c-4.55,10.41-8.75,20.33-13.23,30.13-4.37,9.57-14.16,13.18-22.34,7.8a20.09,20.09,0,0,1-7.17-9.16q-24.45-65-48.36-130.25c-5.81-15.83,3.17-31.18,19.49-33.24a26.78,26.78,0,0,1,12.09,1.6q65.42,24,130.67,48.38c7.3,2.72,11.51,8.17,11.42,14.82-.11,7.32-4,12.14-10.59,15.06-9.71,4.31-19.4,8.67-29.48,13.18,1,1.13,1.69,2,2.48,2.81,8.38,8.4,16.81,16.76,25.15,25.19,10.07,10.19,10,22.65,0,32.87q-4.49,4.57-9.05,9c-10,9.83-22.58,9.88-32.61,0-8.46-8.32-16.78-16.78-25.18-25.17C-335.7,619.58-336.68,618.71-338,617.41Zm-27.9,22.83a12.42,12.42,0,0,0,.95-1.34q7.94-18.09,15.84-36.2c3.85-8.81,9.41-9.91,16.14-3.19q17.11,17.1,34.22,34.21c4.29,4.28,6.74,4.25,11.1-.06q3.84-3.79,7.63-7.63c4.68-4.71,4.71-7,.07-11.68-11.49-11.51-23-23-34.48-34.52-5.29-5.34-4.2-11.27,2.58-14.4s13.37-6,20-8.94c6.15-2.75,12.28-5.52,19.16-8.62-1.93-.8-3.07-1.34-4.26-1.78q-58.18-21.6-116.38-43.17c-4-1.48-8-3-12.06-4.14-3.7-1.06-7.08.56-8.24,3.87a14.49,14.49,0,0,0,.11,9.11c13.8,37.74,27.84,75.39,41.82,113C-369.86,629.76-368,634.7-365.95,640.24Z" transform="translate(665 -252.09)" fill="#e61632"/><path d="M-523.76,370.65c1.63.89,3.11,1.35,4.1,2.31,2.53,2.46,6,4.75,7,7.81,3.78,10.82,3.64,21.84-2.13,32-3.74,6.6-10.3,9.74-17.68,10.06-10.9.46-21.84.34-32.76.22-5.56-.06-7.4-2.15-7.41-7.62q0-40.77,0-81.54c0-5,1.74-7.46,6.25-7.54,10.91-.22,21.9-.68,32.74.27,18.08,1.6,22.57,14.11,20.2,29.63A18.82,18.82,0,0,1-523.76,370.65Zm-31.45,6.82v30.61c4.43,0,8.66,0,12.89,0,10.44-.08,14.5-4,14.77-14.45a33.11,33.11,0,0,0-.4-6c-1.08-6.7-4.47-9.85-11.26-10.14C-544.39,377.29-549.59,377.47-555.21,377.47Zm0-13.7c5.64,0,10.82.2,16,0,5.62-.28,8.49-3.77,9.2-10.5.56-5.29-2-10.36-6.85-11.1-6-.94-12.25-.71-18.34-1Z" transform="translate(665 -252.09)" fill="#e61632"/><path d="M-435.06,364.27c0,11.46.66,23-.16,34.36-1.06,14.72-10.58,23.7-25.35,25-9,.81-17.87.43-25.84-4.69a23.83,23.83,0,0,1-11.34-19.63c-.6-11.7-.55-23.44-.66-35.16-.09-10.13,0-20.27,0-30.4,0-5.31,2.8-7.65,8.87-7.57,5.85.07,8.48,2.38,8.48,7.55,0,19.6-.12,39.2.13,58.79a24.63,24.63,0,0,0,2.69,11c2.59,4.83,9.87,6.5,16.57,4.79a12,12,0,0,0,9.46-11.48c.36-5.84.26-11.72.28-17.59,0-14.93,0-29.86,0-44.79,0-5.92,2.44-8.24,8.59-8.26s8.72,2.28,8.72,8.07q0,15,0,30Z" transform="translate(665 -252.09)" fill="#e61632"/><path d="M-388.93,368c6.64-12.54,12.86-24.3,19.1-36.05,3.56-6.73,11.58-7.48,16.53-1.55,1.87,2.25,1.1,4.37-.19,6.61-8.15,14.06-16.33,28.1-24.23,42.3a20.58,20.58,0,0,0-2.43,9c-.31,8.78-.1,17.59-.11,26.39,0,6.22-2.4,8.52-8.78,8.48s-8.6-2.38-8.61-8.67c0-8.93.17-17.87-.1-26.79a18.43,18.43,0,0,0-2.18-8.24c-7.89-14.05-16.06-27.94-24.12-41.89-2.76-4.79-1.9-7.39,3.17-9.75,6.72-3.13,9.67-2.13,13.15,4.48Z" transform="translate(665 -252.09)" fill="#e61632"/><path d="M-420.41,438.17c0-5.06-.09-10.13,0-15.19.13-5.42,3.16-8.75,7.79-8.84s8.06,3.28,8.17,8.52q.32,15.39,0,30.79c-.1,5.27-3.58,8.7-8.06,8.68-4.71,0-7.81-3.53-7.92-9.16C-420.48,448-420.41,443.1-420.41,438.17Z" transform="translate(665 -252.09)" fill="#e61632"/><path d="M-474.51,492.26c4.93,0,9.87-.09,14.79,0,5.67.14,9.11,3.22,9.12,7.93s-3.45,8-9.07,8.06c-9.85.16-19.72.14-29.58,0-5.84-.08-9.44-3.43-9.33-8.22s3.55-7.59,9.28-7.8h14.79Z" transform="translate(665 -252.09)" fill="#e61632"/><path d="M-442.3,534.58c-1.55,2.81-2.26,5.07-3.73,6.59q-10.7,11.08-21.74,21.81c-3.76,3.66-8.52,3.73-11.77.52s-3.19-8,.47-11.77c7.16-7.35,14.47-14.56,21.77-21.77,2.58-2.56,5.93-3.82,9.07-1.92C-445.89,529.45-444.36,532.22-442.3,534.58Z" transform="translate(665 -252.09)" fill="#e61632"/><path d="M-350.14,425.7c2.36,1.92,4.84,3.26,6.34,5.32,2,2.74,1.37,6-.75,8.52s-4.57,4.85-6.92,7.21c-5.36,5.38-10.68,10.81-16.17,16.05-2.87,2.74-6.28,3.43-9.87,1.2a7.22,7.22,0,0,1-3.43-8.58,11.3,11.3,0,0,1,2.85-4.66c6.89-7.06,13.83-14.08,20.94-20.9C-355.44,428.22-353,427.35-350.14,425.7Z" transform="translate(665 -252.09)" fill="#e61632"/><path d="M-465.12,439.72c2.88,1.71,5.21,2.57,6.85,4.15Q-447.47,454.28-437,465c3.91,4,4,8.77.62,12.08-3.23,3.14-8,3-11.8-.64-7.26-7.08-14.37-14.3-21.52-21.48-2.68-2.7-4-6.14-2-9.42C-470.32,443.23-467.48,441.73-465.12,439.72Z" transform="translate(665 -252.09)" fill="#e61632"/><path d="M-514.62,500.35a8,8,0,0,1-8.06,7.71,8,8,0,0,1-7.88-8.27,7.94,7.94,0,0,1,8.24-7.51A8,8,0,0,1-514.62,500.35Z" transform="translate(665 -252.09)" fill="#e61632"/></svg>