<svg xmlns="http://www.w3.org/2000/svg" width="45" height="50" viewBox="0 0 45 50">
  <g id="Group_809" data-name="Group 809" transform="translate(-364 -2747)">
    <rect id="Rectangle_146" data-name="Rectangle 146" width="45" height="50" transform="translate(364 2747)" fill="none" opacity="0"/>
    <path id="Icon_feather-phone" data-name="Icon feather-phone" d="M39.956,30.6v5.549a3.7,3.7,0,0,1-4.032,3.7A36.606,36.606,0,0,1,19.96,34.168a36.07,36.07,0,0,1-11.1-11.1A36.606,36.606,0,0,1,3.183,7.032,3.7,3.7,0,0,1,6.864,3h5.549a3.7,3.7,0,0,1,3.7,3.182,23.751,23.751,0,0,0,1.295,5.2,3.7,3.7,0,0,1-.832,3.9l-2.349,2.349a29.6,29.6,0,0,0,11.1,11.1l2.349-2.349a3.7,3.7,0,0,1,3.9-.832,23.751,23.751,0,0,0,5.2,1.295A3.7,3.7,0,0,1,39.956,30.6Z" transform="translate(367.214 2748.136) rotate(7)" fill="none" stroke="#e61632" stroke-linecap="round" stroke-linejoin="round" stroke-width="1.8"/>
  </g>
</svg>
