<svg xmlns="http://www.w3.org/2000/svg" width="40" height="40" viewBox="0 0 40 40">
  <g id="Group_728" data-name="Group 728" transform="translate(-1126 -875)">
    <rect id="Rectangle_103" data-name="Rectangle 103" width="40" height="40" transform="translate(1126 875)" fill="none"/>
    <path id="Icon_feather-phone" data-name="Icon feather-phone" d="M28.126,21.1v4.243a2.828,2.828,0,0,1-3.083,2.828,27.987,27.987,0,0,1-12.2-4.342,27.577,27.577,0,0,1-8.485-8.485A27.987,27.987,0,0,1,.011,3.083,2.828,2.828,0,0,1,2.826,0H7.068A2.828,2.828,0,0,1,9.9,2.433a18.158,18.158,0,0,0,.99,3.974A2.828,2.828,0,0,1,10.25,9.39l-1.8,1.8a22.627,22.627,0,0,0,8.485,8.485l1.8-1.8a2.828,2.828,0,0,1,2.984-.636,18.158,18.158,0,0,0,3.974.99A2.828,2.828,0,0,1,28.126,21.1Z" transform="translate(1133.935 880.5) rotate(7)" fill="none" stroke="#e61632" stroke-linecap="round" stroke-linejoin="round" stroke-width="1.8"/>
  </g>
</svg>
