<svg xmlns="http://www.w3.org/2000/svg" width="384" height="358.565" viewBox="0 0 384 358.565">
  <g id="Group_1" data-name="Group 1" transform="translate(815.25 -360.683)">
    <path id="Path_1" data-name="Path 1" d="M1152.75,390.75v228a5.651,5.651,0,0,0-.487,1.007c-4.992,19.19-16.651,28.242-36.4,28.243H1010.028l8.193,49.068a4.728,4.728,0,0,0,1.058.38c4.25.029,8.5.008,12.749.06,6.96.084,11.97,4.824,11.956,11.258s-5.019,11.214-11.995,11.218q-71.247.043-142.493,0c-6.956,0-11.976-4.808-11.983-11.229s5.024-11.171,11.967-11.245c4.477-.048,8.956-.009,13.733-.009,2.755-16.545,5.468-32.841,8.242-49.5H906.5q-51.747,0-103.495-.021c-15.122-.029-27.959-9.249-32.542-23.144-.659-2-1.145-4.055-1.711-6.085v-228a6.765,6.765,0,0,0,.459-1c5.445-19.72,16.652-28.249,37.134-28.249h243.6c22.986,0,45.973-.17,68.956.068,14.312.148,24.678,7.073,30.841,19.988C1151.114,384.443,1151.765,387.676,1152.75,390.75ZM972,384c0,4.186.024,7.914-.005,11.641-.056,7.274-4.7,12.348-11.251,12.345s-11.188-5.081-11.238-12.356c-.026-3.819-.005-7.638-.005-11.63h-4.254q-70.3,0-140.6,0c-9.226,0-13.4,4.232-13.4,13.583q0,107.229,0,214.456c0,9.244,4.238,13.457,13.532,13.457q155.967,0,311.935,0c9.284,0,13.528-4.224,13.529-13.464q.006-107.227,0-214.456c0-9.462-4.184-13.577-13.784-13.577q-69.922,0-139.846,0Zm15.207,264c-17.221,0-34.074-.041-50.926.122-.842.008-2.217,1.692-2.412,2.765-1.857,10.185-3.527,20.405-5.218,30.621-.863,5.218-1.659,10.448-2.507,15.807h69.292C992.674,680.773,989.952,664.462,987.206,648Z" transform="translate(-1584 -0.758)"/>
    <path id="Path_6" data-name="Path 6" d="M1104,504.652a65.247,65.247,0,1,1-65.152-65.149A65.368,65.368,0,0,1,1104,504.652Zm-102.263,21.163c8.4-8.394,16.6-16.57,24.753-24.8a3.6,3.6,0,0,0,.966-2.275c.061-11.584.043-23.167.043-34.8C1003.816,468.8,986.693,499.516,1001.733,525.815ZM1079.72,516c-11.745,0-23.215-.016-34.685.034a3.633,3.633,0,0,0-2.349.794c-8.325,8.231-16.587,16.525-24.908,24.851C1040.1,556.121,1073.606,542.31,1079.72,516Zm-29.577-22.637h29.432c-2.178-12.98-16.055-26.9-29.432-29.5Z" transform="translate(-1584 -0.758)"/>
    <path id="Path_7" data-name="Path 7" d="M840,553.354h25.5v-4.131c0-22.622-.047-45.245.025-67.867.029-9.215,9.005-14.726,16.7-10.347,4.217,2.4,5.809,6.225,5.8,10.98q-.07,33.559-.021,67.118v4.206h25.5v-3.94c0-10.5-.023-21,.009-31.5.022-7.281,4.666-12.357,11.222-12.366s11.242,5.062,11.258,12.333q.051,22.872,0,45.744c-.018,7.782-4.586,12.394-12.322,12.4q-46.869.039-93.739,0c-7.79-.005-12.414-4.577-12.418-12.3q-.035-58.869,0-117.737c0-7.314,4.6-12.386,11.148-12.441,6.692-.057,11.333,5.067,11.337,12.632q.024,51.182.007,102.363Z" transform="translate(-1584 -0.758)"/>
  </g>
</svg>
