<svg id="Layer_1" data-name="Layer 1" xmlns="http://www.w3.org/2000/svg" viewBox="0 0 306.02 359.98"><title>digital-wallet</title><path d="M-206.82,32.8h70.15c5.86,0,7.84,2,7.84,7.89V116.8c2.11,0,3.94-.08,5.76,0,3.78.19,6.17,2.36,6.19,6.11q.13,23.81,0,47.61c0,3.92-2.43,6.07-6.46,6.23-1.71.07-3.43,0-5.49,0v40.39c0,5.62-2.09,7.66-7.74,7.66h-70.24v52.49c0,18.72-12.84,31.5-31.6,31.5h-153c-18.52,0-31.42-12.86-31.42-31.31V-19.81c0-18.5,12.86-31.37,31.34-31.38h153.33c18.47,0,31.27,12.88,31.31,31.41v48Zm-156.32-72h-28.58c-11.47,0-19.09,7.57-19.09,19v298c0,11.4,7.63,19,19.13,19H-238c11.67,0,19.12-7.55,19.14-19.31V228.38c0-1.09-.09-2.18-.16-3.57h-93.87c-19.26,0-31.95-12.68-32-31.91V58.68c0-16,10-25.86,26-25.87H-219c.06-1.08.13-1.8.13-2.51,0-17.13.08-34.25,0-51.37A17.82,17.82,0,0,0-236.41-39.2h-.5c-9.13-.1-18.25,0-27.37,0a16.82,16.82,0,0,0-2.55.35V-33c-.27,9.86-7.84,17.66-17.67,17.73q-30.37.21-60.74,0a17.37,17.37,0,0,1-16.95-13.8C-362.9-32.2-362.82-35.46-363.14-39.2ZM-141,80.8h-4.69q-80.24,0-160.48,0c-8.87,0-18,1.56-26.64-3.16V192.9c0,12.69,7.28,19.92,20.06,19.92h171.7V177.1a5,5,0,0,0-.94-.25c-9.5,0-19,0-28.5-.07-10.52-.1-18.19-7.76-18.3-18.26-.08-7.12,0-14.24,0-21.37,0-13.26,7.1-20.34,20.37-20.35H-141Zm0-36H-320.29c-5.61,0-9.9,2.92-11.73,7.71-3.15,8.29,2.89,16.29,12.36,16.29H-144.2c1.07,0,2.14-.14,3.2-.21Zm11.91,120v-36c-14.1,0-27.93-.06-41.77,0a5.66,5.66,0,0,0-5.91,5.39c0,.21,0,.41,0,.61q-.18,12,0,24a5.67,5.67,0,0,0,5.3,6h42.38ZM-350.82-39v5.24c.15,4.22,2.32,6.56,6.5,6.58q29.57.09,59.15,0c3.46,0,5.71-1.84,6.22-5.26a44.88,44.88,0,0,0,.06-6.56Z" transform="translate(422.83 51.19)" fill="#e61632"/><path d="M-254.63,177c-11.41-1.68-17.71-8-18.05-18H-261c.94,4.94,4.51,6.08,9.14,5.76,2.73-.18,5.49,0,8.24,0,4.13-.09,6.75-2.42,6.79-5.93s-2.57-6-6.66-6c-3.37-.08-6.75,0-10.12,0-10.52-.06-18.48-7-19.15-16.66-.68-10,6.13-17.81,16.83-19.34a8,8,0,0,0,1.09-.22V105H-243v11.57c5.84.57,11,2.35,14.13,7,2.08,3.08,3.23,6.8,5.1,10.9h-12.79c-1-4.94-4.52-6.08-9.15-5.77-2.86.2-5.75,0-8.62.06-3.85.13-6.37,2.51-6.41,5.91s2.47,5.91,6.28,6c3.49.11,7,0,10.49,0,10.54.05,18.48,7,19.15,16.65s-6,17.73-16.44,19.31l-1.47.22v11.61h-11.89Z" transform="translate(422.83 51.19)" fill="#e61632"/><path d="M-164.57,141h11.51v11.58h-11.51Z" transform="translate(422.83 51.19)" fill="#e61632"/><rect x="56.5" y="324" width="102.18" height="13.98" rx="5.28" fill="#e61632"/></svg>