<svg id="Layer_1" data-name="Layer 1" xmlns="http://www.w3.org/2000/svg" viewBox="0 0 360.12 360.02"><title>exchange</title><path d="M-505.92,273v37.1c0,5.9-2,7.9-7.84,7.9H-564c-5.92,0-7.91-2-7.92-7.81,0-7.62.12-15.25-.1-22.86a10.29,10.29,0,0,0-2-5.7c-16.36-21.13-32.91-42.12-49.24-63.29a13.14,13.14,0,0,1-2.61-7.43q-.23-64.26-.1-128.56c0-12.93,9-22.4,21.14-22.33S-584,69.59-584,82.35v67.84a7.57,7.57,0,0,0,2.46,5.86q36,35.85,71.9,71.75a11.39,11.39,0,0,1,3.76,8.9C-506,248.8-505.92,260.94-505.92,273Zm-54,32.79h42v-4.26c0-18-.45-36,.2-54,.3-8.08-2.16-13.59-8-19.09-15.14-14.34-29.66-29.34-44.38-44.13-3.21-3.22-6.81-5.15-11.42-4-8.66,2.18-11.2,12.25-4.66,18.89,11,11.22,22.23,22.31,33.4,33.4a16.69,16.69,0,0,0,3.15,2.05l-8.12,8.81c-13.18-12.85-26.74-25.1-39.09-38.46-9.69-10.48-5.61-27.46,7-34.23l4.16-2.23c-2-1.88-3.47-3.59-5.23-4.95-4.15-3.2-5.23-7.28-5.18-12.45.25-22.86.08-45.73.14-68.59,0-3.91-1-7.17-4.5-9.26-6.27-3.77-13.5.82-13.51,8.69q-.06,63.18.06,126.32a8.77,8.77,0,0,0,1.88,5c16.39,21.11,32.94,42.1,49.26,63.27a14.76,14.76,0,0,1,2.66,7.8c.42,7.11.18,14.21.18,21.45Z" transform="translate(626 41.96)" fill="#e61632"/><path d="M-265.92,146.11c0,21.61.09,43.23-.12,64.84a13.35,13.35,0,0,1-2.58,7.45q-24.27,31.44-48.91,62.59a10.42,10.42,0,0,0-2.45,7.13c.17,7.49.09,15,0,22.49,0,5.35-2.13,7.44-7.53,7.45h-51c-5.37,0-7.47-2.11-7.47-7.5q0-37.5-.06-75c0-3.2,1.36-5.37,3.48-7.49q36.1-36,72.15-72a7.5,7.5,0,0,0,2.47-5.86q-.12-34.67,0-69.34A20.76,20.76,0,0,1-292.28,60.8c9.09-2.35,18.79,1.26,23.16,9.49a27.39,27.39,0,0,1,3.06,12.1C-265.76,103.63-265.92,124.87-265.92,146.11Zm-66,159.87c0-7.39-.24-14.49.12-21.57a14.76,14.76,0,0,1,2.69-7.79c16.17-21,32.6-41.76,48.8-62.72a11.83,11.83,0,0,0,2.29-6.7c.14-41.13.1-82.25.1-123.38a29.15,29.15,0,0,0-.09-3.74,9,9,0,0,0-9-8,9,9,0,0,0-8.88,8,33.53,33.53,0,0,0-.08,3.75c0,22.62-.14,45.25.11,67.87,0,4.94-1.19,8.7-5,11.79a64.52,64.52,0,0,0-5.24,5.35c1.28.6,2.07,1,2.85,1.34,14.15,6.81,18,24.83,7.16,36.24-12,12.69-24.68,24.8-37.08,37.15-.15.15-.45.15-.79.24l-8.07-8.1c1-1,1.89-2,2.85-3l33.2-33.09c3.12-3.11,4.85-6.71,3.72-11.15-2.23-8.81-12.35-11.16-19.16-4.39q-25.41,25.26-50.6,50.7a7.63,7.63,0,0,0-1.81,4.89c-.12,20.88-.08,41.75-.08,62.62v3.65Z" transform="translate(626 41.96)" fill="#e61632"/><path d="M-385.92,18c0-6-.3-11.54.15-17,.18-2.16,1.53-5.12,3.24-6s5-.42,6.77.77c19.57,13.43,39,27.08,58.39,40.74,4.69,3.3,4.7,7.68,0,11q-29.1,20.49-58.3,40.87c-2.19,1.54-4.78,2.68-6.88.82a10.2,10.2,0,0,1-3.26-6.12c-.45-5.45-.15-11-.15-16.88h-59.76V54h64.12c5.6,0,7.59,2.06,7.64,7.72q0,4.89.12,9.75c0,.07.17.14.61.48l42.8-30L-374,11.55v9.58c0,7.2-1.66,8.89-8.74,8.89h-123.2c0,5.69-.06,11,0,16.37.05,3-.56,5.47-3.39,6.94s-5,.35-7.3-1.24Q-545.29,32-574,11.88c-5.28-3.7-5.33-8-.11-11.62Q-545.3-20-516.43-40.18c2.29-1.61,4.63-2.52,7.31-1s3.24,3.87,3.2,6.68c-.07,5.36,0,10.71,0,16.48h59.81V-6h-63.55c-6.39,0-8.24-1.87-8.26-8.24V-24.38L-561.43,6l43.51,30.48V25.91c0-5.89,2-7.86,7.87-7.87h124.13Z" transform="translate(626 41.96)" fill="#e61632"/><path d="M-385.92,174h-59.81V162h63.56c6.38,0,8.23,1.86,8.25,8.25V180.5L-330.4,150l-43.52-30.5V130.4c0,5.58-2.1,7.62-7.76,7.62H-505.92c0,5.37-.06,10.57,0,15.76.05,3-.22,5.8-3.18,7.45s-5.46.3-7.93-1.43Q-545.4,139.88-573.81,120c-5.63-3.94-5.6-8.06.1-12.06l57.09-40c2.26-1.59,4.55-2.67,7.29-1.27s3.46,4,3.41,6.93c-.08,5.34,0,10.69,0,16.3h59.75v11.9c-1.07.07-2.16.19-3.24.19h-60.37c-6.17,0-8.09-1.92-8.12-8V83.62L-561.41,114l43.51,30.46v-10c0-6.68,1.78-8.48,8.39-8.48H-385.9c0-5.71.06-11,0-16.39-.05-3,.56-5.47,3.4-6.94s5-.33,7.29,1.26q28.69,20.13,57.4,40.21c5.3,3.72,5.34,8,.12,11.63q-28.83,20.26-57.7,40.43c-2.3,1.61-5,2.9-7.19.88a10.88,10.88,0,0,1-3.16-6.57C-386.23,185.27-385.92,179.89-385.92,174Z" transform="translate(626 41.96)" fill="#e61632"/></svg>