<svg xmlns="http://www.w3.org/2000/svg" width="219.499" height="145.027" viewBox="0 0 219.499 145.027">
  <g id="Group_809" data-name="Group 809" transform="translate(-275 -3616)">
    <g id="Group_754" data-name="Group 754" transform="translate(0 155)">
      <g id="Group_753" data-name="Group 753" transform="translate(0 -4)">
        <g id="Group_746" data-name="Group 746" transform="translate(5 0.233)">
          <path id="Path_652" data-name="Path 652" d="M201.017,47.917c7.145-6.368,18.362-7.664,28.563-7.157,32.063,1.587,61,17.072,86.04,34.579,9.068,6.347,17.986,13.168,23.868,21.9,11.976,17.768,8.424,42.391-8.229,57.019-5.667,4.987-12.534,8.8-19.586,12.182-12.536,6.019-26.069,10.849-40.292,12.223-10.147.982-20.42.184-30.508-1.183-28.182-3.822-55.845-12.275-79.026-26.736-10.169-6.347-19.756-14.227-23.948-24.483S136.392,103,146.775,96.925c4.307-2.512,9.43-3.645,14.458-4.711,7.4-1.569,14.918-3.115,21.6-6.3,6.9-3.3,15.061-9.664,13.7-16.95C195.057,61.14,193.881,54.276,201.017,47.917Z" transform="translate(133.994 3430.695)" fill="#e61632" opacity="0.08"/>
          <g id="Group_745" data-name="Group 745" transform="translate(-7.705 -1.233)">
            <g id="Group_739" data-name="Group 739" transform="translate(329.691 3506.66)">
              <path id="Path_622" data-name="Path 622" d="M269.24,140.929h-.573V125.22a9.092,9.092,0,0,0-9.092-9.092H226.292a9.092,9.092,0,0,0-9.092,9.092V211.4a9.092,9.092,0,0,0,9.092,9.092h33.282a9.092,9.092,0,0,0,9.092-9.092V152.112h.573Z" transform="translate(-217.2 -116.128)" fill="#3f3d56"/>
              <path id="Path_623" data-name="Path 623" d="M270.459,128.411h-4.344a3.226,3.226,0,0,1-2.987,4.444H244.061a3.226,3.226,0,0,1-2.987-4.444h-4.058a6.79,6.79,0,0,0-6.79,6.79v86.056a6.79,6.79,0,0,0,6.79,6.79h33.442a6.79,6.79,0,0,0,6.79-6.79h0V135.2a6.79,6.79,0,0,0-6.79-6.79Z" transform="translate(-227.718 -126.045)" fill="#fff"/>
              <ellipse id="Ellipse_44" data-name="Ellipse 44" cx="16.263" cy="16.263" rx="16.263" ry="16.263" transform="translate(9.758 34.047)" fill="#e61632"/>
              <path id="Path_624" data-name="Path 624" d="M336.528,357.226l-4.044,4.166a.919.919,0,0,1-.674.272H331.8a.927.927,0,0,1-.676-.272l-4.042-4.166c-.013-.015-.029-.029-.042-.042a.894.894,0,0,1,.042-1.261,1,1,0,0,1,1.363,0l2.4,2.5V351.97a.967.967,0,0,1,1.932,0v6.455l2.394-2.5a1,1,0,0,1,1.365,0l.042.042A.9.9,0,0,1,336.528,357.226Z" transform="translate(-305.69 -305.805)" fill="#fff"/>
            </g>
            <g id="Group_738" data-name="Group 738" transform="translate(398.806 3466)">
              <ellipse id="Ellipse_29" data-name="Ellipse 29" cx="10.363" cy="10.363" rx="10.363" ry="10.363" transform="translate(12.02 0.671)" fill="#2f2e41"/>
              <path id="Path_641" data-name="Path 641" d="M511.319,566.795h-4.537l-2.159-17.5h6.7Z" transform="translate(-491.394 -426.408)" fill="#ffb8b8"/>
              <path id="Path_642" data-name="Path 642" d="M735.756,743.928h-14.63v-.185a5.694,5.694,0,0,1,5.695-5.695h8.936Z" transform="translate(-714.674 -599.143)" fill="#2f2e41"/>
              <path id="Path_643" data-name="Path 643" d="M585.421,557.741l-4.325,1.372-7.348-16.03,6.384-2.024Z" transform="translate(-534.935 -421.22)" fill="#ffb8b8"/>
              <path id="Path_644" data-name="Path 644" d="M822.388,732.448l-13.946,4.422-.056-.176a5.694,5.694,0,0,1,3.707-7.15h0l8.518-2.7Z" transform="translate(-769.472 -592.085)" fill="#2f2e41"/>
              <path id="Path_645" data-name="Path 645" d="M731.362,619.617h-3.881a1.664,1.664,0,0,1-1.639-1.372l-9.253-63.218,27.556.938,17.721,58.054a1.665,1.665,0,0,1-1.387,2.094l-5,1.9a1.656,1.656,0,0,1-1.718-.981l-21.672-49.1a.555.555,0,0,0-1.062.246l2,49.711a1.666,1.666,0,0,1-1.664,1.733Z" transform="translate(-711.816 -483.858)" fill="#2f2e41"/>
              <ellipse id="Ellipse_30" data-name="Ellipse 30" cx="9.09" cy="9.09" rx="9.09" ry="9.09" transform="translate(13.477 4.634)" fill="#ffb8b8"/>
              <path id="Path_646" data-name="Path 646" d="M732.1,484.921a30.631,30.631,0,0,1-16.42-4.98,1.671,1.671,0,0,1-.712-1.908l5.951-19.255-.074-15.668a11.926,11.926,0,0,1,9.233-10.54l.327-.073a11.631,11.631,0,0,1,10.464,2.876,12.006,12.006,0,0,1,3.758,10.4l-1.5,23.015,2.034,11.529a1.653,1.653,0,0,1-.871,1.766A27.15,27.15,0,0,1,732.1,484.921Z" transform="translate(-710.747 -406.505)" fill="#e61632"/>
              <path id="Path_647" data-name="Path 647" d="M718.347,480.475a3.894,3.894,0,0,0-.577-.208l-5.825-17.406,2.949-3.344-4.466-5.111-5.8,5.413a2.961,2.961,0,0,0-.622,3.5l9.412,18.64a3.885,3.885,0,1,0,4.924-1.483Z" transform="translate(-703.693 -420.477)" fill="#ffb8b8"/>
              <path id="Path_648" data-name="Path 648" d="M715.068,450.977l-5.5-6.361a1.666,1.666,0,0,1,.366-2.5l7.077-4.5a4.625,4.625,0,0,1,6.032,7.013l-5.45,6.338a1.666,1.666,0,0,1-2.522,0Z" transform="translate(-707.136 -409.201)" fill="#e61632"/>
              <path id="Path_649" data-name="Path 649" d="M731.385,367.769a6,6,0,0,0-1.852,1.6,1.839,1.839,0,0,0,.02,2.217c.649.711,1.824.662,2.82.552l10.126-1.116-3.986,2.813,9.584-.956c1.674-.167,3.6-.484,4.421-1.855.958-1.608-.261-3.6-1.718-4.847a14.931,14.931,0,0,0-10.527-3.41,14.628,14.628,0,0,0-9.893,4.778Z" transform="translate(-719.741 -362.733)" fill="#2f2e41"/>
              <path id="Path_22" data-name="Path 22" d="M745.244,499.385h-.112v-3.065a1.774,1.774,0,0,0-1.774-1.774h-6.494a1.774,1.774,0,0,0-1.774,1.774v16.814a1.774,1.774,0,0,0,1.774,1.774h6.494a1.774,1.774,0,0,0,1.774-1.774V501.567h.112Z" transform="translate(-723.471 -445.762)" fill="#3f3d56"/>
              <ellipse id="Ellipse_31" data-name="Ellipse 31" cx="1.48" cy="1.48" rx="1.48" ry="1.48" transform="translate(14.981 52.856)" fill="#fff"/>
              <path id="Path_650" data-name="Path 650" d="M744.777,489.2a3.89,3.89,0,0,1,.6.112l13.82-12.079-.856-4.376,6.436-2.154,2.268,7.6a2.961,2.961,0,0,1-1.231,3.333l-17.54,11.331a3.885,3.885,0,1,1-3.5-3.768Z" transform="translate(-726.884 -430.745)" fill="#ffb8b8"/>
              <path id="Path_651" data-name="Path 651" d="M784.523,460.632a1.663,1.663,0,0,1-.795-1.136l-1.5-8.223a4.625,4.625,0,0,1,8.749-3l3.835,7.458a1.666,1.666,0,0,1-.945,2.338l-7.964,2.709A1.664,1.664,0,0,1,784.523,460.632Z" transform="translate(-753.002 -414.643)" fill="#e61632"/>
            </g>
          </g>
        </g>
        <g id="Group_748" data-name="Group 748" transform="translate(2 -0.568)">
          <path id="Path_813" data-name="Path 813" d="M198.212,668.18l4.5,4.266-3.573-6.18a47.5,47.5,0,0,1,7.419-9.809s9.552,9.433,9.552,16.847-4.276,10-9.551,10S197,680.719,197,673.3A13.333,13.333,0,0,1,198.212,668.18Z" transform="translate(272.602 2926.743)" fill="#f2f2f2"/>
          <path id="Path_817" data-name="Path 817" d="M231.134,671.652v.365c.021,4.248.716,7.562,2.08,9.9.019.034.04.067.06.1l.153-.1.146-.094c-1.513-2.52-2.048-6.082-2.068-9.787,0-.119,0-.241,0-.362.005-1.568.1-3.155.247-4.7.011-.119.023-.241.035-.362.207-2.033.506-3.976.811-5.664.021-.119.044-.239.067-.356.528-2.855,1.067-4.922,1.19-5.38.014-.056.023-.087.025-.094l-.167-.049,0,0-.169-.049c0,.007-.032.11-.081.3-.188.716-.676,2.661-1.155,5.226-.021.116-.044.235-.065.355-.249,1.369-.493,2.9-.686,4.506q-.074.605-.132,1.194c-.014.121-.026.242-.037.362Q231.142,669.468,231.134,671.652Z" transform="translate(245.182 2927.778)" fill="#fff"/>
          <path id="Path_816" data-name="Path 816" d="M219.37,672.161c.118.016.237.032.358.044a9.662,9.662,0,0,0,.99.051,9.419,9.419,0,0,0,4.072-.92l.223.281a9.77,9.77,0,0,1-4.3.99,10.035,10.035,0,0,1-1.057-.056c-.119-.012-.239-.028-.356-.046a9.685,9.685,0,0,1-2.8-.848l.221-.284a9.386,9.386,0,0,0,2.644.788Z" transform="translate(258.116 2916.149)" fill="#fff"/>
          <path id="Path_815" data-name="Path 815" d="M214.808,684.915q.182.011.363.011c.037,0,.076,0,.112,0a9.469,9.469,0,0,0,7.773-4.06c.07.1.14.207.209.313a9.821,9.821,0,0,1-7.981,4.1c-.049,0-.1,0-.147,0-.123,0-.244-.005-.365-.011a9.769,9.769,0,0,1-5.2-1.826c.056-.1.112-.207.17-.311A9.4,9.4,0,0,0,214.808,684.915Z" transform="translate(261.795 2909.387)" fill="#fff"/>
          <path id="Path_814" data-name="Path 814" d="M211.174,695.37c.123.011.246.018.369.023s.263.009.395.009a9.5,9.5,0,0,0,9.1-6.832c.079.142.158.283.233.425a9.843,9.843,0,0,1-9.337,6.758c-.132,0-.263,0-.393-.009s-.247-.011-.37-.019a9.814,9.814,0,0,1-6.477-3.161c.037-.13.079-.258.121-.388A9.465,9.465,0,0,0,211.174,695.37Z" transform="translate(265.141 2903.955)" fill="#fff"/>
        </g>
      </g>
      <path id="Path_818" data-name="Path 818" d="M177,750.581h106.02a.278.278,0,0,0,0-.557H177a.278.278,0,0,0,0,.557Z" transform="translate(211.197 2855.447)" fill="#cacaca"/>
    </g>
  </g>
</svg>
