<svg xmlns="http://www.w3.org/2000/svg" width="219.497" height="151.438" viewBox="0 0 219.497 151.438">
  <g id="Group_809" data-name="Group 809" transform="translate(-841.058 -3610)">
    <g id="Group_751" data-name="Group 751" transform="translate(373.646 148.194)">
      <path id="Path_813" data-name="Path 813" d="M197.984,665.97l3.648,3.462-2.9-5.015a38.546,38.546,0,0,1,6.02-7.96s7.751,7.655,7.751,13.672-3.47,8.118-7.751,8.118-7.751-2.1-7.751-8.118A10.819,10.819,0,0,1,197.984,665.97Z" transform="translate(272.602 2926.668)" fill="#f2f2f2"/>
      <path id="Path_817" data-name="Path 817" d="M231.134,668.518v.3c.017,3.447.581,6.136,1.688,8.03.016.028.033.054.048.082l.124-.078.118-.076c-1.228-2.045-1.662-4.935-1.678-7.942,0-.1,0-.2,0-.294,0-1.273.08-2.56.2-3.811.009-.1.019-.2.028-.294.168-1.65.41-3.227.658-4.6.017-.1.036-.194.054-.289.429-2.317.866-3.994.966-4.366.011-.045.019-.07.02-.076l-.135-.04h0l-.137-.04c0,.006-.026.089-.066.245-.152.581-.548,2.159-.937,4.241-.017.094-.036.191-.053.288-.2,1.111-.4,2.353-.557,3.657q-.06.491-.107.969c-.011.1-.021.2-.03.294Q231.14,666.745,231.134,668.518Z" transform="translate(243.917 2927.778)" fill="#fff"/>
      <path id="Path_816" data-name="Path 816" d="M218.83,672.006c.1.013.192.026.291.036a7.83,7.83,0,0,0,.8.041,7.643,7.643,0,0,0,3.3-.746l.181.228a7.929,7.929,0,0,1-3.486.8,8.163,8.163,0,0,1-.858-.046c-.1-.01-.194-.023-.289-.037a7.86,7.86,0,0,1-2.272-.688l.179-.231a7.617,7.617,0,0,0,2.145.64Z" transform="translate(257.17 2915.266)" fill="#fff"/>
      <path id="Path_815" data-name="Path 815" d="M213.82,684.152q.147.009.295.009h.091a7.684,7.684,0,0,0,6.307-3.295c.057.084.114.168.169.254a7.97,7.97,0,0,1-6.477,3.326h-.12c-.1,0-.2,0-.3-.009a7.927,7.927,0,0,1-4.223-1.481c.046-.084.091-.168.138-.252A7.631,7.631,0,0,0,213.82,684.152Z" transform="translate(261.464 2907.982)" fill="#fff"/>
      <path id="Path_814" data-name="Path 814" d="M209.953,694.088c.1.009.2.014.3.018s.214.007.32.007a7.705,7.705,0,0,0,7.387-5.544c.064.115.128.229.189.345a7.988,7.988,0,0,1-7.576,5.484c-.107,0-.214,0-.319-.007s-.2-.009-.3-.016a7.964,7.964,0,0,1-5.256-2.565c.03-.105.064-.209.1-.315A7.68,7.68,0,0,0,209.953,694.088Z" transform="translate(265.097 2902.122)" fill="#fff"/>
    </g>
    <path id="Path_652" data-name="Path 652" d="M201.017,47.917c7.145-6.368,18.362-7.664,28.563-7.157,32.063,1.587,61,17.072,86.04,34.579,9.068,6.347,17.986,13.168,23.868,21.9,11.976,17.768,8.424,42.391-8.229,57.019-5.667,4.987-12.534,8.8-19.586,12.182-12.536,6.019-26.069,10.849-40.292,12.223-10.147.982-20.42.184-30.508-1.183-28.182-3.822-55.845-12.275-79.026-26.736-10.169-6.347-19.756-14.227-23.948-24.483S136.392,103,146.775,96.925c4.307-2.512,9.43-3.645,14.458-4.711,7.4-1.569,14.918-3.115,21.6-6.3,6.9-3.3,15.061-9.664,13.7-16.95C195.057,61.14,193.881,54.276,201.017,47.917Z" transform="translate(713.994 3582.339)" fill="#e61632" opacity="0.08"/>
    <g id="Group_750" data-name="Group 750" transform="translate(-1.072 103.789)">
      <path id="Path_797" data-name="Path 797" d="M403.382,514.561H421.3v-9.068H403.382Z" transform="translate(527.61 3074.753)" fill="#3f3d56"/>
      <path id="Path_798" data-name="Path 798" d="M396.533,491.153a2.546,2.546,0,0,0-2.667-2.852l-2.52-5.246-3.561.754,3.663,7.358a2.56,2.56,0,0,0,5.085-.014Z" transform="translate(538.201 3089.992)" fill="#ffb7b7"/>
      <path id="Path_799" data-name="Path 799" d="M105.767,495.66l2.964,1.517,7.261-10.711-4.375-2.239Z" transform="translate(774.26 3146.387)" fill="#ffb7b7"/>
      <path id="Path_800" data-name="Path 800" d="M239.579,693.879l5.837,2.987h0a4.179,4.179,0,0,1,1.816,5.624l-.062.121-9.557-4.891Z" transform="translate(640.188 2946.814)" fill="#2f2e41"/>
      <path id="Path_801" data-name="Path 801" d="M212.453,505.609h3.329l1.584-12.842h-4.914Z" transform="translate(701.809 3140.589)" fill="#ffb7b7"/>
      <path id="Path_802" data-name="Path 802" d="M348.591,707.645h6.557a4.179,4.179,0,0,1,4.179,4.178v.136H348.591Z" transform="translate(564.82 2937.466)" fill="#2f2e41"/>
      <path id="Path_803" data-name="Path 803" d="M297.236,383.831s-2.23-1.708-2.23,2.464l-.352,13.788,3.931,13.026,2.288-4.225-.939-9.153Z" transform="translate(601.451 3157.613)" fill="#e61632"/>
      <path id="Path_804" data-name="Path 804" d="M290.751,491.983s2.585,12.591-.689,22.924l-1.81,39.73-6.636-.517-2.327-29.474L277.049,510l-4.654,13.358-15.34,28.268-7.067-5.516s7.831-21.368,13.617-25.855l2.9-33.048Z" transform="translate(631.783 3087.175)" fill="#2f2e41"/>
      <ellipse id="Ellipse_56" data-name="Ellipse 56" cx="7.566" cy="7.567" rx="7.566" ry="7.567" transform="translate(907.104 3509.477)" fill="#ffb8b8"/>
      <path id="Path_805" data-name="Path 805" d="M334.9,287.195c.907.118,1.591-.81,1.909-1.668s.559-1.857,1.348-2.32c1.077-.633,2.456.128,3.688-.081a3.231,3.231,0,0,0,2.367-3.12,9.446,9.446,0,0,0-1.04-4.065l-.192,1.615a3.2,3.2,0,0,0-1.4-2.8l.248,2.37a2.515,2.515,0,0,0-2.894-2.081l.039,1.412a23.323,23.323,0,0,0-4.84-.237,6.991,6.991,0,0,0-6.727,8.33,20.818,20.818,0,0,0,2.256,6.862c.261.55.622,1.171,1.227,1.242a1.236,1.236,0,0,0,1.21-.912,3.306,3.306,0,0,0-.015-1.624,6.9,6.9,0,0,1-.2-2.457,2,2,0,0,1,1.55-1.718c.821-.1,1.66.838,1.266,1.565Z" transform="translate(579.237 3231.453)" fill="#2f2e41"/>
      <path id="Path_806" data-name="Path 806" d="M186.248,314.234,160.991,312.6l1.9-7.876,23.084,5.16Z" transform="translate(736.76 3268.291)" fill="#cbcbcb"/>
      <path id="Path_807" data-name="Path 807" d="M301.632,336.022l1.584-2.2a63.781,63.781,0,0,1,6.513,2.962l.335,2.061,8.231,50.629-14.962-.645-4.074-.087-1.333-2.989-1.644,2.925-3.979-.085-4.049-2.347,3.99-12.2,1.291-11.148-1.995-10.5a13.373,13.373,0,0,1,7.158-14.845Z" transform="translate(605.797 3191.34)" fill="#e61632"/>
      <path id="Path_808" data-name="Path 808" d="M255.787,316.962l.543,1.9,3.8-2.476-1.435-1.643Z" transform="translate(672.376 3261.489)" fill="#cbcbcb"/>
      <path id="Path_809" data-name="Path 809" d="M338.767,353.181s5.894-7.524,9.456.862l1.123,8.788s4.315,10.924,4.445,15.344c0,0,2.926,5.768,2.9,8.8l4.328,9.8-4.439,2.756L344.294,380.69Z" transform="translate(571.492 3180.301)" fill="#e61632"/>
    </g>
    <path id="Path_810" data-name="Path 810" d="M215.1,720.156H138.985a.2.2,0,1,1,0-.4H215.1a.2.2,0,1,1,0,.4Z" transform="translate(702.273 3033.352)" fill="#cbcbcb"/>
    <g id="Group_752" data-name="Group 752" transform="translate(13 125)">
      <path id="Path_811" data-name="Path 811" d="M597.358,241.105h91.907V182.038H597.358Z" transform="translate(352.311 3305.65)" fill="#fff"/>
      <path id="Path_812" data-name="Path 812" d="M686.987,238.827H593.563V178.243h93.423Zm-91.908-1.912H685.47V180.155H595.079Z" transform="translate(355.348 3308.687)" fill="#e5e5e5"/>
    </g>
    <rect id="Rectangle_1" data-name="Rectangle 1" width="75.605" height="0.585" transform="translate(971.32 3628.527)" fill="#ccc"/>
    <ellipse id="Ellipse_2" data-name="Ellipse 2" cx="1.973" cy="1.973" rx="1.973" ry="1.973" transform="translate(971.32 3620.93)" fill="#e61632"/>
    <rect id="Rectangle_2" data-name="Rectangle 2" width="75.605" height="0.585" transform="translate(971.32 3648.252)" fill="#ccc"/>
    <ellipse id="Ellipse_3" data-name="Ellipse 3" cx="1.973" cy="1.973" rx="1.973" ry="1.973" transform="translate(971.32 3640.654)" fill="#e61632"/>
    <path id="Path_827" data-name="Path 827" d="M608.147,647.455H588.408a1.287,1.287,0,0,1-1.286-1.286V639.25a1.287,1.287,0,0,1,1.286-1.286h19.739a1.287,1.287,0,0,1,1.286,1.286v6.918a1.287,1.287,0,0,1-1.286,1.286Z" transform="translate(437.492 3017.258)" fill="#e61632"/>
    <ellipse id="Ellipse_7" data-name="Ellipse 7" cx="1.973" cy="1.973" rx="1.973" ry="1.973" transform="translate(977.756 3620.93)" fill="#e61632"/>
    <ellipse id="Ellipse_8" data-name="Ellipse 8" cx="1.973" cy="1.973" rx="1.973" ry="1.973" transform="translate(984.189 3620.93)" fill="#e61632"/>
    <ellipse id="Ellipse_9" data-name="Ellipse 9" cx="1.973" cy="1.973" rx="1.973" ry="1.973" transform="translate(977.756 3640.654)" fill="#e61632"/>
    <ellipse id="Ellipse_10" data-name="Ellipse 10" cx="1.973" cy="1.973" rx="1.973" ry="1.973" transform="translate(984.189 3640.654)" fill="#e61632"/>
    <path id="Path_828" data-name="Path 828" d="M608.147,647.455H588.408a1.287,1.287,0,0,1-1.286-1.286V639.25a1.287,1.287,0,0,1,1.286-1.286h19.739a1.287,1.287,0,0,1,1.286,1.286v6.918a1.287,1.287,0,0,1-1.286,1.286Z" transform="translate(407.492 3017.258)" fill="#e61632"/>
  </g>
</svg>
