<svg xmlns="http://www.w3.org/2000/svg" width="224.389" height="160.703" viewBox="0 0 224.389 160.703">
  <g id="Group_810" data-name="Group 810" transform="translate(-1426 -3609.867)">
    <path id="Path_652" data-name="Path 652" d="M201.017,47.917c7.145-6.368,18.362-7.664,28.563-7.157,32.063,1.587,61,17.072,86.04,34.579,9.068,6.347,17.986,13.168,23.868,21.9,11.976,17.768,8.424,42.391-8.229,57.019-5.667,4.987-12.534,8.8-19.586,12.182-12.536,6.019-26.069,10.849-40.292,12.223-10.147.982-20.42.184-30.508-1.183-28.182-3.822-55.845-12.275-79.026-26.736-10.169-6.347-19.756-14.227-23.948-24.483S136.392,103,146.775,96.925c4.307-2.512,9.43-3.645,14.458-4.711,7.4-1.569,14.918-3.115,21.6-6.3,6.9-3.3,15.061-9.664,13.7-16.95C195.057,61.14,193.881,54.276,201.017,47.917Z" transform="translate(1289.994 3581.928)" fill="#e61632" opacity="0.08"/>
    <g id="Group_756" data-name="Group 756" transform="translate(13.44 155)">
      <g id="Group_748" data-name="Group 748" transform="translate(1618.852 3576.144)">
        <path id="Path_813" data-name="Path 813" d="M198.1,667.063l4.068,3.86-3.233-5.591a42.977,42.977,0,0,1,6.712-8.875s8.642,8.534,8.642,15.243-3.869,9.051-8.642,9.051S197,678.409,197,671.7A12.063,12.063,0,0,1,198.1,667.063Z" transform="translate(-214.034 -651.694)" fill="#f2f2f2"/>
        <path id="Path_817" data-name="Path 817" d="M231.134,672.925v.393c.023,4.573.771,8.141,2.239,10.653.021.037.043.072.064.109l.164-.1.157-.1c-1.629-2.713-2.205-6.548-2.226-10.536,0-.128,0-.259,0-.389.006-1.689.106-3.4.266-5.056.011-.129.025-.259.038-.389.223-2.189.544-4.281.873-6.1.023-.128.047-.257.072-.384.569-3.073,1.149-5.3,1.281-5.792.015-.06.025-.093.026-.1l-.18-.053,0,0-.181-.052c0,.008-.034.119-.087.325-.2.771-.728,2.865-1.243,5.626-.023.125-.047.253-.07.382-.268,1.474-.531,3.122-.739,4.851q-.079.651-.142,1.285c-.015.13-.028.261-.04.39Q231.143,670.574,231.134,672.925Z" transform="translate(-223.909 -655.024)" fill="#fff"/>
        <path id="Path_816" data-name="Path 816" d="M219.59,672.224c.127.017.255.034.386.047a10.393,10.393,0,0,0,1.066.055,10.14,10.14,0,0,0,4.384-.99l.24.3a10.517,10.517,0,0,1-4.624,1.066,10.8,10.8,0,0,1-1.138-.061c-.128-.013-.257-.03-.384-.049a10.426,10.426,0,0,1-3.014-.913l.238-.306a10.1,10.1,0,0,0,2.846.849Z" transform="translate(-211.105 -666.294)" fill="#fff"/>
        <path id="Path_815" data-name="Path 815" d="M215.21,685.225q.2.011.391.011c.04,0,.081,0,.121,0a10.194,10.194,0,0,0,8.368-4.371c.075.112.151.223.225.336a10.573,10.573,0,0,1-8.592,4.412c-.053,0-.106,0-.159,0-.132,0-.263-.006-.393-.011a10.516,10.516,0,0,1-5.6-1.965c.06-.112.121-.223.183-.335A10.124,10.124,0,0,0,215.21,685.225Z" transform="translate(-207.675 -672.844)" fill="#fff"/>
        <path id="Path_814" data-name="Path 814" d="M211.67,695.891c.132.011.265.019.4.025s.283.009.425.009a10.222,10.222,0,0,0,9.8-7.355c.085.153.17.3.251.457a10.6,10.6,0,0,1-10.051,7.275c-.142,0-.283,0-.423-.009s-.266-.011-.4-.021a10.566,10.566,0,0,1-6.973-3.4c.04-.14.085-.278.13-.418A10.189,10.189,0,0,0,211.67,695.891Z" transform="translate(-204.446 -678.102)" fill="#fff"/>
      </g>
      <path id="Path_818" data-name="Path 818" d="M177.129,750.6H330.494c.222,0,.4-.128.4-.286s-.18-.286-.4-.286H177.129c-.222,0-.4.128-.4.286S176.906,750.6,177.129,750.6Z" transform="translate(1303.832 2855.456)" fill="#cacaca"/>
      <g id="Group_755" data-name="Group 755" transform="translate(1486.084 3454.867)">
        <path id="Path_832" data-name="Path 832" d="M650.519,405l2.434,37.725s5.841,14.847,5.6,28.963c0,0-2.19,5.6-.487,6.572s2.677,1.7,1.7,2.434-1.7,2.434-.974,2.921.974,1.217.73,1.217h-7.3s1.46-3.651-.73-4.624-.974-3.407-.974-3.407l-16.307-47.7-12.9,43.81s2.191,1.46.487,2.19-2.434-.73-1.7.73a2.266,2.266,0,0,1-.243,2.434c0,.243-7.3-.73-7.3-.73s3.651-3.164,1.947-3.894-2.434-1.46-1.947-1.947a46.114,46.114,0,0,0,2.434-5.111s.974-17.524,1.217-18.254,0-4.138,0-5.841-.243-8.519.487-10.222,1.46-22.635,5.354-25.069S650.519,405,650.519,405Z" transform="translate(-600.38 -338.241)" fill="#2f2e41"/>
        <path id="Path_833" data-name="Path 833" d="M582.227,699.3s4.868,9.979,1.46,11.2-7.788.243-8.762,1.7-11.683,3.164-11.926-.487,11.682-10.466,11.682-10.466l1.554-2.5Z" transform="translate(-562.996 -560.495)" fill="#2f2e41"/>
        <path id="Path_834" data-name="Path 834" d="M744.227,729.3s4.868,9.979,1.46,11.2-7.788.243-8.762,1.7-11.683,3.164-11.926-.487,11.683-10.466,11.683-10.466l1.554-2.5Z" transform="translate(-685.568 -583.193)" fill="#2f2e41"/>
        <ellipse id="Ellipse_57" data-name="Ellipse 57" cx="8.032" cy="8.032" rx="8.032" ry="8.032" transform="translate(28.114 4.816)" fill="#ffb8b8"/>
        <path id="Path_835" data-name="Path 835" d="M531.233,112.025l-.974,7.058-7.3,5.6L521.011,122v-9.249Z" transform="translate(-489.609 -94.918)" fill="#ffb8b8"/>
        <path id="Path_836" data-name="Path 836" d="M657.5,231.968s7.545.73,11.439-1.947l7.788,46s-27.5,2.191-28.72.73v-14.36l4.868-23.365Z" transform="translate(-627.32 -205.855)" fill="#fff"/>
        <path id="Path_837" data-name="Path 837" d="M709.035,220.985l2.617,2.2s10.709,1.7,9.979,4.624L718.71,262.37l.974,11.683s-8.275-2.19-14.6,0-1.3-47.072-1.3-47.072S709.582,221.706,709.035,220.985Z" transform="translate(-668.083 -199.019)" fill="#e61632"/>
        <path id="Path_838" data-name="Path 838" d="M651.911,231.931s-7.788,5.62-8.762,9.271-4.138,42.107-4.138,42.107,1.46-.73,2.19.487S653.128,233.856,651.911,231.931Z" transform="translate(-620.511 -207.3)" fill="#e61632"/>
        <path id="Path_839" data-name="Path 839" d="M676.626,143.231a3.839,3.839,0,0,1-.535-2.709,8.214,8.214,0,0,0,.234-2.441,24.144,24.144,0,0,1,1.4-3.545c.7-1.271.368-1.806,2.575-2.207s1.3-3.277,7.123-.167a1.706,1.706,0,0,0,1.772.669c1.2-.234,1.639,1.438,1.639,1.438s.8-.468,1.1.2,2.447-.4,2.447,4.113a18.693,18.693,0,0,1-2.442,8.548s.179-7.594-3.8-8.363-8.26-3.01-9.3-.134A21.922,21.922,0,0,1,676.626,143.231Z" transform="translate(-648.507 -130.733)" fill="#2f2e41"/>
        <ellipse id="Ellipse_58" data-name="Ellipse 58" cx="0.785" cy="1.047" rx="0.785" ry="1.047" transform="translate(42.742 12.211)" fill="#a0616a"/>
        <path id="Path_840" data-name="Path 840" d="M590.351,491.249a8.76,8.76,0,0,0-5.131-.981,7.564,7.564,0,0,0,8.4,5.055A8.767,8.767,0,0,0,590.351,491.249Z" transform="translate(-579.811 -402.725)" fill="#e67f8d"/>
        <path id="Path_841" data-name="Path 841" d="M597.646,588.87H585.609a2.708,2.708,0,0,0,0,5.417h12.037a2.708,2.708,0,0,0,0-5.417Z" transform="translate(-578.056 -477.364)" fill="#e67f8d"/>
        <path id="Path_842" data-name="Path 842" d="M639.057,471.412H571.569a5.978,5.978,0,0,0-5.978,5.978v32.882a5.978,5.978,0,0,0,5.978,5.978h67.487a5.978,5.978,0,0,0,5.978-5.978V477.39a5.978,5.978,0,0,0-5.978-5.978ZM569.9,475.49a8.25,8.25,0,0,1,9.574,5.76l.106.328-.34.06a9.007,9.007,0,0,1-1.464.107,8.72,8.72,0,0,1-4.446-1.12,9.444,9.444,0,0,1-3.663-4.747l-.106-.328Zm14.65,30.528H572.512a3.31,3.31,0,0,1,0-6.62h12.037a3.31,3.31,0,0,1,0,6.62Zm54.768-.6a3.622,3.622,0,0,1-3.611,3.611h-9.028a3.622,3.622,0,0,1-3.611-3.611V500a3.622,3.622,0,0,1,3.611-3.611h9.028A3.622,3.622,0,0,1,639.317,500Z" transform="translate(-564.959 -388.494)" fill="#e67f8d"/>
        <path id="Path_843" data-name="Path 843" d="M812.891,606.8h-3.912a1.053,1.053,0,0,0,0,2.106h3.912a1.053,1.053,0,1,0,0-2.106Zm0,1.5h-3.912a.451.451,0,1,1,0-.9h3.912a.451.451,0,0,1,0,.9Z" transform="translate(-748.312 -490.928)" fill="#e67f8d"/>
        <path id="Path_844" data-name="Path 844" d="M842.564,606.8h-3.912a1.053,1.053,0,1,0,0,2.106h3.912a1.053,1.053,0,1,0,0-2.106Zm0,1.5h-3.912a.451.451,0,1,1,0-.9h3.912a.451.451,0,1,1,0,.9Z" transform="translate(-770.763 -490.928)" fill="#e67f8d"/>
        <path id="Path_845" data-name="Path 845" d="M812.891,595.67h-3.912a1.053,1.053,0,0,0,0,2.106h3.912a1.053,1.053,0,1,0,0-2.106Zm0,1.5h-3.912a.451.451,0,0,1,0-.9h3.912a.451.451,0,0,1,0,.9Z" transform="translate(-748.312 -482.509)" fill="#e67f8d"/>
        <path id="Path_846" data-name="Path 846" d="M842.564,595.67h-3.912a1.053,1.053,0,1,0,0,2.106h3.912a1.053,1.053,0,1,0,0-2.106Zm0,1.5h-3.912a.451.451,0,0,1,0-.9h3.912a.451.451,0,0,1,0,.9Z" transform="translate(-770.763 -482.509)" fill="#e67f8d"/>
        <path id="Path_847" data-name="Path 847" d="M812.891,584.542h-3.912a1.053,1.053,0,0,0,0,2.106h3.912a1.053,1.053,0,1,0,0-2.106Zm0,1.5h-3.912a.451.451,0,0,1,0-.9h3.912a.451.451,0,0,1,0,.9Z" transform="translate(-748.312 -474.089)" fill="#e67f8d"/>
        <path id="Path_848" data-name="Path 848" d="M842.564,584.542h-3.912a1.053,1.053,0,0,0,0,2.106h3.912a1.053,1.053,0,0,0,0-2.106Zm0,1.5h-3.912a.451.451,0,0,1,0-.9h3.912a.451.451,0,0,1,0,.9Z" transform="translate(-770.763 -474.089)" fill="#e67f8d"/>
        <path id="Path_849" data-name="Path 849" d="M748.149,435.725l-1.745,5.693s-.446,10.614-6.287,9.154,1.7-13.873,1.7-13.873l1.7-2.677Z" transform="translate(-695.331 -360.204)" fill="#ffb8b8"/>
        <path id="Path_850" data-name="Path 850" d="M612.149,435.725l-1.745,5.693s-.446,10.614-6.287,9.154,1.7-13.873,1.7-13.873l1.7-2.677Z" transform="translate(-592.432 -360.204)" fill="#ffb8b8"/>
        <path id="Path_851" data-name="Path 851" d="M759.122,241.863s3.894-.974,5.111,5.6,2.677,25.313,2.677,25.313l-5.841,19.715s-5.841-3.164-7.058-2.677l4.6-17.115-3.867-17.446S758.149,241.863,759.122,241.863Z" transform="translate(-707.521 -214.776)" fill="#e61632"/>
        <path id="Path_852" data-name="Path 852" d="M580.747,209.393l5.111,17.037-5.111,17.281,2.921-17.281Z" transform="translate(-534.806 -168.587)" opacity="0.15"/>
        <path id="Path_853" data-name="Path 853" d="M628.773,297.021l-8.762,34.561s4.622,1.525,6.326,2.742Z" transform="translate(-606.132 -256.548)" fill="#e61632"/>
      </g>
    </g>
  </g>
</svg>
