<svg id="Group_161" data-name="Group 161" xmlns="http://www.w3.org/2000/svg" xmlns:xlink="http://www.w3.org/1999/xlink" width="228.474" height="228.474" viewBox="0 0 228.474 228.474">
  <defs>
    <linearGradient id="linear-gradient" x2="1" gradientUnits="objectBoundingBox">
      <stop offset="0" stop-color="#8f5e25"/>
      <stop offset="0.5" stop-color="#fbf4a1"/>
      <stop offset="1" stop-color="#8f5e25"/>
    </linearGradient>
  </defs>
  <path id="Path_495" data-name="Path 495" d="M114.237,228.474A114.237,114.237,0,1,1,228.474,114.237,114.237,114.237,0,0,1,114.237,228.474Zm0-223.45A109.213,109.213,0,1,0,223.45,114.237,109.213,109.213,0,0,0,114.237,5.024Z" transform="translate(0 0)" fill="url(#linear-gradient)"/>
  <path id="Path_496" data-name="Path 496" d="M22.845,288.59l-3.53-.642a19.366,19.366,0,0,1-5.134-1.6,24.465,24.465,0,0,0-2.727-1.444,2.505,2.505,0,0,1-1.283-1.283,2.886,2.886,0,0,0-1.283-1.444,8.5,8.5,0,0,1-1.6-.963l-.321-.481.963.161a5.763,5.763,0,0,0-1.765-1.6c-2.086-1.444-6.9-8.5-7.219-9.947a2.5,2.5,0,0,0-.481-1.444,4.652,4.652,0,0,1-1.123-2.246c-.321-1.283-.8-2.567-.963-3.048l-1.6-9.145a83.763,83.763,0,0,1-.963-8.824l.16-1.925c.321-1.6.8-2.727,1.123-2.727.963-.321,1.765-2.406,1.765-3.69a1.2,1.2,0,0,0-.16-.8,1.1,1.1,0,0,0-.8-.481l-.321.16.481.963c0,.16,0,.16-.321.16a1.066,1.066,0,0,1-.8-.642c0-.8.481-4.171.8-4.171.16,0,.16-.321.16-.481v-1.284a13.027,13.027,0,0,1,.8-4.171l.481-2.567A34.911,34.911,0,0,1-1.7,218.641l.963-3.048c0-1.123,2.406-7.54,2.727-7.861l.321-.16c.321,0,.481.321.481.642a1.226,1.226,0,0,1-.321.8,3.234,3.234,0,0,0-.481,1.765c.16.481.16.642.321.642l.481-.321a6.2,6.2,0,0,0,.642-2.727c0-.642-.16-1.283-.481-1.283a.734.734,0,0,1-.642-.8v-.16a10.154,10.154,0,0,1,1.123-3.53,13.254,13.254,0,0,0,1.283-2.888,14.484,14.484,0,0,1,1.444-3.369,2.974,2.974,0,0,0,.321-1.123.64.64,0,0,1,.321-.642,12.693,12.693,0,0,0,1.283-2.086c.481-1.123,1.123-1.925,1.444-1.925l.16-.16v-.321c0-1.123,1.925-5.776,2.888-7.059.321-.321.481-.481.642-.481s.16.16.16.321a16.517,16.517,0,0,1-1.283,4.492,41.443,41.443,0,0,1-2.567,4.011l-1.765,4.011a6.405,6.405,0,0,1-1.123,2.888.86.86,0,0,0-.481.642.425.425,0,0,0,.481.481,4.447,4.447,0,0,0,1.283-1.925A5.656,5.656,0,0,1,9.85,194.9c.481-.161.642-.481.642-.642v-.642a9.914,9.914,0,0,1,1.444-4.492A19.166,19.166,0,0,0,13.7,184.95v-.963a.69.69,0,0,1,.642-.642c.321,0,1.123-.963,1.6-2.086l2.086-3.53,4.171-5.936a9.778,9.778,0,0,0,1.123-1.925c0-.8,8.5-10.749,11.23-13.155a32.812,32.812,0,0,0,3.209-3.048c.321-.321.642-.642.963-.642a8.051,8.051,0,0,0,1.283-.963,19.884,19.884,0,0,1,4.492-3.53c.481-.16.8-.481.8-.642l-.16-.16a2.975,2.975,0,0,0-1.123.321,7.667,7.667,0,0,1-3.69,1.6l-.321-.16a7.973,7.973,0,0,1,1.925-1.6c1.123-.642,2.086-1.6,2.086-1.925v-.16c0-.161.16-.161.321-.161h.8a.882.882,0,0,0,.8-.481c.642-1.6,4.653-2.727,8.342-2.727a24.04,24.04,0,0,1,3.53.321,12.394,12.394,0,0,1,3.85,1.925c2.086,1.444,5.455,5.134,5.455,6.1v.321c0,.642,1.6,3.369,3.209,5.455,1.444,1.765,2.888,6.1,2.888,9.145v1.284a4.674,4.674,0,0,1-1.6,3.85,3.063,3.063,0,0,1-1.765,1.444l-.16-.16.16-.642-.481.321-.642.321a3.952,3.952,0,0,0-1.6,1.283c-2.567,2.727-5.615,5.134-6.578,5.134-.481,0-.642,0-.642-.321l.321-.642c0-.16,0-.16-.321-.16h-.963c-.321,0-.642-.16-.642-.481,0-.642.642-1.765,1.765-3.69a29.378,29.378,0,0,0,2.246-4.171,4.727,4.727,0,0,1,.8-2.086,4.76,4.76,0,0,0,.642-1.765.425.425,0,0,0-.481-.481l-.8.321v-.16l.481-1.123q0-.241-.481-.481c-.16-.16-.321-.321-.321-.481l.321-.642a4.447,4.447,0,0,0,.8-1.925c0-1.123-.8-1.765-2.406-1.765-1.444,0-7.059,1.444-9.947,2.567-2.086.8-8.022,4.492-8.5,5.294a6.932,6.932,0,0,1-1.6,1.6,5.893,5.893,0,0,0-1.6,2.246c0,.642-.321,1.123-.8,1.123-.963,0-3.048,2.086-3.048,3.048l.16.321-.321.16h-.16c-.481,0-.8.8-1.123,1.925a.9.9,0,0,1-.963.8c-.642,0-.8.321-.8.963v.321a.425.425,0,0,1-.481.481c-.321,0-.481-.16-.481-.321v-.481l-.321.321-.321.481c0,.161.16.161.321.321.321.16.321.321.321.481a1.037,1.037,0,0,1-.321.8.882.882,0,0,1-.8.481h-.321l-.481.16v.16a.345.345,0,0,0,.321.321l.16.161-.321.642a4.694,4.694,0,0,1-2.567,1.444H26.7c-.321,0-.321.16-.321.321a2.44,2.44,0,0,0,.642.963l.321.321v.16l-1.6-.321.642.481c.321.321.642.642.642.8h-.16c-.8,0-3.048,2.727-3.048,3.529v.481a1.319,1.319,0,0,1-.642.963,4.606,4.606,0,0,0-1.925,3.53v.321a.425.425,0,0,1-.481.481.588.588,0,0,0-.642.642c0,.321,0,.642-.16.642-.321,0-.642.963-.963,2.086s-.642,1.925-.8,1.925a2.873,2.873,0,0,0-1.123.8l-.321.321.481-.16c.16,0,.16.16.16.321a1.39,1.39,0,0,1-.642,1.123.882.882,0,0,0-.481.8v.642a3.826,3.826,0,0,1-.642,1.925,9.516,9.516,0,0,0-.8,2.246.345.345,0,0,1-.321.321l-.8-.321-.16.16.16.8a4.684,4.684,0,0,1-.321,1.444c-1.123,1.6-1.283,1.925-1.283,2.567,0,1.444-.963,4.492-1.283,4.492-.16,0-.321.321-.321.642v.16c0,1.123-1.123,4.011-1.6,4.011-.321,0-1.123,4.171-1.123,4.973v.16a30.725,30.725,0,0,1-1.444,5.455,9.841,9.841,0,0,0-.481,2.567v.321c0,.16,0,.321-.16.321s-.321.481-.321.8a26.608,26.608,0,0,1-.642,4.653l-.642,4.492-.321,1.6a13.891,13.891,0,0,0-.481,4.332c0,5.455,1.123,13.637,2.406,15.722,1.123,1.6,4.492,3.209,7.7,3.53,1.444.16,2.727.481,2.727.8,0,.161,0,.161.16.161l.16-.161a1.685,1.685,0,0,1,1.444-.8c.16,0,.321,0,.321.16l.16.16.642-.321a1.636,1.636,0,0,1,1.283-.8l.481.16c0,.161-.16.161-.321.321s-.321.321-.321.481H20.6c.321,0,.642-.16.642-.481v-.16c0-.161.16-.321.481-.321H22.2c1.444,0,4.973-1.123,4.973-1.765,0-.16.321-.321.8-.321A1.834,1.834,0,0,0,29.1,269.5c.321-.642,3.53-2.567,6.257-3.53a9.789,9.789,0,0,0,3.53-2.407,19.868,19.868,0,0,1,4.171-3.209c1.6-.963,2.888-2.086,2.888-2.407,0-.16,0-.321.16-.321h.16c.481,0,4.973-3.369,6.738-5.134.321-.16,1.765-1.444,3.209-2.727a29.4,29.4,0,0,0,3.048-2.888c0-.321.642-.642,1.123-.642l.642-.16v-.16c0-.321.481-.642,1.123-1.123s1.283-.8,1.283-1.123a.734.734,0,0,1,.8-.642c.321-.16,1.444-1.283,2.567-2.246a7.333,7.333,0,0,1,2.406-2.086.588.588,0,0,0,.642-.642v-.16c0-.481.481-.963,1.123-1.283a2.692,2.692,0,0,0,1.123-1.444c0-.16.16-.481.642-.481.321,0,2.086-1.6,3.69-3.529,1.925-1.925,3.048-3.048,3.369-3.048l.481.16q.241,0,.481-.963c.321-.8.8-1.284,1.123-1.284h.16l.16-.321v-.321a.345.345,0,0,1,.321-.321h.16a.425.425,0,0,1,.481.481l.16.642.481-1.123a.834.834,0,0,0-.321-.642c-.16-.16-.321-.321-.321-.481l.321-.481,2.727-2.888c1.283-1.765,2.406-2.406,3.209-2.406s1.6-.642,2.567-1.925,1.765-1.925,2.407-1.925c.16,0,.321.16.321.642v.16c-.16.481-.321.8-.481.8a.345.345,0,0,0-.321.321l.16,1.123c0,.321-.16.481-.321.481-.321,0-.481.16-.481.321,0,.321-.16.321-.481.321l-.321-.161-.321.321v.161c0,.16.16.321.481.321.481,0,.8.16.8.321,0,.321-.16.481-.321.481s-.481.481-.481.963v.321c0,.16,0,.321.16.321.321,0,.963-.642,1.765-1.925A3.812,3.812,0,0,1,96,218.16l.16.16-.642.963c-.642.481-.963.963-.963,1.283l.321.963-.16.321a3.613,3.613,0,0,0-1.123.16,2.157,2.157,0,0,1-1.444-.321l-.481-.16a1.466,1.466,0,0,0-.8.481l-.481.481.321.16c.321,0,.321,0,.321.16l-.321.963c0,.16.16.16.481.16l.481.16-.16.16H91.19a2.28,2.28,0,0,1-.963-.321l-.642-.321-.642.321c0,.16.16.481.642.642.321.321.481.481.481.642l-.16.321h-.16c-.16,0-.321,0-.321-.16l-.16-.16c-.16,0-.321,0-.481.321l-.642.8c0,.16.16.16.321.16h.321a1.465,1.465,0,0,1,.8.481v.481l-.481-.16c-.16,0-.321.321-.481.642a.859.859,0,0,1-.8.8c-.481,0-.642-.16-.642-.481q0-.241.481-.481l.16-.16h-.481c-.481.16-.8.321-.8.8v.642h-.321c-.321,0-.321.16-.481.321v.16a.7.7,0,0,0,.481.16,1.319,1.319,0,0,1,.963.642v.321a.345.345,0,0,1-.321.321.741.741,0,0,1-.8-.481c0-.16-.16-.321-.481-.321-.16,0-.16.16-.16.321l.321,1.283-.16-.16a.97.97,0,0,0-.963-.481,2.217,2.217,0,0,0-1.444.8c-.481.481-.642.642-.642.8s.321.16.963.16,1.283.161,1.283.481c0,.16-.16.321-.481.321a3.594,3.594,0,0,0-1.6,1.123c-.481.481-.642.642-.8.642l.642-.642.321-.963c0-.16,0-.16-.16-.16-.642,0-1.123.963-1.283,2.086a1.92,1.92,0,0,1-.8,1.283,3.479,3.479,0,0,0-1.123.963h-.16l-.16-.321c0-.481-.16-.8-.481-.8s-.642.481-1.123,1.283-1.123,1.444-1.444,1.444-.481,0-.481.161l.16.481c0,.321-.481.8-.963,1.123-1.283.642-2.086,1.444-2.086,1.925h.16a2.28,2.28,0,0,0,.963-.321l.963-.481c.16,0,.16,0,.16.16,0,.642-2.086,1.765-3.85,1.925a.7.7,0,0,0-.481.16v.321c0,.16-.321.321-.642.481s-.642.321-.642.481l.321.321a.589.589,0,0,0,.481.16,1.466,1.466,0,0,0,.8-.481,1.466,1.466,0,0,1,.8-.481,5.238,5.238,0,0,1-1.283,1.765c-.8.642-1.123.962-1.123,1.283s.16.481.481.642l.481.321c.321,0,.8-.321,1.444-1.123a7.093,7.093,0,0,1,1.444-1.284c.16,0,.8-.642,3.048-2.727a2.962,2.962,0,0,1,1.444-1.123v.16c0,.642-.8,1.925-1.283,1.925a1.719,1.719,0,0,0-1.283.963,9.152,9.152,0,0,1-1.765,1.765l-1.925,1.765c-2.567,2.567-3.53,3.53-3.85,3.53s-.481.161-.481.321v.16a.345.345,0,0,1-.321.321c-.16,0-.321-.16-.321-.481v-.321c0-.642,0-.963-.321-.963a.345.345,0,0,1-.321-.321v-.321c0-.16,0-.16-.16-.16h-.16l-.321.321v.321c0,.642-.8,1.925-1.444,1.925-.481,0-.8.161-.8.481,0,.161-.321.321-.642.321l-2.086-.321-.321.161.16.481-.321.963c0,.16.16.16.481.16s.642-.16.642-.481.321-.481.642-.481a1.667,1.667,0,0,1,1.283.642.345.345,0,0,0,.321.321l.481-.481A2.43,2.43,0,0,1,65.36,254.9a.157.157,0,0,1,.16.16c0,.8-1.925,2.727-2.888,3.048h-.481c-.481,0-.642-.16-.642-.321s.16-.321.481-.481l.321-.16-.321-.161c-.642,0-2.888,2.086-2.888,2.727l.321.16a4.258,4.258,0,0,0,2.246-.8l.321-.321-.16.8a3.426,3.426,0,0,1-1.925,1.284l-.963.16q-.963,0-.963-.481c0-.161,0-.321.321-.481l.321-.321h-.16a3.629,3.629,0,0,0-1.6.8,3.582,3.582,0,0,1-2.086.963c-.642,0-1.123,0-1.123.321l.8.8.642.481c.321,0,.481-.16.642-.481a1.639,1.639,0,0,1,1.123-.642c.16,0,.16,0,.16.16l-.321.16a2.919,2.919,0,0,0-.642,1.765c-.16.8-.481,1.444-.8,1.444s-.642.321-.8.8a4.916,4.916,0,0,1-1.925,2.086l-.16-.161c0-.321-.321-.481-.642-.481-.16,0-.16.16-.16.642v.481c.321.8.642,1.283.8,1.283a1.721,1.721,0,0,1,.963.321l.481.161.321-.161a.589.589,0,0,0,.16-.481q0-.481-.963-.481c-.321,0-.642,0-.642-.16l.321-.481a5.237,5.237,0,0,1,2.246-1.444l-.16.481.321.16a.425.425,0,0,0,.481-.481,2.731,2.731,0,0,0-.16-1.123,1.04,1.04,0,0,1,.8-.963.345.345,0,0,1,.321.321c.16.321.321.481.642.481a.345.345,0,0,0,.321-.321v-.161a2.769,2.769,0,0,1,2.086-2.086,1.66,1.66,0,0,0,1.123-.8,1.624,1.624,0,0,1,1.123-.642,1.351,1.351,0,0,0,1.123-1.123,1.519,1.519,0,0,1,1.283-1.123c.481,0,.8,0,.8.161l-.481.642a3.811,3.811,0,0,0-.481,1.925v.321c0,.321-.16.642-.321.642a7,7,0,0,0-2.246,1.765c-.963.8-1.765,1.444-2.246,1.444l-.642-.16-.16.16.321.8c0,.16-.16.321-.642.481-.321.16-.481.321-.481.642v.321c0,.321-.8.642-1.6.642l-.963-.16c-.481,0-.642.321-.642.963a1.361,1.361,0,0,1-1.283,1.123.819.819,0,0,1-.8-.642v-.161c-.16,0-.16.161-.321.481a1.319,1.319,0,0,1-.963.642,1.319,1.319,0,0,0-.963.642v.16l.16.16.642-.16h.8c0,.321-.8.963-2.246,2.086-2.086,1.444-2.888,1.925-6.257,4.011a4.623,4.623,0,0,1-1.765.642c-.16,0-.16,0-.16-.16v-.481c0-.16,0-.16-.16-.16-.321,0-.481.321-.481.642v.963c0,.963-.481,1.444-2.246,1.765a5.109,5.109,0,0,0-2.086.642c-.321.642-4.011,2.086-4.813,2.086h-.321c-.321,0-.321.161-.321.642v.642l-.321.161-1.6-.321c0,.16,0,.16.321.321l.321.321-.16.16-.963-.16a7.865,7.865,0,0,1-2.086-.481c-.16,0-.321.161-.321.481v.481c0,.481-.321.642-.963.642l-.963-.16.481-.321c.321-.161.481-.161.481-.321l-.642-.16a3.023,3.023,0,0,0-1.283.321,1.111,1.111,0,0,0-.642.481c0,.16,0,.16.16.16a.345.345,0,0,1,.321.321v.16c-.16.161-.321.321-.481.321Zm17.006-134.6a2.389,2.389,0,0,0,1.444-.642l.321-.642a2.876,2.876,0,0,0-1.283.642l-.8.481c0,.16.16.16.321.16ZM29.1,160.244l-.16-.16a5.79,5.79,0,0,1,1.444-1.925c2.086-2.246,3.69-3.53,4.011-3.53a.157.157,0,0,1,.16.16,3.979,3.979,0,0,1-1.283,1.444c-.642.642-1.765,1.765-2.406,2.567a3.3,3.3,0,0,1-1.765,1.444Zm8.984-4.011a.716.716,0,0,0,.642-.481q-.241-.481-.481-.481c-.321,0-.642.16-.642.481v.16C37.605,156.072,37.766,156.233,38.087,156.233Zm-1.925,1.283c.321,0,.642-.16.642-.481v-.16c0-.16,0-.321-.16-.321a.716.716,0,0,0-.642.481v.16C36,157.356,36,157.516,36.161,157.516Zm-18.45,17.969c-.16,0-.321-.16-.321-.481a4.431,4.431,0,0,1,1.283-2.086l2.086-3.369a3.889,3.889,0,0,1,1.283-1.444c.321,0,.481,0,.481-.16v-.16c0-.963,1.765-3.53,2.406-3.53.321,0,.642-.321.8-.8a6.06,6.06,0,0,1,2.567-2.727l.321.16v.16a3.931,3.931,0,0,1-1.925,2.086,1.434,1.434,0,0,0-.642,1.283c0,.481-.16.8-.8.8H24.129l.16.16c.321.16.642.481.642.642,0,.481-1.283,2.407-2.888,4.332L19.958,173.4c-.8,1.283-1.6,2.086-2.246,2.086ZM31.99,164.736l1.765-1.6,1.123-1.444-.16-.16c-.481,0-1.6,1.123-2.406,2.406Zm-3.209,1.123.481-.16a.86.86,0,0,0,.481-.642c0-.16,0-.16-.16-.16H29.1c-.321.16-.642.481-.642.642A.345.345,0,0,0,28.781,165.859Zm1.925.481.16-.321-.321-.321h-.16v.321l.16.321h.16Zm5.455,1.444q.241,0,.481-.481c0-.16,0-.481-.16-.481,0,0-.321.321-.321.481l-.16.321ZM24.45,174.522l.481-.481a2.942,2.942,0,0,0,1.123-1.6l.16-.642-.481.481L24.61,173.72Zm5.294,1.284.481-.481c0-.16,0-.481-.321-.481a.512.512,0,0,0-.481.481C29.584,175.645,29.584,175.806,29.744,175.806Zm-8.5.321.321-.16.321-.642-.16-.321-.321.16-.321.642Zm1.6.16c.321,0,.481-.16.642-.481l-.16-.321-.321.16-.642.481C22.364,176.287,22.525,176.287,22.845,176.287Zm-5.936.481c-.321,0-.481-.16-.481-.321v-.16a.86.86,0,0,1,.642-.481.425.425,0,0,1,.481.481C17.551,176.447,17.391,176.768,16.909,176.768Zm3.53,1.765a2.659,2.659,0,0,0,1.6-.481l-.16-.321a3.132,3.132,0,0,0-1.123.16q-1.444.241-1.444.481c0,.16.321.16,1.123.16ZM15.305,180.3c-.481,0-.8-.161-.8-.481a1.741,1.741,0,0,1,1.283-1.283.157.157,0,0,1,.16.16.589.589,0,0,1,.16.481C16.107,179.656,15.786,180.3,15.305,180.3Zm5.134-.481q.241,0,.481-.481l.16-.321-.16-.16c-.16,0-.321.321-.481.481Zm-6.257,1.6a.345.345,0,0,1-.321-.321c0-.16.16-.321.642-.321.321,0,.642,0,.642.161Zm9.466,3.69a.425.425,0,0,0,.481-.481v-.16a.425.425,0,0,0-.481-.481l-.321.16c-.16.16-.321.321-.321.481v.16A.641.641,0,0,0,23.648,185.111Zm-2.406,3.369.642-.642.481-1.123v-.16H22.2c-.481,0-1.123.8-1.123,1.444v.16C21.081,188.319,21.081,188.48,21.241,188.48Zm-4.973-1.123.16-.481-.16-.16a.157.157,0,0,0-.16-.16c-.16,0-.16.16-.16.481Zm1.925,6.738.481-.963.16-.8c-.16,0-.321.321-.642.8l-.16.642Zm-2.727,2.246c.321,0,.481-.321.642-.8l.16-.642-.16-.16c-.16,0-.321.16-.642.642l-.16.642ZM5.2,203.4c.16,0,.481-.642.8-1.283l.321-1.283-.16-.321H6c-.16,0-.16.16-.321.321a5.948,5.948,0,0,0-.642,2.246Zm7.54-.321.321-.8c0-.321,0-.642-.321-.642-.16,0-.321.321-.321.642C12.417,202.758,12.578,203.079,12.738,203.079Zm1.6,0c.16,0,.321-.321.321-.8a.716.716,0,0,0-.481-.642c-.321,0-.481.321-.481.642C13.861,202.758,14.022,203.079,14.343,203.079Zm-5.936.321.321-.321v-.16a.345.345,0,0,0-.321-.321c-.16,0-.321.16-.321.481A.345.345,0,0,0,8.407,203.4Zm2.888,2.246c.16,0,.321-.16.642-.642l.321-.481a.589.589,0,0,0-.481.16c-.321.16-.642.321-.642.481v.16C11.134,205.486,11.134,205.646,11.294,205.646Zm-7.38,1.283.321-.642v-.481c-.16,0-.16,0-.16.16-.16.16-.321.321-.321.481v.16C3.754,206.93,3.754,206.93,3.914,206.93Zm4.973,3.69c.16,0,.481-.321.642-.8.321-.321.321-.481.321-.481-.16,0-.321.16-.481.321l-.642.8C8.727,210.62,8.727,210.62,8.888,210.62Zm-7.219,2.246.481-.481c0-.321,0-.481-.321-.481a.425.425,0,0,0-.481.481Zm90,2.567c-.16,0-.16-.161-.16-.321v-.481c.16,0,.16,0,.16.16l.16.321ZM7.765,216.876a.425.425,0,0,0,.481-.481c0-.321-.16-.481-.321-.481a.593.593,0,0,0-.321.481v.16C7.6,216.716,7.6,216.876,7.765,216.876Zm82.3.8a.425.425,0,0,1-.481-.481v-.16h.321q.481.241.481.481C90.388,217.679,90.227,217.679,90.067,217.679ZM.545,219.443V218.8a.716.716,0,0,0-.481-.642.345.345,0,0,0-.321.321l.16.321C.224,219.283.385,219.443.545,219.443Zm6.578,1.283c.16,0,.321-.321.642-1.283l.321-.8-1.444,1.123.16.642Zm-6.738-.321-.321-.481a2.137,2.137,0,0,0-.8-.481l-.16.16c0,.16,0,.16.321.321Zm86.955.963a1.886,1.886,0,0,0,.963-.8l.321-.642-.16-.16c-.16,0-.481.16-.963.642l-.321.8C87.179,221.369,87.179,221.369,87.339,221.369Zm5.776,2.086c-.321,0-.321-.16-.321-.321q.241-.481.481-.481a.7.7,0,0,1,.16.481v.161ZM-1.7,225.379c.321,0,.481-.321.642-.8l.16-.642-.16-.321s-.16,0-.481.321a2.038,2.038,0,0,0-.642,1.123C-2.182,225.219-2.022,225.379-1.7,225.379Zm89.2-.963a.512.512,0,0,0,.481-.481l.16-.16H87.66c-.481.16-.642.321-.642.481S87.179,224.417,87.5,224.417Zm-82.944,1.6.16-.321-.16-.321H4.4c-.16,0-.16.161-.16.321l.16.321Zm80.858,1.123.321-.481v-.321c0-.16,0-.16-.16-.16a.425.425,0,0,0-.481.481c0,.16.16.481.321.481Zm5.134,0-.321-.16v-.16a.157.157,0,0,1,.16-.16c.16,0,.321,0,.321.16l.16.16C90.869,227.144,90.709,227.144,90.548,227.144Zm-89.682.321-.16-.16c0-.16-.16-.16-.321-.16a.157.157,0,0,0-.16.16v.16H.866Zm-3.85,2.086a1.685,1.685,0,0,0,1.444-.8l.321-.8c0-.321-.321-.481-.8-.481a.425.425,0,0,0-.481.481v.321c0,.321-.16.642-.321.642a.425.425,0,0,0-.481.481C-3.305,229.551-3.145,229.551-2.984,229.551Zm6.257-.642a1.765,1.765,0,0,0,.963-.481l.321-.321c0-.161-.16-.161-.481-.161-.481,0-.963.321-.963.481l-.16.321Zm84.869.8H87.5v-.16a.157.157,0,0,1,.16-.16c.16,0,.321,0,.321.16Zm-85.511.481.321-.16v-.161H2.31v.161ZM87.339,233.4c-.16,0-.16-.16-.16-.321v-.16c0-.321.321-.481.642-.481.16,0,.16,0,.16.16v.321C87.821,233.08,87.66,233.4,87.339,233.4Zm-85.35.321.16-.321-.16-.321c0-.16,0-.16-.16-.16v.481Zm-2.888.321v-.16l-.16-.321c0-.16,0-.16-.16-.16v.321l.16.321Zm78.452.8a.589.589,0,0,0,.481-.161l.321-.642v-.16h-.321a.69.69,0,0,0-.642.642v.16A.157.157,0,0,0,77.553,234.845Zm8.663-.161-.321-.16v-.16l.321-.161.321.161v.16Zm-6.9,1.6c.16-.16.321-.321.321-.481v-.321c0-.161-.16-.321-.481-.321-.16,0-.321.321-.321.642s.16.481.321.481Zm-5.615-.321c.16,0,.321-.16.481-.321,0-.321,0-.481-.321-.481a.425.425,0,0,0-.481.481C73.542,235.807,73.542,235.968,73.7,235.968Zm1.765.8.642-.16a.86.86,0,0,0,.481-.642v-.16h-.16a.589.589,0,0,0-.481.16A1.466,1.466,0,0,0,75.467,236.77Zm-73.639.16.481-.16c0-.16-.321-.321-.481-.481l-.321-.16-.16.321a.512.512,0,0,0,.481.481Zm-6.9,1.925h-.16c-.16,0-.16-.16-.321-.321a2.974,2.974,0,0,1,.321-1.123c.16-.321.16-.481.321-.481a3.265,3.265,0,0,1,.16.8v.321A1.226,1.226,0,0,1-5.07,238.856Zm84.388,2.888v-.321c0-.321.642-.963,1.444-1.6.963-.642,1.283-.963,1.444-.963l-.321.963c-.481.481-1.123,1.123-1.444,1.123a.97.97,0,0,0-.963.481C79.478,241.583,79.478,241.743,79.318,241.743Zm-6.578-1.765.642-.321v-.16a.345.345,0,0,0-.321-.321.86.86,0,0,0-.642.481C72.419,239.818,72.419,239.979,72.74,239.979Zm3.85.963a.7.7,0,0,1-.16-.481c0-.16.16-.481.321-.481a.345.345,0,0,1,.321.321v.16Q76.831,240.941,76.59,240.941Zm-2.246.481.321-.16-.16-.16c0-.16-.16-.16-.321-.16a.157.157,0,0,0-.16.16v.16Zm-4.492,1.283.481-.642c.321-.321.321-.481.321-.481h-.481c-.321.16-.642.481-.642.642,0,.321.16.481.321.481Zm7.7,0a.86.86,0,0,1-.642-.481l-.16-.321.321.16c.16.16.481.321.481.481Zm.642.321.16-.481c0-.321.16-.481.321-.481h.16v.16l-.321.642Zm2.567.16-.321-.16v-.16l.321-.16.321.16v.16Zm-12.674,1.283c.16,0,.321,0,.321-.16l-.16-.16-.321-.161-.16.321Zm12.353.8a.157.157,0,0,1-.16-.16c0-.16.321-.321.8-.642l.642-.321-.16.481A1.39,1.39,0,0,1,80.441,245.273Zm-17.166,0,.642-.16a1.066,1.066,0,0,0,.642-.8l-.321-.16-.481.321a1.466,1.466,0,0,0-.481.8Zm9.305.16c-.16,0-.16-.16-.16-.321v-.16a.594.594,0,0,1,.321-.481c.16,0,.321.16.321.481A.512.512,0,0,1,72.58,245.433Zm1.6,0-.321-.481a.425.425,0,0,1,.481-.481c.321,0,.321.16.321.481Zm-7.219.321a.345.345,0,0,0,.321-.321c0-.321-.16-.481-.321-.481l-.321.642Zm3.209,11.23-.642-.321a.833.833,0,0,1-.321-.642,3.678,3.678,0,0,1,1.925-2.406,1.344,1.344,0,0,0,.963-1.284v-.481h.321a4.88,4.88,0,0,0,1.765-.963,66.217,66.217,0,0,1,6.1-5.134c0,.481-3.209,3.69-3.53,3.69l-.16.16.16.642a2.061,2.061,0,0,1-1.6,1.6l-.642-.16.321.642c0,.481-.963,1.284-1.6,1.284l-.642-.161v.321c0,.481-.963,1.6-1.6,1.6a1.192,1.192,0,0,0-.963.963v.16l.321.321Zm-2.567-6.738.16-.16-.16-.481-.481-.642c-.16,0-.16.321-.16.642C67.125,249.926,67.285,250.246,67.606,250.246Zm-1.123,2.086.8-.16,1.123-.963c0-.321-.321-.481-.8-.481a1.946,1.946,0,0,0-.8.16ZM63.6,253.776a.734.734,0,0,0,.642-.8v-.321a.589.589,0,0,0-.481.161c-.321.16-.642.481-.642.642S63.275,253.776,63.6,253.776Zm-1.123,0c.16,0,.16-.16.16-.321a.425.425,0,0,0-.481-.481l-.321.16.16.321Zm3.209.321c-.16,0-.16-.16-.321-.321,0-.16,0-.321.16-.321a.157.157,0,0,1,.16.161l.16.16Zm-9.947,5.294c.8,0,1.6-.16,1.6-.321l-.642-.481-.321-.16c0-.16.16-.16.481-.321l1.6-1.283.481-.642c0-.16-.16-.16-.481-.16s-.963.642-1.444,1.123a2.693,2.693,0,0,1-1.444,1.123,1.319,1.319,0,0,0-.963.642l-.16.16c0,.161.481.321,1.283.321Zm3.85-1.6a.7.7,0,0,0,.481-.16v-.16l-.16-.321a.589.589,0,0,0-.481.16l-.642.321C58.782,257.787,59.1,257.787,59.585,257.787Zm6.578,1.925c-.16,0-.16-.16-.16-.321l.16-.642c.16-.481.481-.8.8-.8h.321l-.16.16a.882.882,0,0,0-.481.8v.16c0,.321-.16.642-.481.642Zm-.481,2.246a.723.723,0,0,1-.481-.481v-.321h.321l.642.481C66.162,261.8,66,261.958,65.681,261.958Zm-14.439.8q.241,0,.481-.481v-.16l-.321-.161-.321.161v.16a.7.7,0,0,0,.16.481Zm6.1.963c-.16,0-.321-.16-.321-.481v-.16q0-.241.481-.481h.321c.16,0,.16.16.16.481C57.82,263.4,57.659,263.723,57.339,263.723Zm-4.332.321c.321,0,.321-.321.321-.8-.16-.321-.321-.642-.481-.642l-.321.642C52.526,263.723,52.686,264.044,53.007,264.044Zm-2.888.962-.481-.8H50.6c.8,0,1.123-.321,1.123-.642l-.321-.321-.321.321-.481.321c-.16,0-.16-.16-.321-.481l-.321-.481a1.466,1.466,0,0,0-.8.481l-.481.642q0,.24.481.481Zm4.653-.962-.16-.161c0-.16-.16-.16-.321-.16a.157.157,0,0,0-.16.16v.161Zm-6.738,1.6.16-.321-.16-.321a.86.86,0,0,0-.642-.481l-.16.321v.321c.321.321.481.481.642.481Zm-.481,3.209c.16,0,.321,0,.321-.16a2.1,2.1,0,0,1,1.283-.963c1.765-.963,2.727-1.6,2.727-2.086a.345.345,0,0,0-.321-.321H51.4A4.362,4.362,0,0,0,49,266.771a3.952,3.952,0,0,1-1.6,1.283.345.345,0,0,0-.321.321l.16.321Zm-5.134.161,1.444-.963a3.388,3.388,0,0,1,1.6-.642h.481a1.143,1.143,0,0,0,.963-.481l.16-.321a.345.345,0,0,0-.321-.321c-.321,0-.481.321-.481.642v.161h-.16l-.16-.321a.86.86,0,0,1,.481-.642l.481-.481c0-.16,0-.16-.16-.16-.481,0-4.171,2.567-4.332,3.209l-.16.321h.16Zm8.663.321a.965.965,0,0,0-.16-.642h-.16l-.16.321c.16.16.16.321.321.321h.16Zm-12.835,5.936q.241,0,.481-.481a4.842,4.842,0,0,1,1.283-1.284,8.466,8.466,0,0,1,1.925-.481,3.379,3.379,0,0,0,2.086-.8,2.433,2.433,0,0,1,1.283-.642l.8.16v-.16l-.642-.481c-.321-.321-.642-.481-.642-.642s.321-.321.642-.642l.642-.642-.8.321c-.642.321-1.123.8-1.123.962s-.321.321-.642.321a2.551,2.551,0,0,0-1.444.963,2.925,2.925,0,0,1-1.765.8c-.321,0-.642.16-.642.481,0,.16-.321.481-.8.642a.9.9,0,0,0-.8.963Zm12.193-4.011a3.918,3.918,0,0,1-.16-1.123c-.16-.642-.321-.8-.642-.8l-.321.16-.642.481.8.642C49.959,270.942,50.279,271.263,50.44,271.263Zm-16.525,9.305c.321,0,.481,0,.481-.321s.321-.481.8-.481a10,10,0,0,0,4.813-2.567c.16-.481.481-.642.642-.642s.481.16.481.642a1.04,1.04,0,0,0,.963.8l.481.16c.16,0,.16-.16.16-.321l-.16-.8a.882.882,0,0,1,.481-.8,2.134,2.134,0,0,0,.481-1.283.588.588,0,0,1,.642-.642c1.444,0,3.85-.963,3.85-1.6a.425.425,0,0,1,.481-.481h.642c.321,0,.481-.16.481-.321-.16-.321-.321-.481-.642-.481l-.8.16-.481-.321-.16-.321c0-.16.16-.16.321-.16h.321v-.16a.589.589,0,0,0-.481-.161.9.9,0,0,0-.963.8v.321c0,.16-.16.321-.642.481a2.444,2.444,0,0,0-1.6.963c-.321.481-.8.962-1.123.962a.86.86,0,0,0-.642.481,5.27,5.27,0,0,1-2.406,1.284c-1.123.321-1.925.8-1.925,1.123s-.481.8-1.283,1.123a8.709,8.709,0,0,0-2.406,1.444,3.045,3.045,0,0,1-1.444.481l-.642-.16.16.321a1.733,1.733,0,0,0,1.123.481Zm3.85-8.5a1.459,1.459,0,0,0,1.283-.642l.16-.481-.16-.16c-.321,0-.642.321-1.283.642l-.481.481C37.284,272.065,37.445,272.065,37.766,272.065Zm-1.283.963.321-.16v-.16l-.321-.16-.321.16v.16Zm3.369,1.925a.965.965,0,0,0,.642-.16c.642-.321,1.123-.8,1.123-.963s-.16-.161-.321-.161c-.481.161-1.444.642-1.6,1.123v.16h.16Zm-7.54-.16.321-.16v-.16H31.99v.16Zm4.011,1.444a.716.716,0,0,0,.642-.481.512.512,0,0,0-.481-.481c-.321,0-.481.161-.642.481v.16C35.841,276.076,36,276.236,36.322,276.236Zm1.283.8c.16,0,.321-.16.321-.481a.345.345,0,0,0-.321-.321l-.321.321v.16A.345.345,0,0,0,37.605,277.039ZM32.151,278.8l.16-.321a1.226,1.226,0,0,1,.8-.321l.8.161.16-.161-.16-.321a1.92,1.92,0,0,0-1.283-.8h-.321l-.16,1.284v.481Zm11.712-.8a.512.512,0,0,0,.481-.481c0-.321-.16-.481-.321-.481a.594.594,0,0,0-.321.481v.16C43.7,277.841,43.7,278,43.862,278Zm-6.738,2.567-.16-.321h-.481v.16c0,.16.16.16.321.16Zm-6.1,1.283c.642-.16,1.123-.321,1.123-.481v-.16a.425.425,0,0,0-.481-.481l-1.283.161c-.481.16-.642.321-.642.481C29.744,281.691,30.225,281.852,31.028,281.852Zm-3.53.16c.321,0,.481,0,.481-.16l-.16-.16-.321-.16-.321.16v.16Zm7.7.8a.882.882,0,0,0,.8-.481v-.16c0-.161,0-.161-.16-.161l-.8.161-.642-.481c-.16,0-.16.16-.16.321a1.017,1.017,0,0,0,.963.8Zm-11.712,2.567.321-.16c.321-.161.642-.321.642-.481a1.948,1.948,0,0,0-.8-.16c-.321,0-.481.16-.481.321v.16a.345.345,0,0,0,.321.321Zm4.171,2.086h-.321c-.16,0-.321,0-.321-.16,0-.321.16-.481.642-.481l.642.161C28.3,287.146,27.979,287.306,27.658,287.467Z" transform="translate(69.069 -101.493)" fill="#ed1717"/>
</svg>
