<svg xmlns="http://www.w3.org/2000/svg" width="40" height="40" viewBox="0 0 40 40"><g transform="translate(-1236 -803)"><g transform="translate(1236.5 804)"><path d="M19.35,2.1a.9.9,0,0,1,.553.19l14.85,11.55a.9.9,0,0,1,.347.71V32.7a4.2,4.2,0,0,1-4.2,4.2H7.8a4.2,4.2,0,0,1-4.2-4.2V14.55a.9.9,0,0,1,.347-.71L18.8,2.29A.9.9,0,0,1,19.35,2.1ZM33.3,14.99,19.35,4.14,5.4,14.99V32.7a2.4,2.4,0,0,0,2.4,2.4H30.9a2.4,2.4,0,0,0,2.4-2.4Z" transform="translate(0 0)" fill="#e61632"/><path d="M23.4,35.4a.9.9,0,0,1-.9-.9V18.9H14.4V34.5a.9.9,0,1,1-1.8,0V18a.9.9,0,0,1,.9-.9h9.9a.9.9,0,0,1,.9.9V34.5A.9.9,0,0,1,23.4,35.4Z" transform="translate(0.9 1.5)" fill="#e61632"/></g><rect width="40" height="40" transform="translate(1236 803)" fill="none"/></g></svg>