<svg xmlns="http://www.w3.org/2000/svg" xmlns:xlink="http://www.w3.org/1999/xlink" width="827.172" height="735.64" viewBox="0 0 827.172 735.64">
  <defs>
    <linearGradient id="linear-gradient" x1="5.081" y1="-0.552" x2="6.003" y2="-0.552" gradientUnits="objectBoundingBox">
      <stop offset="0" stop-color="#a737d5"/>
      <stop offset="1" stop-color="#ef497a"/>
    </linearGradient>
    <linearGradient id="linear-gradient-2" x1="-3.587" y1="-2.105" x2="-1.077" y2="-2.105" gradientUnits="objectBoundingBox">
      <stop offset="0" stop-color="#a737d5"/>
      <stop offset="1" stop-color="#f34f7f"/>
    </linearGradient>
    <linearGradient id="linear-gradient-3" x1="-10.578" y1="-21.763" x2="-9.61" y2="-21.763" gradientUnits="objectBoundingBox">
      <stop offset="0" stop-color="#363636"/>
      <stop offset="1" stop-color="#434343"/>
    </linearGradient>
    <linearGradient id="linear-gradient-4" x1="-7.496" y1="-30.984" x2="-6.496" y2="-30.984" xlink:href="#linear-gradient-3"/>
    <linearGradient id="linear-gradient-5" x1="-4.749" y1="-1.081" x2="-3.272" y2="-0.522" gradientUnits="objectBoundingBox">
      <stop offset="0" stop-color="#232323"/>
      <stop offset="1" stop-color="#363636"/>
    </linearGradient>
    <linearGradient id="linear-gradient-6" x1="-5.835" y1="1.781" x2="-5.244" y2="0.722" gradientUnits="objectBoundingBox">
      <stop offset="0" stop-color="#e61632"/>
      <stop offset="1" stop-color="#ff5067"/>
    </linearGradient>
    <linearGradient id="linear-gradient-7" x1="-3.152" y1="1.167" x2="-2.499" y2="-0.062" gradientUnits="objectBoundingBox">
      <stop offset="0" stop-color="#311944"/>
      <stop offset="1" stop-color="#893976"/>
    </linearGradient>
    <linearGradient id="linear-gradient-8" x1="-2.912" y1="1.247" x2="-2.347" y2="0.051" xlink:href="#linear-gradient-6"/>
    <linearGradient id="linear-gradient-9" x1="-8.913" y1="1.453" x2="-8.219" y2="0.667" gradientUnits="objectBoundingBox">
      <stop offset="0" stop-color="#444b8c"/>
      <stop offset="1" stop-color="#26264f"/>
    </linearGradient>
    <linearGradient id="linear-gradient-10" x1="-76.133" y1="38.9" x2="-75.946" y2="34.768" gradientUnits="objectBoundingBox">
      <stop offset="0" stop-color="#ffc444"/>
      <stop offset="1" stop-color="#f36f56"/>
    </linearGradient>
    <linearGradient id="linear-gradient-11" x1="-3.628" y1="1.413" x2="-2.95" y2="-0.512" xlink:href="#linear-gradient-7"/>
    <linearGradient id="linear-gradient-12" x1="-1.96" y1="1.405" x2="-1.498" y2="0.232" xlink:href="#linear-gradient-6"/>
    <linearGradient id="linear-gradient-13" x1="1.338" y1="0.497" x2="2.368" y2="0.497" xlink:href="#linear-gradient-9"/>
    <linearGradient id="linear-gradient-14" x1="-1.111" y1="2.848" x2="-0.709" y2="1.591" gradientUnits="objectBoundingBox">
      <stop offset="0" stop-color="#aa80f9"/>
      <stop offset="1" stop-color="#6165d7"/>
    </linearGradient>
    <linearGradient id="linear-gradient-15" x1="-10.022" y1="18.276" x2="-6.744" y2="5.412" xlink:href="#linear-gradient-14"/>
    <linearGradient id="linear-gradient-16" x1="-10.863" y1="20.021" x2="-7.989" y2="3.76" xlink:href="#linear-gradient-14"/>
    <linearGradient id="linear-gradient-17" x1="-6.966" y1="32.464" x2="-4.083" y2="16.039" xlink:href="#linear-gradient-14"/>
    <linearGradient id="linear-gradient-18" x1="-11.247" y1="24.472" x2="-7.99" y2="11.667" xlink:href="#linear-gradient-14"/>
    <linearGradient id="linear-gradient-19" x1="-5.27" y1="6.957" x2="-4.961" y2="6.136" xlink:href="#linear-gradient-14"/>
    <linearGradient id="linear-gradient-20" x1="-1.449" y1="2.83" x2="-0.472" y2="2.83" xlink:href="#linear-gradient-14"/>
    <linearGradient id="linear-gradient-21" x1="-3.144" y1="2.681" x2="-4.348" y2="2.775" xlink:href="#linear-gradient-7"/>
    <linearGradient id="linear-gradient-22" x1="-4.202" y1="2.759" x2="-2.512" y2="2.705" gradientUnits="objectBoundingBox">
      <stop offset="0" stop-color="#e38ddd"/>
      <stop offset="1" stop-color="#9571f6"/>
    </linearGradient>
    <linearGradient id="linear-gradient-23" x1="-29.684" y1="18.154" x2="-26.23" y2="16.112" gradientUnits="objectBoundingBox">
      <stop offset="0" stop-color="#f57e53"/>
      <stop offset="0" stop-color="#f68252"/>
      <stop offset="0.04" stop-color="#f99a4d"/>
      <stop offset="0.08" stop-color="#fcad49"/>
      <stop offset="0.13" stop-color="#feba46"/>
      <stop offset="0.2" stop-color="#ffc244"/>
      <stop offset="0.32" stop-color="#ffc444"/>
      <stop offset="0.45" stop-color="#fdb946"/>
      <stop offset="0.69" stop-color="#f99c4c"/>
      <stop offset="1" stop-color="#f36f56"/>
    </linearGradient>
    <linearGradient id="linear-gradient-24" x1="-32.455" y1="19.273" x2="-31.59" y2="19.273" gradientUnits="objectBoundingBox">
      <stop offset="0" stop-color="#ff9085"/>
      <stop offset="1" stop-color="#fb6fbb"/>
    </linearGradient>
    <linearGradient id="linear-gradient-25" x1="-98.301" y1="25.787" x2="-95.932" y2="25.787" xlink:href="#linear-gradient-24"/>
    <linearGradient id="linear-gradient-26" x1="-99.06" y1="25.411" x2="-96.686" y2="25.411" xlink:href="#linear-gradient-24"/>
    <linearGradient id="linear-gradient-27" x1="-99.822" y1="25.035" x2="-97.443" y2="25.035" xlink:href="#linear-gradient-24"/>
    <linearGradient id="linear-gradient-28" x1="-44.591" y1="30.87" x2="-43.91" y2="30.87" xlink:href="#linear-gradient-24"/>
    <linearGradient id="linear-gradient-29" x1="-7.203" y1="2.89" x2="-4.625" y2="2.827" gradientUnits="objectBoundingBox">
      <stop offset="0" stop-color="#fb6fbb"/>
      <stop offset="1" stop-color="#ff9085"/>
    </linearGradient>
    <linearGradient id="linear-gradient-30" x1="-36.195" y1="9.472" x2="-34.407" y2="9.472" xlink:href="#linear-gradient-29"/>
    <linearGradient id="linear-gradient-31" x1="-28.654" y1="8.649" x2="-26.725" y2="8.649" gradientUnits="objectBoundingBox">
      <stop offset="0" stop-color="#ff5067"/>
      <stop offset="1" stop-color="#e61632"/>
    </linearGradient>
    <linearGradient id="linear-gradient-32" x1="-21.812" y1="23.339" x2="-20.771" y2="23.339" xlink:href="#linear-gradient-31"/>
    <linearGradient id="linear-gradient-33" x1="0.329" y1="0.266" x2="-0.255" y2="0.083" gradientUnits="objectBoundingBox">
      <stop offset="0" stop-color="#fcb148"/>
      <stop offset="0.05" stop-color="#fdba46"/>
      <stop offset="0.14" stop-color="#ffc244"/>
      <stop offset="0.32" stop-color="#ffc444"/>
      <stop offset="0.48" stop-color="#fdb946"/>
      <stop offset="0.78" stop-color="#f99c4d"/>
      <stop offset="0.87" stop-color="#f8924f"/>
      <stop offset="1" stop-color="#f8924f"/>
    </linearGradient>
    <linearGradient id="linear-gradient-34" x1="0.727" y1="0.859" x2="0.207" y2="-0.269" gradientUnits="objectBoundingBox">
      <stop offset="0" stop-color="#ffdb44"/>
      <stop offset="1" stop-color="#feef06"/>
    </linearGradient>
    <linearGradient id="linear-gradient-35" x1="0.636" y1="-0.372" x2="0.531" y2="0.193" xlink:href="#linear-gradient-33"/>
    <linearGradient id="linear-gradient-36" x1="0.409" y1="0.544" x2="0.858" y2="-0.392" xlink:href="#linear-gradient-33"/>
    <linearGradient id="linear-gradient-37" x1="0.464" y1="0.482" x2="1.215" y2="-0.455" xlink:href="#linear-gradient-33"/>
    <linearGradient id="linear-gradient-38" x1="0" y1="0.371" x2="1" y2="0.371" xlink:href="#linear-gradient-34"/>
    <linearGradient id="linear-gradient-39" x1="0" y1="4.219" x2="1" y2="4.219" xlink:href="#linear-gradient-34"/>
    <linearGradient id="linear-gradient-41" x1="0" y1="-4.144" x2="1" y2="-4.144" xlink:href="#linear-gradient-34"/>
    <linearGradient id="linear-gradient-43" x1="0.329" y1="3.293" x2="-0.255" y2="3.109" xlink:href="#linear-gradient-33"/>
    <linearGradient id="linear-gradient-44" x1="0.727" y1="3.886" x2="0.207" y2="2.758" xlink:href="#linear-gradient-34"/>
    <linearGradient id="linear-gradient-45" x1="0.636" y1="2.799" x2="0.531" y2="3.364" xlink:href="#linear-gradient-33"/>
    <linearGradient id="linear-gradient-46" x1="0.409" y1="3.827" x2="0.858" y2="2.891" xlink:href="#linear-gradient-33"/>
    <linearGradient id="linear-gradient-47" x1="0.464" y1="3.774" x2="1.215" y2="2.837" xlink:href="#linear-gradient-33"/>
    <linearGradient id="linear-gradient-48" x1="0" y1="6.965" x2="1" y2="6.965" xlink:href="#linear-gradient-34"/>
    <linearGradient id="linear-gradient-49" x1="0" y1="8.552" x2="1" y2="8.552" xlink:href="#linear-gradient-34"/>
    <linearGradient id="linear-gradient-50" x1="0.641" y1="0.619" x2="0.376" y2="-2.148" gradientUnits="objectBoundingBox">
      <stop offset="0" stop-color="#ab316d"/>
      <stop offset="1" stop-color="#792d3d"/>
    </linearGradient>
    <linearGradient id="linear-gradient-51" x1="4.112" y1="-2.068" x2="-0.545" y2="-3.557" xlink:href="#linear-gradient-50"/>
  </defs>
  <g id="Group_729" data-name="Group 729" transform="translate(-1033 -172)">
    <g id="Group_655" data-name="Group 655">
      <path id="Path_499" data-name="Path 499" d="M1064.451,1013.3c-14.748,15.526-28.7,25.537-39.726,33.446-129.585,92.982-282.928,65.878-315.518,59.27-48.123-9.775-141.145-28.668-208.4-107.764-101.748-119.655-85.9-308.166-6.981-432.6,14.438-22.762,90.693-149.1,245.684-169.355,93.8-12.261,203.135,12.469,282.316,78.807C1188.035,614.343,1176.2,895.647,1064.451,1013.3Z" transform="translate(703.88 -221.262)" fill="#fff" opacity="0.47" style="isolation: isolate"/>
      <path id="Path_534" data-name="Path 534" d="M48.169,1937.66c-1.987-2.365.9-6.064,4.161-5.351,33.118,7.231,118.417,35.9,154.6,142.822,45.39,134.15,98.62,164.642,150.268,173.581,0,0-58.253,12.9-114.1-17.116C105.978,2157.906,83.489,1979.822,48.169,1937.66Z" transform="translate(985.484 -1355.721)" fill="url(#linear-gradient)"/>
      <path id="Path_543" data-name="Path 543" d="M192.661,2063.5c9.964,12.464,19.629,25.13,28.728,38.156q13.77,19.464,26.105,39.8c8.148,13.586,16,27.335,23.159,41.455,7.231,14.072,13.754,28.489,20.239,42.992,6.571,14.456,13.113,29.052,21.387,42.9s18.549,26.78,31.37,37.323c3.2,2.628,6.474,5.2,9.9,7.559,3.375,2.421,6.886,4.689,10.448,6.9a171.55,171.55,0,0,0,22.588,11.639,188.5,188.5,0,0,0,50.62,13.058,3.971,3.971,0,0,0,4.205-2.747,2.768,2.768,0,0,0-2.421-3.533h0c-4.253-.623-8.49-1.293-12.653-2.139-2.1-.391-4.155-.87-6.229-1.314-2.042-.526-4.119-.957-6.135-1.53a171.263,171.263,0,0,1-64.814-33.307,138.813,138.813,0,0,1-16.709-16.622,152.788,152.788,0,0,1-13.652-19.053c-8.148-13.381-14.758-27.772-21.458-42.165s-13.591-28.789-21.135-42.843q-5.622-10.553-11.681-20.867c-2-3.451-4.071-6.857-6.137-10.267s-4.229-6.76-6.387-10.117q-12.995-20.1-27.411-39.266c-9.686-12.719-19.771-25.154-30.411-37.152a.959.959,0,0,0-1.3-.04.833.833,0,0,0-.24,1.154Z" transform="translate(878.601 -1451.459)" fill="#fff"/>
      <path id="Path_546" data-name="Path 546" d="M706.043,2179.208a6.629,6.629,0,0,1-10.513,3.228c-20.218-16.314-73.209-67.618-73.514-157.307-.263-75.737-7.593-116.78-12.214-135.184a4.152,4.152,0,0,1,6.679-4.205C650.639,1913.869,754.726,2015.69,706.043,2179.208Z" transform="translate(571.088 -1320.74)" fill="url(#linear-gradient-2)"/>
      <path id="Path_547" data-name="Path 547" d="M789.16,2410.09a1.965,1.965,0,0,1-.3.184,1.84,1.84,0,0,1-2.455-.852c-.5-1.052-50.234-104.786-55.346-210.08a1.842,1.842,0,0,1,3.68-.179c5.075,104.526,54.484,207.625,54.983,208.655A1.84,1.84,0,0,1,789.16,2410.09Z" transform="translate(481.608 -1551.21)" fill="#fff"/>
      <g id="Group_648" data-name="Group 648" transform="translate(-9)">
        <path id="Path_6" data-name="Path 6" d="M2791.508,3050.45c5.325,4.305,5.627,7.359,5.454,8.852-.276,2.4-2.087,3.336-6.421,7.872-5.864,6.135-4.968,6.955-7.953,9.173-6.59,4.9-15.91,4.573-16.47,2.907-.4-1.169,3.819-2.121,8.616-7.677a30.188,30.188,0,0,0,6.324-11.693,28.191,28.191,0,0,0,.954-6.674Z" transform="translate(-1008.543 -2180.037)" fill="url(#linear-gradient-3)"/>
        <path id="Path_7" data-name="Path 7" d="M2794.93,2981.907l10.487,18.273c2.526,1.12,4.941.555,7.181-2.7l-4.093-22.215Z" transform="translate(-1029.802 -2124.609)" fill="#ffa797"/>
        <path id="Path_8" data-name="Path 8" d="M2660.333,2097.618a220.073,220.073,0,0,0-30.142,95.545,216.771,216.771,0,0,0,12.593,90.913c8.8,23.656,24.092,48.5,32.979,60.343,5.993-2.507,9.52-6.437,15.507-8.937-.9-3.259-3.68-14.028-5.428-20.443-1.354-4.968-3.853-14.165-4.368-16.128-4.3-16.454-.9-28.8-2.1-49.151-1.38-23.734-6.818-20.977-6-35.22,1.222-21.274,13.276-26.242,27.117-57.036,9.462-21.08,19.424-43.219,10.28-55.323C2699.273,2086.928,2664.245,2096.507,2660.333,2097.618Z" transform="translate(-907.919 -1474.708)" fill="#363636"/>
        <path id="Path_9" data-name="Path 9" d="M2924,3110.872c3.2,2.032,5.123,6.86,3.667,9.9-1.43,2.989-5.075,2.045-13.931,4.768-9.488,2.915-11.365,5.861-18.359,5.853-2.826,0-7.948-.489-8.377-2.389-.3-1.335,1.874-2.665,9.034-7.475,10.167-6.833,10.059-7.02,12.33-8.069C2914.049,3110.841,2919.779,3108.2,2924,3110.872Z" transform="translate(-1097.649 -2223.755)" fill="url(#linear-gradient-4)"/>
        <path id="Path_10" data-name="Path 10" d="M2970.11,3059l3.893,17.789c.544.788,6.09,2.7,9.975,0L2982.545,3059Z" transform="translate(-1158.938 -2186.339)" fill="#ffa797"/>
        <path id="Path_11" data-name="Path 11" d="M2756.431,2102.148c-11.512-15.244-46.541-5.659-50.465-4.547a222.261,222.261,0,0,0-14.456,29.125c12.414-2.442,17.8-.223,20.312,2.72,9.746,11.428-20.764,36.661-14.493,74.951,2.455,14.982,8.858,21.713,7.685,40-.87,13.61-5.1,20.5-8.021,30.466a80.293,80.293,0,0,0-3.175,22.215c8.776,19.293,20.31,37.644,27.569,47.312,5.993-2.508,9.52-6.437,15.508-8.937-.9-3.259-3.68-14.028-5.427-20.444-1.354-4.968-3.853-14.164-4.369-16.128-4.3-16.454-.9-28.8-2.1-49.151-1.38-23.734-6.818-20.977-6-35.22,1.222-21.274,13.276-26.242,27.117-57.036C2755.625,2136.391,2765.576,2114.252,2756.431,2102.148Z" transform="translate(-953.565 -1474.69)" fill="#363636" opacity="0.3" style="isolation: isolate"/>
        <path id="Path_12" data-name="Path 12" d="M2849.868,2104.253a892.537,892.537,0,0,0,28.6,247.532,15.862,15.862,0,0,0,10.6,1.8,15.558,15.558,0,0,0,7.36-3.635,144.225,144.225,0,0,1-1.1-28.97c1.314-20.974,6.263-25.248,8.382-46.954a179.833,179.833,0,0,0-1.051-41.792c-2.923-22.191-6.889-22.649-6.968-35.938-.121-20.467,9.236-27.8,14.38-47.293,3.433-13.008,5.257-32.426-3.377-59.057Z" transform="translate(-1070.094 -1471.994)" fill="url(#linear-gradient-5)"/>
        <path id="Path_13" data-name="Path 13" d="M2629.565,1541.89a96.932,96.932,0,0,0-25.632,20.7c-20.777,23.792-33.625,62.945-20.273,75.753,9.086,8.716,30.634,6.074,38.056-4.266,5.459-7.609,1.53-16.951-.357-30.227C2619.333,1589.553,2619.417,1568.828,2629.565,1541.89Z" transform="translate(-870.041 -1067.985)" fill="url(#linear-gradient-6)"/>
        <path id="Path_14" data-name="Path 14" d="M2824.392,1680.673c-7.693-101.406-32.221-142.916-30.079-155.238-3.086-2.221-15.281-5.748-42.914-2.1a45.858,45.858,0,0,0-14.911,9.12,44.809,44.809,0,0,0-3.438,3.651c19.411,3.664,39.184,14.719,46.3,30.376,12.33,29.943-10.569,63.407,0,89.828,5.554,13.886,14.438,26.192,25.044,37.7C2816.523,1690.971,2824.833,1686.519,2824.392,1680.673Z" transform="translate(-984.186 -1053.144)" fill="url(#linear-gradient-7)"/>
        <path id="Path_15" data-name="Path 15" d="M2974.855,2090l-16.64,4.187c2.891,9.988,5.688,24.993,2.339,42.02-4.626,23.514-16.58,28.67-18.338,49.874-1.577,19.074,7.425,22.964,11.736,48.407,4.418,26.071-2.269,38.335-3.68,60.14-.957,14.924.6,34.448,9.675,58.211a15.86,15.86,0,0,0,4.626-2.836,144.173,144.173,0,0,1-1.1-28.97c1.314-20.974,6.263-25.248,8.382-46.954a179.85,179.85,0,0,0-1.052-41.791c-2.923-22.192-6.889-22.649-6.968-35.938-.121-20.468,9.236-27.8,14.38-47.293C2981.666,2136.036,2983.484,2116.618,2974.855,2090Z" transform="translate(-1138.24 -1472.031)" fill="#363636" opacity="0.3" style="isolation: isolate"/>
        <path id="Path_16" data-name="Path 16" d="M2696.163,1532.445a53.9,53.9,0,0,0-11.638,16.519c-6.458,14.806.5,27.517,2.583,51.7,2.29,26.526-.949,70.7-8.411,86.542a3.778,3.778,0,0,0-.321,2.061c2.016,15.3,107.238,11.828,105.69-8.59-7.693-101.406-32.221-142.916-30.079-155.238-3.085-2.221-15.281-5.748-42.914-2.1A45.859,45.859,0,0,0,2696.163,1532.445Z" transform="translate(-943.862 -1053.144)" fill="url(#linear-gradient-8)"/>
        <path id="Path_17" data-name="Path 17" d="M2832.184,1430.84s6.794,21.327,8.994,23.895-8.832,9.276-17.29,6.25c-7.767-2.778,0-14.616,0-14.616Z" transform="translate(-1048.604 -986.124)" fill="#ffa797"/>
        <path id="Path_18" data-name="Path 18" d="M2780.074,1358.5a13.365,13.365,0,0,1,1.5-15.245c3.262-3.522,7.959-3.68,10.776-3.78,8.148-.284,18.065,3.908,21.009,11.625,1.745,4.573-3.535,13.358-4.379,14.945-.954,1.8-2.468,2.316-3.929,3.611-2.032,1.8-5.212,4.665-10.414,9.462a33.138,33.138,0,0,0-1.393-5.609,29.5,29.5,0,0,0-3.314-6.747C2786.127,1361.29,2782.6,1362.468,2780.074,1358.5Z" transform="translate(-1017.582 -918.761)" fill="url(#linear-gradient-9)"/>
        <path id="Path_19" data-name="Path 19" d="M2800.754,1416.51s-6.009,8.28-16.522,6.739c-9.412-1.38-9.086-22.709-2.681-26.726,2.137-1.338,6.227-1.637,9.436-.452,1.9.7,2.486,1.559,5.606,2.628,2.875,1,3.732.741,4.56,1.558,1.033,1.023,1.661,3.378-.691,9.431,1.953-1.682,4.177-2.208,5.654-1.359a3.219,3.219,0,0,1,1.159,1.327C2808.4,1412.2,2805.94,1415.12,2800.754,1416.51Z" transform="translate(-1016.531 -959.948)" fill="#ffa797"/>
        <path id="Path_20" data-name="Path 20" d="M2787.54,1462.3a11.527,11.527,0,0,0,5.5,1.314c.174,0,.358.071.373.16.055.342-2.331,1.661-4.374.907-1.448-.526-2.486-2.034-2.26-2.365C2786.881,1462.16,2787.214,1462.215,2787.54,1462.3Z" transform="translate(-1023.773 -1009.253)" fill="url(#linear-gradient-10)"/>
        <path id="Path_21" data-name="Path 21" d="M2804.2,1779.209c-11.484,4.032-26.72,15.36-27.743,29.874-1.577,22.294,31.633,34.527,27.209,50.147-1.207,4.258-5.02,8.1-29.875,17.084-10.059,3.63-19.4,6.59-27.885,9.039,30.413,4.481,89.121-1.3,87.962-16.593-2.946-38.819-8.358-68.835-13.8-91.823A42.684,42.684,0,0,0,2804.2,1779.209Z" transform="translate(-993.666 -1241.219)" opacity="0.3" fill="url(#linear-gradient-11)" style="isolation: isolate"/>
        <path id="Path_22" data-name="Path 22" d="M2830.15,1644.133c18.677,18.961,45.343,24.936,65.841,15.45,28.471-13.173,32.873-50.526,26.237-73.9-11.084-39.026-59.381-61.786-74.6-51.39-11.005,7.52-10.9,36.608,2.213,51.17,11.789,13.089,29.893,9.783,34.818,23.13,3.68,9.988-3.438,20.049-4.05,20.888-7.927,10.85-25.2,14.532-41.529,7.081Z" transform="translate(-1055.764 -1060.53)" fill="url(#linear-gradient-12)"/>
        <path id="Path_23" data-name="Path 23" d="M2687.992,1812.3c1.522-4.884,6.463-7.388,10.351-7.93,3.8-.526,10.075.334,12.572,5.309,2.334,4.652.5,11.16-4.871,14.69-.754-1.874-2.1-4.339-4.492-5.089-4.384-1.375-8.185,4.339-11.426,2.847C2687.545,1820.939,2686.875,1815.89,2687.992,1812.3Z" transform="translate(-950.588 -1261.377)" fill="#ffa797"/>
        <path id="Path_24" data-name="Path 24" d="M2725.821,1861.616l14.373,2.5a3.988,3.988,0,0,0,4.581-4.758l-5.23-24.315a3.985,3.985,0,0,0-3.68-3.154l-17.208-.923a3.988,3.988,0,0,0-3.969,5.315l8.064,22.736A3.985,3.985,0,0,0,2725.821,1861.616Z" transform="translate(-970.481 -1281.075)" fill="#fff"/>
        <path id="Path_25" data-name="Path 25" d="M2778.921,1906.162c-1.18-8.466-4.75-10.682-6.045-11.3-2.166-1.051-3.235-.237-10.794-.357-6.755-.108-8.356-.788-9.2.357-1.619,2.187,1.706,7.938,5.475,11.3,5.283,4.731,11.828,5.133,14.53,5.138Z" transform="translate(-998.496 -1327.697)" fill="#ffa797"/>
      </g>
      <path id="Path_500" data-name="Path 500" d="M1068.68,559.714l62.2,625.529c.928,9.315-5.485,17.46-14.275,18.1l-303.054,25.382c-18.472.647-28.442-9.3-29.438-19.161L716.719,547.447c-1.012-9.946,8.216-18.748,26.878-18.37L1050.77,542.03C1059.693,542.358,1067.741,550.32,1068.68,559.714Z" transform="translate(492.229 -321.371)" fill="url(#linear-gradient-13)"/>
      <path id="Path_501" data-name="Path 501" d="M1116.9,558.862l62.451,628.751c.931,9.362-5.52,17.55-14.333,18.2l-314.18,23.032a18.7,18.7,0,0,1-19.689-16.708L763.466,546.5c-1.017-9.988,6.329-17.873,16.3-17.495l319.158,12.08C1107.88,541.415,1115.96,549.418,1116.9,558.862Z" transform="translate(457.783 -321.315)" fill="#26264f"/>
      <path id="Path_502" data-name="Path 502" d="M1152.52,701.517l57.927,582.762c.87,8.747-5.157,16.383-13.4,16.969l-295.505,21.006a17.44,17.44,0,0,1-18.309-15.6L820.754,691.839c-.946-9.3,5.874-16.677,15.132-16.383L1135.725,685C1144.088,685.265,1151.642,692.7,1152.52,701.517Z" transform="translate(415.548 -429.278)" fill="#d8dee8"/>
      <path id="Path_549" data-name="Path 549" d="M1445.219,610.3a5.122,5.122,0,0,1-5.307,5.89,7.1,7.1,0,0,1-6.542-6.308,5.118,5.118,0,0,1,5.317-5.89A7.1,7.1,0,0,1,1445.219,610.3Z" transform="translate(-36.089 -376.599)" fill="#fff"/>
      <g id="Group_649" data-name="Group 649" transform="translate(1221.155 207.664)" opacity="0.3">
        <path id="Path_30" data-name="Path 30" d="M922.26,861.892c-31.225-92.257,23.13-138.737-7.657-224.2-16.756-46.483-50.265-81.128-87.142-106.91l-47.7-1.816c-9.967-.376-17.313,7.5-16.3,17.495l67.689,665.635a18.7,18.7,0,0,0,19.689,16.709l271.25-19.884c-.852-69.5-18.509-118.966-38.146-154.131C1029.983,958.18,954.592,957.423,922.26,861.892Z" transform="translate(-763.372 -528.951)" fill="#f4f7fa"/>
      </g>
      <path id="Path_508" data-name="Path 508" d="M1410.317,953.86l140.338,116.254c-120.68,54.268-106.637,220.138-227.317,274.4L1183,1228.267C1303.683,1174,1289.637,1008.126,1410.317,953.86Z" transform="translate(148.45 -634.513)" fill="url(#linear-gradient-14)"/>
      <path id="Path_509" data-name="Path 509" d="M1593.341,1111.116c-102.376,57.685-98.518,203.375-200.894,261.063L1273,1273.233c102.376-57.688,98.517-203.377,200.891-261.063Z" transform="translate(82.105 -677.496)" fill="#fff"/>
      <path id="Path_532" data-name="Path 532" d="M1227.888,1924.463c.526.437.988.849,1.467,1.314l.121.118c5.446,5.238,8,11.865,7.359,18.2-.541,5.538-3.546,10.834-9.236,14.74a28.826,28.826,0,0,1-2.665,1.606,37.947,37.947,0,0,1-11.97,3.885L1183,1939.5a160.892,160.892,0,0,0,34.238-20.819A30.89,30.89,0,0,1,1227.888,1924.463Z" transform="translate(148.45 -1345.74)" fill="url(#linear-gradient-15)"/>
      <path id="Path_510" data-name="Path 510" d="M1657.7,2303.546a27.821,27.821,0,0,1,7.3,9.339,160.857,160.857,0,0,1-34.082,20.694l-30.668-25.406a39.711,39.711,0,0,1,8.937-6.4q1.412-.757,2.891-1.43c14.567-6.684,32.427-6.681,44.338,2.189.047.031.092.068.139.1C1656.929,2302.92,1657.333,2303.244,1657.7,2303.546Z" transform="translate(-159.13 -1623.57)" fill="url(#linear-gradient-16)"/>
      <path id="Path_548" data-name="Path 548" d="M1951.776,953.86l29.964,24.828a39.672,39.672,0,0,1-8.937,6.4c-.941.507-1.9.983-2.878,1.432-14.419,6.61-32.016,6.715-43.928-1.887-.557-.4-1.012-.744-1.538-1.177a24.391,24.391,0,0,1-6.939-8.779A160.966,160.966,0,0,1,1951.776,953.86Z" transform="translate(-393.01 -634.513)" fill="url(#linear-gradient-17)"/>
      <path id="Path_535" data-name="Path 535" d="M2398.062,1299.5l30.668,25.406a160.843,160.843,0,0,0-34.08,20.693,35.768,35.768,0,0,1-11.328-6.1c-.366-.3-.757-.639-1.1-.962-.042-.04-.087-.076-.126-.116-5.307-4.9-8.033-11.084-7.93-17.14s3.1-12,9.3-16.259a28.769,28.769,0,0,1,2.646-1.627A37.882,37.882,0,0,1,2398.062,1299.5Z" transform="translate(-729.626 -889.305)" fill="url(#linear-gradient-18)"/>
      <path id="Path_520" data-name="Path 520" d="M1773.732,1482.348c22.4,18.557,29.02,54.8,16.112,82.048s-42.775,33.27-65.379,14.548c-22.4-18.559-29.02-54.8-16.112-82.05S1751.13,1463.624,1773.732,1482.348Z" transform="translate(-233.998 -1016.113)" fill="url(#linear-gradient-19)"/>
      <path id="Path_527" data-name="Path 527" d="M1807.976,1588.339c-3.943.925-8.022,3.6-12.735,9.094l-9.962-8.253.389-.683a33.284,33.284,0,0,1,4.334-5.909,28.088,28.088,0,0,1,2.857-2.67,2.762,2.762,0,0,0,.026-3.943l-4.1-4.127a1.98,1.98,0,0,0-2.891-.071c-1.346,1.356-2.673,2.891-3.89,4.371a60.961,60.961,0,0,0-4.613,6.484l-3.483-2.891a1.933,1.933,0,0,0-3.028.421,2.757,2.757,0,0,0,.66,3.491l3.556,2.946c-2.841,5.867-4.032,11.357-3.488,16.322a18.194,18.194,0,0,0,6.739,12.4q5.725,4.731,11.612,3.33t12.122-8.937l11.066,9.22a44.388,44.388,0,0,1-4.9,6.942,40.3,40.3,0,0,1-3.737,3.785,2.976,2.976,0,0,0,0,4.179l5.312,5.257a1.967,1.967,0,0,0,2.931-.026,50.579,50.579,0,0,0,3.8-4.681,69.373,69.373,0,0,0,4.671-7.533c.179-.334.357-.667.526-1l3.79,3.138a1.791,1.791,0,0,0,2.928-.486l.018-.039a2.959,2.959,0,0,0-.762-3.538l-3.843-3.183a36.1,36.1,0,0,0,2.988-12.425,25.5,25.5,0,0,0-.242-4.968,19.864,19.864,0,0,0-7.189-12.816C1815.729,1588.468,1811.9,1587.432,1807.976,1588.339Zm-2.936,17.8a9.837,9.837,0,0,1,4.542-3.036,4.787,4.787,0,0,1,4.092,1.23,7.206,7.206,0,0,1,2.613,4.5,9.5,9.5,0,0,1-1.083,5.725Zm-16.822-2.366a4.085,4.085,0,0,1-3.68-1.015,6.192,6.192,0,0,1-2.231-4.04,11.293,11.293,0,0,1,.836-5.428l9.149,7.578a8.352,8.352,0,0,1-4.082,2.9Z" transform="translate(-284.653 -1089.58)" fill="#fff"/>
      <path id="Path_511" data-name="Path 511" d="M1558.522,1385.53l.455.379c-120.68,54.269-106.637,220.138-227.317,274.4l-137.37-113.8a175.625,175.625,0,0,1,21.611-1,164.441,164.441,0,0,1,29.267,3.135,198.55,198.55,0,0,1,38.937,12.183c70.528,29.93,90.8,4.731,103.033-37.828,3.357-11.284,6.256-23.7,9.77-36.33,1.548-5.551,3.278-11.147,5.2-16.7a204.964,204.964,0,0,1,13.82-31.577c17.962-34.08,49.493-57.144,88.49-56.114a109.757,109.757,0,0,1,21.732,2.526,56.475,56.475,0,0,0,6,.949C1539.735,1386.584,1548.558,1386.264,1558.522,1385.53Z" transform="translate(140.127 -950.308)" opacity="0.2" fill="url(#linear-gradient-20)" style="isolation: isolate"/>
      <path id="Path_507" data-name="Path 507" d="M1384.219,1312.12c4.187,1.659,6.358,6.093,4.821,9.857l-96.951,238.4c-1.659,4.053-7.47,6.968-11.788,5.173l-157.937-65.67c-4.229-1.759-5.982-7.885-4.242-11.851l97.776-234.645c1.609-3.68,6.277-5.367,10.374-3.743Z" transform="translate(196.768 -852.091)" fill="url(#linear-gradient-21)"/>
      <path id="Path_512" data-name="Path 512" d="M1387.957,1293.1c4.219,1.669,6.4,6.14,4.847,9.935l-98.735,241.428a8.274,8.274,0,0,1-10.942,4.137L1124.2,1482.549a7.985,7.985,0,0,1-4.55-10.472l98.815-238.056c1.622-3.716,6.321-5.42,10.448-3.785Z" transform="translate(195.61 -837.789)" fill="url(#linear-gradient-22)"/>
      <g id="Group_651" data-name="Group 651" transform="translate(1430.876 461.126)" opacity="0.7">
        <path id="Path_42" data-name="Path 42" d="M1594.685,2077.983l-16.73,39.181a3.814,3.814,0,0,1-4.629,2.082l-9.864-3.312a3.14,3.14,0,0,1-1.908-4.276l16.851-39.163a3.782,3.782,0,0,1,4.594-2.04l9.78,3.3a3.114,3.114,0,0,1,2.026,3.911A2.994,2.994,0,0,1,1594.685,2077.983Z" transform="translate(-1561.278 -1918.616)" fill="#f4f7fa"/>
        <path id="Path_43" data-name="Path 43" d="M1679.784,1882.092l-16.422,38.464a3.756,3.756,0,0,1-4.571,2.029l-9.77-3.286a3.1,3.1,0,0,1-2.018-3.894,3.173,3.173,0,0,1,.117-.311l16.543-38.443a3.722,3.722,0,0,1,4.537-1.987l9.686,3.283a3.075,3.075,0,0,1,2,3.86Q1679.844,1881.952,1679.784,1882.092Z" transform="translate(-1624.363 -1774.284)" fill="#f4f7fa"/>
        <path id="Path_44" data-name="Path 44" d="M1763.3,1689.658l-16.131,37.767a3.7,3.7,0,0,1-4.518,1.977l-9.672-3.278a3.065,3.065,0,0,1-2.009-3.84,3.023,3.023,0,0,1,.117-.312l16.243-37.746a3.661,3.661,0,0,1,4.468-1.935l9.591,3.264a3.042,3.042,0,0,1,1.911,4.1Z" transform="translate(-1686.265 -1632.473)" fill="#f4f7fa"/>
        <path id="Path_45" data-name="Path 45" d="M1845.322,1500.744l-15.836,37.089a3.638,3.638,0,0,1-4.468,1.927l-9.581-3.262a3.026,3.026,0,0,1-1.885-4.09l15.949-37.06a3.612,3.612,0,0,1,4.429-1.887l9.5,3.249a3,3,0,0,1,1.995,3.751C1845.4,1500.557,1845.361,1500.652,1845.322,1500.744Z" transform="translate(-1747.062 -1493.273)" fill="#f4f7fa"/>
      </g>
      <path id="Path_519" data-name="Path 519" d="M1392.991,2060.851l-7.885,18.583a7.02,7.02,0,0,1-9.2,3.43l-19.713-8.148a6.794,6.794,0,0,1-3.924-8.837l7.961-18.5a7.009,7.009,0,0,1,9.149-3.4l19.637,8.072A6.794,6.794,0,0,1,1392.991,2060.851Z" transform="translate(24.045 -1437.69)" fill="url(#linear-gradient-23)"/>
      <path id="Path_521" data-name="Path 521" d="M1397.555,2068.033l-6.779,15.957a6.449,6.449,0,0,1-8.482,3.154l-16.924-6.994a6.258,6.258,0,0,1-3.625-8.148l6.834-15.9a6.459,6.459,0,0,1,8.448-3.136l16.869,6.937A6.268,6.268,0,0,1,1397.555,2068.033Zm-34.958,4.318a5.391,5.391,0,0,0,3.12,7.023l16.922,6.991a5.562,5.562,0,0,0,7.3-2.723l6.781-15.957a5.379,5.379,0,0,0-3.154-7l-16.872-6.939a5.563,5.563,0,0,0-7.278,2.7Z" transform="translate(17.031 -1444.344)" fill="url(#linear-gradient-24)"/>
      <path id="Path_528" data-name="Path 528" d="M1385.46,2085.615l11.318-26.415Z" transform="translate(-0.796 -1449.326)" fill="#f4f7fa"/>
      <path id="Path_529" data-name="Path 529" d="M1396.019,2058.895,1384.7,2085.31l-.841-.35,11.318-26.41Z" transform="translate(0.384 -1448.847)" fill="url(#linear-gradient-25)"/>
      <path id="Path_530" data-name="Path 530" d="M1409.66,2095.563l11.3-26.434Z" transform="translate(-18.635 -1456.646)" fill="#f4f7fa"/>
      <path id="Path_531" data-name="Path 531" d="M1420.2,2068.814l-11.294,26.437-.844-.347,11.3-26.434Z" transform="translate(-17.456 -1456.159)" fill="url(#linear-gradient-26)"/>
      <path id="Path_522" data-name="Path 522" d="M1433.89,2105.515l11.278-26.455Z" transform="translate(-36.497 -1463.966)" fill="#f4f7fa"/>
      <path id="Path_523" data-name="Path 523" d="M1444.407,2078.744l-11.276,26.458-.841-.347,11.279-26.455Z" transform="translate(-35.317 -1463.479)" fill="url(#linear-gradient-27)"/>
      <path id="Path_524" data-name="Path 524" d="M1407.636,2090.881l-3.154,7.4a3.906,3.906,0,0,1-5.118,1.908l-14.771-6.1a3.786,3.786,0,0,1-2.189-4.918l3.154-7.375a3.9,3.9,0,0,1,5.1-1.9l14.748,6.072A3.781,3.781,0,0,1,1407.636,2090.881Z" transform="translate(1.664 -1464.351)" fill="#fec045"/>
      <path id="Path_525" data-name="Path 525" d="M1406.781,2089.844l-3.154,7.4a4.347,4.347,0,0,1-5.706,2.126l-14.771-6.1a4.211,4.211,0,0,1-2.442-5.483l3.167-7.375a4.339,4.339,0,0,1,5.693-2.116l14.745,6.071A4.214,4.214,0,0,1,1406.781,2089.844Zm-25.233-1.711a3.343,3.343,0,0,0,1.937,4.352l14.772,6.1a3.45,3.45,0,0,0,4.529-1.687l3.154-7.4a3.347,3.347,0,0,0-1.953-4.347l-14.745-6.072a3.452,3.452,0,0,0-4.521,1.68Z" transform="translate(2.939 -1463.14)" fill="url(#linear-gradient-28)"/>
      <path id="Path_513" data-name="Path 513" d="M1566.734,1597.7c-5.759,20.951-10.858,33.709-21.784,45.944-15.008,16.8-33.7,24.462-45.39,28.074l64.072,26.628a8.274,8.274,0,0,0,10.942-4.137l98.746-241.428c1.553-3.8-.628-8.266-4.847-9.935l-25.464-10.088c-38.829,26.465-53.485,53.461-59.588,73.7C1576.044,1530.909,1580.409,1547.947,1566.734,1597.7Z" transform="translate(-84.906 -987.539)" opacity="0.15" fill="url(#linear-gradient-29)" style="isolation: isolate"/>
      <g id="Group_652" data-name="Group 652" transform="translate(1464.284 511.113)" opacity="0.42">
        <path id="Path_57" data-name="Path 57" d="M1723.878,2083.859l-22.3,54.042a2.1,2.1,0,0,1-2.776,1.052l-9.065-3.748a2.1,2.1,0,0,1-1.225-2.694l22.373-53.963a2.09,2.09,0,0,1,2.747-1.025l9,3.68A2.079,2.079,0,0,1,1723.878,2083.859Z" transform="translate(-1688.382 -1973.82)" fill="url(#linear-gradient-30)"/>
        <path id="Path_58" data-name="Path 58" d="M1867.134,1689.833l-29.675,71.889a2.115,2.115,0,0,1-2.77,1.051l-9.068-3.68a2.079,2.079,0,0,1-1.228-2.672h0l29.78-71.774a2.1,2.1,0,0,1,2.739-1.028l8.989,3.606A2.024,2.024,0,0,1,1867.134,1689.833Z" transform="translate(-1788.549 -1683.454)" opacity="0.63" fill="url(#linear-gradient-31)"/>
      </g>
      <path id="Path_533" data-name="Path 533" d="M1554.15,1373.773c10.934,4.35,15.968,17,11.273,28.142-4.652,11.039-17.1,16.417-27.837,12.112s-15.818-16.688-11.362-27.772C1530.7,1375.064,1543.221,1369.428,1554.15,1373.773Z" transform="translate(-103.371 -942.974)" opacity="0.29" fill="url(#linear-gradient-32)" style="isolation: isolate"/>
      <g id="Group_653" data-name="Group 653" transform="translate(1397.21 580.184)" opacity="0.53">
        <path id="Path_60" data-name="Path 60" d="M1463.259,2012.763a3.475,3.475,0,0,1-1.877,4.5,3.383,3.383,0,0,1-4.442-1.777l-.026-.063a3.469,3.469,0,0,1,1.913-4.468,3.383,3.383,0,0,1,4.43,1.8Z" transform="translate(-1450.503 -1993.749)" fill="#f4f7fa"/>
        <path id="Path_61" data-name="Path 61" d="M1462.545,1960.4a1.243,1.243,0,0,1-.675.691,1.293,1.293,0,0,1-1.682-.686,19.619,19.619,0,0,0-25.233-10.3,1.29,1.29,0,0,1-1.68-.686,1.259,1.259,0,0,1,.725-1.626l.016-.006a22.238,22.238,0,0,1,28.5,11.636A1.276,1.276,0,0,1,1462.545,1960.4Z" transform="translate(-1433.191 -1946.241)" fill="#f4f7fa"/>
        <path id="Path_62" data-name="Path 62" d="M1463.151,1976.329a1.259,1.259,0,0,1-.686.7,1.3,1.3,0,0,1-1.693-.691,14.376,14.376,0,0,0-18.612-7.606,1.293,1.293,0,0,1-1.69-.689,1.28,1.28,0,0,1,.736-1.654l.005,0a16.986,16.986,0,0,1,21.926,8.958A1.281,1.281,0,0,1,1463.151,1976.329Z" transform="translate(-1438.494 -1960.188)" fill="#f4f7fa"/>
        <path id="Path_63" data-name="Path 63" d="M1463.5,1992.5a1.3,1.3,0,0,1-2.4,0,9.139,9.139,0,0,0-11.917-4.87,1.283,1.283,0,1,1-1.188-2.273,1.244,1.244,0,0,1,.226-.092,11.808,11.808,0,0,1,8.952,0,11.564,11.564,0,0,1,6.321,6.248A1.315,1.315,0,0,1,1463.5,1992.5Z" transform="translate(-1443.591 -1974.361)" fill="#f4f7fa"/>
      </g>
      <path id="Path_514" data-name="Path 514" d="M1219.082,1688.274c0,43.129-33.725,77.057-76.828,75.732-44.856-1.377-82.584-40.117-82.584-86.474s37.728-80.016,82.584-75.346C1185.357,1606.673,1219.082,1645.147,1219.082,1688.274Z" transform="translate(239.364 -1112.114)" fill="url(#linear-gradient-33)"/>
      <path id="Path_515" data-name="Path 515" d="M1263.4,1674.141c0,43.126-33.725,77.054-76.825,75.732-44.859-1.38-82.584-40.12-82.584-86.474s37.725-80.014,82.584-75.343C1229.675,1592.538,1263.4,1631.012,1263.4,1674.141Z" transform="translate(206.693 -1101.698)" fill="url(#linear-gradient-34)"/>
      <path id="Path_516" data-name="Path 516" d="M1270.941,1684.34c0,41.229-32.269,73.595-73.443,72.281-42.774-1.385-78.689-38.356-78.689-82.532s35.914-76.3,78.689-71.921C1238.673,1606.382,1270.941,1643.111,1270.941,1684.34Z" transform="translate(195.768 -1112.126)" fill="url(#linear-gradient-35)"/>
      <path id="Path_517" data-name="Path 517" d="M1276.3,1691.605c0,39.867-31.223,71.14-71.019,69.8-41.289-1.388-75.913-37.1-75.913-79.711s34.624-73.655,75.913-69.476C1245.08,1616.255,1276.3,1651.735,1276.3,1691.605Z" transform="translate(187.984 -1119.554)" fill="url(#linear-gradient-36)"/>
      <path id="Path_526" data-name="Path 526" d="M1192.431,1702.461c2.4-23.7,24.181-33.73,21.337-55.53-1.751-13.436-11.936-24.76-23.3-33.6-34.458,3.614-61.1,32.145-61.1,69.463,0,42.614,34.624,78.326,75.913,79.711a71.67,71.67,0,0,0,11.731-.573C1200.615,1745.614,1190.37,1722.824,1192.431,1702.461Z" transform="translate(187.984 -1120.648)" opacity="0.3" fill="url(#linear-gradient-37)" style="isolation: isolate"/>
      <path id="Path_518" data-name="Path 518" d="M1310.985,1712.382c4.926-1.02,14.9-1.782,24.263-1.782,11.447,0,18.464,1.141,24.5,4.826a18.715,18.715,0,0,1,9.972,16.767c0,7.622-4.308,14.735-13.668,18.291v.263c9.481,2.67,16.5,10.04,16.5,21.088a23.072,23.072,0,0,1-8.624,18.167c-6.045,4.952-16.128,7.746-32.626,7.746a140.059,140.059,0,0,1-20.317-1.277Zm18.591,32.768h6.156c9.851,0,15.15-4.205,15.15-10.542,0-6.476-4.8-9.906-13.3-9.906a50.551,50.551,0,0,0-8,.51Zm0,37.975a55.448,55.448,0,0,0,7.265.263c8.5,0,16.012-3.3,16.012-12.322,0-8.637-7.515-12.067-16.869-12.067h-6.408Z" transform="translate(54.108 -1192.352)" fill="url(#linear-gradient-38)"/>
      <rect id="Rectangle_11" data-name="Rectangle 11" width="8.75" height="21.285" transform="translate(1374.519 505.976)" fill="url(#linear-gradient-39)"/>
      <rect id="Rectangle_12" data-name="Rectangle 12" width="8.753" height="21.285" transform="translate(1393.27 505.976)" fill="url(#linear-gradient-39)"/>
      <rect id="Rectangle_13" data-name="Rectangle 13" width="8.75" height="21.279" transform="translate(1374.519 594.976)" fill="url(#linear-gradient-41)"/>
      <rect id="Rectangle_10" data-name="Rectangle 10" width="8.753" height="21.279" transform="translate(1393.27 594.976)" fill="url(#linear-gradient-41)"/>
      <path id="Path_536" data-name="Path 536" d="M1208.695,1113.428c0,29.046-22.715,51.9-51.745,51.007-30.211-.928-55.619-27.02-55.619-58.245s25.409-53.882,55.619-50.744C1185.98,1058.468,1208.695,1084.382,1208.695,1113.428Z" transform="translate(208.654 -709.184)" fill="url(#linear-gradient-43)"/>
      <path id="Path_537" data-name="Path 537" d="M1238.535,1103.9c0,29.049-22.712,51.9-51.743,51.007-30.226-.928-55.622-27.02-55.622-58.245s25.409-53.882,55.622-50.744C1215.823,1048.938,1238.535,1074.851,1238.535,1103.9Z" transform="translate(186.657 -702.158)" fill="url(#linear-gradient-44)"/>
      <path id="Path_538" data-name="Path 538" d="M1243.633,1110.763c0,27.766-21.734,49.574-49.466,48.678-28.81-.933-53-25.834-53-55.585s24.181-51.393,53-48.441C1221.9,1058.261,1243.633,1082.994,1243.633,1110.763Z" transform="translate(179.285 -709.176)" fill="url(#linear-gradient-45)"/>
      <path id="Path_539" data-name="Path 539" d="M1247.224,1115.684c0,26.852-21.027,47.913-47.837,47.014-27.808-.933-51.127-24.986-51.127-53.688s23.319-49.606,51.127-46.785C1226.194,1064.935,1247.224,1088.832,1247.224,1115.684Z" transform="translate(174.059 -714.207)" fill="url(#linear-gradient-46)"/>
      <path id="Path_540" data-name="Path 540" d="M1190.742,1122.983c1.616-15.962,16.3-22.72,14.369-37.4-1.18-9.05-8.038-16.677-15.689-22.63-23.209,2.434-41.153,21.65-41.153,46.785,0,28.7,23.319,52.752,51.127,53.685a48.386,48.386,0,0,0,7.9-.386C1196.254,1152.045,1189.352,1136.695,1190.742,1122.983Z" transform="translate(174.051 -714.93)" opacity="0.3" fill="url(#linear-gradient-47)" style="isolation: isolate"/>
      <path id="Path_544" data-name="Path 544" d="M1267.465,1106.98v52.673l-24.775-14.288Z" transform="translate(104.449 -747.387)" fill="url(#linear-gradient-48)"/>
      <path id="Path_541" data-name="Path 541" d="M1242.69,1273.73l24.775,14.974v18.783Z" transform="translate(104.449 -870.308)" fill="url(#linear-gradient-49)"/>
      <path id="Path_545" data-name="Path 545" d="M1337.526,1108.853l23.453,36.34-23.453,13.529v-49.869M1337,1107v52.673l24.76-14.3Z" transform="translate(34.927 -747.401)" fill="#ff0"/>
      <path id="Path_542" data-name="Path 542" d="M1359.637,1275.588l-22.171,30.2v-16.806l22.162-13.4m2.063-1.887-24.773,14.982v18.782l24.773-33.756Z" transform="translate(34.986 -870.279)" fill="#ff0"/>
      <path id="Path_503" data-name="Path 503" d="M1332.876,2056.739l17.313,202.145a17.377,17.377,0,0,1-4.468,13.62,17.143,17.143,0,0,1-11.113,5.436l-255.036,21.479c-10.805.909-20.06-6.776-20.827-17.085l-16.033-215.06c-.755-10.125,7.275-18.925,18.017-19.282l253.453-8.245C1323.808,2039.444,1332.062,2047.219,1332.876,2056.739Z" transform="translate(251.9 -1434.979)" fill="url(#linear-gradient-50)"/>
      <path id="Path_504" data-name="Path 504" d="M1346.011,2295.409a17.408,17.408,0,0,1-11.226,5.433l-255.125,21.479c-10.805.909-20.147-6.773-20.914-17.072l-16.033-215.06c-.755-10.125,7.275-18.925,18.017-19.282l2.952-.1c1.07,5.551,2.505,11.783,3.877,17.765.189.831.384,1.729.573,2.526,1.59,6.9,2.954,12.58,3.2,13.31,7.954,23.813,19.187,51.177,42.951,64.49,36.3,20.357,82.256,16.7,120.425,27.848,25.138,7.341,50.943,17.263,70.943,33.869,14.614,12.135,26.944,27.1,34.169,44.6A121.75,121.75,0,0,1,1346.011,2295.409Z" transform="translate(251.9 -1457.884)" fill="#0d0d0d" opacity="0.2" style="isolation: isolate"/>
      <g id="Group_650" data-name="Group 650" transform="translate(1306.77 617.777)" opacity="0.7">
        <path id="Path_81" data-name="Path 81" d="M1348.443,2305.653h-.013l-8.784.541a1.892,1.892,0,0,1-1.966-1.742,1.683,1.683,0,0,1,1.651-1.819l8.768-.581h0a14.494,14.494,0,0,0,4.368-1.051,1.763,1.763,0,0,1,2.274,1.025l.01.027a1.939,1.939,0,0,1-1.128,2.41A16.6,16.6,0,0,1,1348.443,2305.653Zm-22.557,1.493-13.828,1.13a1.82,1.82,0,0,1-.3-3.627l13.828-1.122a1.816,1.816,0,0,1,.373,3.613Zm-27.738,2.271-13.994,1.143a1.84,1.84,0,1,1-.3-3.648l13.994-1.135a1.827,1.827,0,1,1,.376,3.634l-.077.006Zm-28.071,2.3-14.159,1.159a1.846,1.846,0,1,1-.3-3.68l14.159-1.146a1.84,1.84,0,0,1,.513,3.644,1.883,1.883,0,0,1-.216.017Zm-28.408,2.323-14.341,1.175a1.854,1.854,0,0,1-.294-3.7l14.333-1.162a1.846,1.846,0,0,1,.294,3.68Zm-28.752,2.366-14.5,1.175a1.866,1.866,0,1,1-.472-3.7c.06-.008.12-.012.18-.014l14.506-1.175a1.859,1.859,0,1,1,.292,3.706Zm-29.1,2.381-14.685,1.2a1.9,1.9,0,0,1-2.086-1.7v-.016a1.921,1.921,0,0,1,1.8-2.029l14.682-1.191a1.871,1.871,0,1,1,.406,3.72C1183.893,2318.78,1183.855,2318.782,1183.817,2318.784Zm-29.459,2.41-14.866,1.217a1.919,1.919,0,0,1-2.1-1.716v-.006a1.947,1.947,0,0,1,1.824-2.042l14.864-1.2a1.914,1.914,0,0,1,2.1,1.705v.011a1.932,1.932,0,0,1-1.822,2.024Zm-29.819,2a2.05,2.05,0,0,1-.4,0,24.825,24.825,0,0,1-14.4-6.695,1.84,1.84,0,0,1-.055-2.6q.042-.044.087-.085a2.066,2.066,0,0,1,2.82,0,20.807,20.807,0,0,0,12.062,5.617,1.887,1.887,0,0,1,1.717,2.043c0,.02,0,.04-.006.06a1.976,1.976,0,0,1-1.821,1.651Zm239.268-27a1.806,1.806,0,0,1-1.651-2.789,18.4,18.4,0,0,0,2.989-11.794,1.774,1.774,0,0,1,1.609-1.925l.023,0a1.813,1.813,0,0,1,1.937,1.653,21.929,21.929,0,0,1-3.559,14.059,1.774,1.774,0,0,1-1.349.786Zm-258.836,8.077a1.951,1.951,0,0,1-2.161-1.632c-.032-.279-.089-.526-.11-.8l-1.015-13.562a1.819,1.819,0,0,1,1.68-2.048,1.788,1.788,0,0,1,1.955,1.6c0,.043.007.087.008.13l1.017,13.549c.018.237.242.444.263.681a1.822,1.822,0,0,1-1.543,2.063c-.043.006-.085.011-.128.014-.021-.008.058-.005.034,0Zm261.73-27.837c-.985.074-1.516-.662-1.6-1.651l-1.154-13.552c-.081-.989.313-1.84,1.3-1.919s1.517.668,1.6,1.653l1.151,13.542c.084.975-.31,1.84-1.3,1.916Zm-264.125-.749a1.8,1.8,0,0,1-1.958-1.615c0-.04-.006-.08-.007-.119l-1.073-14.309a1.829,1.829,0,1,1,3.636-.4c0,.038.005.075.007.113l1.073,14.3a1.814,1.814,0,0,1-1.677,2.027Zm261.822-26.334c-.986.068-1.517-.673-1.6-1.658l-1.151-13.526c-.081-.986.313-1.84,1.3-1.9s1.517.678,1.6,1.661l1.149,13.515c.084.973-.31,1.819-1.3,1.9Zm-263.967-2.255a1.808,1.808,0,0,1-1.957-1.646c0-.034-.005-.068-.006-.1l-1.07-14.278a1.779,1.779,0,0,1,1.68-2.01,1.814,1.814,0,0,1,1.956,1.659c0,.03,0,.061.005.091l1.07,14.264a1.79,1.79,0,0,1-1.677,2.01Zm261.67-24.772c-.986.063-1.519-.684-1.6-1.669l-1.149-13.5c-.084-.983.313-1.84,1.3-1.887s1.514.692,1.6,1.672l1.149,13.487c.084.969-.313,1.821-1.3,1.884Zm-263.809-3.756a1.822,1.822,0,0,1-1.959-1.673c0-.028,0-.055,0-.083l-1.067-14.249a1.769,1.769,0,0,1,1.68-1.992,1.821,1.821,0,0,1,1.954,1.679c0,.027,0,.055,0,.082l1.07,14.23a1.774,1.774,0,0,1-1.677,1.995Zm261.525-23.217c-.986.058-1.517-.694-1.6-1.677l-1.143-13.468c-.084-.983.313-1.819,1.3-1.872s1.514.7,1.6,1.68l1.146,13.457c.074.97-.323,1.811-1.312,1.869Zm-263.651-5.257a1.84,1.84,0,0,1-1.955-1.716c0-.017,0-.033,0-.05l-1.067-14.214a1.752,1.752,0,0,1,1.679-1.977,1.84,1.84,0,0,1,1.956,1.717c0,.018,0,.036,0,.055l1.051,14.193a1.756,1.756,0,0,1-1.674,1.987Zm261.362-21.666c-.983.052-1.517-.7-1.6-1.685l-1.143-13.442c-.084-.978.313-1.806,1.3-1.856s1.511.712,1.6,1.69l1.143,13.428c.074.975-.323,1.806-1.306,1.858Zm-263.491-6.74a1.839,1.839,0,0,1-1.955-1.716c0-.019,0-.039,0-.058l-1.064-14.193a1.734,1.734,0,0,1,1.679-1.958,1.84,1.84,0,0,1,1.953,1.72c0,.02,0,.04,0,.06l1.051,14.17a1.743,1.743,0,0,1-1.674,1.971Zm261.207-20.123c-.983.047-1.514-.715-1.6-1.693l-1.141-13.4c-.081-.978.315-1.8,1.3-1.84s1.511.72,1.6,1.7l1.141,13.4c.071.959-.323,1.785-1.306,1.829Zm-263.344-8.219a1.856,1.856,0,0,1-1.957-1.749c0-.012,0-.024,0-.036l-.788-10.647a21.658,21.658,0,0,1,.079-3.809,1.924,1.924,0,0,1,2.184-1.627,1.812,1.812,0,0,1,1.6,2.084,18.449,18.449,0,0,0-.231,3.2l.788,10.637A1.73,1.73,0,0,1,1091.9,2133.354Zm261.068-18.593c-.983.042-1.517-.726-1.6-1.7l-.221-2.594a19.334,19.334,0,0,0-3.659-9.27,1.642,1.642,0,1,1,2.644-1.916,22.468,22.468,0,0,1,3.914,11.06l.218,2.592C1354.331,2113.9,1353.934,2114.721,1352.967,2114.76Zm-255.448-8.009a2.121,2.121,0,0,1-1.506-.552,1.785,1.785,0,0,1-.176-2.518c.033-.038.068-.075.1-.111a24.256,24.256,0,0,1,14.212-6.477,2.05,2.05,0,0,1,2.237,1.643,1.814,1.814,0,0,1-1.556,2.039c-.038,0-.075.009-.113.011a20.31,20.31,0,0,0-11.907,5.435,1.978,1.978,0,0,1-1.309.528Zm240.443-12.847a1.836,1.836,0,0,1-.652-.1,19.165,19.165,0,0,0-6.789-.98l-6.1.218a1.9,1.9,0,0,1-1.95-1.709A1.687,1.687,0,0,1,1324,2089.5c.041,0,.082-.006.123-.007l6.1-.216a22.911,22.911,0,0,1,8.093,1.177,1.84,1.84,0,0,1,1.22,2.25,1.69,1.69,0,0,1-1.588,1.2Zm-27.209-.368-13.752.494a1.911,1.911,0,0,1-1.969-1.719,1.7,1.7,0,0,1,1.561-1.835c.037,0,.074,0,.111-.005l13.752-.484a1.9,1.9,0,0,1,1.956,1.714,1.693,1.693,0,0,1-1.545,1.829c-.042,0-.085.005-.127.006Zm-27.585.991-13.93.5a1.924,1.924,0,0,1-1.987-1.729,1.724,1.724,0,0,1,1.582-1.855q.057,0,.113-.005l13.912-.489a1.921,1.921,0,0,1,1.979,1.724,1.714,1.714,0,0,1-1.569,1.848c-.038,0-.076,0-.114.006Zm-27.913,1-14.083.507a1.94,1.94,0,0,1-2.008-1.74,1.74,1.74,0,0,1,1.6-1.866q.056,0,.113-.005l14.08-.494a1.929,1.929,0,0,1,2,1.732,1.73,1.73,0,0,1-1.588,1.861c-.043,0-.086,0-.129.005Zm-28.26,1.025-14.248.51a1.956,1.956,0,0,1-2.032-1.748,1.761,1.761,0,0,1,1.636-1.878q.053,0,.107,0l14.248-.5a1.95,1.95,0,0,1,2.019,1.742,1.753,1.753,0,0,1-1.622,1.875C1227.065,2096.554,1227.029,2096.556,1226.993,2096.556Zm-28.584,1.025-14.422.526a1.976,1.976,0,0,1-2.053-1.761,1.777,1.777,0,0,1,1.657-1.889q.054,0,.109,0l14.419-.507a1.961,1.961,0,0,1,2.04,1.753,1.766,1.766,0,0,1-1.655,1.871l-.087,0Zm-28.931,1.051-14.6.526a1.987,1.987,0,0,1-2.074-1.769,1.8,1.8,0,0,1,1.684-1.9c.035,0,.071,0,.106,0l14.6-.526a1.979,1.979,0,0,1,2.061,1.764,1.785,1.785,0,0,1-1.671,1.892c-.035,0-.07,0-.106,0Zm-29.28,1.051-14.774.526a2.008,2.008,0,0,1-2.1-1.782,1.819,1.819,0,0,1,1.716-1.916c.032,0,.065,0,.1,0l14.774-.526a1.994,1.994,0,0,1,2.084,1.774,1.808,1.808,0,0,1-1.7,1.908l-.093,0Z" transform="translate(-1089.103 -2089.267)" fill="#fff"/>
      </g>
      <path id="Path_505" data-name="Path 505" d="M1992.938,2313.885a5.468,5.468,0,0,0-5.039-.4l-51.861,22.189c-7.441,3.215-12.519,10.75-11.846,18.854l1.79,21.54c.718,8.624,7.691,15.831,16.235,17.713l53.669,11.751a5.583,5.583,0,0,0,4.823-1.2,5.47,5.47,0,0,0,1.89-4.539l-7.01-81.543A5.644,5.644,0,0,0,1992.938,2313.885Z" transform="translate(-397.884 -1636.456)" fill="url(#linear-gradient-51)"/>
      <path id="Path_506" data-name="Path 506" d="M1994.31,2473.952a10.564,10.564,0,0,1-9.619,11.43c-.117.01-.235.018-.353.024a11.208,11.208,0,0,1-11.828-10.177,10.558,10.558,0,0,1,9.617-11.422q.2-.018.405-.027A11.224,11.224,0,0,1,1994.31,2473.952Z" transform="translate(-433.517 -1747.553)" fill="#f4f7fa"/>
    </g>
  </g>
</svg>
