<svg id="Layer_1" data-name="Layer 1" xmlns="http://www.w3.org/2000/svg" viewBox="0 0 409.55 409.73"><title>lightbulb</title><path d="M-1215.25,21.85l21-27.08c7-9,14-18.09,21.06-27.07,7.93-10.08,20.73-12,30.3-4.53s10.81,20.29,3.06,30.51q-5.71,7.53-11.6,14.93c-3.23,4.06-7,4.76-10.2,2.1s-3.23-6.2-.26-10.12c3.73-4.9,7.56-9.71,11.3-14.61,3.59-4.7,3.35-9.48-.52-12.39s-8.31-2.06-12.09,2.79q-22.29,28.62-44.49,57.3c-5.25,6.77-8.52,6.92-14.36.49-8.88-9.76-17.57-19.7-26.67-29.24-1.88-2-5.26-3.72-7.86-3.6-6.32.28-9.12,8-4.76,12.9q20.43,23,41.26,45.69c4,4.38,9.15,3.73,13.12-1.33,8.13-10.38,16.16-20.84,24.31-31.21,1-1.34,2.57-3.27,3.86-3.27,2.52,0,5.57.55,7.4,2.07,2.51,2.07,2.12,5.34.1,8-9.16,11.81-18,23.85-27.67,35.28-7.31,8.68-21.77,9-29.55.71q-22.26-23.73-43.64-48.28c-7.38-8.47-5.72-21.55,2.75-28.87a20.92,20.92,0,0,1,29,1.31c6.7,7,13,14.31,19.52,21.48C-1219.13,17.61-1217.45,19.44-1215.25,21.85Z" transform="translate(1411.15 127.2)" fill="#e61632" stroke="#e61632" stroke-miterlimit="10" stroke-width="2"/><path d="M-1197.6-127.2c8.61,1.57,17.37,2.6,25.81,4.81,27.85,7.3,50.54,22.72,68.55,45.07a124.91,124.91,0,0,1,25.65,54.37c7.33,36.48,1,70.5-20,101.33-6.8,10-15.35,18.75-22.58,28.47-14.63,19.68-21.31,42.08-21.39,66.51-.06,16.39,0,32.79,0,49.18,0,14.92-4.46,21.65-18.48,27.41,0,2.18.06,4.54,0,6.9-.45,14.53-10.9,25.22-25.41,25.48q-21,.39-42,0c-14.83-.29-25.35-11.23-25.27-26.32,0-4.35-.9-6.55-5.2-8.52-9.22-4.23-13.27-12.28-13.29-22.34,0-16.79-.14-33.59,0-50.38.29-30-9.12-56.23-29.58-78.31-14.42-15.56-25.43-33.1-31.51-53.56-8.06-27.12-7.83-54.2,1.4-80.92,11.18-32.34,32.22-56.69,62.09-73.25a124.93,124.93,0,0,1,50.85-15.29,35.23,35.23,0,0,0,3.5-.64Zm19.94,291.81h20.24c.2-1.34.44-2.5.54-3.68a121.58,121.58,0,0,1,23.58-63.15c7.33-10,16.2-18.86,23-29.14,20.62-31.11,25.09-64.91,13.7-100.4-9.34-29.09-28.08-50.92-54.81-65.47-25.3-13.77-52.37-17.5-80.5-10.86-32.38,7.65-57.2,26.13-74.09,54.65s-20.18,59.32-11.07,91.28c5.5,19.29,16.48,35.27,29.9,49.9a118.26,118.26,0,0,1,29.7,60.47c1,5.45,1.61,10.95,2.4,16.39h19.76m77.77,16.45H-1255c0,1.12-.14,2-.14,2.92,0,13.47,0,26.94,0,40.4,0,7,3,10,10,10,8.94,0,17.87,0,26.8,0,17.07,0,34.14,0,51.2,0,6.59,0,9.52-3,9.59-9.55,0-4.66,0-9.33,0-14Zm-79.23,69.53c0,2.27-.15,4.37,0,6.45.46,5.54,4,9.21,9.56,9.29q20.75.29,41.51,0c5.76-.08,9.25-3.88,9.62-9.66.13-2,0-3.92,0-6.08Z" transform="translate(1411.15 127.2)" fill="#e61632"/><path d="M-1001.6,6.4c-2,4.63-5.61,6.33-10.48,6.22-5.84-.13-11.69.1-17.53-.08-5.45-.16-8.73-3.17-8.89-7.71-.14-4.13,2.57-7.81,6.71-8a187.49,187.49,0,0,1,23.47.19c2.38.21,4.49,3.48,6.72,5.35Z" transform="translate(1411.15 127.2)" fill="#e61632"/><path d="M-1375.28,89.21a17.75,17.75,0,0,1,2.53-4.4q6.82-7.26,14.07-14.13c3.8-3.61,8.59-3.61,11.75-.37s3.08,7.81-.37,11.47c-4.64,4.93-9.49,9.68-14.37,14.38a7.7,7.7,0,0,1-9.17,1.66C-1373.87,96.4-1375.39,93.86-1375.28,89.21Z" transform="translate(1411.15 127.2)" fill="#e61632"/><path d="M-1036.8,91.73c-1.5,1.85-2.78,4.75-4.92,5.7s-6.1,1.08-7.68-.27a199.42,199.42,0,0,1-17.23-17c-2.58-2.83-1.83-7.14.77-9.81s7-3.52,9.8-1c6,5.42,11.6,11.27,17.2,17.11C-1037.87,87.46-1037.71,89.29-1036.8,91.73Z" transform="translate(1411.15 127.2)" fill="#e61632"/><path d="M-1392.7-3.33c3.59,0,7.19-.16,10.77,0,4.42.25,7.33,3.15,7.61,7.2.29,4.35-2.2,8-6.79,8.25a213.72,213.72,0,0,1-23.06,0,7.48,7.48,0,0,1-7-7.82c.1-4.12,3.23-7.26,7.68-7.69.4,0,.79-.07,1.19-.07h9.57Z" transform="translate(1411.15 127.2)" fill="#e61632"/><path d="M-1376-82.6c1.43-1.83,2.66-4.74,4.78-5.73s6.12-1.18,7.67.15A206.1,206.1,0,0,1-1346-70.85c2.41,2.63,1.58,6.91-.86,9.49s-7.1,3.6-9.79,1.15c-6.07-5.52-11.75-11.48-17.44-17.4C-1375-78.55-1375.12-80.25-1376-82.6Z" transform="translate(1411.15 127.2)" fill="#e61632"/><path d="M-1037.47-80.34a19.44,19.44,0,0,1-2.69,4.68q-6.81,7.29-14.07,14.13c-3.59,3.4-8.35,3.42-11.47.42s-3.32-7.83.06-11.43c4.74-5,9.68-9.87,14.66-14.66,2.48-2.39,5.52-3.2,8.81-1.68C-1039.12-87.48-1037.51-85-1037.47-80.34Z" transform="translate(1411.15 127.2)" fill="#e61632"/></svg>