<svg xmlns="http://www.w3.org/2000/svg" xmlns:xlink="http://www.w3.org/1999/xlink" width="368" height="128" viewBox="0 0 368 128">
  <defs>
    <linearGradient id="linear-gradient" x2="1" gradientUnits="objectBoundingBox">
      <stop offset="0" stop-color="#8f5e25"/>
      <stop offset="0.5" stop-color="#fbf4a1"/>
      <stop offset="1" stop-color="#8f5e25"/>
    </linearGradient>
  </defs>
  <g id="Group_686" data-name="Group 686" transform="translate(-312 -65)">
    <rect id="Rectangle_71" data-name="Rectangle 71" width="368" height="128" transform="translate(312 65)"/>
    <g id="Group_645" data-name="Group 645" transform="translate(337.063 80.923)">
      <g id="Group_643" data-name="Group 643" transform="translate(0 0)">
        <g id="Group_161" data-name="Group 161" transform="translate(0 0)">
          <path id="Path_495" data-name="Path 495" d="M48.22,96.439a48.22,48.22,0,1,1,48.22-48.22A48.22,48.22,0,0,1,48.22,96.439Zm0-94.319a46.1,46.1,0,1,0,46.1,46.1A46.1,46.1,0,0,0,48.22,2.12Z" transform="translate(0 0)" fill="url(#linear-gradient)"/>
          <path id="Path_496" data-name="Path 496" d="M6.064,204.128l-1.49-.271a8.178,8.178,0,0,1-2.167-.677,10.325,10.325,0,0,0-1.151-.609,1.057,1.057,0,0,1-.542-.542,1.218,1.218,0,0,0-.542-.609,3.588,3.588,0,0,1-.677-.406l-.135-.2.406.068a2.433,2.433,0,0,0-.745-.677A14.936,14.936,0,0,1-4.026,196a1.054,1.054,0,0,0-.2-.609,1.963,1.963,0,0,1-.474-.948c-.135-.542-.339-1.083-.406-1.287l-.677-3.86a35.354,35.354,0,0,1-.406-3.725l.068-.813c.135-.677.339-1.151.474-1.151.406-.135.745-1.016.745-1.557a.508.508,0,0,0-.068-.339.462.462,0,0,0-.339-.2l-.135.068.2.406c0,.068,0,.068-.135.068a.45.45,0,0,1-.339-.271,5.39,5.39,0,0,1,.339-1.761c.068,0,.068-.135.068-.2v-.542a5.5,5.5,0,0,1,.339-1.761l.2-1.084A14.736,14.736,0,0,1-4.3,174.6l.406-1.287A17.194,17.194,0,0,1-2.739,170l.135-.068c.135,0,.2.135.2.271a.517.517,0,0,1-.135.339,1.365,1.365,0,0,0-.2.745c.068.2.068.271.135.271l.2-.135a2.619,2.619,0,0,0,.271-1.151c0-.271-.068-.542-.2-.542a.31.31,0,0,1-.271-.339v-.068a4.287,4.287,0,0,1,.474-1.49,5.592,5.592,0,0,0,.542-1.219,6.113,6.113,0,0,1,.609-1.422,1.255,1.255,0,0,0,.135-.474.27.27,0,0,1,.135-.271,5.356,5.356,0,0,0,.542-.88c.2-.474.474-.813.609-.813l.068-.068v-.135a9.9,9.9,0,0,1,1.219-2.98c.135-.136.2-.2.271-.2s.068.068.068.135a6.972,6.972,0,0,1-.542,1.9A17.5,17.5,0,0,1,.444,163.09L-.3,164.783A2.7,2.7,0,0,1-.775,166a.363.363,0,0,0-.2.271.18.18,0,0,0,.2.2,1.877,1.877,0,0,0,.542-.813,2.387,2.387,0,0,1,.813-1.083c.2-.068.271-.2.271-.271v-.271a4.184,4.184,0,0,1,.609-1.9,8.089,8.089,0,0,0,.745-1.761v-.406a.291.291,0,0,1,.271-.271c.135,0,.474-.406.677-.88l.88-1.49,1.761-2.506a4.127,4.127,0,0,0,.474-.813,40.161,40.161,0,0,1,4.74-5.553,13.856,13.856,0,0,0,1.354-1.287c.135-.135.271-.271.406-.271a3.4,3.4,0,0,0,.542-.406,8.393,8.393,0,0,1,1.9-1.49c.2-.068.339-.2.339-.271l-.068-.068a1.256,1.256,0,0,0-.474.135,3.236,3.236,0,0,1-1.558.677l-.135-.068a3.365,3.365,0,0,1,.813-.677c.474-.271.88-.677.88-.813v-.068c0-.068.068-.068.135-.068h.339a.372.372,0,0,0,.339-.2c.271-.677,1.964-1.151,3.521-1.151a10.152,10.152,0,0,1,1.49.135,5.231,5.231,0,0,1,1.625.813,7.541,7.541,0,0,1,2.3,2.573v.135a8.2,8.2,0,0,0,1.354,2.3,7.451,7.451,0,0,1,1.219,3.86v.542a1.973,1.973,0,0,1-.677,1.625,1.293,1.293,0,0,1-.745.61l-.068-.068.068-.271-.2.135-.271.135a1.669,1.669,0,0,0-.677.542,7.94,7.94,0,0,1-2.776,2.167c-.2,0-.271,0-.271-.135l.135-.271c0-.068,0-.068-.135-.068H21.3c-.135,0-.271-.068-.271-.2a4.7,4.7,0,0,1,.745-1.558,12.4,12.4,0,0,0,.948-1.761,2,2,0,0,1,.339-.88,2.009,2.009,0,0,0,.271-.745.18.18,0,0,0-.2-.2l-.339.135v-.068l.2-.474q0-.1-.2-.2c-.068-.068-.135-.135-.135-.2l.135-.271a1.877,1.877,0,0,0,.339-.813c0-.474-.339-.745-1.016-.745a20.188,20.188,0,0,0-4.2,1.083,16.541,16.541,0,0,0-3.589,2.235,2.927,2.927,0,0,1-.677.677,2.487,2.487,0,0,0-.677.948c0,.271-.135.474-.339.474a2.028,2.028,0,0,0-1.287,1.287l.068.135-.135.068h-.068c-.2,0-.339.339-.474.813a.379.379,0,0,1-.406.339c-.271,0-.339.135-.339.406v.135a.18.18,0,0,1-.2.2c-.135,0-.2-.068-.2-.135v-.2l-.135.135-.135.2c0,.068.068.068.135.135.135.068.135.135.135.2a.438.438,0,0,1-.135.339.372.372,0,0,1-.339.2H8.976l-.2.068v.068a.146.146,0,0,0,.135.135l.068.068-.135.271a1.982,1.982,0,0,1-1.084.609H7.69c-.135,0-.135.068-.135.135a1.03,1.03,0,0,0,.271.406l.135.135v.068l-.677-.135.271.2c.135.135.271.271.271.339H7.757c-.339,0-1.287,1.151-1.287,1.49v.2a.557.557,0,0,1-.271.406,1.944,1.944,0,0,0-.813,1.49v.135a.18.18,0,0,1-.2.2.248.248,0,0,0-.271.271c0,.135,0,.271-.068.271-.135,0-.271.406-.406.88s-.271.813-.339.813a1.212,1.212,0,0,0-.474.339l-.135.135.2-.068c.068,0,.068.068.068.135a.587.587,0,0,1-.271.474.372.372,0,0,0-.2.339v.271a1.615,1.615,0,0,1-.271.813,4.017,4.017,0,0,0-.339.948.146.146,0,0,1-.135.135L2.2,170.81l-.068.068.068.339a1.977,1.977,0,0,1-.135.609c-.474.677-.542.813-.542,1.084a4.226,4.226,0,0,1-.542,1.9c-.068,0-.135.135-.135.271v.068c0,.474-.474,1.693-.677,1.693a7.427,7.427,0,0,0-.474,2.1V179a12.968,12.968,0,0,1-.609,2.3,4.154,4.154,0,0,0-.2,1.084v.135c0,.068,0,.135-.068.135s-.135.2-.135.339a11.231,11.231,0,0,1-.271,1.964l-.271,1.9-.135.677a5.863,5.863,0,0,0-.2,1.828c0,2.3.474,5.756,1.016,6.636a5.054,5.054,0,0,0,3.251,1.49c.609.068,1.151.2,1.151.338,0,.068,0,.068.068.068l.068-.068a.711.711,0,0,1,.609-.338c.068,0,.135,0,.135.068l.068.068.271-.135a.691.691,0,0,1,.542-.339l.2.068c0,.068-.068.068-.135.135s-.135.136-.135.2h.2c.135,0,.271-.068.271-.2v-.068c0-.068.068-.135.2-.135h.2c.609,0,2.1-.474,2.1-.745,0-.068.135-.135.339-.135a.774.774,0,0,0,.474-.2,7.676,7.676,0,0,1,2.641-1.49,4.132,4.132,0,0,0,1.49-1.016,8.384,8.384,0,0,1,1.761-1.354,3.375,3.375,0,0,0,1.219-1.016c0-.068,0-.135.068-.135h.068a15.633,15.633,0,0,0,2.844-2.167c.135-.068.745-.609,1.354-1.151a12.415,12.415,0,0,0,1.287-1.219c0-.135.271-.271.474-.271l.271-.068v-.068c0-.135.2-.271.474-.474s.542-.339.542-.474a.31.31,0,0,1,.339-.271c.135-.068.609-.542,1.084-.948a3.1,3.1,0,0,1,1.016-.88.248.248,0,0,0,.271-.271v-.068c0-.2.2-.406.474-.542a1.136,1.136,0,0,0,.474-.609c0-.068.068-.2.271-.2a6.526,6.526,0,0,0,1.558-1.49A6.919,6.919,0,0,1,30.1,178.6l.2.068q.1,0,.2-.406c.135-.339.339-.542.474-.542h.068l.068-.135v-.135a.146.146,0,0,1,.135-.135h.068a.18.18,0,0,1,.2.2l.068.271.2-.474a.352.352,0,0,0-.135-.271c-.068-.068-.135-.135-.135-.2l.135-.2,1.151-1.219c.542-.745,1.016-1.016,1.354-1.016s.677-.271,1.084-.813.745-.813,1.016-.813c.068,0,.135.068.135.271v.068c-.068.2-.135.339-.2.339a.146.146,0,0,0-.135.135l.068.474c0,.135-.068.2-.135.2-.135,0-.2.068-.2.136,0,.135-.068.135-.2.135l-.135-.068-.135.135v.068c0,.068.068.135.2.135.2,0,.339.068.339.135,0,.135-.068.2-.135.2s-.2.2-.2.406v.135c0,.068,0,.135.068.135.135,0,.406-.271.745-.813a1.608,1.608,0,0,1,.609-.609l.068.068-.271.406c-.271.2-.406.406-.406.542l.135.406-.068.135a1.525,1.525,0,0,0-.474.068.91.91,0,0,1-.609-.135l-.2-.068a.619.619,0,0,0-.339.2l-.2.2.135.068c.135,0,.135,0,.135.068l-.135.406c0,.068.068.068.2.068l.2.068-.068.068h-.135a.963.963,0,0,1-.406-.135l-.271-.135-.271.135c0,.068.068.2.271.271.135.136.2.2.2.271l-.068.135H34.3c-.068,0-.135,0-.135-.068l-.068-.068c-.068,0-.135,0-.2.135l-.271.339c0,.068.068.068.135.068H33.9a.619.619,0,0,1,.339.2v.2l-.2-.068c-.068,0-.135.135-.2.271a.363.363,0,0,1-.339.339c-.2,0-.271-.068-.271-.2q0-.1.2-.2l.068-.068h-.2c-.2.068-.339.135-.339.339V179h-.135c-.135,0-.135.068-.2.135v.068a.3.3,0,0,0,.2.068.557.557,0,0,1,.406.271v.135a.146.146,0,0,1-.135.135.313.313,0,0,1-.339-.2c0-.068-.068-.135-.2-.135-.068,0-.068.068-.068.135l.135.542-.068-.068a.409.409,0,0,0-.406-.2.936.936,0,0,0-.609.339c-.2.2-.271.271-.271.339s.135.068.406.068.542.068.542.2c0,.068-.068.135-.2.135a1.517,1.517,0,0,0-.677.474c-.2.2-.271.271-.339.271l.271-.271.135-.406c0-.068,0-.068-.068-.068-.271,0-.474.406-.542.88a.81.81,0,0,1-.339.542,1.468,1.468,0,0,0-.474.406H29.9l-.068-.135c0-.2-.068-.339-.2-.339s-.271.2-.474.542-.474.61-.609.61-.2,0-.2.068l.068.2c0,.135-.2.339-.406.474-.542.271-.88.609-.88.813h.068a.963.963,0,0,0,.406-.135l.406-.2c.068,0,.068,0,.068.068,0,.271-.88.745-1.625.813a.3.3,0,0,0-.2.068v.135c0,.068-.135.135-.271.2s-.271.135-.271.2l.135.135a.249.249,0,0,0,.2.068.619.619,0,0,0,.339-.2.619.619,0,0,1,.339-.2,2.211,2.211,0,0,1-.542.745c-.339.271-.474.406-.474.542s.068.2.2.271l.2.135c.135,0,.339-.135.609-.474a3,3,0,0,1,.609-.542,10.216,10.216,0,0,0,1.287-1.151,1.25,1.25,0,0,1,.609-.474v.068c0,.271-.339.813-.542.813a.726.726,0,0,0-.542.406,3.862,3.862,0,0,1-.745.745l-.813.745c-1.084,1.084-1.49,1.49-1.625,1.49s-.2.068-.2.135v.068a.146.146,0,0,1-.135.135c-.068,0-.135-.068-.135-.2V189.3c0-.271,0-.406-.135-.406a.146.146,0,0,1-.135-.135v-.135c0-.068,0-.068-.068-.068h-.068l-.135.135v.135c0,.271-.339.813-.609.813-.2,0-.339.068-.339.2,0,.068-.135.135-.271.135l-.88-.135-.135.068.068.2-.135.406c0,.068.068.068.2.068s.271-.068.271-.2.135-.2.271-.2a.7.7,0,0,1,.542.271.146.146,0,0,0,.135.135l.2-.2a1.026,1.026,0,0,1,.745-.474.066.066,0,0,1,.068.068c0,.339-.813,1.151-1.219,1.287h-.2c-.2,0-.271-.068-.271-.135s.068-.135.2-.2l.135-.068-.135-.068c-.271,0-1.219.88-1.219,1.151l.135.068a1.8,1.8,0,0,0,.948-.339l.135-.135-.068.339a1.447,1.447,0,0,1-.813.542l-.406.068q-.406,0-.406-.2c0-.068,0-.135.135-.2l.135-.135H21.1a1.532,1.532,0,0,0-.677.339,1.512,1.512,0,0,1-.88.406c-.271,0-.474,0-.474.135l.339.339.271.2c.135,0,.2-.068.271-.2a.692.692,0,0,1,.474-.271c.068,0,.068,0,.068.068l-.135.068a1.232,1.232,0,0,0-.271.745c-.068.339-.2.609-.339.609s-.271.135-.339.339a2.075,2.075,0,0,1-.813.88l-.068-.068c0-.135-.135-.2-.271-.2-.068,0-.068.068-.068.271v.2c.135.339.271.542.339.542a.726.726,0,0,1,.406.135l.2.068.135-.068a.249.249,0,0,0,.068-.2q0-.2-.406-.2c-.135,0-.271,0-.271-.068l.135-.2a2.211,2.211,0,0,1,.948-.61l-.068.2.135.068a.18.18,0,0,0,.2-.2,1.153,1.153,0,0,0-.068-.474.439.439,0,0,1,.339-.406.146.146,0,0,1,.135.135c.068.135.135.2.271.2a.146.146,0,0,0,.135-.135v-.068a1.169,1.169,0,0,1,.88-.88.7.7,0,0,0,.474-.339.686.686,0,0,1,.474-.271.57.57,0,0,0,.474-.474.641.641,0,0,1,.542-.474c.2,0,.339,0,.339.068l-.2.271a1.608,1.608,0,0,0-.2.813v.135c0,.135-.068.271-.135.271a2.952,2.952,0,0,0-.948.745c-.406.339-.745.609-.948.609l-.271-.068-.068.068.135.339c0,.068-.068.135-.271.2-.135.068-.2.135-.2.271v.135c0,.135-.339.271-.677.271l-.406-.068c-.2,0-.271.135-.271.406a.575.575,0,0,1-.542.474.346.346,0,0,1-.339-.271v-.068c-.068,0-.068.068-.135.2a.557.557,0,0,1-.406.271.557.557,0,0,0-.406.271v.068l.068.068.271-.068h.339c0,.135-.339.406-.948.88-.88.609-1.219.813-2.641,1.693a1.952,1.952,0,0,1-.745.271c-.068,0-.068,0-.068-.068v-.2c0-.068,0-.068-.068-.068-.135,0-.2.135-.2.271v.406c0,.406-.2.609-.948.745a2.156,2.156,0,0,0-.88.271,5.021,5.021,0,0,1-2.032.88H9.721c-.135,0-.135.068-.135.271v.271l-.135.068-.677-.135c0,.068,0,.068.135.135l.135.135-.068.068-.406-.068a3.32,3.32,0,0,1-.88-.2c-.068,0-.135.068-.135.2v.2c0,.2-.135.271-.406.271l-.406-.068.2-.135c.135-.068.2-.068.2-.135l-.271-.068a1.276,1.276,0,0,0-.542.135.469.469,0,0,0-.271.2c0,.068,0,.068.068.068a.146.146,0,0,1,.135.135v.068c-.068.068-.135.135-.2.135Zm7.178-56.816a1.008,1.008,0,0,0,.609-.271l.135-.271a1.214,1.214,0,0,0-.542.271l-.339.2c0,.068.068.068.135.068Zm-4.537,2.641-.068-.068a2.444,2.444,0,0,1,.609-.813,6.575,6.575,0,0,1,1.693-1.49.066.066,0,0,1,.068.068,1.679,1.679,0,0,1-.542.609c-.271.271-.745.745-1.016,1.084a1.393,1.393,0,0,1-.745.609Zm3.792-1.693a.3.3,0,0,0,.271-.2q-.1-.2-.2-.2c-.135,0-.271.068-.271.2v.068C12.294,148.192,12.362,148.259,12.5,148.259Zm-.813.542c.135,0,.271-.068.271-.2v-.068c0-.068,0-.135-.068-.135a.3.3,0,0,0-.271.2v.068C11.617,148.734,11.617,148.8,11.685,148.8ZM3.9,156.386c-.068,0-.135-.068-.135-.2a1.87,1.87,0,0,1,.542-.88l.88-1.422a1.642,1.642,0,0,1,.542-.609c.135,0,.2,0,.2-.068v-.068c0-.406.745-1.49,1.016-1.49.135,0,.271-.135.339-.339a2.558,2.558,0,0,1,1.084-1.151l.135.068v.068a1.66,1.66,0,0,1-.813.88.605.605,0,0,0-.271.542c0,.2-.068.339-.339.339H6.606l.068.068c.135.068.271.2.271.271a6.543,6.543,0,0,1-1.219,1.828l-.88,1.287c-.339.542-.677.88-.948.88Zm6.027-4.537.745-.677.474-.609-.068-.068c-.2,0-.677.474-1.016,1.016Zm-1.354.474.2-.068a.363.363,0,0,0,.2-.271c0-.068,0-.068-.068-.068h-.2c-.135.068-.271.2-.271.271A.146.146,0,0,0,8.57,152.323Zm.813.2.068-.135-.135-.135H9.247v.135l.068.135Zm2.3.609q.1,0,.2-.2c0-.068,0-.2-.068-.2,0,0-.135.135-.135.2l-.068.135Zm-4.943,2.844.2-.2a1.242,1.242,0,0,0,.474-.677l.068-.271-.2.2-.474.609Zm2.235.542.2-.2c0-.068,0-.2-.135-.2a.216.216,0,0,0-.2.2C8.909,156.453,8.909,156.521,8.976,156.521Zm-3.589.135.135-.068.135-.271-.068-.135-.135.068-.135.271Zm.677.068c.135,0,.2-.068.271-.2l-.068-.135-.135.068-.271.2C5.861,156.724,5.929,156.724,6.064,156.724Zm-2.506.2c-.135,0-.2-.068-.2-.135v-.068a.363.363,0,0,1,.271-.2.18.18,0,0,1,.2.2C3.83,156.792,3.762,156.927,3.559,156.927Zm1.49.745a1.122,1.122,0,0,0,.677-.2l-.068-.135a1.322,1.322,0,0,0-.474.068q-.609.1-.609.2c0,.068.135.068.474.068Zm-2.167.745c-.2,0-.339-.068-.339-.2a.735.735,0,0,1,.542-.542.066.066,0,0,1,.068.068.249.249,0,0,1,.068.2C3.22,158.146,3.085,158.417,2.882,158.417Zm2.167-.2q.1,0,.2-.2l.068-.135-.068-.068c-.068,0-.135.135-.2.2Zm-2.641.677a.146.146,0,0,1-.135-.135c0-.068.068-.135.271-.135.135,0,.271,0,.271.068Zm4,1.558a.18.18,0,0,0,.2-.2v-.068a.18.18,0,0,0-.2-.2l-.135.068c-.068.068-.135.135-.135.2v.068A.27.27,0,0,0,6.4,160.449Zm-1.016,1.422.271-.271.2-.474v-.068H5.793c-.2,0-.474.339-.474.609v.068C5.319,161.8,5.319,161.871,5.387,161.871Zm-2.1-.474.068-.2-.068-.068a.066.066,0,0,0-.068-.068c-.068,0-.068.068-.068.2Zm.813,2.844.2-.406.068-.339c-.068,0-.135.135-.271.339l-.068.271Zm-1.151.948c.135,0,.2-.135.271-.339l.068-.271-.068-.068c-.068,0-.135.068-.271.271l-.068.271Zm-4.334,2.98c.068,0,.2-.271.339-.542l.135-.542-.068-.135h-.068c-.068,0-.068.068-.135.135a2.511,2.511,0,0,0-.271.948Zm3.183-.135.135-.339c0-.135,0-.271-.135-.271-.068,0-.135.135-.135.271C1.663,167.9,1.73,168.033,1.8,168.033Zm.677,0c.068,0,.135-.135.135-.339a.3.3,0,0,0-.2-.271c-.135,0-.2.135-.2.271C2.272,167.9,2.34,168.033,2.475,168.033Zm-2.506.135.135-.135v-.068a.146.146,0,0,0-.135-.135c-.068,0-.135.068-.135.2A.146.146,0,0,0-.03,168.169Zm1.219.948c.068,0,.135-.068.271-.271l.135-.2a.249.249,0,0,0-.2.068c-.135.068-.271.135-.271.2v.068C1.121,169.049,1.121,169.117,1.189,169.117Zm-3.115.542.135-.271v-.2c-.068,0-.068,0-.068.068-.068.068-.135.135-.135.2v.068C-1.994,169.659-1.994,169.659-1.927,169.659Zm2.1,1.558c.068,0,.2-.135.271-.339.135-.135.135-.2.135-.2-.068,0-.135.068-.2.135l-.271.339C.105,171.216.105,171.216.173,171.216Zm-3.047.948.2-.2c0-.135,0-.2-.135-.2a.18.18,0,0,0-.2.2Zm37.99,1.084c-.068,0-.068-.068-.068-.135v-.2c.068,0,.068,0,.068.068l.068.135ZM-.3,173.857a.18.18,0,0,0,.2-.2c0-.135-.068-.2-.135-.2a.25.25,0,0,0-.135.2v.068C-.369,173.79-.369,173.857-.3,173.857Zm34.74.339a.18.18,0,0,1-.2-.2v-.068h.135q.2.1.2.2C34.574,174.2,34.506,174.2,34.439,174.2Zm-37.787.745v-.271a.3.3,0,0,0-.2-.271.146.146,0,0,0-.135.136l.068.135C-3.484,174.873-3.416,174.941-3.349,174.941Zm2.776.542c.068,0,.135-.135.271-.542l.135-.339-.609.474.068.271Zm-2.844-.135-.135-.2a.9.9,0,0,0-.339-.2l-.068.068c0,.068,0,.068.135.135Zm36.7.406a.8.8,0,0,0,.406-.339l.135-.271-.068-.068c-.068,0-.2.068-.406.271l-.135.339C33.22,175.753,33.22,175.753,33.287,175.753Zm2.438.88c-.135,0-.135-.068-.135-.135q.1-.2.2-.2a.3.3,0,0,1,.068.2v.068Zm-40.022.813c.135,0,.2-.135.271-.339l.068-.271-.068-.135s-.068,0-.2.135a.86.86,0,0,0-.271.474C-4.5,177.379-4.432,177.446-4.3,177.446Zm37.652-.406a.216.216,0,0,0,.2-.2l.068-.068h-.2c-.2.068-.271.135-.271.2S33.22,177.04,33.355,177.04Zm-35.011.677.068-.135-.068-.135h-.068c-.068,0-.068.068-.068.135l.068.135Zm34.13.474.135-.2v-.135c0-.068,0-.068-.068-.068a.18.18,0,0,0-.2.2c0,.068.068.2.135.2Zm2.167,0-.135-.068v-.068a.066.066,0,0,1,.068-.068c.068,0,.135,0,.135.068l.068.068C34.777,178.191,34.71,178.191,34.642,178.191Zm-37.855.135-.068-.068c0-.068-.068-.068-.135-.068a.066.066,0,0,0-.068.068v.068h.271Zm-1.625.88a.711.711,0,0,0,.609-.339l.135-.339c0-.135-.135-.2-.339-.2a.18.18,0,0,0-.2.2v.135c0,.135-.068.271-.135.271a.18.18,0,0,0-.2.2C-4.974,179.207-4.906,179.207-4.838,179.207Zm2.641-.271a.745.745,0,0,0,.406-.2l.135-.135c0-.068-.068-.068-.2-.068-.2,0-.406.135-.406.2l-.068.135Zm35.823.339h-.271v-.068a.066.066,0,0,1,.068-.068c.068,0,.135,0,.135.068Zm-36.094.2.135-.068v-.068H-2.6v.068Zm35.756,1.354c-.068,0-.068-.068-.068-.135v-.068c0-.135.135-.2.271-.2.068,0,.068,0,.068.068v.135C33.491,180.7,33.423,180.832,33.287,180.832Zm-36.027.135.068-.135-.068-.135c0-.068,0-.068-.068-.068v.2Zm-1.219.135v-.068l-.068-.135c0-.068,0-.068-.068-.068v.135l.068.135Zm33.115.339a.249.249,0,0,0,.2-.068l.135-.271v-.068H29.36a.291.291,0,0,0-.271.271v.068A.066.066,0,0,0,29.157,181.442Zm3.657-.068-.135-.068v-.068l.135-.068.135.068v.068Zm-2.912.677c.068-.068.135-.135.135-.2v-.135c0-.068-.068-.135-.2-.135-.068,0-.135.135-.135.271s.068.2.135.2Zm-2.37-.135c.068,0,.135-.068.2-.135,0-.135,0-.2-.135-.2a.18.18,0,0,0-.2.2C27.464,181.848,27.464,181.916,27.531,181.916Zm.745.339.271-.068a.363.363,0,0,0,.2-.271v-.068h-.068a.249.249,0,0,0-.2.068A.619.619,0,0,0,28.276,182.254Zm-31.083.068.2-.068c0-.068-.135-.135-.2-.2l-.135-.068-.068.135A.216.216,0,0,0-2.807,182.322Zm-2.912.813h-.068c-.068,0-.068-.068-.135-.135a1.255,1.255,0,0,1,.135-.474c.068-.135.068-.2.135-.2a1.377,1.377,0,0,1,.068.339v.135A.517.517,0,0,1-5.719,183.135Zm35.62,1.219v-.135c0-.135.271-.406.609-.677.406-.271.542-.406.609-.406l-.135.406c-.2.2-.474.474-.609.474a.41.41,0,0,0-.406.2C29.969,184.286,29.969,184.354,29.9,184.354Zm-2.776-.745.271-.135v-.068a.146.146,0,0,0-.135-.135.363.363,0,0,0-.271.2C26.99,183.541,26.99,183.609,27.125,183.609Zm1.625.406a.3.3,0,0,1-.068-.2c0-.068.068-.2.135-.2a.146.146,0,0,1,.135.135v.068Q28.852,184.015,28.75,184.015Zm-.948.2.135-.068-.068-.068c0-.068-.068-.068-.135-.068a.066.066,0,0,0-.068.068v.068Zm-1.9.542.2-.271c.135-.135.135-.2.135-.2h-.2c-.135.068-.271.2-.271.271,0,.135.068.2.135.2Zm3.251,0a.363.363,0,0,1-.271-.2l-.068-.135.135.068c.068.068.2.135.2.2Zm.271.135.068-.2c0-.135.068-.2.135-.2H29.7v.068l-.135.271Zm1.084.068-.135-.068v-.068l.135-.068.135.068v.068Zm-5.35.542c.068,0,.135,0,.135-.068l-.068-.068-.135-.068-.068.135Zm5.214.339a.066.066,0,0,1-.068-.068c0-.068.135-.135.339-.271l.271-.135-.068.2A.587.587,0,0,1,30.375,185.844Zm-7.246,0,.271-.068a.45.45,0,0,0,.271-.339l-.135-.068-.2.135a.619.619,0,0,0-.2.339Zm3.928.068c-.068,0-.068-.068-.068-.135v-.068a.251.251,0,0,1,.135-.2c.068,0,.135.068.135.2A.216.216,0,0,1,27.057,185.911Zm.677,0-.135-.2a.18.18,0,0,1,.2-.2c.135,0,.135.068.135.2Zm-3.047.135a.146.146,0,0,0,.135-.135c0-.135-.068-.2-.135-.2l-.135.271Zm1.354,4.74-.271-.135a.352.352,0,0,1-.135-.271,1.553,1.553,0,0,1,.813-1.016.567.567,0,0,0,.406-.542v-.2h.135a2.06,2.06,0,0,0,.745-.406,27.958,27.958,0,0,1,2.573-2.167,6.54,6.54,0,0,1-1.49,1.558l-.068.068.068.271a.87.87,0,0,1-.677.677l-.271-.068.135.271c0,.2-.406.542-.677.542l-.271-.068v.135c0,.2-.406.677-.677.677a.5.5,0,0,0-.406.406v.068l.135.135Zm-1.084-2.844.068-.068-.068-.2-.2-.271c-.068,0-.068.135-.068.271C24.755,187.807,24.823,187.943,24.958,187.943Zm-.474.88.339-.068.474-.406c0-.135-.135-.2-.339-.2a.821.821,0,0,0-.339.068Zm-1.219.61a.31.31,0,0,0,.271-.339v-.135a.249.249,0,0,0-.2.068c-.135.068-.271.2-.271.271S23.13,189.433,23.265,189.433Zm-.474,0c.068,0,.068-.068.068-.135a.18.18,0,0,0-.2-.2l-.135.068.068.135Zm1.354.135c-.068,0-.068-.068-.135-.135,0-.068,0-.135.068-.135a.066.066,0,0,1,.068.068l.068.068Zm-4.2,2.235c.339,0,.677-.068.677-.135l-.271-.2-.135-.068c0-.068.068-.068.2-.135l.677-.542.2-.271c0-.068-.068-.068-.2-.068s-.406.271-.609.474a1.136,1.136,0,0,1-.609.474.557.557,0,0,0-.406.271l-.068.068c0,.068.2.135.542.135Zm1.625-.677a.3.3,0,0,0,.2-.068v-.068l-.068-.135a.249.249,0,0,0-.2.068l-.271.135C21.233,191.126,21.369,191.126,21.572,191.126Zm2.776.813c-.068,0-.068-.068-.068-.135l.068-.271c.068-.2.2-.339.339-.339h.135l-.068.068a.372.372,0,0,0-.2.339v.068C24.552,191.8,24.484,191.938,24.348,191.938Zm-.2.948a.305.305,0,0,1-.2-.2v-.135h.135l.271.2C24.348,192.819,24.281,192.886,24.145,192.886Zm-6.095.339q.1,0,.2-.2v-.068l-.135-.068-.135.068v.068a.3.3,0,0,0,.068.2Zm2.573.406c-.068,0-.135-.068-.135-.2v-.068q0-.1.2-.2h.135c.068,0,.068.068.068.2C20.827,193.5,20.759,193.631,20.624,193.631Zm-1.828.135c.135,0,.135-.135.135-.339-.068-.135-.135-.271-.2-.271l-.135.271C18.592,193.631,18.66,193.767,18.8,193.767Zm-1.219.406-.2-.339h.406c.339,0,.474-.135.474-.271l-.135-.135-.135.135-.2.135c-.068,0-.068-.068-.135-.2l-.135-.2a.619.619,0,0,0-.339.2l-.2.271q0,.1.2.2Zm1.964-.406-.068-.068c0-.068-.068-.068-.135-.068a.066.066,0,0,0-.068.068v.068Zm-2.844.677.068-.135-.068-.135a.363.363,0,0,0-.271-.2l-.068.135v.135c.135.135.2.2.271.2Zm-.2,1.354c.068,0,.135,0,.135-.068a.887.887,0,0,1,.542-.406c.745-.406,1.151-.677,1.151-.88a.146.146,0,0,0-.135-.135h-.068a1.841,1.841,0,0,0-1.016.609,1.668,1.668,0,0,1-.677.542.146.146,0,0,0-.135.135l.068.135Zm-2.167.068.609-.406a1.43,1.43,0,0,1,.677-.271h.2a.483.483,0,0,0,.406-.2l.068-.135a.146.146,0,0,0-.135-.135c-.135,0-.2.135-.2.271v.068h-.068l-.068-.135a.363.363,0,0,1,.2-.271l.2-.2c0-.068,0-.068-.068-.068a5.84,5.84,0,0,0-1.828,1.354l-.068.136h.068Zm3.657.135a.407.407,0,0,0-.068-.271h-.068l-.068.136c.068.068.068.135.135.135h.068Zm-5.418,2.506q.1,0,.2-.2a2.043,2.043,0,0,1,.542-.542,3.571,3.571,0,0,1,.813-.2,1.426,1.426,0,0,0,.88-.339,1.027,1.027,0,0,1,.542-.271l.339.068v-.068l-.271-.2c-.135-.135-.271-.2-.271-.271s.135-.135.271-.271l.271-.271-.339.135c-.271.135-.474.339-.474.406s-.135.136-.271.136a1.077,1.077,0,0,0-.609.406,1.235,1.235,0,0,1-.745.339c-.135,0-.271.068-.271.2,0,.068-.135.2-.339.271a.379.379,0,0,0-.339.406Zm5.147-1.693a1.654,1.654,0,0,1-.068-.474c-.068-.271-.135-.339-.271-.339l-.135.068-.271.2.339.271C17.509,196.679,17.644,196.814,17.712,196.814Zm-6.975,3.928c.135,0,.2,0,.2-.135s.135-.2.339-.2a4.223,4.223,0,0,0,2.032-1.083c.068-.2.2-.271.271-.271s.2.068.2.271a.439.439,0,0,0,.406.339l.2.068c.068,0,.068-.068.068-.135l-.068-.339a.372.372,0,0,1,.2-.339.9.9,0,0,0,.2-.542.248.248,0,0,1,.271-.271c.609,0,1.625-.406,1.625-.677a.18.18,0,0,1,.2-.2h.271c.135,0,.2-.068.2-.135-.068-.135-.135-.2-.271-.2l-.339.068-.2-.135-.068-.135c0-.068.068-.068.135-.068h.135v-.068a.249.249,0,0,0-.2-.068.379.379,0,0,0-.406.339v.135c0,.068-.068.135-.271.2a1.032,1.032,0,0,0-.677.406c-.135.2-.339.406-.474.406a.363.363,0,0,0-.271.2,2.224,2.224,0,0,1-1.016.542c-.474.135-.813.339-.813.474s-.2.339-.542.474a3.676,3.676,0,0,0-1.016.609,1.286,1.286,0,0,1-.609.2L10.2,200.4l.068.136a.732.732,0,0,0,.474.2Zm1.625-3.589a.616.616,0,0,0,.542-.271l.068-.2-.068-.068c-.135,0-.271.135-.542.271l-.2.2C12.159,197.153,12.227,197.153,12.362,197.153Zm-.542.406.135-.068v-.068l-.135-.068-.135.068v.068Zm1.422.813a.407.407,0,0,0,.271-.068c.271-.135.474-.339.474-.406s-.068-.068-.135-.068c-.2.068-.609.271-.677.474v.068h.068ZM10.06,198.3l.135-.068v-.068H9.924v.068Zm1.693.609a.3.3,0,0,0,.271-.2.216.216,0,0,0-.2-.2c-.135,0-.2.068-.271.2v.068C11.55,198.846,11.617,198.913,11.753,198.913Zm.542.339c.068,0,.135-.068.135-.2a.146.146,0,0,0-.135-.135l-.135.135v.068A.146.146,0,0,0,12.294,199.252Zm-2.3.745.068-.135a.517.517,0,0,1,.339-.135l.339.068.068-.068-.068-.135a.811.811,0,0,0-.542-.339H10.06l-.068.542v.2Zm4.943-.339a.216.216,0,0,0,.2-.2c0-.135-.068-.2-.135-.2a.251.251,0,0,0-.135.2v.068C14.868,199.591,14.868,199.658,14.936,199.658Zm-2.844,1.084-.068-.135h-.2v.068c0,.068.068.068.135.068Zm-2.573.542c.271-.068.474-.135.474-.2v-.068a.18.18,0,0,0-.2-.2l-.542.068c-.2.068-.271.135-.271.2C8.976,201.216,9.179,201.284,9.518,201.284Zm-1.49.068c.135,0,.2,0,.2-.068l-.068-.068-.135-.068-.135.068v.068Zm3.251.339a.372.372,0,0,0,.339-.2v-.068c0-.068,0-.068-.068-.068l-.339.068-.271-.2c-.068,0-.068.068-.068.135a.429.429,0,0,0,.406.339Zm-4.943,1.084.135-.068c.135-.068.271-.135.271-.2a.822.822,0,0,0-.339-.068c-.135,0-.2.068-.2.135v.068A.146.146,0,0,0,6.335,202.773Zm1.761.88H7.96c-.068,0-.135,0-.135-.068,0-.135.068-.2.271-.2l.271.068C8.367,203.518,8.231,203.586,8.1,203.654Z" transform="translate(32.733 -125.154)" fill="#ed1717"/>
        </g>
        <g id="Group_160" data-name="Group 160" transform="translate(113.062 22.713)">
          <path id="Path_497" data-name="Path 497" d="M57.033,187.845l.059,3.853-1.7.033c-.022,0-1.5.028-4.4.028q-2.2,0-5.482-.029c-3.527-.035-6.348-.9-8.383-2.567a8.918,8.918,0,0,1,.027-13.6,13.139,13.139,0,0,1,8.364-2.553c6.491-.028,9.821,0,9.854,0l1.7.015-.027,3.853-1.7-.015c-.033,0-3.346-.029-9.814,0-5.022.022-8.141,2.133-8.141,5.508a4.548,4.548,0,0,0,1.729,3.672,10.272,10.272,0,0,0,6.421,1.837c6.452.064,9.758,0,9.79,0Zm34.549-13.261c1.341,1.508,1.33,3.69,1.313,6.992q0,.369,0,.764a33.21,33.21,0,0,1-.193,4.57,5.1,5.1,0,0,1-1.818,3.473c-1.655,1.251-4.127,1.279-9.542,1.34-.846.01-1.626.017-2.345.017-4.291,0-6.447-.258-7.826-1.81-1.435-1.617-1.427-4-1.415-7.6.013-4.023.021-6.451,1.819-7.958,1.551-1.3,3.8-1.335,8.741-1.41l.985-.015c6.152-.1,8.7-.141,10.284,1.641Zm-2.095,6.969c.01-1.9.02-3.86-.3-4.225-.4-.453-2.21-.558-4.617-.558-.99,0-2.082.018-3.218.036l-.988.015c-3.536.054-6.091.093-6.76.653-.422.354-.429,2.444-.437,4.864-.007,2.247-.015,4.37.41,4.848.666.75,4.259.709,7.734.67,3.991-.045,6.874-.078,7.685-.691.478-.361.484-2.24.492-4.841q0-.4,0-.772Zm39.344-8.889v3.969l-16.625,11.049h16.625v3.891h-23.3V187.6l16.625-11.049H105.537v-3.891h23.3Zm24.312,9.235,11.648-8.806v18.648h-3.432V180.365l-8.216,6.211-8.216-6.211v11.376H141.5V173.094Zm46.113-7.316c1.341,1.508,1.33,3.69,1.313,6.992q0,.369,0,.764a33.217,33.217,0,0,1-.193,4.57,5.1,5.1,0,0,1-1.818,3.473c-1.655,1.251-4.127,1.279-9.542,1.34-.846.01-1.626.017-2.345.017-4.291,0-6.447-.258-7.826-1.81-1.435-1.617-1.427-4-1.415-7.6.013-4.023.021-6.451,1.819-7.958,1.551-1.3,3.8-1.335,8.741-1.41l.985-.015c6.152-.1,8.7-.141,10.284,1.641Zm-2.095,6.969c.01-1.9.02-3.86-.3-4.225-.4-.453-2.21-.558-4.617-.558-.99,0-2.082.018-3.218.036l-.988.015c-3.536.054-6.091.093-6.76.653-.422.354-.429,2.444-.437,4.864-.008,2.247-.015,4.37.409,4.848.666.75,4.259.709,7.734.67,3.991-.045,6.874-.078,7.685-.691.478-.361.484-2.24.492-4.841q0-.4,0-.772Zm20.125-4.723c-.319.2-.645.535-.645,1.508a1.446,1.446,0,0,0,.771,1.477,3,3,0,0,0,1.218.332l12.473.055a5.385,5.385,0,0,1,5.4,5.7c0,4.182-3.006,5.7-5.026,5.7H213.212V187.71h18.254a2.207,2.207,0,0,0,.965-.3c.319-.2.645-.536.645-1.508a1.446,1.446,0,0,0-.771-1.477,3,3,0,0,0-1.219-.332l-12.465-.063v.008a5.386,5.386,0,0,1-5.409-5.7c0-4.182,3.006-5.7,5.026-5.7h18.269v3.891H218.254a2.21,2.21,0,0,0-.965.3Z" transform="translate(-33.997 -172.638)" fill="url(#linear-gradient)"/>
          <path id="Path_498" data-name="Path 498" d="M2.108,63.99v15.8H0V63.99Zm11.7,12.248L13.9,63.945h2.13L15.9,79.965H12.592l-1.8-12.4v12.4H8.665V63.945H12.1ZM30.265,63.99v2.13h-2.64V79.9h-2.13V66.12H22.588V63.99ZM39.174,79.9a3,3,0,0,1-3-3V66.941a2.984,2.984,0,0,1,5.969,0V76.9A2.992,2.992,0,0,1,39.174,79.9Zm0-13.823a.866.866,0,0,0-.865.865V76.9a.853.853,0,0,0,.865.865.866.866,0,0,0,.865-.865V66.941A.881.881,0,0,0,39.174,66.075ZM66.267,63.99v2.13h-2.64V79.9H61.5V66.12H58.59V63.99Zm10.174.044h2.108v15.82H76.44V71.489H74.554v8.365H72.446V64.034h2.108V69.4H76.44Zm13.835,7.477H87.213v6.257H90.3v2.108H85.105V64.034H90.3v2.108H87.213V69.4h3.062Zm21.678-2.041v2.086h-3.128v8.276h-2.086v-15.8h5.17v2.108h-3.084V69.47h3.128Zm9.819,10.45a3.267,3.267,0,0,1-3.262-3.262v-12.6h2.108v12.6a1.154,1.154,0,1,0,2.308,0v-12.6h2.108v12.6A3.267,3.267,0,0,1,121.772,79.92Zm17.5-15.931v2.13h-2.64V79.9H134.5V66.12H131.59V63.99Zm9.819,15.931a3.267,3.267,0,0,1-3.262-3.262v-12.6h2.108v12.6a1.154,1.154,0,1,0,2.308,0v-12.6h2.108v12.6a3.267,3.267,0,0,1-3.262,3.262Zm15.9,0h-2.263l-1.22-3.35h-.488v3.35h-2.108V64.034h3.306a2.632,2.632,0,0,1,2.64,2.64V73.93a2.609,2.609,0,0,1-1.243,2.241Zm-3.972-13.779v8.32h1.2a.54.54,0,0,0,.533-.532V66.674a.54.54,0,0,0-.533-.532Zm15.7,5.369h-3.062v6.257h3.084v2.108h-5.192V64.034h5.192v2.108h-3.084V69.4h3.062Z" transform="translate(12.02 -28.28)" fill="url(#linear-gradient)"/>
        </g>
      </g>
      <g id="Group_644" data-name="Group 644" transform="translate(0 0)">
        <g id="Group_161-2" data-name="Group 161" transform="translate(0 0)">
          <path id="Path_495-2" data-name="Path 495" d="M48.22,96.439a48.22,48.22,0,1,1,48.22-48.22A48.22,48.22,0,0,1,48.22,96.439Zm0-94.319a46.1,46.1,0,1,0,46.1,46.1A46.1,46.1,0,0,0,48.22,2.12Z" transform="translate(0 0)" fill="url(#linear-gradient)"/>
          <path id="Path_496-2" data-name="Path 496" d="M6.064,204.128l-1.49-.271a8.178,8.178,0,0,1-2.167-.677,10.325,10.325,0,0,0-1.151-.609,1.057,1.057,0,0,1-.542-.542,1.218,1.218,0,0,0-.542-.609,3.588,3.588,0,0,1-.677-.406l-.135-.2.406.068a2.433,2.433,0,0,0-.745-.677A14.936,14.936,0,0,1-4.026,196a1.054,1.054,0,0,0-.2-.609,1.963,1.963,0,0,1-.474-.948c-.135-.542-.339-1.083-.406-1.287l-.677-3.86a35.354,35.354,0,0,1-.406-3.725l.068-.813c.135-.677.339-1.151.474-1.151.406-.135.745-1.016.745-1.557a.508.508,0,0,0-.068-.339.462.462,0,0,0-.339-.2l-.135.068.2.406c0,.068,0,.068-.135.068a.45.45,0,0,1-.339-.271,5.39,5.39,0,0,1,.339-1.761c.068,0,.068-.135.068-.2v-.542a5.5,5.5,0,0,1,.339-1.761l.2-1.084A14.736,14.736,0,0,1-4.3,174.6l.406-1.287A17.194,17.194,0,0,1-2.739,170l.135-.068c.135,0,.2.135.2.271a.517.517,0,0,1-.135.339,1.365,1.365,0,0,0-.2.745c.068.2.068.271.135.271l.2-.135a2.619,2.619,0,0,0,.271-1.151c0-.271-.068-.542-.2-.542a.31.31,0,0,1-.271-.339v-.068a4.287,4.287,0,0,1,.474-1.49,5.592,5.592,0,0,0,.542-1.219,6.113,6.113,0,0,1,.609-1.422,1.255,1.255,0,0,0,.135-.474.27.27,0,0,1,.135-.271,5.356,5.356,0,0,0,.542-.88c.2-.474.474-.813.609-.813l.068-.068v-.135a9.9,9.9,0,0,1,1.219-2.98c.135-.136.2-.2.271-.2s.068.068.068.135a6.972,6.972,0,0,1-.542,1.9A17.5,17.5,0,0,1,.444,163.09L-.3,164.783A2.7,2.7,0,0,1-.775,166a.363.363,0,0,0-.2.271.18.18,0,0,0,.2.2,1.877,1.877,0,0,0,.542-.813,2.387,2.387,0,0,1,.813-1.083c.2-.068.271-.2.271-.271v-.271a4.184,4.184,0,0,1,.609-1.9,8.089,8.089,0,0,0,.745-1.761v-.406a.291.291,0,0,1,.271-.271c.135,0,.474-.406.677-.88l.88-1.49,1.761-2.506a4.127,4.127,0,0,0,.474-.813,40.161,40.161,0,0,1,4.74-5.553,13.856,13.856,0,0,0,1.354-1.287c.135-.135.271-.271.406-.271a3.4,3.4,0,0,0,.542-.406,8.393,8.393,0,0,1,1.9-1.49c.2-.068.339-.2.339-.271l-.068-.068a1.256,1.256,0,0,0-.474.135,3.236,3.236,0,0,1-1.558.677l-.135-.068a3.365,3.365,0,0,1,.813-.677c.474-.271.88-.677.88-.813v-.068c0-.068.068-.068.135-.068h.339a.372.372,0,0,0,.339-.2c.271-.677,1.964-1.151,3.521-1.151a10.152,10.152,0,0,1,1.49.135,5.231,5.231,0,0,1,1.625.813,7.541,7.541,0,0,1,2.3,2.573v.135a8.2,8.2,0,0,0,1.354,2.3,7.451,7.451,0,0,1,1.219,3.86v.542a1.973,1.973,0,0,1-.677,1.625,1.293,1.293,0,0,1-.745.61l-.068-.068.068-.271-.2.135-.271.135a1.669,1.669,0,0,0-.677.542,7.94,7.94,0,0,1-2.776,2.167c-.2,0-.271,0-.271-.135l.135-.271c0-.068,0-.068-.135-.068H21.3c-.135,0-.271-.068-.271-.2a4.7,4.7,0,0,1,.745-1.558,12.4,12.4,0,0,0,.948-1.761,2,2,0,0,1,.339-.88,2.009,2.009,0,0,0,.271-.745.18.18,0,0,0-.2-.2l-.339.135v-.068l.2-.474q0-.1-.2-.2c-.068-.068-.135-.135-.135-.2l.135-.271a1.877,1.877,0,0,0,.339-.813c0-.474-.339-.745-1.016-.745a20.188,20.188,0,0,0-4.2,1.083,16.541,16.541,0,0,0-3.589,2.235,2.927,2.927,0,0,1-.677.677,2.487,2.487,0,0,0-.677.948c0,.271-.135.474-.339.474a2.028,2.028,0,0,0-1.287,1.287l.068.135-.135.068h-.068c-.2,0-.339.339-.474.813a.379.379,0,0,1-.406.339c-.271,0-.339.135-.339.406v.135a.18.18,0,0,1-.2.2c-.135,0-.2-.068-.2-.135v-.2l-.135.135-.135.2c0,.068.068.068.135.135.135.068.135.135.135.2a.438.438,0,0,1-.135.339.372.372,0,0,1-.339.2H8.976l-.2.068v.068a.146.146,0,0,0,.135.135l.068.068-.135.271a1.982,1.982,0,0,1-1.084.609H7.69c-.135,0-.135.068-.135.135a1.03,1.03,0,0,0,.271.406l.135.135v.068l-.677-.135.271.2c.135.135.271.271.271.339H7.757c-.339,0-1.287,1.151-1.287,1.49v.2a.557.557,0,0,1-.271.406,1.944,1.944,0,0,0-.813,1.49v.135a.18.18,0,0,1-.2.2.248.248,0,0,0-.271.271c0,.135,0,.271-.068.271-.135,0-.271.406-.406.88s-.271.813-.339.813a1.212,1.212,0,0,0-.474.339l-.135.135.2-.068c.068,0,.068.068.068.135a.587.587,0,0,1-.271.474.372.372,0,0,0-.2.339v.271a1.615,1.615,0,0,1-.271.813,4.017,4.017,0,0,0-.339.948.146.146,0,0,1-.135.135L2.2,170.81l-.068.068.068.339a1.977,1.977,0,0,1-.135.609c-.474.677-.542.813-.542,1.084a4.226,4.226,0,0,1-.542,1.9c-.068,0-.135.135-.135.271v.068c0,.474-.474,1.693-.677,1.693a7.427,7.427,0,0,0-.474,2.1V179a12.968,12.968,0,0,1-.609,2.3,4.154,4.154,0,0,0-.2,1.084v.135c0,.068,0,.135-.068.135s-.135.2-.135.339a11.231,11.231,0,0,1-.271,1.964l-.271,1.9-.135.677a5.863,5.863,0,0,0-.2,1.828c0,2.3.474,5.756,1.016,6.636a5.054,5.054,0,0,0,3.251,1.49c.609.068,1.151.2,1.151.338,0,.068,0,.068.068.068l.068-.068a.711.711,0,0,1,.609-.338c.068,0,.135,0,.135.068l.068.068.271-.135a.691.691,0,0,1,.542-.339l.2.068c0,.068-.068.068-.135.135s-.135.136-.135.2h.2c.135,0,.271-.068.271-.2v-.068c0-.068.068-.135.2-.135h.2c.609,0,2.1-.474,2.1-.745,0-.068.135-.135.339-.135a.774.774,0,0,0,.474-.2,7.676,7.676,0,0,1,2.641-1.49,4.132,4.132,0,0,0,1.49-1.016,8.384,8.384,0,0,1,1.761-1.354,3.375,3.375,0,0,0,1.219-1.016c0-.068,0-.135.068-.135h.068a15.633,15.633,0,0,0,2.844-2.167c.135-.068.745-.609,1.354-1.151a12.415,12.415,0,0,0,1.287-1.219c0-.135.271-.271.474-.271l.271-.068v-.068c0-.135.2-.271.474-.474s.542-.339.542-.474a.31.31,0,0,1,.339-.271c.135-.068.609-.542,1.084-.948a3.1,3.1,0,0,1,1.016-.88.248.248,0,0,0,.271-.271v-.068c0-.2.2-.406.474-.542a1.136,1.136,0,0,0,.474-.609c0-.068.068-.2.271-.2a6.526,6.526,0,0,0,1.558-1.49A6.919,6.919,0,0,1,30.1,178.6l.2.068q.1,0,.2-.406c.135-.339.339-.542.474-.542h.068l.068-.135v-.135a.146.146,0,0,1,.135-.135h.068a.18.18,0,0,1,.2.2l.068.271.2-.474a.352.352,0,0,0-.135-.271c-.068-.068-.135-.135-.135-.2l.135-.2,1.151-1.219c.542-.745,1.016-1.016,1.354-1.016s.677-.271,1.084-.813.745-.813,1.016-.813c.068,0,.135.068.135.271v.068c-.068.2-.135.339-.2.339a.146.146,0,0,0-.135.135l.068.474c0,.135-.068.2-.135.2-.135,0-.2.068-.2.136,0,.135-.068.135-.2.135l-.135-.068-.135.135v.068c0,.068.068.135.2.135.2,0,.339.068.339.135,0,.135-.068.2-.135.2s-.2.2-.2.406v.135c0,.068,0,.135.068.135.135,0,.406-.271.745-.813a1.608,1.608,0,0,1,.609-.609l.068.068-.271.406c-.271.2-.406.406-.406.542l.135.406-.068.135a1.525,1.525,0,0,0-.474.068.91.91,0,0,1-.609-.135l-.2-.068a.619.619,0,0,0-.339.2l-.2.2.135.068c.135,0,.135,0,.135.068l-.135.406c0,.068.068.068.2.068l.2.068-.068.068h-.135a.963.963,0,0,1-.406-.135l-.271-.135-.271.135c0,.068.068.2.271.271.135.136.2.2.2.271l-.068.135H34.3c-.068,0-.135,0-.135-.068l-.068-.068c-.068,0-.135,0-.2.135l-.271.339c0,.068.068.068.135.068H33.9a.619.619,0,0,1,.339.2v.2l-.2-.068c-.068,0-.135.135-.2.271a.363.363,0,0,1-.339.339c-.2,0-.271-.068-.271-.2q0-.1.2-.2l.068-.068h-.2c-.2.068-.339.135-.339.339V179h-.135c-.135,0-.135.068-.2.135v.068a.3.3,0,0,0,.2.068.557.557,0,0,1,.406.271v.135a.146.146,0,0,1-.135.135.313.313,0,0,1-.339-.2c0-.068-.068-.135-.2-.135-.068,0-.068.068-.068.135l.135.542-.068-.068a.409.409,0,0,0-.406-.2.936.936,0,0,0-.609.339c-.2.2-.271.271-.271.339s.135.068.406.068.542.068.542.2c0,.068-.068.135-.2.135a1.517,1.517,0,0,0-.677.474c-.2.2-.271.271-.339.271l.271-.271.135-.406c0-.068,0-.068-.068-.068-.271,0-.474.406-.542.88a.81.81,0,0,1-.339.542,1.468,1.468,0,0,0-.474.406H29.9l-.068-.135c0-.2-.068-.339-.2-.339s-.271.2-.474.542-.474.61-.609.61-.2,0-.2.068l.068.2c0,.135-.2.339-.406.474-.542.271-.88.609-.88.813h.068a.963.963,0,0,0,.406-.135l.406-.2c.068,0,.068,0,.068.068,0,.271-.88.745-1.625.813a.3.3,0,0,0-.2.068v.135c0,.068-.135.135-.271.2s-.271.135-.271.2l.135.135a.249.249,0,0,0,.2.068.619.619,0,0,0,.339-.2.619.619,0,0,1,.339-.2,2.211,2.211,0,0,1-.542.745c-.339.271-.474.406-.474.542s.068.2.2.271l.2.135c.135,0,.339-.135.609-.474a3,3,0,0,1,.609-.542,10.216,10.216,0,0,0,1.287-1.151,1.25,1.25,0,0,1,.609-.474v.068c0,.271-.339.813-.542.813a.726.726,0,0,0-.542.406,3.862,3.862,0,0,1-.745.745l-.813.745c-1.084,1.084-1.49,1.49-1.625,1.49s-.2.068-.2.135v.068a.146.146,0,0,1-.135.135c-.068,0-.135-.068-.135-.2V189.3c0-.271,0-.406-.135-.406a.146.146,0,0,1-.135-.135v-.135c0-.068,0-.068-.068-.068h-.068l-.135.135v.135c0,.271-.339.813-.609.813-.2,0-.339.068-.339.2,0,.068-.135.135-.271.135l-.88-.135-.135.068.068.2-.135.406c0,.068.068.068.2.068s.271-.068.271-.2.135-.2.271-.2a.7.7,0,0,1,.542.271.146.146,0,0,0,.135.135l.2-.2a1.026,1.026,0,0,1,.745-.474.066.066,0,0,1,.068.068c0,.339-.813,1.151-1.219,1.287h-.2c-.2,0-.271-.068-.271-.135s.068-.135.2-.2l.135-.068-.135-.068c-.271,0-1.219.88-1.219,1.151l.135.068a1.8,1.8,0,0,0,.948-.339l.135-.135-.068.339a1.447,1.447,0,0,1-.813.542l-.406.068q-.406,0-.406-.2c0-.068,0-.135.135-.2l.135-.135H21.1a1.532,1.532,0,0,0-.677.339,1.512,1.512,0,0,1-.88.406c-.271,0-.474,0-.474.135l.339.339.271.2c.135,0,.2-.068.271-.2a.692.692,0,0,1,.474-.271c.068,0,.068,0,.068.068l-.135.068a1.232,1.232,0,0,0-.271.745c-.068.339-.2.609-.339.609s-.271.135-.339.339a2.075,2.075,0,0,1-.813.88l-.068-.068c0-.135-.135-.2-.271-.2-.068,0-.068.068-.068.271v.2c.135.339.271.542.339.542a.726.726,0,0,1,.406.135l.2.068.135-.068a.249.249,0,0,0,.068-.2q0-.2-.406-.2c-.135,0-.271,0-.271-.068l.135-.2a2.211,2.211,0,0,1,.948-.61l-.068.2.135.068a.18.18,0,0,0,.2-.2,1.153,1.153,0,0,0-.068-.474.439.439,0,0,1,.339-.406.146.146,0,0,1,.135.135c.068.135.135.2.271.2a.146.146,0,0,0,.135-.135v-.068a1.169,1.169,0,0,1,.88-.88.7.7,0,0,0,.474-.339.686.686,0,0,1,.474-.271.57.57,0,0,0,.474-.474.641.641,0,0,1,.542-.474c.2,0,.339,0,.339.068l-.2.271a1.608,1.608,0,0,0-.2.813v.135c0,.135-.068.271-.135.271a2.952,2.952,0,0,0-.948.745c-.406.339-.745.609-.948.609l-.271-.068-.068.068.135.339c0,.068-.068.135-.271.2-.135.068-.2.135-.2.271v.135c0,.135-.339.271-.677.271l-.406-.068c-.2,0-.271.135-.271.406a.575.575,0,0,1-.542.474.346.346,0,0,1-.339-.271v-.068c-.068,0-.068.068-.135.2a.557.557,0,0,1-.406.271.557.557,0,0,0-.406.271v.068l.068.068.271-.068h.339c0,.135-.339.406-.948.88-.88.609-1.219.813-2.641,1.693a1.952,1.952,0,0,1-.745.271c-.068,0-.068,0-.068-.068v-.2c0-.068,0-.068-.068-.068-.135,0-.2.135-.2.271v.406c0,.406-.2.609-.948.745a2.156,2.156,0,0,0-.88.271,5.021,5.021,0,0,1-2.032.88H9.721c-.135,0-.135.068-.135.271v.271l-.135.068-.677-.135c0,.068,0,.068.135.135l.135.135-.068.068-.406-.068a3.32,3.32,0,0,1-.88-.2c-.068,0-.135.068-.135.2v.2c0,.2-.135.271-.406.271l-.406-.068.2-.135c.135-.068.2-.068.2-.135l-.271-.068a1.276,1.276,0,0,0-.542.135.469.469,0,0,0-.271.2c0,.068,0,.068.068.068a.146.146,0,0,1,.135.135v.068c-.068.068-.135.135-.2.135Zm7.178-56.816a1.008,1.008,0,0,0,.609-.271l.135-.271a1.214,1.214,0,0,0-.542.271l-.339.2c0,.068.068.068.135.068Zm-4.537,2.641-.068-.068a2.444,2.444,0,0,1,.609-.813,6.575,6.575,0,0,1,1.693-1.49.066.066,0,0,1,.068.068,1.679,1.679,0,0,1-.542.609c-.271.271-.745.745-1.016,1.084a1.393,1.393,0,0,1-.745.609Zm3.792-1.693a.3.3,0,0,0,.271-.2q-.1-.2-.2-.2c-.135,0-.271.068-.271.2v.068C12.294,148.192,12.362,148.259,12.5,148.259Zm-.813.542c.135,0,.271-.068.271-.2v-.068c0-.068,0-.135-.068-.135a.3.3,0,0,0-.271.2v.068C11.617,148.734,11.617,148.8,11.685,148.8ZM3.9,156.386c-.068,0-.135-.068-.135-.2a1.87,1.87,0,0,1,.542-.88l.88-1.422a1.642,1.642,0,0,1,.542-.609c.135,0,.2,0,.2-.068v-.068c0-.406.745-1.49,1.016-1.49.135,0,.271-.135.339-.339a2.558,2.558,0,0,1,1.084-1.151l.135.068v.068a1.66,1.66,0,0,1-.813.88.605.605,0,0,0-.271.542c0,.2-.068.339-.339.339H6.606l.068.068c.135.068.271.2.271.271a6.543,6.543,0,0,1-1.219,1.828l-.88,1.287c-.339.542-.677.88-.948.88Zm6.027-4.537.745-.677.474-.609-.068-.068c-.2,0-.677.474-1.016,1.016Zm-1.354.474.2-.068a.363.363,0,0,0,.2-.271c0-.068,0-.068-.068-.068h-.2c-.135.068-.271.2-.271.271A.146.146,0,0,0,8.57,152.323Zm.813.2.068-.135-.135-.135H9.247v.135l.068.135Zm2.3.609q.1,0,.2-.2c0-.068,0-.2-.068-.2,0,0-.135.135-.135.2l-.068.135Zm-4.943,2.844.2-.2a1.242,1.242,0,0,0,.474-.677l.068-.271-.2.2-.474.609Zm2.235.542.2-.2c0-.068,0-.2-.135-.2a.216.216,0,0,0-.2.2C8.909,156.453,8.909,156.521,8.976,156.521Zm-3.589.135.135-.068.135-.271-.068-.135-.135.068-.135.271Zm.677.068c.135,0,.2-.068.271-.2l-.068-.135-.135.068-.271.2C5.861,156.724,5.929,156.724,6.064,156.724Zm-2.506.2c-.135,0-.2-.068-.2-.135v-.068a.363.363,0,0,1,.271-.2.18.18,0,0,1,.2.2C3.83,156.792,3.762,156.927,3.559,156.927Zm1.49.745a1.122,1.122,0,0,0,.677-.2l-.068-.135a1.322,1.322,0,0,0-.474.068q-.609.1-.609.2c0,.068.135.068.474.068Zm-2.167.745c-.2,0-.339-.068-.339-.2a.735.735,0,0,1,.542-.542.066.066,0,0,1,.068.068.249.249,0,0,1,.068.2C3.22,158.146,3.085,158.417,2.882,158.417Zm2.167-.2q.1,0,.2-.2l.068-.135-.068-.068c-.068,0-.135.135-.2.2Zm-2.641.677a.146.146,0,0,1-.135-.135c0-.068.068-.135.271-.135.135,0,.271,0,.271.068Zm4,1.558a.18.18,0,0,0,.2-.2v-.068a.18.18,0,0,0-.2-.2l-.135.068c-.068.068-.135.135-.135.2v.068A.27.27,0,0,0,6.4,160.449Zm-1.016,1.422.271-.271.2-.474v-.068H5.793c-.2,0-.474.339-.474.609v.068C5.319,161.8,5.319,161.871,5.387,161.871Zm-2.1-.474.068-.2-.068-.068a.066.066,0,0,0-.068-.068c-.068,0-.068.068-.068.2Zm.813,2.844.2-.406.068-.339c-.068,0-.135.135-.271.339l-.068.271Zm-1.151.948c.135,0,.2-.135.271-.339l.068-.271-.068-.068c-.068,0-.135.068-.271.271l-.068.271Zm-4.334,2.98c.068,0,.2-.271.339-.542l.135-.542-.068-.135h-.068c-.068,0-.068.068-.135.135a2.511,2.511,0,0,0-.271.948Zm3.183-.135.135-.339c0-.135,0-.271-.135-.271-.068,0-.135.135-.135.271C1.663,167.9,1.73,168.033,1.8,168.033Zm.677,0c.068,0,.135-.135.135-.339a.3.3,0,0,0-.2-.271c-.135,0-.2.135-.2.271C2.272,167.9,2.34,168.033,2.475,168.033Zm-2.506.135.135-.135v-.068a.146.146,0,0,0-.135-.135c-.068,0-.135.068-.135.2A.146.146,0,0,0-.03,168.169Zm1.219.948c.068,0,.135-.068.271-.271l.135-.2a.249.249,0,0,0-.2.068c-.135.068-.271.135-.271.2v.068C1.121,169.049,1.121,169.117,1.189,169.117Zm-3.115.542.135-.271v-.2c-.068,0-.068,0-.068.068-.068.068-.135.135-.135.2v.068C-1.994,169.659-1.994,169.659-1.927,169.659Zm2.1,1.558c.068,0,.2-.135.271-.339.135-.135.135-.2.135-.2-.068,0-.135.068-.2.135l-.271.339C.105,171.216.105,171.216.173,171.216Zm-3.047.948.2-.2c0-.135,0-.2-.135-.2a.18.18,0,0,0-.2.2Zm37.99,1.084c-.068,0-.068-.068-.068-.135v-.2c.068,0,.068,0,.068.068l.068.135ZM-.3,173.857a.18.18,0,0,0,.2-.2c0-.135-.068-.2-.135-.2a.25.25,0,0,0-.135.2v.068C-.369,173.79-.369,173.857-.3,173.857Zm34.74.339a.18.18,0,0,1-.2-.2v-.068h.135q.2.1.2.2C34.574,174.2,34.506,174.2,34.439,174.2Zm-37.787.745v-.271a.3.3,0,0,0-.2-.271.146.146,0,0,0-.135.136l.068.135C-3.484,174.873-3.416,174.941-3.349,174.941Zm2.776.542c.068,0,.135-.135.271-.542l.135-.339-.609.474.068.271Zm-2.844-.135-.135-.2a.9.9,0,0,0-.339-.2l-.068.068c0,.068,0,.068.135.135Zm36.7.406a.8.8,0,0,0,.406-.339l.135-.271-.068-.068c-.068,0-.2.068-.406.271l-.135.339C33.22,175.753,33.22,175.753,33.287,175.753Zm2.438.88c-.135,0-.135-.068-.135-.135q.1-.2.2-.2a.3.3,0,0,1,.068.2v.068Zm-40.022.813c.135,0,.2-.135.271-.339l.068-.271-.068-.135s-.068,0-.2.135a.86.86,0,0,0-.271.474C-4.5,177.379-4.432,177.446-4.3,177.446Zm37.652-.406a.216.216,0,0,0,.2-.2l.068-.068h-.2c-.2.068-.271.135-.271.2S33.22,177.04,33.355,177.04Zm-35.011.677.068-.135-.068-.135h-.068c-.068,0-.068.068-.068.135l.068.135Zm34.13.474.135-.2v-.135c0-.068,0-.068-.068-.068a.18.18,0,0,0-.2.2c0,.068.068.2.135.2Zm2.167,0-.135-.068v-.068a.066.066,0,0,1,.068-.068c.068,0,.135,0,.135.068l.068.068C34.777,178.191,34.71,178.191,34.642,178.191Zm-37.855.135-.068-.068c0-.068-.068-.068-.135-.068a.066.066,0,0,0-.068.068v.068h.271Zm-1.625.88a.711.711,0,0,0,.609-.339l.135-.339c0-.135-.135-.2-.339-.2a.18.18,0,0,0-.2.2v.135c0,.135-.068.271-.135.271a.18.18,0,0,0-.2.2C-4.974,179.207-4.906,179.207-4.838,179.207Zm2.641-.271a.745.745,0,0,0,.406-.2l.135-.135c0-.068-.068-.068-.2-.068-.2,0-.406.135-.406.2l-.068.135Zm35.823.339h-.271v-.068a.066.066,0,0,1,.068-.068c.068,0,.135,0,.135.068Zm-36.094.2.135-.068v-.068H-2.6v.068Zm35.756,1.354c-.068,0-.068-.068-.068-.135v-.068c0-.135.135-.2.271-.2.068,0,.068,0,.068.068v.135C33.491,180.7,33.423,180.832,33.287,180.832Zm-36.027.135.068-.135-.068-.135c0-.068,0-.068-.068-.068v.2Zm-1.219.135v-.068l-.068-.135c0-.068,0-.068-.068-.068v.135l.068.135Zm33.115.339a.249.249,0,0,0,.2-.068l.135-.271v-.068H29.36a.291.291,0,0,0-.271.271v.068A.066.066,0,0,0,29.157,181.442Zm3.657-.068-.135-.068v-.068l.135-.068.135.068v.068Zm-2.912.677c.068-.068.135-.135.135-.2v-.135c0-.068-.068-.135-.2-.135-.068,0-.135.135-.135.271s.068.2.135.2Zm-2.37-.135c.068,0,.135-.068.2-.135,0-.135,0-.2-.135-.2a.18.18,0,0,0-.2.2C27.464,181.848,27.464,181.916,27.531,181.916Zm.745.339.271-.068a.363.363,0,0,0,.2-.271v-.068h-.068a.249.249,0,0,0-.2.068A.619.619,0,0,0,28.276,182.254Zm-31.083.068.2-.068c0-.068-.135-.135-.2-.2l-.135-.068-.068.135A.216.216,0,0,0-2.807,182.322Zm-2.912.813h-.068c-.068,0-.068-.068-.135-.135a1.255,1.255,0,0,1,.135-.474c.068-.135.068-.2.135-.2a1.377,1.377,0,0,1,.068.339v.135A.517.517,0,0,1-5.719,183.135Zm35.62,1.219v-.135c0-.135.271-.406.609-.677.406-.271.542-.406.609-.406l-.135.406c-.2.2-.474.474-.609.474a.41.41,0,0,0-.406.2C29.969,184.286,29.969,184.354,29.9,184.354Zm-2.776-.745.271-.135v-.068a.146.146,0,0,0-.135-.135.363.363,0,0,0-.271.2C26.99,183.541,26.99,183.609,27.125,183.609Zm1.625.406a.3.3,0,0,1-.068-.2c0-.068.068-.2.135-.2a.146.146,0,0,1,.135.135v.068Q28.852,184.015,28.75,184.015Zm-.948.2.135-.068-.068-.068c0-.068-.068-.068-.135-.068a.066.066,0,0,0-.068.068v.068Zm-1.9.542.2-.271c.135-.135.135-.2.135-.2h-.2c-.135.068-.271.2-.271.271,0,.135.068.2.135.2Zm3.251,0a.363.363,0,0,1-.271-.2l-.068-.135.135.068c.068.068.2.135.2.2Zm.271.135.068-.2c0-.135.068-.2.135-.2H29.7v.068l-.135.271Zm1.084.068-.135-.068v-.068l.135-.068.135.068v.068Zm-5.35.542c.068,0,.135,0,.135-.068l-.068-.068-.135-.068-.068.135Zm5.214.339a.066.066,0,0,1-.068-.068c0-.068.135-.135.339-.271l.271-.135-.068.2A.587.587,0,0,1,30.375,185.844Zm-7.246,0,.271-.068a.45.45,0,0,0,.271-.339l-.135-.068-.2.135a.619.619,0,0,0-.2.339Zm3.928.068c-.068,0-.068-.068-.068-.135v-.068a.251.251,0,0,1,.135-.2c.068,0,.135.068.135.2A.216.216,0,0,1,27.057,185.911Zm.677,0-.135-.2a.18.18,0,0,1,.2-.2c.135,0,.135.068.135.2Zm-3.047.135a.146.146,0,0,0,.135-.135c0-.135-.068-.2-.135-.2l-.135.271Zm1.354,4.74-.271-.135a.352.352,0,0,1-.135-.271,1.553,1.553,0,0,1,.813-1.016.567.567,0,0,0,.406-.542v-.2h.135a2.06,2.06,0,0,0,.745-.406,27.958,27.958,0,0,1,2.573-2.167,6.54,6.54,0,0,1-1.49,1.558l-.068.068.068.271a.87.87,0,0,1-.677.677l-.271-.068.135.271c0,.2-.406.542-.677.542l-.271-.068v.135c0,.2-.406.677-.677.677a.5.5,0,0,0-.406.406v.068l.135.135Zm-1.084-2.844.068-.068-.068-.2-.2-.271c-.068,0-.068.135-.068.271C24.755,187.807,24.823,187.943,24.958,187.943Zm-.474.88.339-.068.474-.406c0-.135-.135-.2-.339-.2a.821.821,0,0,0-.339.068Zm-1.219.61a.31.31,0,0,0,.271-.339v-.135a.249.249,0,0,0-.2.068c-.135.068-.271.2-.271.271S23.13,189.433,23.265,189.433Zm-.474,0c.068,0,.068-.068.068-.135a.18.18,0,0,0-.2-.2l-.135.068.068.135Zm1.354.135c-.068,0-.068-.068-.135-.135,0-.068,0-.135.068-.135a.066.066,0,0,1,.068.068l.068.068Zm-4.2,2.235c.339,0,.677-.068.677-.135l-.271-.2-.135-.068c0-.068.068-.068.2-.135l.677-.542.2-.271c0-.068-.068-.068-.2-.068s-.406.271-.609.474a1.136,1.136,0,0,1-.609.474.557.557,0,0,0-.406.271l-.068.068c0,.068.2.135.542.135Zm1.625-.677a.3.3,0,0,0,.2-.068v-.068l-.068-.135a.249.249,0,0,0-.2.068l-.271.135C21.233,191.126,21.369,191.126,21.572,191.126Zm2.776.813c-.068,0-.068-.068-.068-.135l.068-.271c.068-.2.2-.339.339-.339h.135l-.068.068a.372.372,0,0,0-.2.339v.068C24.552,191.8,24.484,191.938,24.348,191.938Zm-.2.948a.305.305,0,0,1-.2-.2v-.135h.135l.271.2C24.348,192.819,24.281,192.886,24.145,192.886Zm-6.095.339q.1,0,.2-.2v-.068l-.135-.068-.135.068v.068a.3.3,0,0,0,.068.2Zm2.573.406c-.068,0-.135-.068-.135-.2v-.068q0-.1.2-.2h.135c.068,0,.068.068.068.2C20.827,193.5,20.759,193.631,20.624,193.631Zm-1.828.135c.135,0,.135-.135.135-.339-.068-.135-.135-.271-.2-.271l-.135.271C18.592,193.631,18.66,193.767,18.8,193.767Zm-1.219.406-.2-.339h.406c.339,0,.474-.135.474-.271l-.135-.135-.135.135-.2.135c-.068,0-.068-.068-.135-.2l-.135-.2a.619.619,0,0,0-.339.2l-.2.271q0,.1.2.2Zm1.964-.406-.068-.068c0-.068-.068-.068-.135-.068a.066.066,0,0,0-.068.068v.068Zm-2.844.677.068-.135-.068-.135a.363.363,0,0,0-.271-.2l-.068.135v.135c.135.135.2.2.271.2Zm-.2,1.354c.068,0,.135,0,.135-.068a.887.887,0,0,1,.542-.406c.745-.406,1.151-.677,1.151-.88a.146.146,0,0,0-.135-.135h-.068a1.841,1.841,0,0,0-1.016.609,1.668,1.668,0,0,1-.677.542.146.146,0,0,0-.135.135l.068.135Zm-2.167.068.609-.406a1.43,1.43,0,0,1,.677-.271h.2a.483.483,0,0,0,.406-.2l.068-.135a.146.146,0,0,0-.135-.135c-.135,0-.2.135-.2.271v.068h-.068l-.068-.135a.363.363,0,0,1,.2-.271l.2-.2c0-.068,0-.068-.068-.068a5.84,5.84,0,0,0-1.828,1.354l-.068.136h.068Zm3.657.135a.407.407,0,0,0-.068-.271h-.068l-.068.136c.068.068.068.135.135.135h.068Zm-5.418,2.506q.1,0,.2-.2a2.043,2.043,0,0,1,.542-.542,3.571,3.571,0,0,1,.813-.2,1.426,1.426,0,0,0,.88-.339,1.027,1.027,0,0,1,.542-.271l.339.068v-.068l-.271-.2c-.135-.135-.271-.2-.271-.271s.135-.135.271-.271l.271-.271-.339.135c-.271.135-.474.339-.474.406s-.135.136-.271.136a1.077,1.077,0,0,0-.609.406,1.235,1.235,0,0,1-.745.339c-.135,0-.271.068-.271.2,0,.068-.135.2-.339.271a.379.379,0,0,0-.339.406Zm5.147-1.693a1.654,1.654,0,0,1-.068-.474c-.068-.271-.135-.339-.271-.339l-.135.068-.271.2.339.271C17.509,196.679,17.644,196.814,17.712,196.814Zm-6.975,3.928c.135,0,.2,0,.2-.135s.135-.2.339-.2a4.223,4.223,0,0,0,2.032-1.083c.068-.2.2-.271.271-.271s.2.068.2.271a.439.439,0,0,0,.406.339l.2.068c.068,0,.068-.068.068-.135l-.068-.339a.372.372,0,0,1,.2-.339.9.9,0,0,0,.2-.542.248.248,0,0,1,.271-.271c.609,0,1.625-.406,1.625-.677a.18.18,0,0,1,.2-.2h.271c.135,0,.2-.068.2-.135-.068-.135-.135-.2-.271-.2l-.339.068-.2-.135-.068-.135c0-.068.068-.068.135-.068h.135v-.068a.249.249,0,0,0-.2-.068.379.379,0,0,0-.406.339v.135c0,.068-.068.135-.271.2a1.032,1.032,0,0,0-.677.406c-.135.2-.339.406-.474.406a.363.363,0,0,0-.271.2,2.224,2.224,0,0,1-1.016.542c-.474.135-.813.339-.813.474s-.2.339-.542.474a3.676,3.676,0,0,0-1.016.609,1.286,1.286,0,0,1-.609.2L10.2,200.4l.068.136a.732.732,0,0,0,.474.2Zm1.625-3.589a.616.616,0,0,0,.542-.271l.068-.2-.068-.068c-.135,0-.271.135-.542.271l-.2.2C12.159,197.153,12.227,197.153,12.362,197.153Zm-.542.406.135-.068v-.068l-.135-.068-.135.068v.068Zm1.422.813a.407.407,0,0,0,.271-.068c.271-.135.474-.339.474-.406s-.068-.068-.135-.068c-.2.068-.609.271-.677.474v.068h.068ZM10.06,198.3l.135-.068v-.068H9.924v.068Zm1.693.609a.3.3,0,0,0,.271-.2.216.216,0,0,0-.2-.2c-.135,0-.2.068-.271.2v.068C11.55,198.846,11.617,198.913,11.753,198.913Zm.542.339c.068,0,.135-.068.135-.2a.146.146,0,0,0-.135-.135l-.135.135v.068A.146.146,0,0,0,12.294,199.252Zm-2.3.745.068-.135a.517.517,0,0,1,.339-.135l.339.068.068-.068-.068-.135a.811.811,0,0,0-.542-.339H10.06l-.068.542v.2Zm4.943-.339a.216.216,0,0,0,.2-.2c0-.135-.068-.2-.135-.2a.251.251,0,0,0-.135.2v.068C14.868,199.591,14.868,199.658,14.936,199.658Zm-2.844,1.084-.068-.135h-.2v.068c0,.068.068.068.135.068Zm-2.573.542c.271-.068.474-.135.474-.2v-.068a.18.18,0,0,0-.2-.2l-.542.068c-.2.068-.271.135-.271.2C8.976,201.216,9.179,201.284,9.518,201.284Zm-1.49.068c.135,0,.2,0,.2-.068l-.068-.068-.135-.068-.135.068v.068Zm3.251.339a.372.372,0,0,0,.339-.2v-.068c0-.068,0-.068-.068-.068l-.339.068-.271-.2c-.068,0-.068.068-.068.135a.429.429,0,0,0,.406.339Zm-4.943,1.084.135-.068c.135-.068.271-.135.271-.2a.822.822,0,0,0-.339-.068c-.135,0-.2.068-.2.135v.068A.146.146,0,0,0,6.335,202.773Zm1.761.88H7.96c-.068,0-.135,0-.135-.068,0-.135.068-.2.271-.2l.271.068C8.367,203.518,8.231,203.586,8.1,203.654Z" transform="translate(32.733 -125.154)" fill="#ed1717"/>
        </g>
        <g id="Group_160-2" data-name="Group 160" transform="translate(113.062 22.713)">
          <path id="Path_497-2" data-name="Path 497" d="M57.033,187.845l.059,3.853-1.7.033c-.022,0-1.5.028-4.4.028q-2.2,0-5.482-.029c-3.527-.035-6.348-.9-8.383-2.567a8.918,8.918,0,0,1,.027-13.6,13.139,13.139,0,0,1,8.364-2.553c6.491-.028,9.821,0,9.854,0l1.7.015-.027,3.853-1.7-.015c-.033,0-3.346-.029-9.814,0-5.022.022-8.141,2.133-8.141,5.508a4.548,4.548,0,0,0,1.729,3.672,10.272,10.272,0,0,0,6.421,1.837c6.452.064,9.758,0,9.79,0Zm34.549-13.261c1.341,1.508,1.33,3.69,1.313,6.992q0,.369,0,.764a33.21,33.21,0,0,1-.193,4.57,5.1,5.1,0,0,1-1.818,3.473c-1.655,1.251-4.127,1.279-9.542,1.34-.846.01-1.626.017-2.345.017-4.291,0-6.447-.258-7.826-1.81-1.435-1.617-1.427-4-1.415-7.6.013-4.023.021-6.451,1.819-7.958,1.551-1.3,3.8-1.335,8.741-1.41l.985-.015c6.152-.1,8.7-.141,10.284,1.641Zm-2.095,6.969c.01-1.9.02-3.86-.3-4.225-.4-.453-2.21-.558-4.617-.558-.99,0-2.082.018-3.218.036l-.988.015c-3.536.054-6.091.093-6.76.653-.422.354-.429,2.444-.437,4.864-.007,2.247-.015,4.37.41,4.848.666.75,4.259.709,7.734.67,3.991-.045,6.874-.078,7.685-.691.478-.361.484-2.24.492-4.841q0-.4,0-.772Zm39.344-8.889v3.969l-16.625,11.049h16.625v3.891h-23.3V187.6l16.625-11.049H105.537v-3.891h23.3Zm24.312,9.235,11.648-8.806v18.648h-3.432V180.365l-8.216,6.211-8.216-6.211v11.376H141.5V173.094Zm46.113-7.316c1.341,1.508,1.33,3.69,1.313,6.992q0,.369,0,.764a33.217,33.217,0,0,1-.193,4.57,5.1,5.1,0,0,1-1.818,3.473c-1.655,1.251-4.127,1.279-9.542,1.34-.846.01-1.626.017-2.345.017-4.291,0-6.447-.258-7.826-1.81-1.435-1.617-1.427-4-1.415-7.6.013-4.023.021-6.451,1.819-7.958,1.551-1.3,3.8-1.335,8.741-1.41l.985-.015c6.152-.1,8.7-.141,10.284,1.641Zm-2.095,6.969c.01-1.9.02-3.86-.3-4.225-.4-.453-2.21-.558-4.617-.558-.99,0-2.082.018-3.218.036l-.988.015c-3.536.054-6.091.093-6.76.653-.422.354-.429,2.444-.437,4.864-.008,2.247-.015,4.37.409,4.848.666.75,4.259.709,7.734.67,3.991-.045,6.874-.078,7.685-.691.478-.361.484-2.24.492-4.841q0-.4,0-.772Zm20.125-4.723c-.319.2-.645.535-.645,1.508a1.446,1.446,0,0,0,.771,1.477,3,3,0,0,0,1.218.332l12.473.055a5.385,5.385,0,0,1,5.4,5.7c0,4.182-3.006,5.7-5.026,5.7H213.212V187.71h18.254a2.207,2.207,0,0,0,.965-.3c.319-.2.645-.536.645-1.508a1.446,1.446,0,0,0-.771-1.477,3,3,0,0,0-1.219-.332l-12.465-.063v.008a5.386,5.386,0,0,1-5.409-5.7c0-4.182,3.006-5.7,5.026-5.7h18.269v3.891H218.254a2.21,2.21,0,0,0-.965.3Z" transform="translate(-33.997 -172.638)" fill="url(#linear-gradient)"/>
          <path id="Path_498-2" data-name="Path 498" d="M2.108,63.99v15.8H0V63.99Zm11.7,12.248L13.9,63.945h2.13L15.9,79.965H12.592l-1.8-12.4v12.4H8.665V63.945H12.1ZM30.265,63.99v2.13h-2.64V79.9h-2.13V66.12H22.588V63.99ZM39.174,79.9a3,3,0,0,1-3-3V66.941a2.984,2.984,0,0,1,5.969,0V76.9A2.992,2.992,0,0,1,39.174,79.9Zm0-13.823a.866.866,0,0,0-.865.865V76.9a.853.853,0,0,0,.865.865.866.866,0,0,0,.865-.865V66.941A.881.881,0,0,0,39.174,66.075ZM66.267,63.99v2.13h-2.64V79.9H61.5V66.12H58.59V63.99Zm10.174.044h2.108v15.82H76.44V71.489H74.554v8.365H72.446V64.034h2.108V69.4H76.44Zm13.835,7.477H87.213v6.257H90.3v2.108H85.105V64.034H90.3v2.108H87.213V69.4h3.062Zm21.678-2.041v2.086h-3.128v8.276h-2.086v-15.8h5.17v2.108h-3.084V69.47h3.128Zm9.819,10.45a3.267,3.267,0,0,1-3.262-3.262v-12.6h2.108v12.6a1.154,1.154,0,1,0,2.308,0v-12.6h2.108v12.6A3.267,3.267,0,0,1,121.772,79.92Zm17.5-15.931v2.13h-2.64V79.9H134.5V66.12H131.59V63.99Zm9.819,15.931a3.267,3.267,0,0,1-3.262-3.262v-12.6h2.108v12.6a1.154,1.154,0,1,0,2.308,0v-12.6h2.108v12.6a3.267,3.267,0,0,1-3.262,3.262Zm15.9,0h-2.263l-1.22-3.35h-.488v3.35h-2.108V64.034h3.306a2.632,2.632,0,0,1,2.64,2.64V73.93a2.609,2.609,0,0,1-1.243,2.241Zm-3.972-13.779v8.32h1.2a.54.54,0,0,0,.533-.532V66.674a.54.54,0,0,0-.533-.532Zm15.7,5.369h-3.062v6.257h3.084v2.108h-5.192V64.034h5.192v2.108h-3.084V69.4h3.062Z" transform="translate(12.02 -28.28)" fill="url(#linear-gradient)"/>
        </g>
      </g>
    </g>
  </g>
</svg>
