<svg xmlns="http://www.w3.org/2000/svg" xmlns:xlink="http://www.w3.org/1999/xlink" width="234.675" height="71.717" viewBox="0 0 234.675 71.717">
  <defs>
    <linearGradient id="linear-gradient" x2="1" gradientUnits="objectBoundingBox">
      <stop offset="0" stop-color="#8f5e25"/>
      <stop offset="0.5" stop-color="#fbf4a1"/>
      <stop offset="1" stop-color="#8f5e25"/>
    </linearGradient>
  </defs>
  <g id="Group_643" data-name="Group 643" transform="translate(-150.108 -76.074)">
    <g id="Group_161" data-name="Group 161" transform="translate(150.108 76.074)">
      <path id="Path_495" data-name="Path 495" d="M35.858,71.717A35.859,35.859,0,1,1,71.717,35.858,35.859,35.859,0,0,1,35.858,71.717Zm0-70.14A34.282,34.282,0,1,0,70.14,35.858,34.282,34.282,0,0,0,35.858,1.577Z" transform="translate(0 0)" fill="url(#linear-gradient)"/>
      <path id="Path_496" data-name="Path 496" d="M2.922,188.313l-1.108-.2a6.081,6.081,0,0,1-1.611-.5,7.679,7.679,0,0,0-.856-.453.786.786,0,0,1-.4-.4.906.906,0,0,0-.4-.453,2.669,2.669,0,0,1-.5-.3l-.1-.151.3.05a1.809,1.809,0,0,0-.554-.5,11.107,11.107,0,0,1-2.266-3.122.784.784,0,0,0-.151-.453,1.46,1.46,0,0,1-.353-.705c-.1-.4-.252-.806-.3-.957l-.5-2.87a26.292,26.292,0,0,1-.3-2.77l.05-.6c.1-.5.252-.856.353-.856.3-.1.554-.755.554-1.158a.377.377,0,0,0-.05-.252.344.344,0,0,0-.252-.151l-.1.05.151.3c0,.05,0,.05-.1.05a.335.335,0,0,1-.252-.2,4.008,4.008,0,0,1,.252-1.309c.05,0,.05-.1.05-.151v-.4a4.089,4.089,0,0,1,.252-1.309l.151-.806a10.959,10.959,0,0,1,.353-1.36l.3-.957a12.786,12.786,0,0,1,.856-2.468l.1-.05c.1,0,.151.1.151.2a.385.385,0,0,1-.1.252,1.015,1.015,0,0,0-.151.554c.05.151.05.2.1.2l.151-.1a1.948,1.948,0,0,0,.2-.856c0-.2-.05-.4-.151-.4a.23.23,0,0,1-.2-.252v-.05a3.188,3.188,0,0,1,.353-1.108,4.16,4.16,0,0,0,.4-.906,4.546,4.546,0,0,1,.453-1.058.934.934,0,0,0,.1-.353.2.2,0,0,1,.1-.2,3.985,3.985,0,0,0,.4-.655c.151-.353.353-.6.453-.6l.05-.05v-.1A7.361,7.361,0,0,1-.3,155.177c.1-.1.151-.151.2-.151s.05.05.05.1a5.185,5.185,0,0,1-.4,1.41,13.013,13.013,0,0,1-.806,1.259l-.554,1.259a2.011,2.011,0,0,1-.353.906.27.27,0,0,0-.151.2.134.134,0,0,0,.151.151,1.4,1.4,0,0,0,.4-.6,1.775,1.775,0,0,1,.6-.806c.151-.05.2-.151.2-.2v-.2A3.112,3.112,0,0,1-.5,157.09a6.016,6.016,0,0,0,.554-1.309v-.3a.217.217,0,0,1,.2-.2c.1,0,.353-.3.5-.655l.655-1.108,1.309-1.863a3.068,3.068,0,0,0,.353-.6A29.867,29.867,0,0,1,6.6,146.918a10.3,10.3,0,0,0,1.007-.957c.1-.1.2-.2.3-.2a2.526,2.526,0,0,0,.4-.3,6.242,6.242,0,0,1,1.41-1.108c.151-.05.252-.151.252-.2l-.05-.05a.934.934,0,0,0-.353.1,2.406,2.406,0,0,1-1.158.5l-.1-.05a2.5,2.5,0,0,1,.6-.5c.353-.2.655-.5.655-.6v-.05c0-.05.05-.05.1-.05h.252a.277.277,0,0,0,.252-.151c.2-.5,1.46-.856,2.619-.856a7.546,7.546,0,0,1,1.108.1,3.89,3.89,0,0,1,1.209.6,5.608,5.608,0,0,1,1.712,1.914v.1a6.1,6.1,0,0,0,1.007,1.712,5.541,5.541,0,0,1,.906,2.87v.4a1.467,1.467,0,0,1-.5,1.209.961.961,0,0,1-.554.453l-.05-.05.05-.2-.151.1-.2.1a1.241,1.241,0,0,0-.5.4,5.9,5.9,0,0,1-2.065,1.612c-.151,0-.2,0-.2-.1l.1-.2c0-.05,0-.05-.1-.05h-.3c-.1,0-.2-.05-.2-.151a3.5,3.5,0,0,1,.554-1.158,9.222,9.222,0,0,0,.705-1.309,1.484,1.484,0,0,1,.252-.655,1.494,1.494,0,0,0,.2-.554.134.134,0,0,0-.151-.151l-.252.1v-.05l.151-.353q0-.076-.151-.151c-.05-.05-.1-.1-.1-.151l.1-.2a1.4,1.4,0,0,0,.252-.6c0-.353-.252-.554-.755-.554a15.012,15.012,0,0,0-3.122.806,12.3,12.3,0,0,0-2.669,1.662,2.177,2.177,0,0,1-.5.5,1.849,1.849,0,0,0-.5.705c0,.2-.1.353-.252.353a1.508,1.508,0,0,0-.957.957l.05.1-.1.05h-.05c-.151,0-.252.252-.353.6a.282.282,0,0,1-.3.252c-.2,0-.252.1-.252.3v.1a.134.134,0,0,1-.151.151c-.1,0-.151-.05-.151-.1v-.151l-.1.1-.1.151c0,.05.05.05.1.1.1.05.1.1.1.151a.326.326,0,0,1-.1.252.277.277,0,0,1-.252.151h-.1l-.151.05v.05a.108.108,0,0,0,.1.1l.05.05-.1.2a1.474,1.474,0,0,1-.806.453h-.05c-.1,0-.1.05-.1.1a.766.766,0,0,0,.2.3l.1.1v.05l-.5-.1.2.151c.1.1.2.2.2.252h-.05c-.252,0-.957.856-.957,1.108v.151a.414.414,0,0,1-.2.3,1.446,1.446,0,0,0-.6,1.108v.1a.134.134,0,0,1-.151.151.184.184,0,0,0-.2.2c0,.1,0,.2-.05.2-.1,0-.2.3-.3.655s-.2.6-.252.6a.9.9,0,0,0-.353.252l-.1.1.151-.05c.05,0,.05.05.05.1a.436.436,0,0,1-.2.353.277.277,0,0,0-.151.252v.2a1.2,1.2,0,0,1-.2.6,2.986,2.986,0,0,0-.252.705.108.108,0,0,1-.1.1l-.252-.1-.05.05.05.252a1.47,1.47,0,0,1-.1.453c-.353.5-.4.6-.4.806a3.143,3.143,0,0,1-.4,1.41c-.05,0-.1.1-.1.2v.05c0,.352-.353,1.259-.5,1.259a5.523,5.523,0,0,0-.353,1.561v.05a9.645,9.645,0,0,1-.453,1.712,3.089,3.089,0,0,0-.151.806v.1c0,.05,0,.1-.05.1s-.1.151-.1.252a8.352,8.352,0,0,1-.2,1.46l-.2,1.41-.1.5a4.36,4.36,0,0,0-.151,1.36,14.668,14.668,0,0,0,.755,4.935,3.758,3.758,0,0,0,2.417,1.108c.453.05.856.151.856.252,0,.05,0,.05.05.05l.05-.05a.529.529,0,0,1,.453-.252c.05,0,.1,0,.1.05l.05.05.2-.1a.514.514,0,0,1,.4-.252l.151.05c0,.05-.05.05-.1.1s-.1.1-.1.151h.151c.1,0,.2-.05.2-.151v-.05c0-.05.05-.1.151-.1h.151c.453,0,1.561-.353,1.561-.554,0-.05.1-.1.252-.1a.576.576,0,0,0,.353-.151,5.708,5.708,0,0,1,1.964-1.108,3.073,3.073,0,0,0,1.108-.755,6.237,6.237,0,0,1,1.309-1.007,2.509,2.509,0,0,0,.906-.755c0-.05,0-.1.05-.1h.05a11.626,11.626,0,0,0,2.115-1.611c.1-.05.554-.453,1.007-.856a9.23,9.23,0,0,0,.957-.906c0-.1.2-.2.353-.2l.2-.05v-.05c0-.1.151-.2.353-.353s.4-.252.4-.353a.23.23,0,0,1,.252-.2c.1-.05.453-.4.806-.705a2.3,2.3,0,0,1,.755-.655.184.184,0,0,0,.2-.2v-.05c0-.151.151-.3.353-.4a.845.845,0,0,0,.353-.453c0-.05.05-.151.2-.151a4.853,4.853,0,0,0,1.158-1.108,5.146,5.146,0,0,1,1.058-.957l.151.05q.076,0,.151-.3c.1-.252.252-.4.353-.4h.05l.05-.1v-.1a.108.108,0,0,1,.1-.1h.05a.134.134,0,0,1,.151.151l.05.2.151-.353a.262.262,0,0,0-.1-.2c-.05-.05-.1-.1-.1-.151l.1-.151.856-.907c.4-.554.755-.755,1.007-.755s.5-.2.806-.6.554-.6.755-.6c.05,0,.1.05.1.2v.05c-.05.151-.1.252-.151.252a.108.108,0,0,0-.1.1l.05.353c0,.1-.05.151-.1.151-.1,0-.151.05-.151.1,0,.1-.05.1-.151.1l-.1-.05-.1.1v.05c0,.05.05.1.151.1.151,0,.252.05.252.1,0,.1-.05.151-.1.151s-.151.151-.151.3v.1c0,.05,0,.1.05.1.1,0,.3-.2.554-.6a1.2,1.2,0,0,1,.453-.453l.05.05-.2.3c-.2.151-.3.3-.3.4l.1.3-.05.1a1.134,1.134,0,0,0-.353.05.677.677,0,0,1-.453-.1l-.151-.05a.46.46,0,0,0-.252.151l-.151.151.1.05c.1,0,.1,0,.1.05l-.1.3c0,.05.05.05.151.05l.151.05-.05.05h-.1a.716.716,0,0,1-.3-.1l-.2-.1-.2.1c0,.05.05.151.2.2.1.1.151.151.151.2l-.05.1h-.05c-.05,0-.1,0-.1-.05l-.05-.05c-.05,0-.1,0-.151.1l-.2.252c0,.05.05.05.1.05h.1a.46.46,0,0,1,.252.151v.151l-.151-.05c-.05,0-.1.1-.151.2a.27.27,0,0,1-.252.252c-.151,0-.2-.05-.2-.151q0-.076.151-.151l.05-.05h-.151c-.151.05-.252.1-.252.252v.2h-.1c-.1,0-.1.05-.151.1v.05a.221.221,0,0,0,.151.05.414.414,0,0,1,.3.2v.1a.108.108,0,0,1-.1.1.233.233,0,0,1-.252-.151c0-.05-.05-.1-.151-.1-.05,0-.05.05-.05.1l.1.4-.05-.05a.3.3,0,0,0-.3-.151.7.7,0,0,0-.453.252c-.151.151-.2.2-.2.252s.1.05.3.05.4.05.4.151c0,.05-.05.1-.151.1a1.128,1.128,0,0,0-.5.353c-.151.151-.2.2-.252.2l.2-.2.1-.3c0-.05,0-.05-.05-.05-.2,0-.353.3-.4.655a.6.6,0,0,1-.252.4,1.092,1.092,0,0,0-.353.3h-.05l-.05-.1c0-.151-.05-.252-.151-.252s-.2.151-.353.4-.353.453-.453.453-.151,0-.151.05l.05.151c0,.1-.151.252-.3.353-.4.2-.655.453-.655.6h.05a.716.716,0,0,0,.3-.1l.3-.151c.05,0,.05,0,.05.05,0,.2-.655.554-1.209.6a.221.221,0,0,0-.151.05v.1c0,.05-.1.1-.2.151s-.2.1-.2.151l.1.1a.185.185,0,0,0,.151.05.46.46,0,0,0,.252-.151.46.46,0,0,1,.252-.151,1.644,1.644,0,0,1-.4.554c-.252.2-.353.3-.353.4s.05.151.151.2l.151.1c.1,0,.252-.1.453-.352a2.227,2.227,0,0,1,.453-.4,7.6,7.6,0,0,0,.957-.856.93.93,0,0,1,.453-.353v.05c0,.2-.252.6-.4.6a.54.54,0,0,0-.4.3,2.873,2.873,0,0,1-.554.554l-.6.554c-.806.806-1.108,1.108-1.209,1.108s-.151.05-.151.1v.05a.108.108,0,0,1-.1.1c-.05,0-.1-.05-.1-.151v-.1c0-.2,0-.3-.1-.3a.108.108,0,0,1-.1-.1v-.1c0-.05,0-.05-.05-.05h-.05l-.1.1v.1c0,.2-.252.6-.453.6-.151,0-.252.05-.252.151,0,.05-.1.1-.2.1l-.655-.1-.1.05.05.151-.1.3c0,.05.05.05.151.05s.2-.05.2-.151.1-.151.2-.151a.523.523,0,0,1,.4.2.108.108,0,0,0,.1.1l.151-.151a.763.763,0,0,1,.554-.353.049.049,0,0,1,.05.05c0,.252-.6.856-.906.957H15.26c-.151,0-.2-.05-.2-.1s.05-.1.151-.151l.1-.05-.1-.05c-.2,0-.906.655-.906.856l.1.05a1.337,1.337,0,0,0,.705-.252l.1-.1-.05.252a1.076,1.076,0,0,1-.6.4l-.3.05q-.3,0-.3-.151c0-.05,0-.1.1-.151l.1-.1H14.1a1.139,1.139,0,0,0-.5.252,1.124,1.124,0,0,1-.655.3c-.2,0-.353,0-.353.1l.252.252.2.151c.1,0,.151-.05.2-.151a.514.514,0,0,1,.353-.2c.05,0,.05,0,.05.05l-.1.05a.916.916,0,0,0-.2.554c-.05.252-.151.453-.252.453s-.2.1-.252.252a1.543,1.543,0,0,1-.6.655l-.05-.05c0-.1-.1-.151-.2-.151-.05,0-.05.05-.05.2v.151c.1.252.2.4.252.4a.54.54,0,0,1,.3.1l.151.05.1-.05a.185.185,0,0,0,.05-.151q0-.151-.3-.151c-.1,0-.2,0-.2-.05l.1-.151a1.644,1.644,0,0,1,.705-.453l-.05.151.1.05a.134.134,0,0,0,.151-.151.857.857,0,0,0-.05-.353.327.327,0,0,1,.252-.3.108.108,0,0,1,.1.1c.05.1.1.151.2.151a.108.108,0,0,0,.1-.1v-.05a.869.869,0,0,1,.655-.655.521.521,0,0,0,.353-.252.51.51,0,0,1,.353-.2.424.424,0,0,0,.353-.353.477.477,0,0,1,.4-.353c.151,0,.252,0,.252.05l-.151.2a1.2,1.2,0,0,0-.151.6v.1c0,.1-.05.2-.1.2a2.2,2.2,0,0,0-.705.554c-.3.252-.554.453-.705.453l-.2-.05-.05.05.1.252c0,.05-.05.1-.2.151-.1.05-.151.1-.151.2v.1c0,.1-.252.2-.5.2l-.3-.05c-.151,0-.2.1-.2.3a.427.427,0,0,1-.4.353.257.257,0,0,1-.252-.2v-.05c-.05,0-.05.05-.1.151a.414.414,0,0,1-.3.2.414.414,0,0,0-.3.2v.05l.05.05.2-.05h.252c0,.1-.252.3-.705.655-.655.453-.906.6-1.964,1.259a1.452,1.452,0,0,1-.554.2c-.05,0-.05,0-.05-.05v-.151c0-.05,0-.05-.05-.05-.1,0-.151.1-.151.2v.3c0,.3-.151.453-.705.554a1.6,1.6,0,0,0-.655.2,3.733,3.733,0,0,1-1.511.655h-.1c-.1,0-.1.05-.1.2v.2l-.1.05-.5-.1c0,.05,0,.05.1.1l.1.1-.05.05-.3-.05a2.469,2.469,0,0,1-.655-.151c-.05,0-.1.05-.1.151v.151c0,.151-.1.2-.3.2l-.3-.05.151-.1c.1-.05.151-.05.151-.1l-.2-.05a.949.949,0,0,0-.4.1.349.349,0,0,0-.2.151c0,.05,0,.05.05.05a.108.108,0,0,1,.1.1v.05c-.05.05-.1.1-.151.1ZM8.26,146.062a.75.75,0,0,0,.453-.2l.1-.2a.9.9,0,0,0-.4.2l-.252.151c0,.05.05.05.1.05Zm-3.374,1.964-.05-.05a1.818,1.818,0,0,1,.453-.6,4.89,4.89,0,0,1,1.259-1.108.049.049,0,0,1,.05.05,1.249,1.249,0,0,1-.4.453c-.2.2-.554.554-.755.806a1.036,1.036,0,0,1-.554.453Zm2.82-1.259a.225.225,0,0,0,.2-.151q-.076-.151-.151-.151c-.1,0-.2.05-.2.151v.05C7.555,146.716,7.606,146.767,7.706,146.767Zm-.6.4c.1,0,.2-.05.2-.151v-.05c0-.05,0-.1-.05-.1a.225.225,0,0,0-.2.151v.05C7.052,147.119,7.052,147.169,7.1,147.169Zm-5.791,5.64c-.05,0-.1-.05-.1-.151a1.391,1.391,0,0,1,.4-.655l.655-1.058a1.221,1.221,0,0,1,.4-.453c.1,0,.151,0,.151-.05v-.05c0-.3.554-1.108.755-1.108.1,0,.2-.1.252-.252a1.9,1.9,0,0,1,.806-.856l.1.05v.05a1.234,1.234,0,0,1-.6.655.45.45,0,0,0-.2.4c0,.151-.05.252-.252.252H3.325l.05.05c.1.05.2.151.2.2a4.866,4.866,0,0,1-.906,1.36l-.655.957c-.252.4-.5.655-.705.655Zm4.482-3.374.554-.5.353-.453-.05-.05c-.151,0-.5.353-.755.755Zm-1.007.352.151-.05a.27.27,0,0,0,.151-.2c0-.05,0-.05-.05-.05H4.886c-.1.05-.2.151-.2.2A.108.108,0,0,0,4.785,149.788Zm.6.151.05-.1-.1-.1h-.05v.1l.05.1h.05Zm1.712.453q.076,0,.151-.151c0-.05,0-.151-.05-.151,0,0-.1.1-.1.151l-.05.1Zm-3.676,2.115.151-.151a.924.924,0,0,0,.353-.5l.05-.2-.151.151-.353.453Zm1.662.4.151-.151c0-.05,0-.151-.1-.151a.161.161,0,0,0-.151.151C5.037,152.86,5.037,152.91,5.088,152.91Zm-2.669.1.1-.05.1-.2-.05-.1-.1.05-.1.2Zm.5.05c.1,0,.151-.05.2-.151l-.05-.1-.1.05-.2.151C2.771,153.061,2.821,153.061,2.922,153.061Zm-1.863.151c-.1,0-.151-.05-.151-.1v-.05a.27.27,0,0,1,.2-.151.134.134,0,0,1,.151.151C1.26,153.112,1.21,153.213,1.059,153.213Zm1.108.554a.835.835,0,0,0,.5-.151l-.05-.1a.984.984,0,0,0-.353.05q-.453.076-.453.151c0,.05.1.05.353.05Zm-1.611.554c-.151,0-.252-.05-.252-.151a.546.546,0,0,1,.4-.4.049.049,0,0,1,.05.05.185.185,0,0,1,.05.151C.807,154.119.706,154.32.555,154.32Zm1.611-.151q.076,0,.151-.151l.05-.1-.05-.05c-.05,0-.1.1-.151.151Zm-1.964.5a.108.108,0,0,1-.1-.1c0-.05.05-.1.2-.1.1,0,.2,0,.2.05Zm2.971,1.158a.134.134,0,0,0,.151-.151v-.05a.134.134,0,0,0-.151-.151l-.1.05c-.05.05-.1.1-.1.151v.05A.2.2,0,0,0,3.174,155.831Zm-.755,1.058.2-.2.151-.353v-.05h-.05c-.151,0-.353.252-.353.453v.05C2.368,156.838,2.368,156.889,2.419,156.889Zm-1.561-.352.05-.151-.05-.05a.049.049,0,0,0-.05-.05c-.05,0-.05.05-.05.151Zm.6,2.115.151-.3.05-.252c-.05,0-.1.1-.2.252l-.05.2Zm-.856.705c.1,0,.151-.1.2-.252l.05-.2-.05-.05c-.05,0-.1.05-.2.2l-.05.2Zm-3.223,2.216c.05,0,.151-.2.252-.4l.1-.4-.05-.1h-.05c-.05,0-.05.05-.1.1a1.867,1.867,0,0,0-.2.7Zm2.367-.1.1-.252c0-.1,0-.2-.1-.2-.05,0-.1.1-.1.2C-.351,161.371-.3,161.471-.25,161.471Zm.5,0c.05,0,.1-.1.1-.252a.225.225,0,0,0-.151-.2c-.1,0-.151.1-.151.2C.1,161.371.152,161.471.253,161.471Zm-1.863.1.1-.1v-.05a.108.108,0,0,0-.1-.1c-.05,0-.1.05-.1.151A.108.108,0,0,0-1.61,161.572Zm.906.705c.05,0,.1-.05.2-.2l.1-.151a.185.185,0,0,0-.151.05c-.1.05-.2.1-.2.151v.05C-.754,162.227-.754,162.277-.7,162.277Zm-2.317.4.1-.2v-.151c-.05,0-.05,0-.05.05-.05.05-.1.1-.1.151v.05C-3.071,162.68-3.071,162.68-3.02,162.68Zm1.561,1.158c.05,0,.151-.1.2-.252.1-.1.1-.151.1-.151-.05,0-.1.05-.151.1l-.2.252C-1.509,163.838-1.509,163.838-1.459,163.838Zm-2.266.705.151-.151c0-.1,0-.151-.1-.151a.134.134,0,0,0-.151.151Zm28.252.806c-.05,0-.05-.05-.05-.1V165.1c.05,0,.05,0,.05.05l.05.1Zm-26.338.453a.134.134,0,0,0,.151-.151c0-.1-.05-.151-.1-.151a.186.186,0,0,0-.1.151v.05C-1.862,165.752-1.862,165.8-1.812,165.8Zm25.834.252a.134.134,0,0,1-.151-.151v-.05h.1q.151.076.151.151C24.123,166.054,24.073,166.054,24.023,166.054Zm-28.1.554v-.2a.225.225,0,0,0-.151-.2.108.108,0,0,0-.1.1l.05.1C-4.178,166.558-4.128,166.608-4.078,166.608Zm2.065.4c.05,0,.1-.1.2-.4l.1-.252-.453.353.05.2Zm-2.115-.1-.1-.151a.671.671,0,0,0-.252-.151l-.05.05c0,.05,0,.05.1.1Zm27.295.3a.592.592,0,0,0,.3-.252l.1-.2-.05-.05c-.05,0-.151.05-.3.2l-.1.252C23.116,167.212,23.116,167.212,23.167,167.212Zm1.813.655c-.1,0-.1-.05-.1-.1q.076-.151.151-.151a.221.221,0,0,1,.05.151v.05Zm-29.762.6c.1,0,.151-.1.2-.252l.05-.2-.05-.1s-.05,0-.151.1a.64.64,0,0,0-.2.352C-4.934,168.421-4.883,168.471-4.783,168.471Zm28-.3a.161.161,0,0,0,.151-.151l.05-.05h-.151c-.151.05-.2.1-.2.151S23.116,168.169,23.217,168.169Zm-26.036.5.05-.1-.05-.1h-.05c-.05,0-.05.05-.05.1l.05.1Zm25.381.353.1-.151v-.1c0-.05,0-.05-.05-.05a.134.134,0,0,0-.151.151c0,.05.05.151.1.151Zm1.611,0-.1-.05v-.05a.049.049,0,0,1,.05-.05c.05,0,.1,0,.1.05l.05.05C24.275,169.025,24.224,169.025,24.174,169.025Zm-28.151.1-.05-.05c0-.05-.05-.05-.1-.05a.049.049,0,0,0-.05.05v.05h.2Zm-1.209.655a.529.529,0,0,0,.453-.252l.1-.252c0-.1-.1-.151-.252-.151a.134.134,0,0,0-.151.151v.1c0,.1-.05.2-.1.2a.134.134,0,0,0-.151.151C-5.286,169.781-5.236,169.781-5.186,169.781Zm1.964-.2a.554.554,0,0,0,.3-.151l.1-.1c0-.05-.05-.05-.151-.05-.151,0-.3.1-.3.151l-.05.1Zm26.64.252h-.2v-.05a.049.049,0,0,1,.05-.05c.05,0,.1,0,.1.05Zm-26.841.151.1-.05v-.05h-.2v.05Zm26.59,1.007c-.05,0-.05-.05-.05-.1v-.05c0-.1.1-.151.2-.151.05,0,.05,0,.05.05v.1C23.318,170.889,23.267,170.989,23.167,170.989Zm-26.791.1.05-.1-.05-.1c0-.05,0-.05-.05-.05v.151Zm-.906.1v-.05l-.05-.1c0-.05,0-.05-.05-.05v.1l.05.1Zm24.626.252a.185.185,0,0,0,.151-.05l.1-.2v-.05h-.1a.217.217,0,0,0-.2.2v.05A.049.049,0,0,0,20.095,171.443Zm2.719-.05-.1-.05v-.05l.1-.05.1.05v.05Zm-2.165.5c.05-.05.1-.1.1-.151v-.1c0-.05-.05-.1-.151-.1-.05,0-.1.1-.1.2s.05.151.1.151Zm-1.763-.1c.05,0,.1-.05.151-.1,0-.1,0-.151-.1-.151a.134.134,0,0,0-.151.151C18.836,171.745,18.836,171.8,18.886,171.8Zm.554.252.2-.05a.27.27,0,0,0,.151-.2v-.05h-.05a.185.185,0,0,0-.151.05A.46.46,0,0,0,19.44,172.047Zm-23.115.05.151-.05c0-.05-.1-.1-.151-.151l-.1-.05-.05.1A.161.161,0,0,0-3.675,172.1Zm-2.165.6h-.05c-.05,0-.05-.05-.1-.1a.934.934,0,0,1,.1-.353c.05-.1.05-.151.1-.151a1.024,1.024,0,0,1,.05.252v.1A.385.385,0,0,1-5.84,172.7Zm26.489.906v-.1c0-.1.2-.3.453-.5.3-.2.4-.3.453-.3l-.1.3c-.151.151-.353.352-.453.352a.3.3,0,0,0-.3.151C20.7,173.558,20.7,173.608,20.649,173.608Zm-2.065-.554.2-.1v-.05a.108.108,0,0,0-.1-.1.27.27,0,0,0-.2.151C18.483,173,18.483,173.054,18.584,173.054Zm1.209.3a.221.221,0,0,1-.05-.151c0-.05.05-.151.1-.151a.108.108,0,0,1,.1.1v.05Q19.868,173.356,19.793,173.356Zm-.705.151.1-.05-.05-.05c0-.05-.05-.05-.1-.05a.049.049,0,0,0-.05.05v.05Zm-1.41.4.151-.2c.1-.1.1-.151.1-.151h-.151c-.1.05-.2.151-.2.2,0,.1.05.151.1.151Zm2.417,0a.27.27,0,0,1-.2-.151l-.05-.1.1.05c.05.05.151.1.151.151Zm.2.1.05-.151c0-.1.05-.151.1-.151h.05v.05l-.1.2Zm.806.05-.1-.05v-.05l.1-.05.1.05v.05Zm-3.978.4c.05,0,.1,0,.1-.05l-.05-.05-.1-.05-.05.1Zm3.878.252a.049.049,0,0,1-.05-.05c0-.05.1-.1.252-.2l.2-.1-.05.151A.436.436,0,0,1,21,174.716Zm-5.388,0,.2-.05a.335.335,0,0,0,.2-.252l-.1-.05-.151.1a.46.46,0,0,0-.151.252Zm2.921.05c-.05,0-.05-.05-.05-.1v-.05a.186.186,0,0,1,.1-.151c.05,0,.1.05.1.151A.161.161,0,0,1,18.534,174.766Zm.5,0-.1-.151a.134.134,0,0,1,.151-.151c.1,0,.1.05.1.151Zm-2.266.1a.108.108,0,0,0,.1-.1c0-.1-.05-.151-.1-.151l-.1.2Zm1.007,3.525-.2-.1a.262.262,0,0,1-.1-.2,1.155,1.155,0,0,1,.6-.755.422.422,0,0,0,.3-.4v-.151h.1a1.532,1.532,0,0,0,.554-.3,20.789,20.789,0,0,1,1.914-1.611,4.864,4.864,0,0,1-1.108,1.158l-.05.05.05.2a.647.647,0,0,1-.5.5l-.2-.05.1.2c0,.151-.3.4-.5.4l-.2-.05v.1c0,.151-.3.5-.5.5a.374.374,0,0,0-.3.3v.05l.1.1Zm-.806-2.115.05-.05-.05-.151-.151-.2c-.05,0-.05.1-.05.2C16.821,176.176,16.872,176.277,16.972,176.277Zm-.353.655.252-.05.353-.3c0-.1-.1-.151-.252-.151a.611.611,0,0,0-.252.05Zm-.906.453a.23.23,0,0,0,.2-.252v-.1a.185.185,0,0,0-.151.05c-.1.05-.2.151-.2.2S15.613,177.385,15.713,177.385Zm-.353,0c.05,0,.05-.05.05-.1a.134.134,0,0,0-.151-.151l-.1.05.05.1Zm1.007.1c-.05,0-.05-.05-.1-.1,0-.05,0-.1.05-.1a.049.049,0,0,1,.05.05l.05.05Zm-3.122,1.662c.252,0,.5-.05.5-.1l-.2-.151-.1-.05c0-.05.05-.05.151-.1l.5-.4.151-.2c0-.05-.05-.05-.151-.05s-.3.2-.453.353a.845.845,0,0,1-.453.353.414.414,0,0,0-.3.2l-.05.05c0,.05.151.1.4.1Zm1.209-.5a.221.221,0,0,0,.151-.05v-.05l-.05-.1a.185.185,0,0,0-.151.05l-.2.1C14.2,178.644,14.3,178.644,14.454,178.644Zm2.065.6c-.05,0-.05-.05-.05-.1l.05-.2c.05-.151.151-.252.252-.252h.1l-.05.05a.277.277,0,0,0-.151.252v.05c0,.1-.05.2-.151.2Zm-.151.705a.227.227,0,0,1-.151-.151v-.1h.1l.2.151C16.519,179.9,16.469,179.953,16.368,179.953Zm-4.532.252q.076,0,.151-.151V180l-.1-.05-.1.05v.05a.221.221,0,0,0,.05.151Zm1.914.3c-.05,0-.1-.05-.1-.151v-.05q0-.076.151-.151h.1c.05,0,.05.05.05.151C13.9,180.407,13.85,180.507,13.749,180.507Zm-1.36.1c.1,0,.1-.1.1-.252-.05-.1-.1-.2-.151-.2l-.1.2C12.239,180.507,12.289,180.608,12.39,180.608Zm-.906.3-.151-.252h.3c.252,0,.353-.1.353-.2l-.1-.1-.1.1-.151.1c-.05,0-.05-.05-.1-.151l-.1-.151a.46.46,0,0,0-.252.151l-.151.2q0,.076.151.151Zm1.46-.3-.05-.05c0-.05-.05-.05-.1-.05a.049.049,0,0,0-.05.05v.05Zm-2.115.5.05-.1-.05-.1a.27.27,0,0,0-.2-.151l-.05.1v.1c.1.1.151.151.2.151Zm-.151,1.007c.05,0,.1,0,.1-.05a.659.659,0,0,1,.4-.3c.554-.3.856-.5.856-.655a.108.108,0,0,0-.1-.1h-.05a1.369,1.369,0,0,0-.755.453,1.24,1.24,0,0,1-.5.4.108.108,0,0,0-.1.1l.05.1Zm-1.611.05.453-.3a1.064,1.064,0,0,1,.5-.2h.151a.359.359,0,0,0,.3-.151l.05-.1a.108.108,0,0,0-.1-.1c-.1,0-.151.1-.151.2v.05h-.05l-.05-.1a.27.27,0,0,1,.151-.2l.151-.151c0-.05,0-.05-.05-.05a4.343,4.343,0,0,0-1.36,1.007l-.05.1h.05Zm2.719.1a.3.3,0,0,0-.05-.2h-.05l-.05.1c.05.05.05.1.1.1h.05Zm-4.029,1.863q.076,0,.151-.151a1.519,1.519,0,0,1,.4-.4,2.655,2.655,0,0,1,.6-.151,1.061,1.061,0,0,0,.655-.252.763.763,0,0,1,.4-.2l.252.05v-.05l-.2-.151c-.1-.1-.2-.151-.2-.2s.1-.1.2-.2l.2-.2-.252.1c-.2.1-.353.252-.353.3s-.1.1-.2.1a.8.8,0,0,0-.453.3.918.918,0,0,1-.554.252c-.1,0-.2.05-.2.151,0,.05-.1.151-.252.2a.282.282,0,0,0-.252.3Zm3.827-1.259a1.23,1.23,0,0,1-.05-.353c-.05-.2-.1-.252-.2-.252l-.1.05-.2.151.252.2C11.433,182.773,11.534,182.874,11.584,182.874ZM6.4,185.795c.1,0,.151,0,.151-.1s.1-.151.252-.151a3.141,3.141,0,0,0,1.511-.806c.05-.151.151-.2.2-.2s.151.05.151.2a.327.327,0,0,0,.3.252l.151.05c.05,0,.05-.05.05-.1l-.05-.252a.277.277,0,0,1,.151-.252.67.67,0,0,0,.151-.4.184.184,0,0,1,.2-.2c.453,0,1.209-.3,1.209-.5a.134.134,0,0,1,.151-.151h.2c.1,0,.151-.05.151-.1-.05-.1-.1-.151-.2-.151l-.252.05-.151-.1-.05-.1c0-.05.05-.05.1-.05h.1v-.05a.185.185,0,0,0-.151-.05.282.282,0,0,0-.3.252v.1c0,.05-.05.1-.2.151a.767.767,0,0,0-.5.3c-.1.151-.252.3-.353.3a.27.27,0,0,0-.2.151,1.654,1.654,0,0,1-.755.4c-.353.1-.6.252-.6.352s-.151.252-.4.353a2.734,2.734,0,0,0-.755.453.956.956,0,0,1-.453.151l-.2-.05.05.1a.544.544,0,0,0,.353.151Zm1.209-2.669a.458.458,0,0,0,.4-.2l.05-.151-.05-.05c-.1,0-.2.1-.4.2l-.151.151C7.455,183.126,7.5,183.126,7.606,183.126Zm-.4.3.1-.05v-.05l-.1-.05-.1.05v.05Zm1.058.6a.3.3,0,0,0,.2-.05c.2-.1.353-.252.353-.3s-.05-.05-.1-.05c-.151.05-.453.2-.5.353v.05h.05Zm-2.367-.05.1-.05v-.05h-.2v.05Zm1.259.453a.225.225,0,0,0,.2-.151.161.161,0,0,0-.151-.151c-.1,0-.151.05-.2.151v.05C7,184.385,7.052,184.435,7.152,184.435Zm.4.252c.05,0,.1-.05.1-.151a.108.108,0,0,0-.1-.1l-.1.1v.05A.108.108,0,0,0,7.555,184.687Zm-1.712.554.05-.1a.385.385,0,0,1,.252-.1l.252.05.05-.05-.05-.1a.6.6,0,0,0-.4-.252h-.1l-.05.4v.151Zm3.676-.252a.161.161,0,0,0,.151-.151c0-.1-.05-.151-.1-.151a.186.186,0,0,0-.1.151v.05C9.469,184.939,9.469,184.989,9.519,184.989Zm-2.115.806-.05-.1H7.2v.05c0,.05.05.05.1.05Zm-1.914.4c.2-.05.353-.1.353-.151V186a.134.134,0,0,0-.151-.151l-.4.05c-.151.05-.2.1-.2.151C5.088,186.147,5.239,186.2,5.491,186.2Zm-1.108.05c.1,0,.151,0,.151-.05l-.05-.05-.1-.05-.1.05v.05ZM6.8,186.5a.277.277,0,0,0,.252-.151v-.05c0-.05,0-.05-.05-.05l-.252.05-.2-.151c-.05,0-.05.05-.05.1a.319.319,0,0,0,.3.252Zm-3.676.806.1-.05c.1-.05.2-.1.2-.151a.612.612,0,0,0-.252-.05c-.1,0-.151.05-.151.1v.05a.108.108,0,0,0,.1.1Zm1.309.655h-.1c-.05,0-.1,0-.1-.05,0-.1.05-.151.2-.151l.2.05C4.634,187.86,4.534,187.91,4.433,187.96Z" transform="translate(25.93 -129.584)" fill="#ed1717"/>
    </g>
    <g id="Group_160" data-name="Group 160" transform="translate(234.186 92.965)">
      <path id="Path_497" data-name="Path 497" d="M51.128,183.947l.044,2.865-1.263.025c-.016,0-1.117.021-3.269.021q-1.636,0-4.077-.021a9.748,9.748,0,0,1-6.234-1.909,6.632,6.632,0,0,1,.02-10.115,9.771,9.771,0,0,1,6.22-1.9c4.827-.021,7.3,0,7.328,0l1.263.011-.02,2.865-1.263-.011c-.024,0-2.488-.022-7.3,0-3.735.016-6.054,1.586-6.054,4.1a3.382,3.382,0,0,0,1.286,2.73,7.639,7.639,0,0,0,4.775,1.366c4.8.048,7.257,0,7.28,0Zm25.693-9.862c1,1.122.989,2.744.977,5.2q0,.274,0,.568a24.7,24.7,0,0,1-.143,3.4,3.794,3.794,0,0,1-1.352,2.583c-1.231.93-3.069.951-7.1,1-.629.007-1.209.012-1.744.012-3.191,0-4.795-.192-5.82-1.346-1.067-1.2-1.061-2.974-1.053-5.655.01-2.991.016-4.8,1.353-5.918,1.154-.967,2.829-.992,6.5-1.048l.733-.011c4.575-.074,6.469-.1,7.647,1.221Zm-1.558,5.183a9.383,9.383,0,0,0-.227-3.142c-.3-.337-1.644-.415-3.433-.415-.736,0-1.548.013-2.393.027l-.735.011c-2.63.04-4.53.069-5.027.486-.314.263-.319,1.817-.325,3.617-.006,1.671-.011,3.25.3,3.605.5.558,3.167.527,5.752.5,2.968-.034,5.112-.058,5.715-.514.355-.269.36-1.666.366-3.6q0-.3,0-.574Zm29.258-6.61v2.951l-12.363,8.216h12.363v2.894H87.2v-2.951l12.363-8.216H87.2v-2.894h17.324Zm18.079,6.868,8.662-6.548v13.867h-2.552v-8.46L122.6,183l-6.11-4.619v8.46h-2.552V172.977Zm34.292-5.44c1,1.122.989,2.744.977,5.2q0,.274,0,.568a24.7,24.7,0,0,1-.143,3.4,3.794,3.794,0,0,1-1.352,2.583c-1.231.93-3.069.951-7.1,1-.629.007-1.209.012-1.744.012-3.191,0-4.795-.192-5.82-1.346-1.067-1.2-1.061-2.974-1.053-5.655.01-2.991.016-4.8,1.353-5.918,1.154-.967,2.829-.992,6.5-1.048l.733-.011c4.575-.074,6.469-.1,7.647,1.221Zm-1.558,5.183a9.383,9.383,0,0,0-.227-3.142c-.3-.337-1.644-.415-3.433-.415-.736,0-1.548.013-2.393.027l-.735.011c-2.63.04-4.53.069-5.027.486-.314.263-.319,1.817-.325,3.617-.006,1.671-.011,3.25.3,3.605.495.558,3.167.527,5.752.5,2.968-.034,5.112-.058,5.715-.514.355-.269.36-1.666.366-3.6q0-.3,0-.574Zm14.966-3.512c-.237.149-.48.4-.48,1.121a1.075,1.075,0,0,0,.573,1.1,2.228,2.228,0,0,0,.906.247l9.276.041a4,4,0,0,1,4.017,4.239,3.868,3.868,0,0,1-3.738,4.239H167.27v-2.894h13.575a1.641,1.641,0,0,0,.718-.224c.237-.149.48-.4.48-1.121a1.075,1.075,0,0,0-.573-1.1,2.23,2.23,0,0,0-.907-.247l-9.27-.047v.006a4.005,4.005,0,0,1-4.022-4.239,3.868,3.868,0,0,1,3.738-4.239h13.585v2.894H171.019a1.643,1.643,0,0,0-.718.224Z" transform="translate(-33.997 -172.638)" fill="url(#linear-gradient)"/>
      <path id="Path_498" data-name="Path 498" d="M1.567,63.978V75.726H0V63.978Zm8.7,9.108.066-9.141h1.584l-.1,11.913H9.364L8.028,66.635v9.223H6.444V63.945H9Zm12.235-9.108v1.584H20.543V75.809H18.959V65.562H16.8V63.978Zm6.625,11.83A2.229,2.229,0,0,1,26.9,73.581V66.173a2.219,2.219,0,0,1,4.438,0v7.408A2.225,2.225,0,0,1,29.132,75.809Zm0-10.279a.644.644,0,0,0-.643.644v7.408a.634.634,0,0,0,.643.643.644.644,0,0,0,.643-.643V66.173A.655.655,0,0,0,29.132,65.529Zm20.147-1.551v1.584H47.316V75.809H45.732V65.562H43.57V63.978Zm7.566.033h1.568V75.776H56.845v-6.22h-1.4v6.22H53.875V64.011h1.568V68h1.4Zm10.288,5.56H64.856v4.653h2.293v1.567H63.288V64.011h3.861v1.567H64.856V68h2.277Zm16.121-1.518V69.6H80.927v6.154H79.376V64.011h3.844v1.567H80.927v2.475h2.326Zm7.3,7.771A2.429,2.429,0,0,1,88.13,73.4V64.028H89.7V73.4a.858.858,0,1,0,1.716,0V64.028h1.567V73.4A2.429,2.429,0,0,1,90.556,75.825Zm13.01-11.847v1.584H101.6V75.809h-1.584V65.562H97.857V63.978Zm7.3,11.847a2.429,2.429,0,0,1-2.426-2.425V64.028h1.567V73.4a.858.858,0,1,0,1.716,0V64.028h1.567V73.4a2.429,2.429,0,0,1-2.425,2.425Zm11.823,0h-1.683l-.907-2.492h-.363v2.492H118.17V64.011h2.458a1.958,1.958,0,0,1,1.964,1.963v5.4a1.94,1.94,0,0,1-.924,1.666Zm-2.953-10.246v6.187h.891a.4.4,0,0,0,.4-.4v-5.4a.4.4,0,0,0-.4-.4Zm11.674,3.993h-2.277v4.653h2.294v1.567h-3.861V64.011h3.861v1.567h-2.294V68h2.277Z" transform="translate(8.939 -37.423)" fill="url(#linear-gradient)"/>
    </g>
  </g>
</svg>
