<svg xmlns="http://www.w3.org/2000/svg" width="384.04" height="336.488" viewBox="0 0 384.04 336.488">
  <g id="Group_1" data-name="Group 1" transform="translate(746 -564)">
    <path id="Path_1" data-name="Path 1" d="M768.75,410.25c1.83-7.4,4.1-14.58,9-20.69,8.33-10.45,19-16.23,32.44-16.93,1.5-.07,3-.12,4.5-.12q108.51,0,217,.11c3.28,0,7.25.85,9.65,2.82a12.659,12.659,0,0,1,4,8.71c.24,48,.35,96,.08,143.94-.14,23.13-19.94,41.77-43.81,41.82-43,.1-86,.27-129-.13a46.66,46.66,0,0,0-29.86,9.6c-17.6,13.15-35.7,25.64-53.59,38.41-9,6.44-14.94,5.21-20.45-4.29ZM1023,395H870.82c-19.25,0-38.5-.09-57.75,0-13,.09-21.8,8.83-21.8,21.59q-.06,84.36,0,168.73a29.01,29.01,0,0,0,.34,3.06c14.23-10.14,28.15-19.88,41.86-29.88a57.17,57.17,0,0,1,35-11.16c43.75.16,87.49.07,131.24.06,14.77,0,23.3-8.5,23.31-23.21V395Z" transform="translate(-1514.71 191.49)"/>
    <path id="Path_2" data-name="Path 2" d="M1152.75,700.5c-5,9.54-11.39,11-20.31,4.62-19.21-13.71-38.48-27.36-57.62-41.17a35.68,35.68,0,0,0-21.69-6.89q-65.81.11-131.6,0c-26.93,0-45.5-18.52-45.54-45.37,0-2.75-.07-5.51,0-8.25a11.22,11.22,0,1,1,22.44,0,60.38,60.38,0,0,1,0,7.49c-1.14,13.9,9.53,24,23.53,23.84,43.61-.45,87.23-.19,130.84-.12a76.605,76.605,0,0,1,12.3,1c8.28,1.35,15.64,4.95,22.43,9.83q19.32,13.89,38.73,27.65c1.1.78,2.23,1.5,3.78,2.55.07-1.62.17-2.8.17-4V504.85c0-13.82-8.65-22.54-22.38-22.6h-27.37c-7.29,0-12.4-4.6-12.47-11.13s5-11.39,12.23-11.34c11.86.09,23.84-.6,35.55.78,19,2.25,32.79,16.49,36.26,35.36a17.9,17.9,0,0,0,.68,2.11Z" transform="translate(-1514.71 191.49)"/>
    <path id="Path_4" data-name="Path 4" d="M914.6,456.18c-21.48,0-43,.07-64.44,0-9.1,0-14.51-8.71-10.38-16.38,2.39-4.43,6.34-6.09,11.2-6.09h127c7,0,11.92,3.76,12.75,9.65,1,7-4.15,12.76-11.7,12.81-13.86.08-27.72,0-41.58,0Z" transform="translate(-1514.71 191.49)"/>
    <path id="Path_5" data-name="Path 5" d="M914.68,508.69c-21.48,0-43,.06-64.44,0-9.12,0-14.57-8.62-10.5-16.31,2.28-4.3,6.07-6.11,10.79-6.14H977.9c7.23,0,12.18,3.89,12.85,9.95.77,6.93-4.25,12.45-11.64,12.51-12.11.09-24.22,0-36.34,0Z" transform="translate(-1514.71 191.49)"/>
  </g>
</svg>
