<svg xmlns="http://www.w3.org/2000/svg" xmlns:xlink="http://www.w3.org/1999/xlink" width="772.81" height="697" viewBox="0 0 772.81 697">
  <defs>
    <linearGradient id="linear-gradient" x1="-4.081" y1="-0.552" x2="-5.003" y2="-0.552" gradientUnits="objectBoundingBox">
      <stop offset="0" stop-color="#a737d5"/>
      <stop offset="1" stop-color="#ef497a"/>
    </linearGradient>
    <linearGradient id="linear-gradient-2" x1="4.587" y1="-2.105" x2="2.077" y2="-2.105" gradientUnits="objectBoundingBox">
      <stop offset="0" stop-color="#a737d5"/>
      <stop offset="1" stop-color="#f34f7f"/>
    </linearGradient>
  </defs>
  <g id="Group_684" data-name="Group 684" transform="translate(-188.19 -2522)">
    <g id="Group_683" data-name="Group 683" transform="matrix(0.999, -0.035, 0.035, 0.999, 709.886, 2953.711)">
      <path id="Path_534" data-name="Path 534" d="M241.7,4.255c1.554-1.85-.7-4.743-3.254-4.185-25.9,5.655-92.617,28.075-120.914,111.7C82.028,216.7,40.4,240.545,0,247.537c0,0,45.561,10.088,89.243-13.387C196.483,176.515,214.072,37.232,241.7,4.255Z" transform="translate(0 9.755)" fill="url(#linear-gradient)"/>
      <path id="Path_543" data-name="Path 543" d="M194.64,1.1c-7.793,9.749-15.352,19.655-22.469,29.843Q161.4,46.169,151.754,62.074C145.381,72.7,139.239,83.453,133.641,94.5c-5.655,11.006-10.758,22.282-15.829,33.626-5.139,11.307-10.256,22.722-16.727,33.556A111.289,111.289,0,0,1,76.549,190.87c-2.5,2.056-5.063,4.068-7.744,5.912-2.64,1.893-5.386,3.667-8.172,5.394a134.171,134.171,0,0,1-17.667,9.1A147.433,147.433,0,0,1,3.375,221.492a3.106,3.106,0,0,1-3.289-2.148,2.165,2.165,0,0,1,1.893-2.763h0c3.326-.487,6.64-1.011,9.9-1.673,1.645-.306,3.25-.68,4.872-1.028,1.6-.411,3.221-.748,4.8-1.2a133.023,133.023,0,0,0,18.417-6.373,133.535,133.535,0,0,0,32.275-19.677,108.576,108.576,0,0,0,13.068-13,119.508,119.508,0,0,0,10.677-14.9c6.373-10.466,11.543-21.721,16.783-32.978s10.63-22.516,16.53-33.508q4.4-8.254,9.136-16.321c1.562-2.7,3.184-5.363,4.8-8.03s3.308-5.288,5-7.912q10.164-15.72,21.439-30.711C177.243,19.323,185.131,9.6,193.452.213a.75.75,0,0,1,1.013-.031.652.652,0,0,1,.187.9Z" transform="translate(17.641 36.454)" fill="#fff"/>
      <path id="Path_546" data-name="Path 546" d="M9.967,230.29a5.185,5.185,0,0,0,8.223,2.524c15.813-12.76,57.258-52.886,57.5-123.033C75.893,50.545,81.626,18.445,85.24,4.05A3.247,3.247,0,0,0,80.016.761C53.3,22.762-28.109,102.4,9.967,230.29Z" transform="translate(41.298 0)" fill="url(#linear-gradient-2)"/>
      <path id="Path_547" data-name="Path 547" d="M.578,166.341a1.56,1.56,0,0,0,.238.144,1.439,1.439,0,0,0,1.92-.666C3.129,165,42.026,83.863,46.024,1.51a1.441,1.441,0,0,0-2.878-.14C39.176,83.123.533,163.759.142,164.565A1.439,1.439,0,0,0,.578,166.341Z" transform="translate(55.665 64.272)" fill="#fff"/>
    </g>
    <g id="Group_174" data-name="Group 174" transform="translate(450.111 2525.879)">
      <g id="Group_173" data-name="Group 173" transform="translate(0 0)">
        <g id="Group_172" data-name="Group 172">
          <g id="Group_171" data-name="Group 171">
            <g id="Group_168" data-name="Group 168">
              <g id="Group_167" data-name="Group 167">
                <path id="Path_27" data-name="Path 27" d="M468.043,772.815l-234.3-1.083a51.037,51.037,0,0,1-50.8-51.253l2.484-587.4a51.038,51.038,0,0,1,51.273-50.823L471,83.334a51.041,51.041,0,0,1,50.8,51.255l-2.484,587.4A51.037,51.037,0,0,1,468.043,772.815Z" transform="translate(-182.937 -82.252)" fill="#263238"/>
              </g>
            </g>
            <g id="Group_170" data-name="Group 170" transform="translate(15.559 20.275)">
              <g id="Group_169" data-name="Group 169">
                <path id="Path_28" data-name="Path 28" d="M463.923,94.825l-45.427-.21A11.285,11.285,0,0,0,407.418,106.1l-.037,8.24A11.283,11.283,0,0,1,396.3,125.818l-88.548-.409a11.3,11.3,0,0,1-10.983-11.583l.035-8.24A11.3,11.3,0,0,0,285.824,94l-15.975-.074-39.76-.183a35.747,35.747,0,0,0-35.909,35.594l-2.422,573.347a35.745,35.745,0,0,0,35.578,35.9l233.835,1.078a35.744,35.744,0,0,0,35.909-35.592L499.5,130.72A35.746,35.746,0,0,0,463.923,94.825Z" transform="translate(-191.757 -93.745)" fill="#fafafa"/>
              </g>
            </g>
          </g>
        </g>
      </g>
    </g>
    <rect id="Rectangle_10" data-name="Rectangle 10" width="249.252" height="158.128" rx="4.3" transform="translate(509.675 2700.802)" fill="#f5f5f5"/>
    <rect id="Rectangle_11" data-name="Rectangle 11" width="249.252" height="158.128" rx="4.3" transform="translate(502.824 2690.538)" fill="#e0e0e0"/>
    <path id="Path_45" data-name="Path 45" d="M268.238,349.749h-3.031v-2.214h8.841v2.214H271.03v7.66h-2.793Z" transform="translate(319.657 2540.479)" fill="#263238"/>
    <path id="Path_46" data-name="Path 46" d="M270.438,352.557a5.5,5.5,0,1,1,5.486,5.137A5.163,5.163,0,0,1,270.438,352.557Zm8.154,0a2.67,2.67,0,1,0-2.667,2.823A2.644,2.644,0,0,0,278.592,352.557Z" transform="translate(324.257 2540.394)" fill="#263238"/>
    <path id="Path_47" data-name="Path 47" d="M279.909,349.749h-3.031v-2.214h8.842v2.214H282.7v7.66h-2.792Z" transform="translate(329.73 2540.479)" fill="#263238"/>
    <path id="Path_48" data-name="Path 48" d="M289.327,355.491h-4.174l-.778,1.917h-2.849l4.359-9.873h2.75l4.373,9.873H290.1Zm-.819-2.06-1.27-3.159-1.268,3.159Z" transform="translate(333.852 2540.479)" fill="#263238"/>
    <path id="Path_49" data-name="Path 49" d="M288.476,347.535h2.793v7.66h4.712v2.214h-7.5Z" transform="translate(339.684 2540.479)" fill="#263238"/>
    <path id="Path_50" data-name="Path 50" d="M257.427,384.154v3.057H256.1V384.18a9.974,9.974,0,0,1-6.354-2.42l.771-1.515a9.071,9.071,0,0,0,5.583,2.235v-6.995c-2.925-.72-5.9-1.623-5.9-5.133,0-2.554,1.835-4.761,5.9-5.079v-3.061h1.33v3.032a10.446,10.446,0,0,1,5.4,1.648l-.665,1.57a9.857,9.857,0,0,0-4.735-1.542v7.047c3,.718,6.169,1.568,6.169,5.132C263.6,381.68,261.658,383.914,257.427,384.154Zm-1.33-10.531v-6.649c-2.738.24-3.96,1.649-3.96,3.324C252.137,372.32,253.917,373.065,256.1,373.622Zm5.56,5.585c0-2.1-1.942-2.821-4.23-3.378v6.65C260.352,382.264,261.658,380.909,261.658,379.207Z" transform="translate(306.494 2551.694)" fill="#263238"/>
    <path id="Path_51" data-name="Path 51" d="M268.689,364.022v18.616h-1.916V365.724h-4.389v-1.7Z" transform="translate(317.123 2553.076)" fill="#263238"/>
    <path id="Path_52" data-name="Path 52" d="M282.826,377.521c0,3.3-2.793,5.345-7.234,5.345-4.467,0-7.18-2.048-7.18-5.345,0-2.233,1.275-3.8,3.59-4.576a4.2,4.2,0,0,1-2.925-4.094c0-3.032,2.579-4.92,6.515-4.92s6.569,1.888,6.569,4.92a4.212,4.212,0,0,1-2.98,4.094C281.523,373.718,282.826,375.313,282.826,377.521Zm-1.969-.026c0-2.286-1.969-3.724-5.266-3.724s-5.239,1.438-5.239,3.724c0,2.313,1.942,3.749,5.239,3.749S280.858,379.808,280.858,377.495Zm-5.266-5.239c2.9,0,4.627-1.3,4.627-3.325,0-2.1-1.835-3.376-4.627-3.376-2.819,0-4.6,1.277-4.6,3.35C270.991,370.952,272.692,372.256,275.592,372.256Z" transform="translate(322.645 2553.007)" fill="#263238"/>
    <path id="Path_53" data-name="Path 53" d="M278.086,373.4c0-5.931,3.11-9.468,7.42-9.468s7.444,3.537,7.444,9.468-3.136,9.468-7.444,9.468S278.086,379.328,278.086,373.4Zm12.9,0c0-4.973-2.235-7.712-5.478-7.712s-5.479,2.74-5.479,7.712,2.233,7.713,5.479,7.713S290.983,378.373,290.983,373.4Z" transform="translate(331.022 2553.007)" fill="#263238"/>
    <path id="Path_54" data-name="Path 54" d="M290.744,374.444a4.383,4.383,0,0,1-.372,1.544l-1.118,3.669H287.98l.9-3.858a1.342,1.342,0,0,1-.956-1.355,1.41,1.41,0,1,1,2.819,0Z" transform="translate(339.01 2559.941)" fill="#263238"/>
    <path id="Path_55" data-name="Path 55" d="M304.345,381.006v1.7H291.287v-1.357l7.737-7.58c2.1-2.075,2.5-3.325,2.5-4.6,0-2.154-1.514-3.484-4.359-3.484a6.32,6.32,0,0,0-5.081,2.074l-1.357-1.169a8.363,8.363,0,0,1,6.594-2.66c3.779,0,6.171,1.916,6.171,5.028,0,1.78-.557,3.376-3.057,5.823l-6.331,6.224Z" transform="translate(341.892 2553.007)" fill="#263238"/>
    <path id="Path_56" data-name="Path 56" d="M299.739,373.4c0-5.931,3.112-9.468,7.42-9.468s7.446,3.537,7.446,9.468-3.138,9.468-7.446,9.468S299.739,379.328,299.739,373.4Zm12.9,0c0-4.973-2.233-7.712-5.477-7.712s-5.479,2.74-5.479,7.712,2.233,7.713,5.479,7.713S312.636,378.373,312.636,373.4Z" transform="translate(349.733 2553.007)" fill="#263238"/>
    <g id="Group_194" data-name="Group 194" transform="translate(500.38 3052.465)">
      <rect id="Rectangle_14" data-name="Rectangle 14" width="238.326" height="62.554" rx="16.284" transform="translate(0 0)" fill="#e61632"/>
    </g>
    <g id="Group_195" data-name="Group 195" transform="translate(598.742 3075.152)">
      <path id="Path_57" data-name="Path 57" d="M280.093,408.773c0,3.212-2.323,5.156-6.171,5.156h-3.655v4.479h-2.112v-14.79h5.767C277.77,403.618,280.093,405.56,280.093,408.773Zm-2.113,0c0-2.113-1.415-3.318-4.119-3.318h-3.593v6.636h3.593C276.565,412.091,277.98,410.886,277.98,408.773Z" transform="translate(-268.156 -403.618)" fill="#fff"/>
      <path id="Path_58" data-name="Path 58" d="M286.657,414.712H278.8l-1.628,3.7H275l6.7-14.79h2.09l6.721,14.79h-2.219Zm-.739-1.692-3.19-7.249-3.191,7.249Z" transform="translate(-262.931 -403.618)" fill="#fff"/>
      <path id="Path_59" data-name="Path 59" d="M291.189,413.3v5.112H289.1v-5.156l-5.874-9.634h2.262l4.733,7.8,4.754-7.8h2.092Z" transform="translate(-256.645 -403.618)" fill="#fff"/>
    </g>
    <g id="Group_226" data-name="Group 226" transform="translate(494.917 2682.004)">
      <g id="Group_218" data-name="Group 218" transform="translate(0 0)">
        <rect id="Rectangle_15" data-name="Rectangle 15" width="249.252" height="158.128" rx="4.3" fill="#e8505b"/>
      </g>
      <g id="Group_220" data-name="Group 220" transform="translate(29.542 76.764)">
        <path id="Path_71" data-name="Path 71" d="M234.395,222.237h-2.147v2.824h-1.1v-2.824h-6.061v-.8l5.693-7.118H232l-5.492,6.935h4.662v-2.486h1.074v2.486h2.147Z" transform="translate(-225.082 -214.229)" fill="#fff"/>
        <path id="Path_72" data-name="Path 72" d="M238.195,221.978c0,1.8-1.3,3.175-3.9,3.175a5.585,5.585,0,0,1-3.867-1.38l.536-.877a4.7,4.7,0,0,0,3.331,1.244c1.78,0,2.763-.829,2.763-2.163,0-1.29-.907-2.133-2.9-2.133h-.767v-.813l2.978-3.729h-5.493v-.981h6.9v.781l-3.038,3.821C237.045,219.048,238.195,220.26,238.195,221.978Z" transform="translate(-220.995 -214.229)" fill="#fff"/>
        <path id="Path_73" data-name="Path 73" d="M243.112,221.9c0,1.824-1.275,3.251-3.9,3.251a5.549,5.549,0,0,1-3.851-1.38l.538-.877a4.642,4.642,0,0,0,3.3,1.244c1.826,0,2.793-.889,2.793-2.195,0-1.379-.857-2.24-3.59-2.24h-2.286l.554-5.384h5.876v.981h-4.909l-.369,3.422h1.381C241.884,218.725,243.112,220,243.112,221.9Z" transform="translate(-217.227 -214.229)" fill="#fff"/>
        <path id="Path_74" data-name="Path 74" d="M248.616,221.9c0,2.011-1.581,3.3-3.667,3.3-2.852,0-4.4-1.979-4.4-5.37,0-3.652,2-5.555,4.909-5.555a4.934,4.934,0,0,1,2.549.584l-.446.889a3.777,3.777,0,0,0-2.087-.5c-2.316,0-3.805,1.487-3.805,4.4,0,.245.016.552.046.873a3.434,3.434,0,0,1,3.283-1.84C247.127,218.674,248.616,219.932,248.616,221.9Zm-1.09.032c0-1.413-1.043-2.318-2.7-2.318a2.486,2.486,0,0,0-2.763,2.348c0,1.182.983,2.3,2.838,2.3A2.35,2.35,0,0,0,247.525,221.927Z" transform="translate(-213.267 -214.269)" fill="#fff"/>
        <path id="Path_75" data-name="Path 75" d="M261.035,223.906l-2.561-3.376-2.577,3.376h-1.228l3.191-4.142-3.04-3.929h1.23L258.473,219l2.424-3.161h1.2l-3.04,3.929,3.223,4.142Z" transform="translate(-202.476 -213.072)" fill="#fff"/>
        <path id="Path_76" data-name="Path 76" d="M265.679,223.906l-2.561-3.376-2.577,3.376h-1.228l3.193-4.142-3.04-3.929h1.228L263.117,219l2.424-3.161h1.2l-3.039,3.929,3.225,4.142Z" transform="translate(-198.928 -213.072)" fill="#fff"/>
        <path id="Path_77" data-name="Path 77" d="M270.323,223.906l-2.561-3.376-2.577,3.376h-1.228l3.191-4.142-3.038-3.929h1.228L267.761,219l2.424-3.161h1.2l-3.039,3.929,3.223,4.142Z" transform="translate(-195.38 -213.072)" fill="#fff"/>
        <path id="Path_78" data-name="Path 78" d="M274.968,223.906l-2.563-3.376-2.577,3.376H268.6l3.193-4.142-3.039-3.929h1.228L272.405,219l2.424-3.161h1.2l-3.039,3.929,3.225,4.142Z" transform="translate(-191.831 -213.072)" fill="#fff"/>
        <path id="Path_79" data-name="Path 79" d="M291,223.906l-2.561-3.376-2.577,3.376h-1.23l3.193-4.142-3.04-3.929h1.23L288.443,219l2.424-3.161h1.2l-3.038,3.929,3.223,4.142Z" transform="translate(-179.579 -213.072)" fill="#fff"/>
        <path id="Path_80" data-name="Path 80" d="M295.647,223.906l-2.561-3.376-2.577,3.376H289.28l3.191-4.142-3.038-3.929h1.228L293.085,219l2.424-3.161h1.2l-3.039,3.929,3.223,4.142Z" transform="translate(-176.03 -213.072)" fill="#fff"/>
        <path id="Path_81" data-name="Path 81" d="M300.292,223.906l-2.561-3.376-2.577,3.376h-1.23l3.193-4.142-3.04-3.929h1.23L297.731,219l2.424-3.161h1.2l-3.038,3.929,3.223,4.142Z" transform="translate(-172.482 -213.072)" fill="#fff"/>
        <path id="Path_82" data-name="Path 82" d="M304.935,223.906l-2.561-3.376-2.577,3.376h-1.228l3.193-4.142-3.039-3.929h1.228L302.373,219l2.424-3.161h1.2l-3.04,3.929,3.223,4.142Z" transform="translate(-168.933 -213.072)" fill="#fff"/>
        <path id="Path_83" data-name="Path 83" d="M318.155,214.322v10.74h-1.1V215.3h-2.533v-.981Z" transform="translate(-156.746 -214.229)" fill="#fff"/>
        <path id="Path_84" data-name="Path 84" d="M325.421,221.978c0,1.8-1.3,3.175-3.9,3.175a5.588,5.588,0,0,1-3.867-1.38l.538-.877a4.692,4.692,0,0,0,3.329,1.244c1.78,0,2.763-.829,2.763-2.163,0-1.29-.907-2.133-2.9-2.133h-.766v-.813l2.976-3.729H318.1v-.981h6.9v.781l-3.038,3.821C324.27,219.048,325.421,220.26,325.421,221.978Z" transform="translate(-154.348 -214.229)" fill="#fff"/>
        <path id="Path_85" data-name="Path 85" d="M332.145,222.237H330v2.824h-1.1v-2.824h-6.06v-.8l5.691-7.118h1.228l-5.492,6.935h4.664v-2.486H330v2.486h2.149Z" transform="translate(-150.394 -214.229)" fill="#fff"/>
        <path id="Path_86" data-name="Path 86" d="M336.209,224.12v.983h-7.533v-.782l4.465-4.373c1.212-1.2,1.441-1.919,1.441-2.655,0-1.242-.873-2.009-2.514-2.009a3.646,3.646,0,0,0-2.932,1.2l-.783-.674a4.827,4.827,0,0,1,3.805-1.537c2.18,0,3.56,1.106,3.56,2.9,0,1.028-.323,1.949-1.764,3.361l-3.652,3.59Z" transform="translate(-146.175 -214.269)" fill="#fff"/>
      </g>
      <g id="Group_221" data-name="Group 221" transform="translate(24.018 107.238)">
        <path id="Path_87" data-name="Path 87" d="M221.951,234.2a2.822,2.822,0,0,1,4.892-1.743l-.762.7a1.649,1.649,0,0,0-1.288-.6,1.64,1.64,0,1,0,0,3.279,1.633,1.633,0,0,0,1.288-.607l.762.7a2.818,2.818,0,0,1-4.892-1.734Z" transform="translate(-221.951 -231.544)" fill="#fff"/>
        <path id="Path_88" data-name="Path 88" d="M228.79,235.621h-2.378l-.455,1.1h-1.215l2.284-5.125H228.2l2.292,5.125h-1.244Zm-.374-.9-.811-1.962-.813,1.962Z" transform="translate(-219.819 -231.506)" fill="#fff"/>
        <path id="Path_89" data-name="Path 89" d="M231.571,236.719l-.988-1.427h-1.09v1.427h-1.185v-5.125h2.217c1.369,0,2.224.711,2.224,1.859a1.662,1.662,0,0,1-1.053,1.618l1.15,1.648Zm-1.113-4.158h-.965v1.787h.965c.727,0,1.094-.337,1.094-.894S231.184,232.561,230.457,232.561Z" transform="translate(-217.095 -231.506)" fill="#fff"/>
        <path id="Path_90" data-name="Path 90" d="M231.134,236.252l.4-.893a3.022,3.022,0,0,0,1.692.535c.7,0,.988-.235.988-.55,0-.958-2.98-.3-2.98-2.2,0-.871.7-1.6,2.159-1.6a3.446,3.446,0,0,1,1.78.455l-.365.9a2.918,2.918,0,0,0-1.422-.4c-.7,0-.974.263-.974.586,0,.944,2.981.293,2.981,2.173,0,.857-.711,1.589-2.177,1.589A3.661,3.661,0,0,1,231.134,236.252Z" transform="translate(-214.935 -231.544)" fill="#fff"/>
        <path id="Path_91" data-name="Path 91" d="M239.89,231.594v5.125h-1.185v-2.1h-2.33v2.1h-1.184v-5.125h1.184v2.022h2.33v-2.022Z" transform="translate(-211.835 -231.506)" fill="#fff"/>
        <path id="Path_92" data-name="Path 92" d="M238.366,234.2a2.808,2.808,0,1,1,2.8,2.65A2.652,2.652,0,0,1,238.366,234.2Zm4.407,0a1.6,1.6,0,1,0-1.6,1.639A1.562,1.562,0,0,0,242.773,234.2Z" transform="translate(-209.409 -231.544)" fill="#fff"/>
        <path id="Path_93" data-name="Path 93" d="M242.058,231.594h1.185v4.16h2.57v.965h-3.756Z" transform="translate(-206.588 -231.506)" fill="#fff"/>
        <path id="Path_94" data-name="Path 94" d="M244.568,231.594H246.9a2.575,2.575,0,1,1,0,5.125h-2.329Zm2.27,4.151a1.591,1.591,0,1,0,0-3.177h-1.085v3.177Z" transform="translate(-204.67 -231.506)" fill="#fff"/>
        <path id="Path_95" data-name="Path 95" d="M251.969,235.768v.951H248v-5.125h3.872v.953H249.18v1.113h2.38v.921h-2.38v1.187Z" transform="translate(-202.046 -231.506)" fill="#fff"/>
        <path id="Path_96" data-name="Path 96" d="M254.055,236.719l-.988-1.427h-1.092v1.427h-1.184v-5.125h2.216c1.371,0,2.226.711,2.226,1.859a1.665,1.665,0,0,1-1.053,1.618l1.15,1.648Zm-1.113-4.158h-.967v1.787h.967c.725,0,1.092-.337,1.092-.894S253.667,232.561,252.941,232.561Z" transform="translate(-199.915 -231.506)" fill="#fff"/>
      </g>
      <g id="Group_222" data-name="Group 222" transform="translate(23.507 120.088)">
        <path id="Path_97" data-name="Path 97" d="M221.661,248.128l1.27-1.524a2.268,2.268,0,0,0,1.833,1.087c.917,0,1.4-.55,1.4-1.637v-4.7h-3.47v-1.835h5.74v6.405c0,2.44-1.226,3.639-3.555,3.639A3.972,3.972,0,0,1,221.661,248.128Z" transform="translate(-221.661 -238.297)" fill="#fff"/>
        <path id="Path_98" data-name="Path 98" d="M226.326,244.988a1.369,1.369,0,0,1,2.738,0,1.369,1.369,0,1,1-2.738,0Z" transform="translate(-218.097 -235.157)" fill="#fff"/>
        <path id="Path_99" data-name="Path 99" d="M243.8,239.523l-3.23,9.874h-2.456l-2.172-6.686L233.7,249.4h-2.442l-3.242-9.874h2.369l2.228,6.94,2.327-6.94h2.117l2.256,7,2.3-7Z" transform="translate(-216.802 -238.297)" fill="#fff"/>
        <path id="Path_100" data-name="Path 100" d="M237.519,240.054a1.257,1.257,0,0,1,1.367-1.226,1.233,1.233,0,0,1,1.367,1.184,1.373,1.373,0,0,1-2.734.042Zm.268,2.286h2.2v7.587h-2.2Z" transform="translate(-209.544 -238.828)" fill="#fff"/>
        <path id="Path_101" data-name="Path 101" d="M240.075,239.188h2.2v10.464h-2.2Z" transform="translate(-207.591 -238.553)" fill="#fff"/>
        <path id="Path_102" data-name="Path 102" d="M242.48,239.188h2.2v10.464h-2.2Z" transform="translate(-205.754 -238.553)" fill="#fff"/>
        <path id="Path_103" data-name="Path 103" d="M244.732,240.054a1.257,1.257,0,0,1,1.367-1.226,1.233,1.233,0,0,1,1.367,1.184,1.373,1.373,0,0,1-2.734.042ZM245,242.34h2.2v7.587H245Z" transform="translate(-204.033 -238.828)" fill="#fff"/>
        <path id="Path_104" data-name="Path 104" d="M254.216,244.126v4.329h-2.061v-.944a2.493,2.493,0,0,1-2.313,1.057c-1.776,0-2.835-.986-2.835-2.3,0-1.341.946-2.27,3.258-2.27h1.75c0-.946-.566-1.5-1.75-1.5a3.654,3.654,0,0,0-2.187.706l-.789-1.537a5.83,5.83,0,0,1,3.272-.917C252.875,240.755,254.216,241.828,254.216,244.126Zm-2.2,1.932v-.774H250.5c-1.028,0-1.353.379-1.353.887,0,.55.466.917,1.242.917A1.624,1.624,0,0,0,252.016,246.058Z" transform="translate(-202.294 -237.356)" fill="#fff"/>
        <path id="Path_105" data-name="Path 105" d="M265.038,244.112v4.343h-2.2v-4.006c0-1.226-.552-1.79-1.439-1.79-.988,0-1.679.635-1.679,1.99v3.807h-2.2v-4.006c0-1.226-.522-1.79-1.438-1.79-.974,0-1.665.635-1.665,1.99v3.807h-2.2v-7.587h2.1v.873a3.079,3.079,0,0,1,2.383-.986,2.831,2.831,0,0,1,2.5,1.24,3.418,3.418,0,0,1,2.738-1.24C263.741,240.755,265.038,241.8,265.038,244.112Z" transform="translate(-198.316 -237.356)" fill="#fff"/>
        <path id="Path_106" data-name="Path 106" d="M260.18,247.751l.734-1.581a5.183,5.183,0,0,0,2.637.734c1.016,0,1.4-.268,1.4-.692,0-1.242-4.583.028-4.583-3,0-1.439,1.3-2.454,3.512-2.454a6.237,6.237,0,0,1,2.92.663l-.734,1.565a4.354,4.354,0,0,0-2.186-.565c-.988,0-1.411.31-1.411.706,0,1.3,4.585.042,4.585,3.032,0,1.411-1.311,2.412-3.583,2.412A6.512,6.512,0,0,1,260.18,247.751Z" transform="translate(-192.23 -237.356)" fill="#fff"/>
      </g>
      <g id="Group_223" data-name="Group 223" transform="translate(179.976 119.61)">
        <path id="Path_107" data-name="Path 107" d="M310.359,244.7c0-3.26,1.8-5.107,4.232-5.107s4.232,1.847,4.232,5.107-1.792,5.105-4.232,5.105S310.359,247.961,310.359,244.7Zm6.164,0c0-2.244-.789-3.175-1.932-3.175-1.127,0-1.919.931-1.919,3.175s.792,3.172,1.919,3.172C315.734,247.876,316.523,246.946,316.523,244.7Z" transform="translate(-310.359 -237.762)" fill="#fff"/>
        <path id="Path_108" data-name="Path 108" d="M323.937,246.523c0,2.016-1.651,3.286-3.738,3.286-2.722,0-4.415-1.708-4.415-4.9,0-3.412,2.06-5.317,5.035-5.317a5.334,5.334,0,0,1,2.752.677l-.847,1.678a3.251,3.251,0,0,0-1.847-.494,2.624,2.624,0,0,0-2.78,2.865,3.333,3.333,0,0,1,2.44-.875A3.133,3.133,0,0,1,323.937,246.523Zm-2.216.113a1.489,1.489,0,0,0-1.678-1.482,1.545,1.545,0,0,0-1.708,1.482c0,.847.635,1.466,1.734,1.466A1.476,1.476,0,0,0,321.721,246.636Z" transform="translate(-306.215 -237.762)" fill="#fff"/>
        <path id="Path_109" data-name="Path 109" d="M325.03,238.557h1.962l-4.655,13.289h-1.96Z" transform="translate(-302.705 -238.557)" fill="#fff"/>
        <path id="Path_110" data-name="Path 110" d="M331.691,247.777v1.863h-7.46v-1.482l3.809-3.6c.873-.831,1.03-1.339,1.03-1.819,0-.776-.538-1.228-1.582-1.228a2.421,2.421,0,0,0-2.045.988l-1.664-1.071A4.587,4.587,0,0,1,327.7,239.6c2.2,0,3.667,1.129,3.667,2.919,0,.96-.27,1.833-1.651,3.117l-2.27,2.143Z" transform="translate(-300.105 -237.762)" fill="#fff"/>
        <path id="Path_111" data-name="Path 111" d="M337.8,247.494H336.2v2.073h-2.226v-2.073h-5.319v-1.538l4.655-6.262h2.4l-4.317,5.938h2.651v-1.847H336.2v1.847H337.8Z" transform="translate(-296.382 -237.689)" fill="#fff"/>
      </g>
      <g id="Group_225" data-name="Group 225" transform="translate(149.764 32.683)" opacity="0.2">
        <g id="Group_224" data-name="Group 224">
          <path id="Path_112" data-name="Path 112" d="M323.5,200.577c-1.743-7.21-8.842-11.738-16.244-11.262a19.365,19.365,0,0,0-6.584,1.558c-5.142,2.286-8.716,8.369-7.012,13.732,1.392,4.378,5.654,7.169,9.865,9.007,4.408,1.926,9.59,3.182,13.945,1.134,4.193-1.972,6.626-6.806,6.421-11.435A14.226,14.226,0,0,0,323.5,200.577Z" transform="translate(-293.232 -189.281)" fill="#fff"/>
        </g>
      </g>
    </g>
    <g id="Group_228" data-name="Group 228" transform="translate(494.918 2682.004)" opacity="0.2">
      <g id="Group_227" data-name="Group 227" transform="translate(0 0)">
        <path id="Path_113" data-name="Path 113" d="M449.329,170.754H216.594a8.258,8.258,0,0,0-8.258,8.258v41.756c14.709,10.253,34.9,12.056,52.82,8.311,21.121-4.415,40.247-15.215,59.927-24.067s41.3-15.96,62.563-12.313c20.07,3.438,37.18,15.942,55.318,25.193a107.87,107.87,0,0,0,18.623,7.5V179.012A8.258,8.258,0,0,0,449.329,170.754Z" transform="translate(-208.336 -170.754)" fill="#fff"/>
      </g>
    </g>
    <g id="Group_231" data-name="Group 231" transform="translate(195.169 2538.125)">
      <path id="Path_114" data-name="Path 114" d="M57.715,93.383c-.035.034-.023.221.028.527.425,2.53,3.572,13.215,5.008,13.308,1.611.106,5.043-1.755,4.9-3.239s-4.366-13.32-4.366-13.32-.787-1.829-4.114-1.4C57.119,89.525,57.715,93.383,57.715,93.383Z" transform="translate(-57.634 -89.193)" fill="#ffbe9d"/>
    </g>
    <g id="Group_232" data-name="Group 232" transform="translate(200.53 2532.472)">
      <path id="Path_115" data-name="Path 115" d="M60.754,90.179c-.037.034-.025.221.026.527.425,2.53,3.572,13.215,5.01,13.308,1.611.106,5.043-1.755,4.9-3.239s-4.364-13.321-4.364-13.321-.787-1.829-4.116-1.4C60.156,86.321,60.754,90.179,60.754,90.179Z" transform="translate(-60.673 -85.989)" fill="#ffbe9d"/>
    </g>
    <g id="Group_233" data-name="Group 233" transform="translate(206.29 2528.793)">
      <path id="Path_116" data-name="Path 116" d="M64.019,88.093c-.037.034-.025.221.026.527.425,2.53,3.572,13.215,5.008,13.308,1.612.106,5.043-1.755,4.9-3.239s-4.364-13.321-4.364-13.321-.787-1.829-4.116-1.4C63.421,84.235,64.019,88.093,64.019,88.093Z" transform="translate(-63.938 -83.903)" fill="#ffbe9d"/>
    </g>
    <g id="Group_234" data-name="Group 234" transform="translate(212.046 2525.238)">
      <path id="Path_117" data-name="Path 117" d="M67.282,86.076c-.035.035-.023.222.028.527.425,2.531,3.572,13.216,5.008,13.31,1.611.1,5.043-1.755,4.9-3.239s-4.366-13.321-4.366-13.321-.787-1.831-4.114-1.4C66.686,82.218,67.282,86.076,67.282,86.076Z" transform="translate(-67.201 -81.888)" fill="#ffbe9d"/>
    </g>
    <g id="Group_236" data-name="Group 236" transform="translate(201.097 2539.463)">
      <g id="Group_235" data-name="Group 235" transform="translate(0 0)">
        <path id="Path_118" data-name="Path 118" d="M64.261,100.247c-.189.037-1.065-2.239-1.956-5.081s-1.462-5.178-1.274-5.215,1.066,2.239,1.956,5.082S64.449,100.212,64.261,100.247Z" transform="translate(-60.995 -89.952)" fill="#eb996e"/>
      </g>
    </g>
    <g id="Group_238" data-name="Group 238" transform="translate(206.003 2533.305)">
      <g id="Group_237" data-name="Group 237" transform="translate(0 0)">
        <path id="Path_119" data-name="Path 119" d="M68.471,101.188c-.183.058-1.379-3.191-2.669-7.257s-2.186-7.411-2-7.469,1.379,3.191,2.671,7.257S68.656,101.13,68.471,101.188Z" transform="translate(-63.776 -86.461)" fill="#eb996e"/>
      </g>
    </g>
    <g id="Group_240" data-name="Group 240" transform="translate(212.281 2530.981)" opacity="0.78">
      <g id="Group_239" data-name="Group 239" transform="translate(0 0)">
        <path id="Path_120" data-name="Path 120" d="M72.031,99.871c-.185.058-1.381-3.189-2.671-7.256s-2.186-7.411-2-7.471,1.38,3.191,2.671,7.257S72.215,99.813,72.031,99.871Z" transform="translate(-67.334 -85.144)" fill="#eb996e"/>
      </g>
    </g>
    <g id="Group_250" data-name="Group 250" transform="translate(195.165 2537.378)">
      <g id="Group_242" data-name="Group 242" transform="translate(0.014 3.124)">
        <path id="Path_121" data-name="Path 121" d="M63.451,112.858c-.18-.637-5.811-22.287-5.811-22.287l27.341-.03c1.025,1.7,2.877,19.086,2.877,19.086l-1.424,5.714s-18.819,8.381-19.308,8.422S63.451,112.858,63.451,112.858Z" transform="translate(-57.64 -90.541)" fill="#ffbe9d"/>
      </g>
      <g id="Group_245" data-name="Group 245" transform="translate(5.56)">
        <g id="Group_244" data-name="Group 244">
          <g id="Group_243" data-name="Group 243">
            <path id="Path_122" data-name="Path 122" d="M79.647,111.841l3.306-8.595A15.6,15.6,0,0,0,82.775,91.6L81.584,88.77l-20.8,7s3.93,7.005,9.343,3.992l-4.664,7.152Z" transform="translate(-60.784 -88.77)" fill="#ffbe9d"/>
          </g>
        </g>
      </g>
      <g id="Group_247" data-name="Group 247" transform="translate(4.602 0.34)">
        <g id="Group_246" data-name="Group 246">
          <path id="Path_123" data-name="Path 123" d="M67.516,107.7c.118,0,.053-1.043.573-2.731a9.967,9.967,0,0,1,4.364-5.587L74.436,98.2l-2.279.392-5.262.9L67,99.493c-2.133-.062-4.564-1.048-5.488-3.265a3.322,3.322,0,0,1-.166-.487l-.358.594c5.966-1.731,11.332-3.375,15.132-4.786,1.9-.7,3.422-1.309,4.458-1.764a5.838,5.838,0,0,0,1.567-.808c-.055-.138-2.406.681-6.254,1.895-3.844,1.231-9.217,2.755-15.19,4.481l-.464.132.106.46a4.379,4.379,0,0,0,.226.679,5.977,5.977,0,0,0,2.764,2.944,8.431,8.431,0,0,0,3.623.893l.056,0,.053-.011,5.241-1.02-.3-.785a10.04,10.04,0,0,0-4.4,6.19A5.431,5.431,0,0,0,67.516,107.7Z" transform="translate(-60.241 -88.962)" fill="#eb996e"/>
        </g>
      </g>
      <g id="Group_249" data-name="Group 249" transform="translate(0 3.593)">
        <g id="Group_248" data-name="Group 248">
          <path id="Path_124" data-name="Path 124" d="M65.641,96.982c-.2-.007.028,1.1-.423,2.512a1.894,1.894,0,0,1-1.708,1.348A2.833,2.833,0,0,1,61.342,99c-.995-2.233-2.029-4.283-2.614-5.76-.6-1.492-.879-2.466-1.03-2.436-.125.023-.1,1.06.346,2.669a46.771,46.771,0,0,0,2.387,5.989,3.652,3.652,0,0,0,3.064,2.32,2.623,2.623,0,0,0,2.413-2.071,4.5,4.5,0,0,0,.007-2.043C65.814,97.213,65.71,96.973,65.641,96.982Z" transform="translate(-57.632 -90.807)" fill="#eb996e"/>
        </g>
      </g>
    </g>
    <g id="Group_253" data-name="Group 253" transform="translate(335.358 2685.117)">
      <g id="Group_252" data-name="Group 252" transform="translate(0)">
        <path id="Path_125" data-name="Path 125" d="M174.43,211.471c-.175.074-1.328-3.355-3.978-8.468a26.61,26.61,0,0,0-6.088-7.891,16.44,16.44,0,0,0-5.058-2.89,29.473,29.473,0,0,0-6.192-1.364c-4.34-.547-8.674-.82-12.3-2.415a16.572,16.572,0,0,1-9.8-13.393,11.675,11.675,0,0,1-.034-1.882c.028-.43.06-.653.092-.651.088,0,.055.9.3,2.487a17.331,17.331,0,0,0,2.362,6.282,15.943,15.943,0,0,0,7.414,6.377c3.466,1.48,7.691,1.734,12.093,2.284a29.318,29.318,0,0,1,6.379,1.429,17,17,0,0,1,5.3,3.087,26.249,26.249,0,0,1,6.118,8.238,56.3,56.3,0,0,1,2.669,6.352A12.42,12.42,0,0,1,174.43,211.471Z" transform="translate(-130.953 -172.519)" fill="#263238"/>
      </g>
    </g>
    <g id="Group_254" data-name="Group 254" transform="translate(302.927 2614.838)">
      <path id="Path_126" data-name="Path 126" d="M112.853,135.685c11.853-5.871,27.442-2.913,36.321,6.894,4.467,4.932,7.384,11.368,12.841,15.178,6.7,4.682,15.534,4.32,23.706,4.565s17.4,1.919,21.839,8.783c2.073,3.205,2.752,7.081,3.862,10.734s2.916,7.42,6.289,9.208c2.5,1.325,5.455,1.348,8.263,1.706s5.836,1.268,7.351,3.659A94.969,94.969,0,0,1,216.169,226.7q-2.866-1.471-5.733-2.948.225,3.406.446,6.808a51.082,51.082,0,0,0-13.781,11.22q-5.327-6.467-10.655-12.932c-3.107-3.772-6.367-7.665-10.8-9.713-4.112-1.9-8.783-2.006-13.283-2.521s-9.254-1.637-12.334-4.959c-2.5-2.7-3.519-6.453-5.7-9.415a14.652,14.652,0,0,0-13.132-5.749" transform="translate(-112.853 -132.68)" fill="#263238"/>
    </g>
    <g id="Group_267" data-name="Group 267" transform="translate(324.556 2671.997)">
      <g id="Group_258" data-name="Group 258" transform="translate(0 0)">
        <g id="Group_255" data-name="Group 255" transform="translate(0 0.245)">
          <path id="Path_127" data-name="Path 127" d="M125.125,169.037c-.806,3.443,1.753,6.956,4.955,8.457s6.878,1.478,10.415,1.448,7.22-.007,10.387,1.566c5.275,2.62,7.757,8.79,12.38,12.437a15.616,15.616,0,0,0,25.12-9.986,15.713,15.713,0,0,1-18.953.118c-4.274-3.35-6.714-8.928-11.606-11.29-4.835-2.336-10.524-.834-15.875-.374s-11.93-1.064-13.518-6.194l-1.155.187Z" transform="translate(-124.975 -165.22)" fill="#e8505b"/>
        </g>
        <g id="Group_257" data-name="Group 257" transform="translate(1.414)" opacity="0.3">
          <g id="Group_256" data-name="Group 256">
            <path id="Path_128" data-name="Path 128" d="M125.79,174.547c-.273.4,3.692,3.47,3.678,3.054,0,0,2.685-1.5,3.108-3,.587-2.089.2-2.775-.783-4.708,0,0-3.334-1.515-3.9-4.811h-1.2l-.9,9.466" transform="translate(-125.776 -165.081)"/>
          </g>
        </g>
      </g>
      <g id="Group_260" data-name="Group 260" transform="translate(10.633 6.3)">
        <g id="Group_259" data-name="Group 259">
          <path id="Path_129" data-name="Path 129" d="M132.538,168.652a10.1,10.1,0,0,1-.416,3.849,20.032,20.032,0,0,1-1.1,3.71,20.853,20.853,0,0,1,.741-3.791C132.273,170.353,132.46,168.656,132.538,168.652Z" transform="translate(-131.003 -168.652)" fill="#fafafa"/>
        </g>
      </g>
      <g id="Group_262" data-name="Group 262" transform="translate(23.732 5.659)">
        <g id="Group_261" data-name="Group 261">
          <path id="Path_130" data-name="Path 130" d="M143.429,168.291a34,34,0,0,0-3.077,4.077,25.318,25.318,0,0,0-1.909,4.73,4.679,4.679,0,0,1,.213-1.507,13.175,13.175,0,0,1,1.378-3.406,14.566,14.566,0,0,1,2.233-2.914A4.933,4.933,0,0,1,143.429,168.291Z" transform="translate(-138.428 -168.289)" fill="#fafafa"/>
        </g>
      </g>
      <g id="Group_264" data-name="Group 264" transform="translate(34.524 17.714)">
        <g id="Group_263" data-name="Group 263">
          <path id="Path_131" data-name="Path 131" d="M153.3,175.125a5.487,5.487,0,0,1-.967,1.3,19.118,19.118,0,0,1-6.262,4.641,5.6,5.6,0,0,1-1.528.547,47.617,47.617,0,0,0,4.68-2.84A47.17,47.17,0,0,0,153.3,175.125Z" transform="translate(-144.546 -175.123)" fill="#fafafa"/>
        </g>
      </g>
      <g id="Group_266" data-name="Group 266" transform="translate(54.582 21.135)">
        <g id="Group_265" data-name="Group 265">
          <path id="Path_132" data-name="Path 132" d="M155.946,185.59c-.108-.016.1-1.912.111-4.26a34.414,34.414,0,0,1,.062-4.267,19.687,19.687,0,0,1,.307,4.271A14.551,14.551,0,0,1,155.946,185.59Z" transform="translate(-155.916 -177.062)" fill="#fafafa"/>
        </g>
      </g>
    </g>
    <g id="Group_287" data-name="Group 287" transform="translate(428.583 2947.162)">
      <g id="Group_268" data-name="Group 268" transform="translate(0 5.769)">
        <path id="Path_133" data-name="Path 133" d="M194.18,377.3l64.726-24.349L249.9,324.334l-70.039,16.213Z" transform="translate(-179.858 -324.334)" fill="#ffbe9d"/>
      </g>
      <g id="Group_286" data-name="Group 286" transform="translate(60.683 0)">
        <g id="Group_285" data-name="Group 285">
          <g id="Group_270" data-name="Group 270">
            <g id="Group_269" data-name="Group 269">
              <path id="Path_134" data-name="Path 134" d="M224.175,358.895l1.912-.572s22.8,28.439,29.049,26.923l-19.789-64.182-21.089,7.458C221.62,336.7,225.2,346.535,224.175,358.895Z" transform="translate(-214.257 -321.064)" fill="#e61632"/>
            </g>
          </g>
          <g id="Group_273" data-name="Group 273" transform="translate(8.81 9.111)" opacity="0.6">
            <g id="Group_272" data-name="Group 272">
              <g id="Group_271" data-name="Group 271">
                <path id="Path_135" data-name="Path 135" d="M219.274,328.969a2.744,2.744,0,0,1,2.433-2.734,2.637,2.637,0,0,1,2.733,2.387,2.893,2.893,0,0,1-2.591,2.883c-1.346-.051-2.824-1.475-2.567-2.8" transform="translate(-219.251 -326.229)" fill="#fff"/>
              </g>
            </g>
          </g>
          <g id="Group_275" data-name="Group 275" transform="translate(16.018)" opacity="0.6">
            <g id="Group_274" data-name="Group 274">
              <path id="Path_136" data-name="Path 136" d="M228.409,321.064l-5.072,1.794,20.825,60.857s2.124,2.475,4.036,1.531Z" transform="translate(-223.337 -321.064)" fill="#fff"/>
            </g>
          </g>
          <g id="Group_278" data-name="Group 278" transform="translate(11.271 30.487)">
            <g id="Group_277" data-name="Group 277">
              <g id="Group_276" data-name="Group 276">
                <path id="Path_137" data-name="Path 137" d="M221.454,345.289c.31-.108-.03-1.718.5-3.572.485-1.866,1.6-3.08,1.383-3.329-.15-.27-1.879.774-2.484,3.029C220.229,343.666,221.187,345.444,221.454,345.289Z" transform="translate(-220.646 -338.346)" fill="#263238"/>
              </g>
            </g>
          </g>
          <g id="Group_281" data-name="Group 281" transform="translate(16.609 37.665)">
            <g id="Group_280" data-name="Group 280">
              <g id="Group_279" data-name="Group 279">
                <path id="Path_138" data-name="Path 138" d="M224,348.053c.326-.021.441-1.544,1.438-3.017.954-1.5,2.3-2.214,2.194-2.521-.042-.311-1.944.039-3.149,1.895C223.264,346.254,223.7,348.138,224,348.053Z" transform="translate(-223.672 -342.415)" fill="#263238"/>
              </g>
            </g>
          </g>
          <g id="Group_284" data-name="Group 284" transform="translate(21.47 44.487)">
            <g id="Group_283" data-name="Group 283">
              <g id="Group_282" data-name="Group 282">
                <path id="Path_139" data-name="Path 139" d="M231.133,346.437c-.021-.305-1.722-.258-3.189,1.076s-1.7,3.01-1.4,3.062c.312.1.94-1.138,2.163-2.216C229.9,347.255,231.2,346.758,231.133,346.437Z" transform="translate(-226.428 -346.282)" fill="#263238"/>
              </g>
            </g>
          </g>
        </g>
      </g>
    </g>
    <g id="Group_307" data-name="Group 307" transform="translate(270.365 3121.298)">
      <g id="Group_288" data-name="Group 288" transform="translate(12.826 0)">
        <path id="Path_140" data-name="Path 140" d="M103.295,430.994l18.883,66.526,29.267-6.6-10.333-71.145Z" transform="translate(-103.295 -419.777)" fill="#ffbe9d"/>
      </g>
      <g id="Group_306" data-name="Group 306" transform="translate(0 61.681)">
        <g id="Group_305" data-name="Group 305">
          <g id="Group_290" data-name="Group 290" transform="translate(0.121)">
            <g id="Group_289" data-name="Group 289">
              <path id="Path_141" data-name="Path 141" d="M124.95,462.1l.411,1.953s-30.236,20.359-29.245,26.71l65.606-14.386-5.68-21.635C147.28,461.4,137.182,464.146,124.95,462.1Z" transform="translate(-96.093 -454.742)" fill="#e61632"/>
            </g>
          </g>
          <g id="Group_293" data-name="Group 293" transform="translate(52.206 8.405)" opacity="0.6">
            <g id="Group_292" data-name="Group 292">
              <g id="Group_291" data-name="Group 291">
                <path id="Path_142" data-name="Path 142" d="M128.37,459.537a2.741,2.741,0,0,1,2.523,2.651,2.635,2.635,0,0,1-2.606,2.524,2.893,2.893,0,0,1-2.657-2.821c.164-1.339,1.706-2.692,3-2.325" transform="translate(-125.618 -459.506)" fill="#fff"/>
              </g>
            </g>
          </g>
          <g id="Group_295" data-name="Group 295" transform="translate(0 16.432)" opacity="0.6">
            <g id="Group_294" data-name="Group 294">
              <path id="Path_143" data-name="Path 143" d="M161.775,469.259l-1.367-5.2L98.028,479.748s-2.641,1.912-1.859,3.9Z" transform="translate(-96.024 -464.057)" fill="#fff"/>
            </g>
          </g>
          <g id="Group_298" data-name="Group 298" transform="translate(29.192 8.917)">
            <g id="Group_297" data-name="Group 297">
              <g id="Group_296" data-name="Group 296">
                <path id="Path_144" data-name="Path 144" d="M112.579,460.423c.081.319,1.715.113,3.518.8,1.819.637,2.935,1.847,3.2,1.655.28-.127-.617-1.937-2.814-2.727C114.3,459.338,112.445,460.145,112.579,460.423Z" transform="translate(-112.572 -459.797)" fill="#263238"/>
              </g>
            </g>
          </g>
          <g id="Group_301" data-name="Group 301" transform="translate(22.94 13.647)">
            <g id="Group_300" data-name="Group 300">
              <g id="Group_299" data-name="Group 299">
                <path id="Path_145" data-name="Path 145" d="M109.03,462.73c-.005.326,1.5.566,2.888,1.683,1.417,1.076,2.013,2.48,2.329,2.4.312-.016.122-1.94-1.626-3.3C110.884,462.144,108.97,462.423,109.03,462.73Z" transform="translate(-109.028 -462.478)" fill="#263238"/>
              </g>
            </g>
          </g>
          <g id="Group_304" data-name="Group 304" transform="translate(17.088 17.982)">
            <g id="Group_303" data-name="Group 303">
              <g id="Group_302" data-name="Group 302">
                <path id="Path_146" data-name="Path 146" d="M109.461,469.945c.307.005.4-1.694-.806-3.267s-2.858-1.944-2.935-1.648c-.123.3,1.057,1.032,2.027,2.339C108.749,468.653,109.137,469.983,109.461,469.945Z" transform="translate(-105.711 -464.935)" fill="#263238"/>
              </g>
            </g>
          </g>
        </g>
      </g>
    </g>
    <g id="Group_308" data-name="Group 308" transform="translate(247.772 2828.365)">
      <path id="Path_147" data-name="Path 147" d="M84.078,274.676s-2.406,127,10.043,212.857l28.647,93.1,38.806-7.839s-14.889-96.329-16.958-135.647-.632-183.427-.632-183.427Z" transform="translate(-83.891 -253.722)" fill="#263238"/>
    </g>
    <g id="Group_309" data-name="Group 309" transform="translate(277.508 2825.998)">
      <path id="Path_148" data-name="Path 148" d="M98.6,264.289l37.64,145.24A54.222,54.222,0,0,0,204.186,447.9l85.961-25.568-12.391-37.037L197.327,398.77l-10.778-83.82s-14.97-62.589-34.842-62.57C147.39,252.384,98.6,264.289,98.6,264.289Z" transform="translate(-98.601 -252.38)" fill="#263238"/>
    </g>
    <g id="Group_312" data-name="Group 312" transform="translate(188.335 2563.984)">
      <g id="Group_311" data-name="Group 311" transform="translate(0)">
        <g id="Group_310" data-name="Group 310">
          <path id="Path_149" data-name="Path 149" d="M89.1,103.852l-.15,7.878s-3.2,60.965-3,70.092,30.762,61.434,30.762,61.434L98.045,273.843,55.868,198a16.738,16.738,0,0,1-1.981-10.189l10.068-81.054.263-2.136" transform="translate(-53.76 -103.852)" fill="#ffbe9d"/>
        </g>
      </g>
    </g>
    <g id="Group_313" data-name="Group 313" transform="translate(194.493 2643.81)">
      <path id="Path_150" data-name="Path 150" d="M83.578,149.1l32.847,43.444c6.183,8.178,16.836,12.818,26.309,16.739h0c23.547,1.154,52.134-1.955,63.87,17.186a13.118,13.118,0,0,1,1.388,10.687c-5.077,16.667-11.288,70.046-11.927,77.135,0,0,4.3,12.334,2.667,17s-12.667,5-12.667,5l-80.211,17.9s-3.489-1.8-3.165-4.347c.307-2.408,2.826-9.508,5.56-16.734a58.368,58.368,0,0,0,1.612-36.737,131.223,131.223,0,0,1-3.466-14.661l-1.963-27.627C93.67,236.2,69.6,210.073,57.251,173.5Z" transform="translate(-57.251 -149.103)" fill="#e61632"/>
    </g>
    <g id="Group_363" data-name="Group 363" transform="translate(270.452 2618.067)">
      <g id="Group_362" data-name="Group 362" transform="translate(0 0)">
        <g id="Group_315" data-name="Group 315">
          <g id="Group_314" data-name="Group 314">
            <path id="Path_151" data-name="Path 151" d="M153.245,164.889a27.021,27.021,0,0,0-24.284-30.261c-14.405-1.372-27.207,9.353-29.367,23.66-1.893,12.543-3.519,25.205-3.461,29.8.178,13.867,8.291,19.265,11.579,20.887a17.945,17.945,0,0,0,3.65.908h0a.09.09,0,0,1,.076.108l-3.078,15.919c-1.4,10.429,4.426,19.731,14.838,21.248,10.447,1.522,18.614-6.488,20.209-16.924Z" transform="translate(-96.131 -134.51)" fill="#ffbe9d"/>
          </g>
        </g>
        <g id="Group_322" data-name="Group 322" transform="translate(5.83 30.153)">
          <g id="Group_321" data-name="Group 321">
            <g id="Group_320" data-name="Group 320">
              <g id="Group_319" data-name="Group 319">
                <g id="Group_318" data-name="Group 318">
                  <g id="Group_317" data-name="Group 317">
                    <g id="Group_316" data-name="Group 316">
                      <path id="Path_152" data-name="Path 152" d="M99.459,153.337c.229.325,2.06-.658,4.407-.309,2.348.314,3.9,1.773,4.191,1.522.145-.109-.056-.662-.727-1.318a6.064,6.064,0,0,0-3.3-1.572,5.825,5.825,0,0,0-3.56.6C99.663,152.713,99.344,153.191,99.459,153.337Z" transform="translate(-99.436 -151.603)" fill="#263238"/>
                    </g>
                  </g>
                </g>
              </g>
            </g>
          </g>
        </g>
        <g id="Group_329" data-name="Group 329" transform="translate(26.715 34.678)">
          <g id="Group_328" data-name="Group 328">
            <g id="Group_327" data-name="Group 327">
              <g id="Group_326" data-name="Group 326">
                <g id="Group_325" data-name="Group 325">
                  <g id="Group_324" data-name="Group 324">
                    <g id="Group_323" data-name="Group 323">
                      <path id="Path_153" data-name="Path 153" d="M111.3,155.9c.229.325,2.062-.656,4.407-.309,2.348.314,3.9,1.773,4.191,1.522.143-.109-.055-.662-.729-1.318a6.039,6.039,0,0,0-3.3-1.572,5.824,5.824,0,0,0-3.56.6C111.5,155.278,111.183,155.756,111.3,155.9Z" transform="translate(-111.275 -154.168)" fill="#263238"/>
                    </g>
                  </g>
                </g>
              </g>
            </g>
          </g>
        </g>
        <g id="Group_335" data-name="Group 335" transform="translate(12.861 28.104)">
          <g id="Group_334" data-name="Group 334">
            <g id="Group_333" data-name="Group 333">
              <g id="Group_332" data-name="Group 332">
                <g id="Group_331" data-name="Group 331">
                  <g id="Group_330" data-name="Group 330">
                    <path id="Path_154" data-name="Path 154" d="M109.177,169.845a15.609,15.609,0,0,0-3.713-1.244c-.589-.15-1.14-.351-1.182-.774a3.088,3.088,0,0,1,.66-1.718q1.162-2.053,2.438-4.306c3.408-6.141,5.97-11.223,5.721-11.359s-3.212,4.731-6.622,10.872q-1.238,2.273-2.367,4.343a3.515,3.515,0,0,0-.653,2.307,1.517,1.517,0,0,0,.857,1.02,4.083,4.083,0,0,0,1,.289C107.674,169.752,109.147,169.978,109.177,169.845Z" transform="translate(-103.422 -150.441)" fill="#263238"/>
                  </g>
                </g>
              </g>
            </g>
          </g>
        </g>
        <g id="Group_340" data-name="Group 340" transform="translate(14.495 72.292)">
          <g id="Group_339" data-name="Group 339">
            <g id="Group_338" data-name="Group 338">
              <g id="Group_337" data-name="Group 337">
                <g id="Group_336" data-name="Group 336">
                  <path id="Path_155" data-name="Path 155" d="M105.179,178.588s8.954,2.064,21.284-3.1c0,0-5.322,11.459-22.114,7.386Z" transform="translate(-104.348 -175.49)" fill="#eb996e"/>
                </g>
              </g>
            </g>
          </g>
        </g>
        <g id="Group_345" data-name="Group 345" transform="translate(18.47 52.154)">
          <g id="Group_344" data-name="Group 344">
            <g id="Group_343" data-name="Group 343">
              <g id="Group_342" data-name="Group 342">
                <g id="Group_341" data-name="Group 341">
                  <path id="Path_156" data-name="Path 156" d="M106.915,165.231a4.269,4.269,0,0,1,4.02-1.018,3.9,3.9,0,0,1,2.457,1.817,2.473,2.473,0,0,1-.221,2.826,2.868,2.868,0,0,1-3.191.33,8.994,8.994,0,0,1-2.74-2.228,2.655,2.655,0,0,1-.57-.792.8.8,0,0,1,.132-.873" transform="translate(-106.601 -164.075)" fill="#e8505b"/>
                </g>
              </g>
            </g>
          </g>
        </g>
        <g id="Group_351" data-name="Group 351" transform="translate(16.896 50.137)">
          <g id="Group_350" data-name="Group 350">
            <g id="Group_349" data-name="Group 349">
              <g id="Group_348" data-name="Group 348">
                <g id="Group_347" data-name="Group 347">
                  <g id="Group_346" data-name="Group 346">
                    <path id="Path_157" data-name="Path 157" d="M114.1,162.933c-.378-.078-.755,2.47-3.2,3.96s-5.116.815-5.188,1.168c-.058.155.533.582,1.674.781a6.407,6.407,0,0,0,4.31-.831,5.577,5.577,0,0,0,2.519-3.345C114.468,163.615,114.276,162.943,114.1,162.933Z" transform="translate(-105.709 -162.931)" fill="#263238"/>
                  </g>
                </g>
              </g>
            </g>
          </g>
        </g>
        <g id="Group_356" data-name="Group 356" transform="translate(28.35 27.573)">
          <g id="Group_355" data-name="Group 355">
            <g id="Group_354" data-name="Group 354">
              <g id="Group_353" data-name="Group 353">
                <g id="Group_352" data-name="Group 352">
                  <path id="Path_158" data-name="Path 158" d="M112.206,151.343c.139.672,2.526.711,5.232,1.445,2.72.677,4.823,1.808,5.273,1.29.2-.251-.1-.907-.9-1.656a9.434,9.434,0,0,0-8-2.083C112.733,150.6,112.151,151.026,112.206,151.343Z" transform="translate(-112.202 -150.14)" fill="#263238"/>
                </g>
              </g>
            </g>
          </g>
        </g>
        <g id="Group_361" data-name="Group 361" transform="translate(8.19 22.753)">
          <g id="Group_360" data-name="Group 360">
            <g id="Group_359" data-name="Group 359">
              <g id="Group_358" data-name="Group 358">
                <g id="Group_357" data-name="Group 357">
                  <path id="Path_159" data-name="Path 159" d="M100.808,149.306c.337.595,2.034.277,3.982.535,1.958.189,3.539.88,4,.379.206-.247.025-.819-.621-1.429a5.815,5.815,0,0,0-6.43-.734C100.97,148.5,100.665,149.02,100.808,149.306Z" transform="translate(-100.774 -147.408)" fill="#263238"/>
                </g>
              </g>
            </g>
          </g>
        </g>
      </g>
    </g>
    <g id="Group_370" data-name="Group 370" transform="translate(290.075 2761.296)">
      <g id="Group_369" data-name="Group 369" transform="translate(0 0)">
        <path id="Path_163" data-name="Path 163" d="M107.213,227.4c-.243-.007-.332-2.718.265-5.991s1.612-5.784,1.845-5.707c.25.079-.369,2.662-.942,5.869S107.475,227.414,107.213,227.4Z" transform="translate(-107.026 -215.702)" fill="#263238"/>
      </g>
    </g>
    <g id="Group_376" data-name="Group 376" transform="translate(241.639 2732.864)">
      <g id="Group_375" data-name="Group 375" transform="translate(0)">
        <path id="Path_166" data-name="Path 166" d="M89.022,249.782a8.627,8.627,0,0,1-.85-1.838,48.378,48.378,0,0,1-1.761-5.236,66.259,66.259,0,0,1,.134-36.068,48.048,48.048,0,0,1,1.8-5.222,8.574,8.574,0,0,1,.864-1.833c.155.06-.891,2.741-2.036,7.224a73.342,73.342,0,0,0-.132,35.733C88.151,247.034,89.179,249.724,89.022,249.782Z" transform="translate(-83.977 -199.585)" fill="#263238"/>
      </g>
    </g>
    <g id="Group_378" data-name="Group 378" transform="translate(265.808 2806.482)">
      <g id="Group_377" data-name="Group 377" transform="translate(0)">
        <path id="Path_167" data-name="Path 167" d="M142.166,241.321a10.3,10.3,0,0,1-1.3,1.8,50.75,50.75,0,0,1-4.056,4.505,66.633,66.633,0,0,1-6.779,5.922,68.934,68.934,0,0,1-19.4,10.348,66.36,66.36,0,0,1-8.7,2.332,50.614,50.614,0,0,1-6,.859,10.334,10.334,0,0,1-2.223.078c-.018-.173,3.133-.448,8.087-1.572a75.872,75.872,0,0,0,8.55-2.5,81.755,81.755,0,0,0,9.965-4.407,81.541,81.541,0,0,0,9.21-5.821,75.927,75.927,0,0,0,6.834-5.71C140.049,243.674,142.033,241.209,142.166,241.321Z" transform="translate(-93.71 -241.317)" fill="#263238"/>
      </g>
    </g>
    <g id="Group_382" data-name="Group 382" transform="translate(285.548 2868.366)">
      <g id="Group_381" data-name="Group 381" transform="translate(0)">
        <path id="Path_169" data-name="Path 169" d="M129.735,383.286c-.247.058-6.109-23.824-13.091-53.335s-12.446-53.5-12.2-53.554,6.107,23.818,13.093,53.342S129.982,383.228,129.735,383.286Z" transform="translate(-104.437 -276.397)" fill="#455a64"/>
      </g>
    </g>
    <g id="Group_384" data-name="Group 384" transform="translate(310.85 2837.925)">
      <g id="Group_383" data-name="Group 383" transform="translate(0 0)">
        <path id="Path_170" data-name="Path 170" d="M153.962,259.148c.039.042-.319.464-1.053,1.143a23.2,23.2,0,0,1-3.383,2.544,27.327,27.327,0,0,1-26.869,1.2,23.276,23.276,0,0,1-3.6-2.232c-.792-.61-1.187-1-1.152-1.044.1-.134,1.831,1.238,5.029,2.69a28.663,28.663,0,0,0,26.256-1.177C152.249,260.545,153.854,259.023,153.962,259.148Z" transform="translate(-117.906 -259.141)" fill="#455a64"/>
      </g>
    </g>
    <g id="Group_386" data-name="Group 386" transform="translate(271.236 2842.443)">
      <g id="Group_385" data-name="Group 385" transform="translate(0 0)">
        <path id="Path_171" data-name="Path 171" d="M115.592,313.6a6.237,6.237,0,0,1-1.669-1.436,18.987,18.987,0,0,1-3.241-5.059,70.574,70.574,0,0,1-2.967-8.36c-.99-3.2-2.067-6.679-3.2-10.334-2.246-7.34-4.23-14-5.622-18.835-.639-2.281-1.175-4.2-1.6-5.739a10.083,10.083,0,0,1-.469-2.14,9.945,9.945,0,0,1,.81,2.036c.5,1.514,1.134,3.406,1.884,5.652,1.551,4.786,3.634,11.415,5.88,18.757,1.108,3.66,2.163,7.15,3.131,10.355a81.672,81.672,0,0,0,2.752,8.344A22.943,22.943,0,0,0,115.592,313.6Z" transform="translate(-96.808 -261.702)" fill="#455a64"/>
      </g>
    </g>
    <g id="Group_388" data-name="Group 388" transform="translate(278.464 2844.249)">
      <g id="Group_387" data-name="Group 387" transform="translate(0 0)">
        <path id="Path_172" data-name="Path 172" d="M101.566,263.529c-.118-.026.342-.861,1.619-.8a2.333,2.333,0,0,1,1.838,1.067,2.381,2.381,0,0,1-2.844,3.339,2.336,2.336,0,0,1-1.348-1.644c-.261-1.251.489-1.838.533-1.727.123.071-.261.665.09,1.54a1.783,1.783,0,0,0,1.021,1.039,1.6,1.6,0,0,0,1.812-2.129,1.787,1.787,0,0,0-1.187-.841C102.18,263.164,101.654,263.639,101.566,263.529Z" transform="translate(-100.777 -262.725)" fill="#455a64"/>
      </g>
    </g>
    <g id="Group_390" data-name="Group 390" transform="translate(281.495 2851.075)">
      <g id="Group_389" data-name="Group 389" transform="translate(0 0)">
        <path id="Path_173" data-name="Path 173" d="M105.171,268.534c-.028-.042.132-.24.557-.325a1.951,1.951,0,0,1,1.681.582,2.116,2.116,0,0,1,.191,2.657,2.575,2.575,0,0,1-3.077,1.025A3.16,3.16,0,0,1,102.453,270a3.367,3.367,0,0,1,.512-2.567,1.832,1.832,0,0,1,1.577-.826c.467.072.577.353.542.374-.044.065-.236-.072-.549-.018a1.621,1.621,0,0,0-1.034.836c-.579.924-.427,3.235,1.321,3.807a1.747,1.747,0,0,0,2.073-.623,1.436,1.436,0,0,0,.032-1.757,1.75,1.75,0,0,0-1.178-.658C105.409,268.532,105.2,268.6,105.171,268.534Z" transform="translate(-102.398 -266.595)" fill="#455a64"/>
      </g>
    </g>
    <g id="Group_392" data-name="Group 392" transform="translate(242.593 2850.292)">
      <g id="Group_391" data-name="Group 391" transform="translate(0 0)">
        <path id="Path_174" data-name="Path 174" d="M91.626,266.152a9.24,9.24,0,0,1,1.046,3.608,21.068,21.068,0,0,1-5.246,16.926,9.218,9.218,0,0,1-2.9,2.381c-.1-.122.99-1.043,2.408-2.8a23.489,23.489,0,0,0,5.095-16.434C91.854,267.572,91.474,266.2,91.626,266.152Z" transform="translate(-84.517 -266.152)" fill="#455a64"/>
      </g>
    </g>
    <g id="Group_394" data-name="Group 394" transform="translate(366.356 2971.19)">
      <g id="Group_393" data-name="Group 393" transform="translate(0 0)">
        <path id="Path_175" data-name="Path 175" d="M161.98,334.692c.18.178-2.833,3.484-6.726,7.383s-7.2,6.913-7.377,6.733,2.833-3.484,6.728-7.383S161.8,334.512,161.98,334.692Z" transform="translate(-147.869 -334.685)" fill="#455a64"/>
      </g>
    </g>
    <g id="Group_396" data-name="Group 396" transform="translate(374.737 2973.34)">
      <g id="Group_395" data-name="Group 395" transform="translate(0 0)">
        <path id="Path_176" data-name="Path 176" d="M152.538,350.033c-.247-.06.325-3.271,1.275-7.173s1.923-7.016,2.17-6.956-.326,3.271-1.277,7.173S152.785,350.095,152.538,350.033Z" transform="translate(-152.48 -335.904)" fill="#455a64"/>
      </g>
    </g>
    <g id="Group_454" data-name="Group 454" transform="translate(273.437 2618.43)">
      <path id="Path_207" data-name="Path 207" d="M112.4,135.693c-7.737,2.006-17.5,9.974-13.864,21.412,9.484-2.322,18.064-9.193,25.757-15.2,1.651,8.73,2.761,13.181,7.213,21.328,1.708,3.126,16.161,15.778,18.207,16.76s3.11-8.635,1.208-12.3C150.92,167.69,141.867,128.055,112.4,135.693Z" transform="translate(-97.749 -134.716)" fill="#263238"/>
    </g>
    <g id="Group_455" data-name="Group 455" transform="translate(288.804 2615.687)">
      <path id="Path_208" data-name="Path 208" d="M106.053,136.881c8.882,1.041,19.59,6.545,25.584,13.85s11.126,19.488,12,28.656c8.5-10.717,5.22-30.194-3.482-38.8s-23.358-9.57-34.1-3.7" transform="translate(-106.053 -133.161)" fill="#e8505b"/>
    </g>
    <g id="Group_457" data-name="Group 457" transform="translate(310.453 2614.156)">
      <g id="Group_456" data-name="Group 456" transform="translate(0 0)">
        <path id="Path_209" data-name="Path 209" d="M192.142,155.746a2.932,2.932,0,0,1,.422.931,5.558,5.558,0,0,1-.034,2.935,7.773,7.773,0,0,1-2.517,3.906,13.92,13.92,0,0,1-5.564,2.62,51.264,51.264,0,0,1-7.3,1.261,27.4,27.4,0,0,1-8.531-.416,17.566,17.566,0,0,1-8.4-4.352c-2.443-2.339-3.862-5.6-4.9-8.873a85.08,85.08,0,0,0-3.145-9.455,16.749,16.749,0,0,0-5.679-6.977,26.1,26.1,0,0,0-14.705-4.384,69.192,69.192,0,0,0-10.576.778c-1.164.153-2.115.281-2.872.381a4.311,4.311,0,0,1-1.011.078,4.194,4.194,0,0,1,.981-.261c.647-.138,1.607-.332,2.847-.552a60.586,60.586,0,0,1,10.639-1.073,26.386,26.386,0,0,1,15.187,4.343,17.538,17.538,0,0,1,6.007,7.291,82.719,82.719,0,0,1,3.2,9.549c1.025,3.228,2.382,6.322,4.655,8.512a16.813,16.813,0,0,0,7.958,4.17c5.733,1.272,11.16.252,15.485-.649a13.632,13.632,0,0,0,5.4-2.387,7.545,7.545,0,0,0,2.5-3.608A6.1,6.1,0,0,0,192.142,155.746Z" transform="translate(-117.329 -132.293)" fill="#263238"/>
      </g>
    </g>
    <g id="Group_458" data-name="Group 458" transform="translate(316.376 2648.633)">
      <path id="Path_210" data-name="Path 210" d="M120.942,153.91c0,6.037,1.238,12.283,4.837,17.131s9.909,7.968,15.783,6.58l-4.622-5.1a10.928,10.928,0,0,0,11.336-.7,41.058,41.058,0,0,1-25.8-19.985" transform="translate(-120.942 -151.837)" fill="#263238"/>
    </g>
    <g id="Group_460" data-name="Group 460" transform="translate(320.918 2631.568)">
      <g id="Group_459" data-name="Group 459" transform="translate(0 0)">
        <path id="Path_211" data-name="Path 211" d="M123.565,142.165a15.56,15.56,0,0,1,2.316,3.77,47,47,0,0,1,4.945,20.65,15.692,15.692,0,0,1-.36,4.41c-.3,0,.134-6.778-1.826-14.806C126.754,148.147,123.293,142.3,123.565,142.165Z" transform="translate(-123.549 -142.163)" fill="#263238"/>
      </g>
    </g>
    <g id="Group_462" data-name="Group 462" transform="translate(328.344 2634.986)">
      <g id="Group_461" data-name="Group 461" transform="translate(0 0)">
        <path id="Path_212" data-name="Path 212" d="M127.717,144.1a13.317,13.317,0,0,1,.815,3.69,64.223,64.223,0,0,1-.055,18.181,13.2,13.2,0,0,1-.838,3.683c-.275-.042.589-5.723.593-12.775C128.271,149.829,127.44,144.142,127.717,144.1Z" transform="translate(-127.585 -144.101)" fill="#263238"/>
      </g>
    </g>
    <g id="Group_463" data-name="Group 463" transform="translate(327.063 2671.882)">
      <path id="Path_213" data-name="Path 213" d="M126.911,165.016" transform="translate(-126.911 -165.016)" fill="#e8505b"/>
    </g>
    <g id="Group_465" data-name="Group 465" transform="translate(313.145 2626.51)">
      <g id="Group_464" data-name="Group 464" transform="translate(0 0)">
        <path id="Path_214" data-name="Path 214" d="M132.649,139.312a14.3,14.3,0,0,1-1.993.45c-1.231.254-2.923.644-4.763,1.184s-3.473,1.134-4.647,1.586a14.324,14.324,0,0,1-1.918.7,9.278,9.278,0,0,1,1.819-.942,38.284,38.284,0,0,1,9.462-2.785A9.267,9.267,0,0,1,132.649,139.312Z" transform="translate(-119.328 -139.296)" fill="#fafafa"/>
      </g>
    </g>
    <g id="Group_467" data-name="Group 467" transform="translate(301.967 2618.41)">
      <g id="Group_466" data-name="Group 466" transform="translate(0 0)">
        <path id="Path_215" data-name="Path 215" d="M127.788,134.725a21.741,21.741,0,0,1-2.221.418,36.227,36.227,0,0,0-10.235,3.528c-1.237.642-1.978,1.087-2.009,1.039-.014-.023.157-.157.478-.383s.8-.533,1.406-.884a28.971,28.971,0,0,1,10.318-3.556c.7-.1,1.261-.152,1.653-.169A1.984,1.984,0,0,1,127.788,134.725Z" transform="translate(-113.322 -134.705)" fill="#fafafa"/>
      </g>
    </g>
    <g id="Group_469" data-name="Group 469" transform="translate(290.842 2615.867)">
      <g id="Group_468" data-name="Group 468" transform="translate(0 0)">
        <path id="Path_216" data-name="Path 216" d="M116.41,133.274c.032.1-2.06.8-4.572,1.822-1.258.508-2.376,1.009-3.163,1.417a10.034,10.034,0,0,1-1.279.665,12.54,12.54,0,0,1,4.3-2.422c1.267-.515,2.44-.907,3.3-1.161A5.093,5.093,0,0,1,116.41,133.274Z" transform="translate(-107.392 -133.263)" fill="#fafafa"/>
      </g>
    </g>
    <g id="Group_471" data-name="Group 471" transform="translate(320.528 2640.433)">
      <g id="Group_470" data-name="Group 470" transform="translate(0)">
        <path id="Path_217" data-name="Path 217" d="M127.188,147.226a6.393,6.393,0,0,1-3.819.422,7.473,7.473,0,0,1,1.9-.282A7.369,7.369,0,0,1,127.188,147.226Z" transform="translate(-123.369 -147.189)" fill="#fafafa"/>
      </g>
    </g>
    <g id="Group_473" data-name="Group 473" transform="translate(326.32 2643.298)">
      <g id="Group_472" data-name="Group 472" transform="translate(0 0)">
        <path id="Path_218" data-name="Path 218" d="M129,148.961c0,.1-.557.2-1.251.224s-1.26-.044-1.263-.145.557-.2,1.253-.224S129,148.861,129,148.961Z" transform="translate(-126.49 -148.813)" fill="#fafafa"/>
      </g>
    </g>
    <g id="Group_475" data-name="Group 475" transform="translate(329.34 2639.462)">
      <g id="Group_474" data-name="Group 474" transform="translate(0 0)">
        <path id="Path_219" data-name="Path 219" d="M131.231,147.042a6.779,6.779,0,0,1-3.124-.321,6.842,6.842,0,0,1,3.124.321Z" transform="translate(-128.107 -146.638)" fill="#fafafa"/>
      </g>
    </g>
    <g id="Group_477" data-name="Group 477" transform="translate(324.439 2636.706)" opacity="0.3">
      <g id="Group_476" data-name="Group 476" transform="translate(0 0)">
        <path id="Path_220" data-name="Path 220" d="M128.983,169.623a56.3,56.3,0,0,0-3.161-21.246,3.067,3.067,0,0,1-.122-2.641c.669-1.032,2.382-.766,3.151.192a5.9,5.9,0,0,1,.916,3.5,2.283,2.283,0,0,1,1.126-1.956,22.5,22.5,0,0,1-1.84,21.282" transform="translate(-125.439 -145.076)"/>
      </g>
    </g>
    <g id="Group_496" data-name="Group 496" transform="translate(188.19 2522)">
      <g id="Group_487" data-name="Group 487" transform="translate(0 0)">
        <g id="Group_486" data-name="Group 486" transform="translate(0)">
          <g id="Group_485" data-name="Group 485" transform="translate(0)">
            <g id="Group_484" data-name="Group 484">
              <g id="Group_483" data-name="Group 483">
                <g id="Group_480" data-name="Group 480">
                  <g id="Group_479" data-name="Group 479">
                    <rect id="Rectangle_16" data-name="Rectangle 16" width="53.347" height="26.027" rx="2.239" transform="translate(0 25.039) rotate(-27.992)" fill="#263238"/>
                  </g>
                </g>
                <g id="Group_482" data-name="Group 482" transform="translate(3.206 2.763)">
                  <g id="Group_481" data-name="Group 481">
                    <path id="Path_221" data-name="Path 221" d="M108.359,99.062l-1.649-3.1a.872.872,0,0,0-1.187-.335l-.563.3a.874.874,0,0,1-1.189-.335l-3.216-6.049a.875.875,0,0,1,.388-1.173l.563-.3a.876.876,0,0,0,.386-1.173l-.58-1.09-1.443-2.717a2.766,2.766,0,0,0-3.742-1.143L56.962,102.781a2.766,2.766,0,0,0-1.143,3.74L64.312,122.5a2.767,2.767,0,0,0,3.742,1.143L107.215,102.8A2.764,2.764,0,0,0,108.359,99.062Z" transform="translate(-55.495 -81.619)" fill="#fafafa"/>
                  </g>
                </g>
              </g>
            </g>
          </g>
        </g>
      </g>
      <g id="Group_495" data-name="Group 495" transform="translate(51.142 22.998)">
        <g id="Group_494" data-name="Group 494">
          <g id="Group_489" data-name="Group 489" transform="translate(0.825)">
            <g id="Group_488" data-name="Group 488">
              <path id="Path_222" data-name="Path 222" d="M83.326,93.334a.128.128,0,0,1-.175-.053A.131.131,0,0,1,83.2,93.1a.129.129,0,0,1,.175.055A.127.127,0,0,1,83.326,93.334Z" transform="translate(-83.136 -93.09)" fill="#263238"/>
            </g>
          </g>
          <g id="Group_491" data-name="Group 491" transform="translate(0.412 0.22)">
            <g id="Group_490" data-name="Group 490">
              <path id="Path_223" data-name="Path 223" d="M83.094,93.459a.13.13,0,1,1,.053-.176A.131.131,0,0,1,83.094,93.459Z" transform="translate(-82.902 -93.214)" fill="#263238"/>
            </g>
          </g>
          <g id="Group_493" data-name="Group 493" transform="translate(0 0.439)">
            <g id="Group_492" data-name="Group 492">
              <path id="Path_224" data-name="Path 224" d="M82.86,93.583a.13.13,0,1,1,.053-.175A.128.128,0,0,1,82.86,93.583Z" transform="translate(-82.669 -93.339)" fill="#263238"/>
            </g>
          </g>
        </g>
      </g>
    </g>
    <g id="Group_497" data-name="Group 497" transform="translate(234.767 2542.863)">
      <path id="Path_225" data-name="Path 225" d="M80.3,92.147l-.086-.162-.092.009-.044-.083.432-.032.042.079-.265.344-.046-.085Zm.048-.058.1-.129-.164.018Z" transform="translate(-80.081 -91.879)" fill="#263238"/>
      <path id="Path_226" data-name="Path 226" d="M80.56,92.033l.086.161a.2.2,0,1,1-.349.187l-.086-.159Zm-.2.307a.118.118,0,0,0,.169.058.12.12,0,0,0,.048-.175l-.041-.072-.215.116Z" transform="translate(-79.982 -91.761)" fill="#263238"/>
      <path id="Path_227" data-name="Path 227" d="M80.686,92.267l.085.161a.2.2,0,1,1-.349.187l-.085-.159Zm-.2.307a.118.118,0,0,0,.169.058.12.12,0,0,0,.048-.175l-.041-.072-.217.116Z" transform="translate(-79.885 -91.583)" fill="#263238"/>
      <path id="Path_228" data-name="Path 228" d="M80.677,93.087l.21-.113-.229-.009-.019-.037.113-.192-.2.109-.041-.076.349-.187.035.067-.146.247.286.012.037.065-.349.191Z" transform="translate(-79.756 -91.342)" fill="#263238"/>
      <path id="Path_229" data-name="Path 229" d="M80.791,92.9a.217.217,0,0,1,.2.383.217.217,0,0,1-.2-.383Zm.161.3a.124.124,0,1,0-.116-.219.124.124,0,1,0,.116.219Z" transform="translate(-79.621 -91.115)" fill="#263238"/>
      <path id="Path_230" data-name="Path 230" d="M80.9,93.5l.06-.12,0,0-.037-.071-.1.053-.042-.081.349-.189.081.152a.149.149,0,0,1-.046.221.127.127,0,0,1-.148-.012l-.071.138Zm.242-.228-.035-.067-.122.065.035.067c.026.049.064.062.1.041S81.168,93.324,81.142,93.274Z" transform="translate(-79.547 -90.953)" fill="#263238"/>
      <path id="Path_231" data-name="Path 231" d="M81.1,93.723l-.065.034-.145-.27.349-.187.141.263-.063.035-.1-.183-.076.041.086.162-.064.034-.086-.162L81,93.533Z" transform="translate(-79.461 -90.793)" fill="#263238"/>
      <path id="Path_232" data-name="Path 232" d="M81.214,93.792l-.048-.086-.085.046-.034-.065.085-.044-.048-.086.062-.034.046.086.085-.046.035.065-.085.046.046.086Z" transform="translate(-79.342 -90.624)" fill="#263238"/>
    </g>
    <g id="Group_499" data-name="Group 499" transform="translate(208.036 2548.848)">
      <path id="Path_238" data-name="Path 238" d="M65.45,95.56l-.111-.206.152-.081.323.6-.15.081-.111-.206-.522.281-.1-.191Z" transform="translate(-64.928 -95.272)" fill="#263238"/>
      <path id="Path_239" data-name="Path 239" d="M65.338,95.752a.425.425,0,1,1-.15.563A.4.4,0,0,1,65.338,95.752Zm.3.556a.2.2,0,0,0,.1-.284.218.218,0,0,0-.385.206A.2.2,0,0,0,65.636,96.307Z" transform="translate(-64.773 -94.942)" fill="#263238"/>
      <path id="Path_240" data-name="Path 240" d="M65.878,96.356l-.111-.206.15-.081.325.6-.152.081-.109-.2-.522.281-.1-.191Z" transform="translate(-64.601 -94.664)" fill="#263238"/>
      <path id="Path_241" data-name="Path 241" d="M65.879,97.079l-.152-.284-.161.018-.1-.194.833-.065.1.187-.512.66-.108-.2Zm.111-.132.168-.2-.261.028Z" transform="translate(-64.519 -94.293)" fill="#263238"/>
      <path id="Path_242" data-name="Path 242" d="M66.39,96.858l.1.191-.522.28.173.321-.15.081-.275-.512Z" transform="translate(-64.324 -94.06)" fill="#263238"/>
    </g>
    <g id="Group_500" data-name="Group 500" transform="translate(204.363 2548.223)">
      <path id="Path_243" data-name="Path 243" d="M63.1,95.959l-.208.113-.049-.092.206-.109a.775.775,0,0,1-.067-.522l.131,0a.713.713,0,0,0,.053.462l.476-.256c-.058-.226-.106-.462.134-.589.173-.094.392-.049.563.215l.208-.111.048.09-.206.111a.829.829,0,0,1,.086.429l-.132.011a.777.777,0,0,0-.067-.377l-.482.258c.062.231.12.478-.123.609C63.5,96.289,63.275,96.24,63.1,95.959Zm.669-.476.453-.243c-.116-.176-.258-.208-.372-.148C63.716,95.165,63.73,95.315,63.772,95.483Zm-.176.584c.143-.078.12-.235.074-.411l-.452.243C63.34,96.09,63.479,96.128,63.6,96.067Z" transform="translate(-62.846 -94.918)" fill="#263238"/>
      <path id="Path_244" data-name="Path 244" d="M64.729,96.113l-1.267.683-.071-.131,1.152-.619-.161-.3.116-.062Z" transform="translate(-62.429 -94.332)" fill="#263238"/>
      <path id="Path_245" data-name="Path 245" d="M64.337,97.492c-.224.122-.466.005-.63-.3s-.123-.565.1-.684a.358.358,0,0,1,.443.076.327.327,0,0,1,.171-.349c.206-.111.43,0,.575.265s.111.517-.1.626a.325.325,0,0,1-.388-.051A.362.362,0,0,1,64.337,97.492Zm-.071-.134c.155-.085.182-.272.062-.5s-.291-.3-.446-.221-.183.27-.064.494S64.109,97.441,64.266,97.358Zm.164-.552c.106.2.258.268.4.194s.162-.249.06-.439-.256-.266-.4-.191S64.324,96.61,64.43,96.806Z" transform="translate(-62.264 -93.942)" fill="#263238"/>
      <path id="Path_246" data-name="Path 246" d="M64.425,97c.4-.217.759-.134.917.159s.032.637-.372.854-.76.134-.917-.161S64.021,97.217,64.425,97Zm.473.879c.339-.182.443-.434.325-.654s-.386-.273-.725-.092-.445.436-.326.656S64.559,98.062,64.9,97.879Z" transform="translate(-61.975 -93.42)" fill="#263238"/>
      <path id="Path_247" data-name="Path 247" d="M64.544,97.981a.3.3,0,0,1-.118.032l-.291.058-.048-.086.3-.079a.108.108,0,0,1,.058-.116.109.109,0,1,1,.1.192Z" transform="translate(-61.898 -92.734)" fill="#263238"/>
      <path id="Path_248" data-name="Path 248" d="M64.944,99.123l-.115.062-.478-.889.092-.051.8.25a.477.477,0,0,0,.406,0c.146-.079.182-.231.078-.425a.489.489,0,0,0-.328-.27l.03-.134a.643.643,0,0,1,.423.351c.138.258.1.49-.116.6a.586.586,0,0,1-.51.005l-.654-.2Z" transform="translate(-61.696 -92.816)" fill="#263238"/>
      <path id="Path_249" data-name="Path 249" d="M65.218,98.476c.4-.217.76-.134.917.159s.032.637-.372.854-.76.132-.917-.161S64.814,98.693,65.218,98.476Zm.473.879c.339-.182.445-.434.325-.656s-.386-.272-.725-.09-.445.434-.325.656S65.352,99.536,65.691,99.354Z" transform="translate(-61.369 -92.292)" fill="#263238"/>
    </g>
    <g id="Group_506" data-name="Group 506" transform="translate(195.664 2545.177)">
      <g id="Group_503" data-name="Group 503" transform="translate(0.339 0.631)">
        <g id="Group_501" data-name="Group 501" transform="translate(0 0)">
          <rect id="Rectangle_17" data-name="Rectangle 17" width="18.44" height="4.84" rx="1.26" transform="translate(4.263 0) rotate(61.742)" fill="#e8505b"/>
        </g>
        <g id="Group_502" data-name="Group 502" transform="translate(0 0)" opacity="0.3">
          <rect id="Rectangle_18" data-name="Rectangle 18" width="18.44" height="4.84" rx="1.26" transform="translate(4.263 0) rotate(61.742)"/>
        </g>
      </g>
      <g id="Group_504" data-name="Group 504" transform="translate(0 0)">
        <rect id="Rectangle_19" data-name="Rectangle 19" width="18.44" height="4.84" rx="1.26" transform="translate(4.263 0) rotate(61.742)" fill="#e8505b"/>
      </g>
      <g id="Group_505" data-name="Group 505" transform="translate(5.374 7.651)">
        <path id="Path_250" data-name="Path 250" d="M62.056,98.53c-.221.118-.437.03-.579-.231l-.134-.251-.305.164-.078-.143,1.009-.542.212.392C62.321,98.182,62.275,98.412,62.056,98.53Zm-.078-.145c.143-.078.173-.217.074-.4l-.131-.245-.453.243.132.245C61.7,98.41,61.834,98.463,61.979,98.385Z" transform="translate(-60.961 -97.528)" fill="#fff"/>
        <path id="Path_251" data-name="Path 251" d="M61.891,99l-.288-.536-.312.025-.079-.148,1.252-.086.078.143-.762,1-.081-.152Zm.088-.113.378-.483-.612.048Z" transform="translate(-60.769 -96.975)" fill="#fff"/>
        <path id="Path_252" data-name="Path 252" d="M62.06,99.452l-.348.187-.078-.143.351-.189.443-.753.083.155-.358.607.706.039.076.143Z" transform="translate(-60.446 -96.744)" fill="#fff"/>
      </g>
    </g>
    <g id="Group_527" data-name="Group 527" transform="translate(209.873 2543.668)">
      <g id="Group_509" data-name="Group 509" transform="translate(0 0)">
        <g id="Group_508" data-name="Group 508">
          <g id="Group_507" data-name="Group 507">
            <path id="Path_253" data-name="Path 253" d="M68.5,100.449a1.571,1.571,0,0,0,.157.2,1,1,0,0,0,1.164.2c.173-.09.36-.2.561-.305l1.369-.748,1.66-.9.455-.249a1,1,0,0,0,.388-.335.978.978,0,0,0,.046-1.023l-2.371-4.37a.975.975,0,0,0-1.066-.485,1.032,1.032,0,0,0-.288.115l-.28.15-.552.3-2.11,1.141-.983.531a1.106,1.106,0,0,0-.409.314.977.977,0,0,0-.148.933c.056.146.146.288.217.427l.43.8,1.293,2.413.348.658.09.173a.641.641,0,0,1,.028.06.361.361,0,0,1-.035-.056l-.1-.169-.362-.651-1.316-2.4-.434-.8a4.745,4.745,0,0,1-.222-.434,1.027,1.027,0,0,1-.053-.508,1.064,1.064,0,0,1,.206-.487,1.2,1.2,0,0,1,.429-.333l.983-.535L69.7,92.934l.554-.3.279-.152a1.17,1.17,0,0,1,.309-.12,1.053,1.053,0,0,1,1.15.522c.838,1.551,1.639,3.029,2.366,4.373a1.053,1.053,0,0,1-.053,1.1,1.077,1.077,0,0,1-.413.355l-.457.247-1.665.9-1.374.737c-.2.108-.388.212-.564.3a1.012,1.012,0,0,1-.531.1,1,1,0,0,1-.66-.325A.782.782,0,0,1,68.5,100.449Z" transform="translate(-65.97 -92.336)" fill="#e8505b"/>
          </g>
        </g>
      </g>
      <g id="Group_526" data-name="Group 526" transform="translate(2.16 1.848)">
        <g id="Group_524" data-name="Group 524">
          <g id="Group_512" data-name="Group 512" transform="translate(0.626)">
            <g id="Group_511" data-name="Group 511">
              <g id="Group_510" data-name="Group 510">
                <path id="Path_254" data-name="Path 254" d="M68.7,97.382l-.025-.039-.067-.118-.245-.437-.811-1.478-.005-.012.011-.007.226-.168,1.644-1.212,0,.012-.212-.4-.055-.106-.018-.039.023.035.06.1.219.392,0,.007-.007.005L67.8,95.147l-.226.168,0-.019c.318.584.6,1.1.8,1.482l.235.443.063.12Z" transform="translate(-67.549 -93.383)" fill="#e8505b"/>
              </g>
            </g>
          </g>
          <g id="Group_515" data-name="Group 515" transform="translate(1.045 0.76)">
            <g id="Group_514" data-name="Group 514">
              <g id="Group_513" data-name="Group 513">
                <path id="Path_255" data-name="Path 255" d="M67.786,94.678l.007.009.018.03.067.118c.058.106.143.256.247.443l.841,1.533-.018-.007c.282-.1.589-.2.9-.305l.476-.161-.009.023L69.34,94.55l-.288-.538-.078-.146-.018-.037-.007-.014.009.012.021.037.081.143c.071.127.171.309.3.533l.991,1.808.009.016-.018.005-.476.161c-.318.106-.623.21-.907.3l-.012.005-.005-.012c-.335-.619-.624-1.154-.833-1.537l-.238-.448-.064-.12-.014-.032Z" transform="translate(-67.786 -93.814)" fill="#e8505b"/>
              </g>
            </g>
          </g>
          <g id="Group_518" data-name="Group 518" transform="translate(0 2.287)">
            <g id="Group_517" data-name="Group 517">
              <g id="Group_516" data-name="Group 516">
                <path id="Path_256" data-name="Path 256" d="M67.559,95.139s.018-.012.042-.039a.228.228,0,0,0-.009-.335.223.223,0,0,0-.367.2.231.231,0,0,0,.127.173.238.238,0,0,0,.15.018c.037-.007.055-.018.056-.016a.118.118,0,0,1-.053.028.251.251,0,0,1-.162-.009.245.245,0,0,1-.146-.189.25.25,0,1,1,.494,0,.24.24,0,0,1-.081.141A.123.123,0,0,1,67.559,95.139Z" transform="translate(-67.194 -94.68)" fill="#e8505b"/>
              </g>
            </g>
          </g>
          <g id="Group_521" data-name="Group 521" transform="translate(0.729 3.626)">
            <g id="Group_520" data-name="Group 520">
              <g id="Group_519" data-name="Group 519">
                <path id="Path_257" data-name="Path 257" d="M67.974,95.9s.016-.012.042-.039a.239.239,0,0,0,.067-.134.225.225,0,0,0-.33-.229.226.226,0,0,0-.113.228.223.223,0,0,0,.127.173.237.237,0,0,0,.15.018c.035-.007.055-.018.056-.016a.118.118,0,0,1-.053.028.248.248,0,1,1,.106-.423.247.247,0,0,1,.078.226.237.237,0,0,1-.079.139A.117.117,0,0,1,67.974,95.9Z" transform="translate(-67.607 -95.439)" fill="#e8505b"/>
              </g>
            </g>
          </g>
          <g id="Group_523" data-name="Group 523" transform="translate(3.067 2.396)">
            <g id="Group_522" data-name="Group 522">
              <path id="Path_258" data-name="Path 258" d="M69.932,96.011a.676.676,0,1,1,.27-.917A.676.676,0,0,1,69.932,96.011Z" transform="translate(-68.932 -94.741)" fill="#e8505b"/>
            </g>
          </g>
        </g>
        <g id="Group_525" data-name="Group 525" transform="translate(3.498 2.83)">
          <path id="Path_259" data-name="Path 259" d="M69.685,95.183l-.453.24-.055-.106.369-.194-.048-.092.085-.044Z" transform="translate(-69.177 -94.987)" fill="#fff"/>
        </g>
      </g>
    </g>
    <g id="Group_539" data-name="Group 539" transform="translate(215.4 2530.588)">
      <g id="Group_536" data-name="Group 536" transform="translate(0 0)">
        <g id="Group_528" data-name="Group 528" transform="translate(0 0)">
          <rect id="Rectangle_20" data-name="Rectangle 20" width="19.285" height="12.235" rx="1.6" transform="matrix(0.473, 0.881, -0.881, 0.473, 10.777, 0)" fill="#e8505b"/>
        </g>
        <g id="Group_529" data-name="Group 529" transform="translate(9.207 3.077)">
          <path id="Path_260" data-name="Path 260" d="M74.932,87.708c-.138.074-.275.009-.388-.2l-.222-.413.8-.429.21.39c.106.2.078.346-.046.413a.218.218,0,0,1-.233-.011A.221.221,0,0,1,74.932,87.708Zm.146-.783-.187.1.1.183c.049.09.108.122.169.088s.067-.1.019-.189Zm-.226.587c.067-.035.071-.1.019-.2l-.116-.215-.2.106.115.215C74.728,87.514,74.784,87.549,74.853,87.512Z" transform="translate(-74.322 -86.665)" fill="#fff"/>
          <path id="Path_261" data-name="Path 261" d="M75.064,87.911l-.2-.369-.21.021-.1-.191.988-.072.1.182-.605.785-.1-.194Zm.109-.132.236-.291-.372.037Z" transform="translate(-74.143 -86.179)" fill="#fff"/>
          <path id="Path_262" data-name="Path 262" d="M76.044,88.385l-.8.427-.081-.15.27-.658-.483.259-.1-.182.8-.429.081.153-.27.656.483-.261Z" transform="translate(-73.916 -85.91)" fill="#fff"/>
          <path id="Path_263" data-name="Path 263" d="M75.6,88.725l-.168-.048-.2.108-.1-.182.8-.429.1.183-.372.2.563.153.109.2-.533-.139-.254.587-.115-.215Z" transform="translate(-73.702 -85.511)" fill="#fff"/>
        </g>
        <g id="Group_530" data-name="Group 530" transform="translate(6.081 5.09)">
          <path id="Path_264" data-name="Path 264" d="M72.89,88.469l-.079-.146-.192.1-.039-.074.192-.1-.222-.413.055-.028.692.127.046.083-.674-.12.171.318.169-.09.039.072-.169.092.079.145Z" transform="translate(-72.55 -87.806)" fill="#fff"/>
          <path id="Path_265" data-name="Path 265" d="M73.1,88.818c-.122.065-.265.028-.36-.148a.438.438,0,0,1-.048-.314l.079,0a.372.372,0,0,0,.039.273c.064.12.157.157.247.108s.113-.139.039-.275l-.026-.051.055-.03.363.065-.2-.374.067-.035.252.469-.053.03-.372-.067A.239.239,0,0,1,73.1,88.818Z" transform="translate(-72.451 -87.627)" fill="#fff"/>
          <path id="Path_266" data-name="Path 266" d="M73.283,89.125c-.123.067-.268.032-.363-.146a.433.433,0,0,1-.048-.312l.079,0a.368.368,0,0,0,.035.27c.067.125.164.159.252.111s.122-.141.021-.326l-.083-.157.386-.159.215.4-.067.035-.18-.333-.247.1.051.1C73.454,88.926,73.414,89.055,73.283,89.125Z" transform="translate(-72.313 -87.345)" fill="#fff"/>
          <path id="Path_267" data-name="Path 267" d="M73.473,89.481a.26.26,0,0,1-.358-.129c-.1-.2-.026-.372.2-.5a.372.372,0,0,1,.557.132.4.4,0,0,1,.055.194l-.078,0a.282.282,0,0,0-.042-.161.29.29,0,0,0-.439-.1c-.016.009-.037.021-.058.035a.267.267,0,0,1,.247.155A.253.253,0,0,1,73.473,89.481Zm-.041-.074a.183.183,0,0,0,.058-.268.192.192,0,0,0-.261-.1.194.194,0,0,0-.053.277A.182.182,0,0,0,73.432,89.407Z" transform="translate(-72.153 -87.058)" fill="#fff"/>
          <path id="Path_268" data-name="Path 268" d="M73.758,90.454l.136-.3-.325-.051-.044-.085.4.067.155-.351.046.083L74,90.1l.3.049.044.081-.378-.062-.166.37Z" transform="translate(-71.805 -86.331)" fill="#fff"/>
          <path id="Path_269" data-name="Path 269" d="M73.928,90.77l.136-.3-.325-.053-.044-.083.4.065.155-.351.046.085-.127.281.3.049.044.081-.378-.064-.164.37Z" transform="translate(-71.675 -86.09)" fill="#fff"/>
          <path id="Path_270" data-name="Path 270" d="M74.1,91.087l.136-.3-.325-.051-.044-.085.4.067.155-.351.046.083-.127.28.305.049.042.081-.378-.062-.164.37Z" transform="translate(-71.545 -85.848)" fill="#fff"/>
          <path id="Path_271" data-name="Path 271" d="M74.268,91.4l.136-.3-.325-.053-.044-.083.4.065.157-.351.044.085-.127.28.305.049.042.081-.378-.063-.164.37Z" transform="translate(-71.415 -85.606)" fill="#fff"/>
          <path id="Path_272" data-name="Path 272" d="M74.855,92.5l.138-.3-.325-.053-.046-.083.4.065.157-.351.044.083-.125.282.3.049.044.081-.379-.064-.164.37Z" transform="translate(-70.967 -84.771)" fill="#fff"/>
          <path id="Path_273" data-name="Path 273" d="M75.026,92.813l.136-.3-.325-.053-.044-.083.4.065.155-.349.046.083-.127.281.3.049.044.081-.379-.062-.164.37Z" transform="translate(-70.836 -84.529)" fill="#fff"/>
          <path id="Path_274" data-name="Path 274" d="M75.2,93.129l.136-.3-.325-.053-.044-.083.4.065.155-.351.046.085-.127.28.3.049.044.081-.378-.064-.164.37Z" transform="translate(-70.706 -84.287)" fill="#fff"/>
          <path id="Path_275" data-name="Path 275" d="M75.366,93.446l.136-.3-.325-.051-.044-.085.4.065.155-.349.046.083-.127.28.3.049.044.081-.378-.062-.164.37Z" transform="translate(-70.576 -84.045)" fill="#fff"/>
          <path id="Path_276" data-name="Path 276" d="M76.541,94l-.732.393-.039-.076.663-.358-.092-.171.065-.037Z" transform="translate(-70.09 -83.262)" fill="#fff"/>
          <path id="Path_277" data-name="Path 277" d="M76.293,94.763c-.122.065-.265.026-.358-.15a.428.428,0,0,1-.048-.314l.079.005a.358.358,0,0,0,.037.272c.065.122.157.159.249.109s.111-.139.039-.275l-.028-.053.055-.03.363.067-.2-.374.067-.035.252.469-.053.028-.372-.067A.24.24,0,0,1,76.293,94.763Z" transform="translate(-70.01 -83.085)" fill="#fff"/>
          <path id="Path_278" data-name="Path 278" d="M76.471,95.131l-.079-.146-.192.1-.041-.074.192-.1-.221-.413.053-.028.693.127.046.083-.674-.12.171.318.169-.092.039.074-.169.09.079.146Z" transform="translate(-69.814 -82.716)" fill="#fff"/>
          <path id="Path_279" data-name="Path 279" d="M76.573,95.566l-.067.035-.275-.512.053-.03.46.145a.276.276,0,0,0,.233,0c.085-.046.106-.134.046-.245a.284.284,0,0,0-.189-.157l.018-.078a.376.376,0,0,1,.243.2c.079.148.055.284-.067.349a.343.343,0,0,1-.295,0l-.378-.116Z" transform="translate(-69.737 -82.519)" fill="#fff"/>
        </g>
        <g id="Group_531" data-name="Group 531" transform="translate(4.059 5.636)">
          <path id="Path_280" data-name="Path 280" d="M71.512,88.141a.2.2,0,0,1,.282.093.2.2,0,0,1,.016.176l-.076-.026a.126.126,0,0,0-.007-.109.126.126,0,1,0-.222.12.124.124,0,0,0,.088.067l-.019.078a.214.214,0,0,1-.141-.111A.2.2,0,0,1,71.512,88.141Z" transform="translate(-71.404 -88.116)" fill="#fff"/>
          <path id="Path_281" data-name="Path 281" d="M71.692,88.622l-.088-.161-.092.009-.044-.083.434-.032.042.079-.265.344-.046-.085Zm.048-.058.1-.127-.164.018Z" transform="translate(-71.355 -87.932)" fill="#fff"/>
          <path id="Path_282" data-name="Path 282" d="M71.719,88.921l.06-.12,0,0-.037-.071-.1.053L71.6,88.7l.349-.189.081.152a.149.149,0,0,1-.046.221.13.13,0,0,1-.148-.012l-.071.138Zm.242-.228-.035-.067-.122.065.035.067c.026.049.064.062.1.041S71.987,88.743,71.961,88.693Z" transform="translate(-71.254 -87.814)" fill="#fff"/>
          <path id="Path_283" data-name="Path 283" d="M71.723,88.852l.076-.005a.228.228,0,0,0,.025.134c.026.049.053.06.074.048.065-.035-.088-.213.041-.284.06-.032.136-.011.189.09a.265.265,0,0,1,.034.138l-.074.007a.246.246,0,0,0-.025-.111c-.026-.048-.053-.056-.076-.044-.064.034.09.213-.039.282-.058.032-.134.011-.189-.09A.281.281,0,0,1,71.723,88.852Z" transform="translate(-71.161 -87.646)" fill="#fff"/>
          <path id="Path_284" data-name="Path 284" d="M72.373,89.3l-.349.189-.044-.081.143-.078-.085-.159-.143.078-.044-.081.349-.189.044.081-.138.074.085.159.138-.074Z" transform="translate(-71.062 -87.456)" fill="#fff"/>
          <path id="Path_285" data-name="Path 285" d="M72.112,89.26a.207.207,0,0,1,.284.1.2.2,0,0,1-.078.288.206.206,0,0,1-.284-.094A.208.208,0,0,1,72.112,89.26Zm.162.3a.124.124,0,1,0-.118-.217.124.124,0,1,0,.118.217Z" transform="translate(-70.944 -87.26)" fill="#fff"/>
          <path id="Path_286" data-name="Path 286" d="M72.453,89.448l.042.079-.282.153.093.175-.065.035-.139-.256Z" transform="translate(-70.87 -87.098)" fill="#fff"/>
          <path id="Path_287" data-name="Path 287" d="M72.545,89.619l.085.159a.2.2,0,1,1-.349.187l-.086-.159Zm-.2.307a.12.12,0,0,0,.171.056.118.118,0,0,0,.046-.173l-.039-.074-.217.116Z" transform="translate(-70.8 -86.967)" fill="#fff"/>
          <path id="Path_288" data-name="Path 288" d="M72.532,90.277l-.065.035-.146-.272.349-.189.143.265-.065.035-.1-.183-.076.041.088.162L72.6,90.2l-.088-.162-.079.044Z" transform="translate(-70.704 -86.789)" fill="#fff"/>
          <path id="Path_289" data-name="Path 289" d="M72.542,90.452l.062-.118,0-.005-.039-.071-.1.053-.044-.081.351-.187.081.152a.149.149,0,0,1-.046.219.127.127,0,0,1-.148-.012l-.071.139Zm.243-.228-.035-.065-.122.065.035.065c.026.049.064.062.1.042S72.812,90.274,72.785,90.225Z" transform="translate(-70.626 -86.643)" fill="#fff"/>
        </g>
        <g id="Group_532" data-name="Group 532" transform="translate(2.76 6.117)">
          <path id="Path_290" data-name="Path 290" d="M70.691,88.633l.15.03a.171.171,0,0,0-.007.164c.034.063.088.076.162.035l.319-.171-.127-.236.125-.067.21.39-.436.235a.245.245,0,0,1-.378-.108A.3.3,0,0,1,70.691,88.633Z" transform="translate(-70.667 -88.388)" fill="#fff"/>
          <path id="Path_291" data-name="Path 291" d="M70.876,88.851a.1.1,0,0,1,.143.042.1.1,0,0,1-.042.143.105.105,0,1,1-.1-.185Z" transform="translate(-70.551 -88.045)" fill="#fff"/>
          <path id="Path_292" data-name="Path 292" d="M72.063,89.857l-.79.141-.09-.168.376-.392-.538.092-.088-.166.554-.584.086.162-.392.406.557-.1.078.145-.393.409.561-.1Z" transform="translate(-70.465 -88.088)" fill="#fff"/>
          <path id="Path_293" data-name="Path 293" d="M71.881,89.434a.107.107,0,0,1,.1.185.1.1,0,0,1-.136-.048A.1.1,0,0,1,71.881,89.434Zm-.146.1.081.152-.517.277-.081-.15Z" transform="translate(-70.246 -87.598)" fill="#fff"/>
          <path id="Path_294" data-name="Path 294" d="M72.019,89.591l.081.15-.713.383-.081-.15Z" transform="translate(-70.179 -87.469)" fill="#fff"/>
          <path id="Path_295" data-name="Path 295" d="M72.107,89.755l.081.148-.713.385-.081-.15Z" transform="translate(-70.112 -87.344)" fill="#fff"/>
          <path id="Path_296" data-name="Path 296" d="M72.145,89.925a.1.1,0,0,1,.134.049.1.1,0,0,1-.032.136.106.106,0,0,1-.1-.185Zm-.146.1.081.15-.517.279-.081-.15Z" transform="translate(-70.045 -87.222)" fill="#fff"/>
          <path id="Path_297" data-name="Path 297" d="M72.093,90.712l-.295.159-.076-.141.063-.035a.228.228,0,0,1-.1-.4c.092-.049.191-.019.275.139l.063.118c.064-.034.081-.093.037-.173a.277.277,0,0,0-.127-.123l.076-.109a.438.438,0,0,1,.182.189A.242.242,0,0,1,72.093,90.712Zm-.212-.079.051-.028-.055-.1c-.037-.071-.076-.079-.109-.06s-.046.065-.018.118A.128.128,0,0,0,71.881,90.633Z" transform="translate(-69.959 -87.041)" fill="#fff"/>
          <path id="Path_298" data-name="Path 298" d="M72.517,91.469l-.3.159-.081-.15.273-.146c.083-.044.1-.1.069-.162s-.1-.092-.2-.042l-.259.139-.081-.15.272-.146c.085-.046.1-.1.071-.164s-.1-.09-.2-.041l-.259.139-.079-.15.517-.277.076.143-.058.032a.241.241,0,0,1,.153.127.218.218,0,0,1,.007.215.263.263,0,0,1,.185.141A.227.227,0,0,1,72.517,91.469Z" transform="translate(-69.839 -86.791)" fill="#fff"/>
          <path id="Path_299" data-name="Path 299" d="M72.071,91.24l.134-.009a.4.4,0,0,0,.046.206c.037.069.071.085.1.071.085-.046-.169-.312.037-.423.1-.053.215,0,.3.15a.5.5,0,0,1,.062.222l-.134.009a.317.317,0,0,0-.042-.169c-.035-.069-.072-.085-.1-.071-.088.048.164.314-.039.423-.1.051-.212,0-.3-.157A.5.5,0,0,1,72.071,91.24Z" transform="translate(-69.596 -86.343)" fill="#fff"/>
        </g>
        <g id="Group_533" data-name="Group 533" transform="translate(8.512 16.838)">
          <path id="Path_300" data-name="Path 300" d="M74.161,94.53a.332.332,0,1,1-.194.475A.341.341,0,0,1,74.161,94.53Zm.226.42c.152-.083.187-.171.145-.249s-.134-.1-.286-.014-.187.169-.146.247S74.233,95.031,74.387,94.95Z" transform="translate(-73.928 -94.465)" fill="#fff"/>
          <path id="Path_301" data-name="Path 301" d="M74.534,95.517a.262.262,0,0,1-.36-.134.328.328,0,0,1,.171-.48.372.372,0,0,1,.547.148.412.412,0,0,1,.055.212l-.145,0a.254.254,0,0,0-.035-.143.2.2,0,0,0-.3-.085.253.253,0,0,1,.148.134A.241.241,0,0,1,74.534,95.517Zm-.088-.146a.116.116,0,0,0,.039-.169.117.117,0,0,0-.162-.062.132.132,0,0,0,.123.231Z" transform="translate(-73.777 -94.179)" fill="#fff"/>
          <path id="Path_302" data-name="Path 302" d="M75.256,95.22l.072.134-1.076.169-.071-.134Z" transform="translate(-73.734 -93.889)" fill="#fff"/>
          <path id="Path_303" data-name="Path 303" d="M74.77,96.121l-.127.067-.273-.508.1-.055.385.129a.193.193,0,0,0,.162,0c.053-.028.064-.081.025-.153a.188.188,0,0,0-.141-.1l.012-.153a.36.36,0,0,1,.268.2c.079.15.056.291-.065.356a.3.3,0,0,1-.272,0l-.229-.076Z" transform="translate(-73.59 -93.791)" fill="#fff"/>
          <path id="Path_304" data-name="Path 304" d="M74.954,96.455l-.058-.109-.141.076-.081-.152.141-.076-.2-.362.106-.056.6.088.088.162-.563-.076.1.18.125-.067.079.146-.125.069.058.109Z" transform="translate(-73.4 -93.464)" fill="#fff"/>
        </g>
        <g id="Group_535" data-name="Group 535" transform="translate(12.746 11.765)" opacity="0.2">
          <g id="Group_534" data-name="Group 534">
            <path id="Path_305" data-name="Path 305" d="M77.956,93.705a1.194,1.194,0,0,0,.173-1.519,1.49,1.49,0,0,0-.348-.392.927.927,0,0,0-1.193.025,1.27,1.27,0,0,0-.252,1,1.332,1.332,0,0,0,.432.991.935.935,0,0,0,1.014.019A1.119,1.119,0,0,0,77.956,93.705Z" transform="translate(-76.328 -91.59)" fill="#fff"/>
          </g>
        </g>
      </g>
      <g id="Group_538" data-name="Group 538" transform="translate(7.342 0.226)" opacity="0.2">
        <g id="Group_537" data-name="Group 537">
          <path id="Path_306" data-name="Path 306" d="M85.527,101.247,77,85.386a.638.638,0,0,0-.864-.261L73.29,86.654a5.356,5.356,0,0,0,1.369,3.9,23.2,23.2,0,0,0,3.835,3.2,8.52,8.52,0,0,1,3.131,3.812,15.773,15.773,0,0,1,.31,4.692,8.37,8.37,0,0,0,.169,1.545l3.161-1.7A.639.639,0,0,0,85.527,101.247Z" transform="translate(-73.265 -85.049)" fill="#fff"/>
        </g>
      </g>
    </g>
    <g id="Group_543" data-name="Group 543" transform="translate(203.924 2548.478)">
      <g id="Group_542" data-name="Group 542" transform="translate(0 0)">
        <g id="Group_541" data-name="Group 541">
          <path id="Path_307" data-name="Path 307" d="M76.616,118.415l7.164-5.788a15.6,15.6,0,0,0,5.671-10.165l.39-3.052L68.327,95.062s-2.006,6.509,6.091,8.131c-7.173,3.1-9.854,9.605-11.821,16.649Z" transform="translate(-62.597 -95.062)" fill="#ffbe9d"/>
        </g>
      </g>
    </g>
    <g id="Group_545" data-name="Group 545" transform="translate(208.57 2547.878)">
      <g id="Group_544" data-name="Group 544" transform="translate(0 0)">
        <path id="Path_308" data-name="Path 308" d="M65.741,108.937c.1.062.568-.875,1.863-2.078a9.973,9.973,0,0,1,6.575-2.651l2.306-.026-2.168-.8-5.01-1.851.1.048c-1.815-1.12-3.426-3.189-3.117-5.573a3.737,3.737,0,0,1,.1-.5l-.607.335c6.03,1.487,11.5,2.75,15.5,3.431,2,.349,3.618.579,4.742.7a5.886,5.886,0,0,0,1.761.085c.023-.146-2.424-.614-6.363-1.491-3.943-.857-9.357-2.226-15.392-3.724l-.469-.116-.138.452a4.433,4.433,0,0,0-.146.7,5.991,5.991,0,0,0,.921,3.934,8.456,8.456,0,0,0,2.69,2.586l.048.03.049.018,5.049,1.741.136-.829a10.025,10.025,0,0,0-6.906,3.158A5.429,5.429,0,0,0,65.741,108.937Z" transform="translate(-65.231 -94.722)" fill="#eb996e"/>
      </g>
    </g>
    <g id="Group_682" data-name="Group 682" transform="translate(338.754 2729.729) rotate(9)">
      <g id="Group_311-2" data-name="Group 311" transform="translate(0 0)">
        <g id="Group_310-2" data-name="Group 310">
          <path id="Path_149-2" data-name="Path 149" d="M18.056,111.177l.1-5.153s2.093-39.872,1.965-45.841S0,20,0,20L12.209,0,39.793,49.606a10.946,10.946,0,0,1,1.3,6.664L34.5,109.28l-.172,1.4" fill="#ffbe9d"/>
        </g>
      </g>
    </g>
    <path id="Path_610" data-name="Path 610" d="M36.271,78.956C16.635,40.1,15.79,48.6,9.589,32.372-12.958,9.7,8.18-17.221,32.559,14.519,40.143,28.345,42.847,31.676,55.67,58.882Z" transform="translate(322.217 2711.064) rotate(8)" fill="#e61632"/>
    <g id="Group_681" data-name="Group 681" transform="matrix(0.966, 0.259, -0.259, 0.966, 339.539, 2824.419)">
      <g id="Group_316-2" data-name="Group 316" transform="translate(1.903 0)">
        <g id="Group_315-2" data-name="Group 315" transform="translate(0 0)">
          <path id="Path_142-2" data-name="Path 142" d="M19.033,9.323S18.938.074,18.6,0L1.957,4.229C1.781,5.432-.319,20.6.041,22.081L18.76,28.012S19.034,9.86,19.033,9.323Z" fill="#ffbe9d"/>
        </g>
      </g>
      <g id="Group_346-2" data-name="Group 346" transform="translate(0 4.725)">
        <g id="Group_345-2" data-name="Group 345" transform="translate(0 0)">
          <g id="Group_342-2" data-name="Group 342" transform="translate(2.163 9.838)">
            <g id="Group_341-2" data-name="Group 341" transform="translate(0 0)">
              <g id="Group_319-2" data-name="Group 319" transform="translate(13.293 0)">
                <g id="Group_318-2" data-name="Group 318" transform="translate(0 0)">
                  <g id="Group_317-2" data-name="Group 317">
                    <path id="Path_143-2" data-name="Path 143" d="M5.5,12.041c.036-.019.068-.168.095-.418C5.812,9.552,5.678.515,4.576.128,3.34-.305.252.4.039,1.593S.55,12.955.55,12.955s.217,1.6,2.911,1.991C5.127,15.187,5.5,12.041,5.5,12.041Z" fill="#ffbe9d"/>
                  </g>
                </g>
              </g>
              <g id="Group_322-2" data-name="Group 322" transform="translate(8.789 3.25)">
                <g id="Group_321-2" data-name="Group 321" transform="translate(0 0)">
                  <g id="Group_320-2" data-name="Group 320">
                    <path id="Path_144-2" data-name="Path 144" d="M5.5,12.041c.035-.019.067-.168.093-.418C5.813,9.552,5.68.515,4.576.128,3.341-.305.252.4.039,1.593S.55,12.955.55,12.955s.217,1.6,2.911,1.991C5.127,15.187,5.5,12.041,5.5,12.041Z" fill="#ffbe9d"/>
                  </g>
                </g>
              </g>
              <g id="Group_325-2" data-name="Group 325" transform="translate(4.383 4.873)">
                <g id="Group_324-2" data-name="Group 324" transform="translate(0 0)">
                  <g id="Group_323-2" data-name="Group 323">
                    <path id="Path_145-2" data-name="Path 145" d="M5.5,12.04c.036-.018.068-.167.094-.417C5.812,9.551,5.678.514,4.576.128,3.34-.3.252.4.039,1.593S.551,12.956.551,12.956s.217,1.6,2.911,1.99C5.125,15.186,5.5,12.04,5.5,12.04Z" fill="#ffbe9d"/>
                  </g>
                </g>
              </g>
              <g id="Group_328-2" data-name="Group 328" transform="translate(0 6.397)">
                <g id="Group_327-2" data-name="Group 327" transform="translate(0 0)">
                  <g id="Group_326-2" data-name="Group 326">
                    <path id="Path_146-2" data-name="Path 146" d="M5.5,12.042c.036-.019.068-.168.094-.418C5.812,9.553,5.678.514,4.576.128,3.34-.3.252.4.039,1.593S.55,12.956.55,12.956s.217,1.6,2.911,1.99C5.127,15.188,5.5,12.042,5.5,12.042Z" fill="#ffbe9d"/>
                  </g>
                </g>
              </g>
              <g id="Group_332-2" data-name="Group 332" transform="translate(13.79 4.236)">
                <g id="Group_331-2" data-name="Group 331" transform="translate(0 0)">
                  <g id="Group_330-2" data-name="Group 330">
                    <g id="Group_329-2" data-name="Group 329">
                      <path id="Path_147-2" data-name="Path 147" d="M.173,0A17.737,17.737,0,0,1,.6,4.4a16.836,16.836,0,0,1-.14,4.353,17.788,17.788,0,0,1-.422-4.4A16.88,16.88,0,0,1,.173,0Z" fill="#eb996e"/>
                    </g>
                  </g>
                </g>
              </g>
              <g id="Group_336-2" data-name="Group 336" transform="translate(9.17 4.206)">
                <g id="Group_335-2" data-name="Group 335" transform="translate(0 0)">
                  <g id="Group_334-2" data-name="Group 334">
                    <g id="Group_333-2" data-name="Group 333">
                      <path id="Path_148-2" data-name="Path 148" d="M.139,0A34.82,34.82,0,0,1,.645,6.255a34.883,34.883,0,0,1-.061,6.274A34.846,34.846,0,0,1,.076,6.274,34.808,34.808,0,0,1,.139,0Z" fill="#eb996e"/>
                    </g>
                  </g>
                </g>
              </g>
              <g id="Group_340-2" data-name="Group 340" transform="translate(4.456 4.655)" opacity="0.78">
                <g id="Group_339-2" data-name="Group 339" transform="translate(0 0)">
                  <g id="Group_338-2" data-name="Group 338">
                    <g id="Group_337-2" data-name="Group 337">
                      <path id="Path_149-3" data-name="Path 149" d="M.138,0A34.847,34.847,0,0,1,.646,6.254a34.815,34.815,0,0,1-.063,6.276A34.771,34.771,0,0,1,.077,6.274,34.739,34.739,0,0,1,.138,0Z" fill="#eb996e"/>
                    </g>
                  </g>
                </g>
              </g>
            </g>
          </g>
          <g id="Group_344-2" data-name="Group 344">
            <g id="Group_343-2" data-name="Group 343">
              <path id="Path_150-2" data-name="Path 150" d="M6.533,0S-.99,17.09.11,18.152a25.168,25.168,0,0,0,4.629,2.69Z" fill="#ffbe9d"/>
            </g>
          </g>
        </g>
      </g>
    </g>
  </g>
</svg>
