<svg xmlns="http://www.w3.org/2000/svg" width="24.68" height="24.715" viewBox="0 0 24.68 24.715">
  <path id="Icon_feather-phone" data-name="Icon feather-phone" d="M23.507,18.258v3.068a2.045,2.045,0,0,1-2.229,2.045,20.239,20.239,0,0,1-8.826-3.14A19.942,19.942,0,0,1,6.316,14.1a20.239,20.239,0,0,1-3.14-8.867A2.045,2.045,0,0,1,5.211,3H8.279a2.045,2.045,0,0,1,2.045,1.759,13.131,13.131,0,0,0,.716,2.874,2.045,2.045,0,0,1-.46,2.158l-1.3,1.3a16.363,16.363,0,0,0,6.136,6.136l1.3-1.3a2.045,2.045,0,0,1,2.158-.46,13.131,13.131,0,0,0,2.874.716,2.045,2.045,0,0,1,1.759,2.076Z" transform="translate(0.709 -2.36) rotate(7)" fill="none" stroke="#000" stroke-linecap="round" stroke-linejoin="round" stroke-width="1.8"/>
</svg>
