<svg id="Layer_1" data-name="Layer 1" xmlns="http://www.w3.org/2000/svg" viewBox="0 0 384 383.96"><title>secure</title><path d="M-385.28,587.09c-7.15-1-14.33-1.8-21.46-3-75-12.18-138.7-73.16-154-147.59-11.31-54.92-1.42-105.68,30.57-151.93a4.19,4.19,0,0,0,.27-5.25,28,28,0,0,1,4.15-33.3,28.46,28.46,0,0,1,32.71-6.25,28.53,28.53,0,0,1,16.23,29.47c-1.36,11.86-10.69,22.26-22.86,24.13-5.49.84-11.28-.29-18-.57a162.7,162.7,0,0,0-17,29.45c-38.83,86.38-3.06,188,81.57,230.59,46.42,23.33,94.31,25.34,143.07,7.55.94-.35,1.85-.75,2.8-1.07,4.57-1.54,8.76.19,10.2,4.2s-.43,8.26-5,9.83c-8.85,3-17.68,6.28-26.77,8.32-9.95,2.25-20.19,3.22-30.3,4.76-1,.15-1.93.41-2.9.62Zm-106.4-321.34a13.44,13.44,0,0,0-13.46-13.66,13.69,13.69,0,0,0-13.49,13.36A13.48,13.48,0,0,0-505.07,279,13.27,13.27,0,0,0-491.68,265.75Z" transform="translate(565.28 -203.13)" fill="#e61632"/><path d="M-181.28,406.34c-1,7.28-1.72,14.58-2.92,21.82A185.09,185.09,0,0,1-216,505c-1.57,2.22-1.83,3.74-.46,6.21a28,28,0,0,1-4.66,33.22,28.51,28.51,0,0,1-32.48,5.89,28.58,28.58,0,0,1-16.15-29.52c1.39-11.84,10.8-22.27,22.92-24.07,5.5-.82,11.28.32,17.93.61a154.25,154.25,0,0,0,19.76-36.08q32.22-85.26-15.8-162.84a15.23,15.23,0,0,1-2.44-7.55c0-3.05,2.32-5.23,5.4-5.94,3.54-.8,6.35.51,8.38,3.55A190.75,190.75,0,0,1-194.1,326a188.53,188.53,0,0,1,12.2,54.24c.09,1.22.41,2.42.62,3.62Zm-73.6,118.12a13.45,13.45,0,0,0,13.49,13.63,13.71,13.71,0,0,0,13.46-13.39,13.46,13.46,0,0,0-13.59-13.53A13.25,13.25,0,0,0-254.88,524.46Z" transform="translate(565.28 -203.13)" fill="#e61632"/><path d="M-373.45,500.71q-28.12,0-56.24,0c-17.63,0-29.07-11.47-29.08-29.09,0-31.74,0-63.49,0-95.23,0-11.38,4.66-19.89,14.51-25.69,1.1-.65,1.93-2.71,2-4.12.1-10.74-.17-21.45,3-31.95,9.14-30.47,39.46-51.69,70.38-49.05,33.85,2.88,60.39,27.79,64,60.39.75,6.81.61,13.72.62,20.58a4.59,4.59,0,0,0,2.66,4.64c9.16,5.33,13.89,13.44,13.91,24.06q.09,48.74,0,97.47c0,16.16-11.74,27.89-27.93,28C-335,500.78-354.21,500.7-373.45,500.71Zm.15-138q-28.31,0-56.59,0c-9.23,0-13.88,4.65-13.88,13.77q0,47.59,0,95.2c0,9.27,4.77,14,14.11,14h112.8c9.36,0,14.08-4.72,14.08-14.06q0-47.42,0-94.82c0-9.44-4.58-14.09-13.93-14.11Q-345,362.68-373.3,362.71Zm-38.17-15.21c0-5.07-.14-9.81,0-14.54.79-24,24-41.47,47.27-35.59a38.2,38.2,0,0,1,29.12,36.78c.08,4.43,0,8.87,0,13.33h15.71c0-5.31.16-10.41,0-15.49-1.19-32.82-32.6-57.23-64.72-50.4-25.82,5.49-47.54,28.57-42.73,65.91Zm61.4.1c0-4.92.16-9.52,0-14.1-.7-17.68-20.22-28.19-35.23-18.82-11.52,7.2-12.42,17.45-10.56,32.92Z" transform="translate(565.28 -203.13)" fill="#e61632"/><path d="M-366.12,203.19c35.38,1,70.52,12.25,102.22,34.1,4.22,2.91,5.34,7.31,2.94,11s-7.09,4.35-11.49,1.33a175.24,175.24,0,0,0-79.33-30.15,176.64,176.64,0,0,0-84.31,10.16c-1.05.39-2.09.84-3.15,1.2-4.62,1.55-8.75-.1-10.26-4.09s.35-8.33,4.91-9.88c8.85-3,17.7-6.11,26.74-8.43C-401.93,204.31-385.65,202.83-366.12,203.19Z" transform="translate(565.28 -203.13)" fill="#e61632"/><path d="M-241.44,258.57a7.57,7.57,0,0,1,7.49,7.36,7.7,7.7,0,0,1-7.71,7.58,7.45,7.45,0,0,1-7.19-7.62A7.31,7.31,0,0,1-241.44,258.57Z" transform="translate(565.28 -203.13)" fill="#e61632"/><path d="M-344.65,407.33A29.47,29.47,0,0,1-349,422.61a13.1,13.1,0,0,0-1.68,5.86c-.21,6.11,0,12.24-.09,18.37-.12,13.06-10,23.17-22.6,23.09s-22.23-10.11-22.38-22.94c0-3.5,0-7,0-10.5,0-6.18-.24-11.93-3.51-17.87-5.61-10.18-2.7-23.16,5.44-31.47a28.58,28.58,0,0,1,31.44-6.55A28.52,28.52,0,0,1-344.65,407.33Zm-36.13,27.43c0,3.87,0,7.74,0,11.61.07,5.05,3.15,8.53,7.5,8.52s7.44-3.45,7.48-8.52c.05-6.5.16-13,0-19.48-.13-4.52.67-8.35,3.71-12.08,4.36-5.32,3.08-13.3-2.09-17.92a13.67,13.67,0,0,0-18.13,0c-5.2,4.66-6.47,12.59-2.1,17.92a16.14,16.14,0,0,1,3.69,12.08C-380.91,429.51-380.78,432.14-380.78,434.76Z" transform="translate(565.28 -203.13)" fill="#e61632"/></svg>