<svg xmlns="http://www.w3.org/2000/svg" width="372.302" height="384" viewBox="0 0 372.302 384">
  <g id="Group_1" data-name="Group 1" transform="translate(-3876.595 109.25)">
    <path id="Path_1" data-name="Path 1" d="M996.75,732.75h-72a7.609,7.609,0,0,0-1.342-.6c-13.539-3.25-21.851-12.208-24.084-25.942q-1.471-9.057-3.016-18.1c-2.583-15.13-16.365-23.164-30.84-17.939-6.336,2.288-12.581,4.833-18.945,7.037-14.225,4.928-28.673-.245-36.269-13.19q-15.923-27.135-31.46-54.5c-7.536-13.273-4.74-28.3,6.878-38.238,5.128-4.384,10.449-8.542,15.583-12.92,11.438-9.753,11.436-25.478,0-35.211-4.947-4.211-10.054-8.234-15.013-12.431-12.362-10.462-15.086-25.377-7.079-39.378q15.249-26.661,30.713-53.2c8.095-13.883,22.623-19.018,37.694-13.482,6.207,2.28,12.334,4.784,18.583,6.939,13.9,4.792,27.586-3.359,30.1-17.826,1.07-6.149,2.068-12.311,3.066-18.472,2.226-13.733,10.53-22.686,24.075-25.946a7.936,7.936,0,0,0,1.348-.6h72a7.886,7.886,0,0,0,1.346.6c13.52,3.241,21.84,12.21,24.075,25.945q1.474,9.056,3.018,18.1c2.6,15.135,16.356,23.151,30.848,17.931,6.221-2.241,12.352-4.728,18.581-6.944,14.32-5.094,28.938.024,36.626,13.1q15.942,27.123,31.459,54.5c7.53,13.27,4.733,28.281-6.884,38.245-5.121,4.392-10.45,8.542-15.582,12.923-11.446,9.771-11.443,25.412.006,35.2,4.938,4.222,10.053,8.236,15.014,12.433,12.352,10.448,15.079,25.386,7.073,39.383q-15.247,26.661-30.713,53.2c-8.091,13.87-22.63,19-37.706,13.471-6.208-2.276-12.338-4.776-18.585-6.934-13.9-4.8-27.6,3.365-30.091,17.826-1.059,6.152-2.059,12.313-3.065,18.473-2.243,13.742-10.56,22.7-24.08,25.943A7.629,7.629,0,0,0,996.75,732.75Zm-4.464-30.114c1.016-6.079,2.088-11.97,2.978-17.889,4.76-31.66,33.312-51.947,63.848-44.835,8.086,1.883,15.816,5.341,23.643,8.253,1.926.717,2.908.476,3.869-1.327,1.818-3.413,3.83-6.724,5.763-10.077l24.41-42.319c-5.031-4.153-9.925-8.212-14.837-12.247-27.106-22.262-27.1-60.653.012-82.9,4.914-4.031,9.8-8.09,14.841-12.247-10.212-17.682-20.3-35.2-30.514-52.641a3.485,3.485,0,0,0-3.148-1.042c-5.2,1.734-10.337,3.693-15.455,5.677-9.647,3.741-19.544,5.143-29.761,3.111-23.021-4.579-39.11-21.785-42.676-45.423-.9-5.985-2-11.94-2.981-17.738H929.173c-1.012,6.113-2.053,12.01-2.957,17.928-4.828,31.6-33.543,51.843-64.014,44.643-7.719-1.824-15.109-5.112-22.556-7.972-2.6-1-3.839-.62-5.255,1.876-9.3,16.4-18.786,32.687-28.2,49.017-.482.835-.875,1.721-1.357,2.675,4.752,3.924,9.363,7.747,13.991,11.551,28.111,23.1,28.1,60.98-.03,84.109-4.69,3.857-9.355,7.743-14.077,11.653C814.948,612.2,825.01,629.595,835,647.027c.953,1.662,1.862,1.865,3.6,1.179,5.684-2.246,11.433-4.331,17.178-6.42a52.3,52.3,0,0,1,69.832,39.886c1.3,6.955,2.428,13.942,3.644,20.964Z" transform="translate(3102 -458)"/>
    <path id="Path_5" data-name="Path 5" d="M958.3,614.736c-41.561-2.141-73.5-36.6-71.583-76.719,1.975-41.265,36.234-72.9,76.654-71.151,41.437,1.8,73.223,36.434,71.4,76.418A74.379,74.379,0,0,1,958.3,614.736Zm46.49-73.881c.091-23.98-19.649-43.9-43.75-44.159-24.058-.253-44.255,19.761-44.341,43.94-.085,23.971,19.667,43.911,43.748,44.166C984.5,585.057,1004.7,565.034,1004.795,540.855Z" transform="translate(3102 -458)"/>
  </g>
</svg>
