<svg xmlns="http://www.w3.org/2000/svg" width="40" height="40" viewBox="0 0 40 40">
  <g id="Group_728" data-name="Group 728" transform="translate(-1159 -1007)">
    <g id="Icon_feather-share-2" data-name="Icon feather-share-2" transform="translate(1161.5 1006)">
      <path id="Path_614" data-name="Path 614" d="M31.5,7.5A4.5,4.5,0,1,1,27,3,4.5,4.5,0,0,1,31.5,7.5Z" fill="none" stroke="#e61632" stroke-linecap="round" stroke-linejoin="round" stroke-width="1.8"/>
      <path id="Path_615" data-name="Path 615" d="M13.5,18A4.5,4.5,0,1,1,9,13.5,4.5,4.5,0,0,1,13.5,18Z" fill="none" stroke="#e61632" stroke-linecap="round" stroke-linejoin="round" stroke-width="1.8"/>
      <path id="Path_616" data-name="Path 616" d="M31.5,28.5A4.5,4.5,0,1,1,27,24,4.5,4.5,0,0,1,31.5,28.5Z" fill="none" stroke="#e61632" stroke-linecap="round" stroke-linejoin="round" stroke-width="1.8"/>
      <path id="Path_617" data-name="Path 617" d="M12.885,20.265l10.245,5.97" fill="none" stroke="#e61632" stroke-linecap="round" stroke-linejoin="round" stroke-width="1.8"/>
      <path id="Path_618" data-name="Path 618" d="M23.115,9.765l-10.23,5.97" fill="none" stroke="#e61632" stroke-linecap="round" stroke-linejoin="round" stroke-width="1.8"/>
    </g>
    <rect id="Rectangle_103" data-name="Rectangle 103" width="40" height="40" transform="translate(1159 1007)" fill="none"/>
  </g>
</svg>
