<svg xmlns="http://www.w3.org/2000/svg" width="13" height="20.926" viewBox="0 0 13 20.926">
  <path id="Icon_open-question-mark" data-name="Icon open-question-mark" d="M6.461,0A6.76,6.76,0,0,0,1.543,1.726,5.708,5.708,0,0,0,0,5.074l2.616.34a3.17,3.17,0,0,1,.811-1.8,3.884,3.884,0,0,1,3.034-.994,4.615,4.615,0,0,1,3.191.889,2.187,2.187,0,0,1,.732,1.726c0,2.171-.889,2.773-2.2,3.924A7.455,7.455,0,0,0,5.153,15.04v.654H7.769V15.04c0-2.171.811-2.773,2.119-3.924S13,8.292,13,5.231a5.025,5.025,0,0,0-1.543-3.688A7.23,7.23,0,0,0,6.461,0ZM5.153,18.31v2.616H7.769V18.31Z"/>
</svg>
