<svg xmlns="http://www.w3.org/2000/svg" width="382.425" height="300.32" viewBox="0 0 382.425 300.32">
  <path id="transfer" d="M1152.23,502.77c-2.36,3.27-4.33,6.94-7.14,9.77q-45.27,45.56-90.83,90.8a19.51,19.51,0,0,1-9.06,5.32c-8.94,1.84-15.75-4.64-15.86-14.58-.14-11.7,0-23.4,0-35.1v-4.54h-5.1c-47.29,0-94.58-.19-141.87.13-11.76.08-17.65-6.91-16.92-17.14.4-5.67.07-11.39.07-16.47-20.3,20.33-40.79,40.84-60.87,61l60.87,60.87v-17c0-11.72,5-16.72,16.85-16.73h103a25.588,25.588,0,0,1,7.36.87,13.38,13.38,0,0,1,9.2,14.16,13.71,13.71,0,0,1-12.23,12.16,41.832,41.832,0,0,1-4.48.11H893c-.07,1.51-.19,2.82-.19,4.13v34.72c0,5.5-1.39,10.33-6.37,13.48a13.15,13.15,0,0,1-15.65-.66,34.846,34.846,0,0,1-3.3-3l-91.61-91.6c-8-8-8-15.25-.12-23.18q45.93-45.94,92-91.8c2.44-2.42,5.74-4.72,9-5.44,8.88-2,15.92,4.51,16.06,14.35.16,11.82,0,23.65,0,35.47v4.38h148.27c10.36,0,15.54,5.26,15.56,15.66v18.2L1118,499.85l-61.09-61.15a15.648,15.648,0,0,0-.21,2.09c0,6.09.1,12.2-.07,18.29-.19,7.18-5.07,12.38-12.18,13.28a24.606,24.606,0,0,1-3,.24h-106a20.49,20.49,0,0,1-6.23-.93,13.41,13.41,0,0,1-9-13.95,13.72,13.72,0,0,1,12.09-12.3,39.188,39.188,0,0,1,4.47-.12h92.57V406.24c0-6.55,2.22-11.82,8.5-14.43s11.54-.5,16.19,4.15q46.41,46.51,92.85,93c2.21,2.22,3.62,5.22,5.4,7.86Z" transform="translate(-769.865 -390.676)"/>
</svg>
