<svg xmlns="http://www.w3.org/2000/svg" xmlns:xlink="http://www.w3.org/1999/xlink" width="1065.59" height="720.599" viewBox="0 0 1065.59 720.599">
  <defs>
    <linearGradient id="linear-gradient" x1="-8.431" y1="0.118" x2="-8.984" y2="0.879" gradientUnits="objectBoundingBox">
      <stop offset="0" stop-color="#b37cff"/>
      <stop offset="1" stop-color="#f895e7"/>
    </linearGradient>
    <linearGradient id="linear-gradient-2" x1="5.618" y1="-0.599" x2="4.405" y2="1.426" xlink:href="#linear-gradient"/>
    <linearGradient id="linear-gradient-3" x1="7.367" y1="-0.599" x2="6.155" y2="1.426" xlink:href="#linear-gradient"/>
    <linearGradient id="linear-gradient-4" x1="0.697" y1="0.572" x2="-0.031" y2="1.425" xlink:href="#linear-gradient"/>
    <linearGradient id="linear-gradient-5" x1="-6.464" y1="-13.546" x2="-5.597" y2="-13.344" gradientUnits="objectBoundingBox">
      <stop offset="0" stop-color="#a737d5"/>
      <stop offset="1" stop-color="#ef497a"/>
    </linearGradient>
    <linearGradient id="linear-gradient-6" x1="6.693" y1="0.465" x2="5.707" y2="-0.681" xlink:href="#linear-gradient-5"/>
    <linearGradient id="linear-gradient-7" x1="-72.76" y1="-7.593" x2="-73.789" y2="-4.9" xlink:href="#linear-gradient-5"/>
    <linearGradient id="linear-gradient-8" x1="26.495" y1="2.084" x2="26.369" y2="2.567" xlink:href="#linear-gradient-5"/>
    <linearGradient id="linear-gradient-9" x1="5.533" y1="4.255" x2="3.991" y2="5.991" gradientUnits="objectBoundingBox">
      <stop offset="0" stop-color="#cb236d"/>
      <stop offset="1" stop-color="#4c246d"/>
    </linearGradient>
    <linearGradient id="linear-gradient-10" x1="53.893" y1="0.417" x2="54.551" y2="1.226" gradientUnits="objectBoundingBox">
      <stop offset="0" stop-color="#2b3582"/>
      <stop offset="1" stop-color="#150e42"/>
    </linearGradient>
    <linearGradient id="linear-gradient-11" x1="21.095" y1="0.743" x2="21.354" y2="-0.491" gradientUnits="objectBoundingBox">
      <stop offset="0" stop-color="#53d8ff"/>
      <stop offset="1" stop-color="#3840f7"/>
    </linearGradient>
    <linearGradient id="linear-gradient-12" x1="58.808" y1="0.26" x2="60.168" y2="1.995" xlink:href="#linear-gradient-10"/>
    <linearGradient id="linear-gradient-13" x1="51.38" y1="2.226" x2="48.949" y2="-1.529" gradientUnits="objectBoundingBox">
      <stop offset="0" stop-color="#fdf53f"/>
      <stop offset="0.665" stop-color="#e57a58"/>
      <stop offset="1" stop-color="#d93c65"/>
    </linearGradient>
    <linearGradient id="linear-gradient-14" x1="66.351" y1="3.031" x2="63.185" y2="-4.448" xlink:href="#linear-gradient-13"/>
    <linearGradient id="linear-gradient-15" x1="-32.565" y1="0.5" x2="-31.565" y2="0.5" gradientUnits="objectBoundingBox">
      <stop offset="0" stop-color="#f9b776"/>
      <stop offset="1" stop-color="#f47960"/>
    </linearGradient>
    <linearGradient id="linear-gradient-16" x1="15.192" y1="0.224" x2="14.502" y2="0.657" xlink:href="#linear-gradient-11"/>
    <linearGradient id="linear-gradient-17" x1="25.921" y1="-0.228" x2="26.57" y2="1.514" xlink:href="#linear-gradient-13"/>
    <linearGradient id="linear-gradient-18" x1="95.609" y1="1.062" x2="95.72" y2="0.1" xlink:href="#linear-gradient-15"/>
    <linearGradient id="linear-gradient-19" x1="61.251" y1="0.82" x2="60.94" y2="-0.114" xlink:href="#linear-gradient-15"/>
    <linearGradient id="linear-gradient-20" x1="37.683" y1="-0.467" x2="37.861" y2="0.954" xlink:href="#linear-gradient-10"/>
    <linearGradient id="linear-gradient-21" x1="288.577" y1="2.058" x2="287.104" y2="-0.895" xlink:href="#linear-gradient-15"/>
    <linearGradient id="linear-gradient-22" x1="-78.24" y1="0.5" x2="-77.24" y2="0.5" xlink:href="#linear-gradient-10"/>
    <linearGradient id="linear-gradient-23" x1="-21.584" y1="1.052" x2="-21.627" y2="0.16" xlink:href="#linear-gradient-15"/>
    <linearGradient id="linear-gradient-24" x1="-263.192" y1="-73.936" x2="-269.331" y2="-76.634" xlink:href="#linear-gradient-11"/>
    <linearGradient id="linear-gradient-25" x1="-35.689" y1="-22.131" x2="-36.649" y2="-23.749" xlink:href="#linear-gradient-11"/>
    <linearGradient id="linear-gradient-26" x1="-41.047" y1="-87.473" x2="-41.959" y2="-90.455" xlink:href="#linear-gradient-11"/>
    <linearGradient id="linear-gradient-27" x1="-25.966" y1="-129.064" x2="-22.883" y2="-130.151" xlink:href="#linear-gradient-11"/>
    <linearGradient id="linear-gradient-28" x1="4.873" y1="-1.058" x2="-10.04" y2="4.254" xlink:href="#linear-gradient-10"/>
    <linearGradient id="linear-gradient-29" x1="1.154" y1="-32.967" x2="-0.549" y2="55.281" xlink:href="#linear-gradient-10"/>
    <linearGradient id="linear-gradient-30" x1="0.758" y1="-3" x2="-0.597" y2="15.393" xlink:href="#linear-gradient-10"/>
    <linearGradient id="linear-gradient-31" x1="0" y1="0.5" x2="1" y2="0.5" xlink:href="#linear-gradient-15"/>
    <linearGradient id="linear-gradient-32" x1="0.532" y1="0.006" x2="0.327" y2="3.202" xlink:href="#linear-gradient-9"/>
    <linearGradient id="linear-gradient-34" x1="0.311" y1="2.213" x2="0.471" y2="0.817" xlink:href="#linear-gradient-5"/>
    <linearGradient id="linear-gradient-35" x1="0.554" y1="-2.157" x2="0.395" y2="6.275" xlink:href="#linear-gradient-9"/>
    <linearGradient id="linear-gradient-36" x1="0.281" y1="0.171" x2="0.902" y2="1.621" gradientUnits="objectBoundingBox">
      <stop offset="0" stop-color="#fdf53f"/>
      <stop offset="1" stop-color="#d93c65"/>
    </linearGradient>
    <linearGradient id="linear-gradient-37" x1="0.705" y1="1.885" x2="0.475" y2="0.326" xlink:href="#linear-gradient-15"/>
    <linearGradient id="linear-gradient-38" x1="0.106" y1="0.3" x2="1.389" y2="1.091" xlink:href="#linear-gradient-15"/>
    <linearGradient id="linear-gradient-39" x1="1.899" y1="-0.703" x2="-0.051" y2="0.922" xlink:href="#linear-gradient-10"/>
    <linearGradient id="linear-gradient-40" x1="-2.145" y1="-0.898" x2="2.525" y2="1.653" xlink:href="#linear-gradient-15"/>
    <linearGradient id="linear-gradient-41" x1="0.623" y1="0.5" x2="1.623" y2="0.5" xlink:href="#linear-gradient-15"/>
    <linearGradient id="linear-gradient-42" x1="1.321" y1="-0.179" x2="-0.046" y2="0.949" xlink:href="#linear-gradient-10"/>
    <linearGradient id="linear-gradient-43" x1="-0.161" y1="36.295" x2="-0.9" y2="38.732" xlink:href="#linear-gradient-10"/>
    <linearGradient id="linear-gradient-44" x1="0.733" y1="0.134" x2="0.333" y2="0.8" xlink:href="#linear-gradient-10"/>
    <linearGradient id="linear-gradient-45" x1="1.284" y1="-0.304" x2="-0.556" y2="1.583" xlink:href="#linear-gradient-11"/>
    <linearGradient id="linear-gradient-46" y1="0.5" x2="1" y2="0.5" gradientUnits="objectBoundingBox">
      <stop offset="0" stop-color="#18459f"/>
      <stop offset="1" stop-color="#2874b5"/>
    </linearGradient>
    <linearGradient id="linear-gradient-51" x1="-0.184" y1="1.294" x2="0.486" y2="0.516" xlink:href="#linear-gradient-36"/>
    <linearGradient id="linear-gradient-52" x1="0.878" y1="-0.071" x2="-1.173" y2="3.028" xlink:href="#linear-gradient-36"/>
    <linearGradient id="linear-gradient-53" x1="1.164" y1="0.149" x2="-1.625" y2="2.156" xlink:href="#linear-gradient-36"/>
    <linearGradient id="linear-gradient-54" x1="1.482" y1="-1.721" x2="-2.699" y2="7.737" xlink:href="#linear-gradient-36"/>
    <linearGradient id="linear-gradient-57" x1="-2.887" y1="2.355" x2="2.668" y2="-0.688" xlink:href="#linear-gradient-36"/>
    <linearGradient id="linear-gradient-58" x1="-1.734" y1="1.724" x2="3.822" y2="-1.319" xlink:href="#linear-gradient-36"/>
    <linearGradient id="linear-gradient-59" x1="-2.313" y1="2.041" x2="3.242" y2="-1.002" xlink:href="#linear-gradient-36"/>
    <linearGradient id="linear-gradient-60" x1="-2.694" y1="1.978" x2="3.957" y2="-0.957" xlink:href="#linear-gradient-36"/>
    <linearGradient id="linear-gradient-63" x1="0.744" y1="0.173" x2="-0.256" y2="1.208" xlink:href="#linear-gradient-36"/>
    <linearGradient id="linear-gradient-66" x1="1.618" y1="-0.945" x2="-1.389" y2="3.484" xlink:href="#linear-gradient-36"/>
    <linearGradient id="linear-gradient-67" x1="1.911" y1="-1.515" x2="-1.535" y2="3.268" xlink:href="#linear-gradient-36"/>
    <linearGradient id="linear-gradient-68" x1="1.016" y1="0.018" x2="-0.299" y2="1.265" xlink:href="#linear-gradient-10"/>
    <linearGradient id="linear-gradient-69" x1="1.021" y1="0.008" x2="-0.307" y2="1.261" xlink:href="#linear-gradient-36"/>
  </defs>
  <g id="Group_729" data-name="Group 729" transform="translate(-6764 -4652.401)">
    <g id="Group_728" data-name="Group 728">
      <g id="Group_1" data-name="Group 1" transform="translate(6764 4724.399)" opacity="0.8">
        <path id="Path_2" data-name="Path 2" d="M721.763,508.793s52.462-69.566,107.828-18.906,40.226,154.015,0,178.668c0,0,49.2,74.717-13.369,96.846s-406.038.286-449.916-9.6S158.727,691.429,262.572,618.643c0,0-176.045-252.561-66.093-397.26s294.5-.255,294.5-.255,220.091-30.539,185.066,221.013C676.043,442.141,740.749,432,721.763,508.793Z" transform="translate(-160.344 -157.006)" opacity="0.7" fill="url(#linear-gradient)"/>
      </g>
      <g id="Group_11" data-name="Group 11" transform="translate(7436.454 5004.828)" opacity="0.7">
        <g id="Group_3" data-name="Group 3" transform="translate(0 46.708)">
          <g id="Group_2" data-name="Group 2">
            <path id="Path_3" data-name="Path 3" d="M736.769,486.2a.761.761,0,0,0,.423.776l8.33,4.053a40.363,40.363,0,0,0,3.518,12.6l-5.033,7.782a.761.761,0,0,0,.04.883l6.857,8.751a.762.762,0,0,0,.848.25l8.761-3.027a40.345,40.345,0,0,0,11.392,6.428l1.942,9.056a.763.763,0,0,0,.653.6l11.036,1.338a.761.761,0,0,0,.777-.422l4.052-8.329a40.392,40.392,0,0,0,12.6-3.518l7.782,5.033a.761.761,0,0,0,.883-.041l8.751-6.857a.762.762,0,0,0,.25-.848l-3.026-8.76a40.37,40.37,0,0,0,6.428-11.392l9.055-1.944a.759.759,0,0,0,.6-.653l1.339-11.036a.761.761,0,0,0-.423-.776l-8.33-4.052a40.33,40.33,0,0,0-3.518-12.6l5.033-7.782a.761.761,0,0,0-.04-.883l-6.858-8.75a.758.758,0,0,0-.847-.251l-8.76,3.027a40.369,40.369,0,0,0-11.393-6.428l-1.942-9.056a.763.763,0,0,0-.653-.6l-11.036-1.338a.761.761,0,0,0-.777.422l-4.052,8.329a40.384,40.384,0,0,0-12.6,3.519l-7.782-5.033a.761.761,0,0,0-.883.041l-8.751,6.857a.762.762,0,0,0-.25.848l3.026,8.76a40.388,40.388,0,0,0-6.428,11.392l-9.056,1.944a.762.762,0,0,0-.6.653ZM776.685,483a9.871,9.871,0,1,1,5.659,12.762A9.871,9.871,0,0,1,776.685,483Z" transform="translate(-736.763 -437.423)" fill="url(#linear-gradient-2)"/>
          </g>
        </g>
        <g id="Group_5" data-name="Group 5" transform="translate(71.515 0)">
          <g id="Group_4" data-name="Group 4">
            <path id="Path_4" data-name="Path 4" d="M798.068,424.475a.425.425,0,0,0,.236.432l4.626,2.25a22.455,22.455,0,0,0,1.954,7l-2.8,4.323a.423.423,0,0,0,.023.49l3.808,4.86a.423.423,0,0,0,.471.139l4.866-1.681a22.381,22.381,0,0,0,6.327,3.57l1.08,5.03a.423.423,0,0,0,.362.331l6.131.743a.423.423,0,0,0,.43-.234l2.25-4.627a22.429,22.429,0,0,0,7-1.954l4.322,2.8a.425.425,0,0,0,.491-.022l4.86-3.809a.424.424,0,0,0,.139-.471l-1.681-4.865a22.416,22.416,0,0,0,3.57-6.328l5.03-1.079a.423.423,0,0,0,.33-.363l.744-6.129a.425.425,0,0,0-.236-.432l-4.626-2.25a22.459,22.459,0,0,0-1.954-7l2.8-4.322a.425.425,0,0,0-.022-.491l-3.809-4.86a.426.426,0,0,0-.471-.139l-4.866,1.681a22.434,22.434,0,0,0-6.327-3.57l-1.08-5.029a.42.42,0,0,0-.362-.331l-6.13-.743a.421.421,0,0,0-.43.234l-2.25,4.627a22.4,22.4,0,0,0-7,1.954l-4.322-2.8a.423.423,0,0,0-.491.022l-4.86,3.809a.424.424,0,0,0-.139.47l1.681,4.866a22.442,22.442,0,0,0-3.57,6.328l-5.03,1.079a.423.423,0,0,0-.331.363Zm22.17-1.773a5.483,5.483,0,1,1,3.144,7.087A5.483,5.483,0,0,1,820.239,422.7Z" transform="translate(-798.065 -397.385)" fill="url(#linear-gradient-3)"/>
          </g>
        </g>
        <g id="Group_10" data-name="Group 10" transform="translate(68.387 21.412)">
          <g id="Group_6" data-name="Group 6">
            <path id="Path_5" data-name="Path 5" d="M795.4,573.31a2.461,2.461,0,0,0,1.366,2.508l26.909,13.088a130.4,130.4,0,0,0,11.367,40.7l-16.259,25.143a2.461,2.461,0,0,0,.129,2.854l22.154,28.268a2.459,2.459,0,0,0,2.74.808l28.3-9.778a130.394,130.394,0,0,0,36.8,20.766l6.279,29.256a2.462,2.462,0,0,0,2.109,1.927l35.654,4.322a2.457,2.457,0,0,0,2.508-1.366L968.55,704.9a130.438,130.438,0,0,0,40.7-11.367l25.143,16.258a2.459,2.459,0,0,0,2.854-.129l28.268-22.154a2.46,2.46,0,0,0,.808-2.739l-9.779-28.3a130.446,130.446,0,0,0,20.766-36.8l29.256-6.279a2.459,2.459,0,0,0,1.926-2.109l4.323-35.654a2.461,2.461,0,0,0-1.366-2.508l-26.908-13.088a130.425,130.425,0,0,0-11.367-40.7l16.258-25.144a2.461,2.461,0,0,0-.129-2.854l-22.154-28.268a2.459,2.459,0,0,0-2.739-.807l-28.3,9.777a130.416,130.416,0,0,0-36.8-20.764l-6.279-29.257a2.461,2.461,0,0,0-2.109-1.926l-35.654-4.323a2.46,2.46,0,0,0-2.508,1.366l-13.089,26.909a130.432,130.432,0,0,0-40.7,11.367l-25.143-16.258a2.461,2.461,0,0,0-2.853.128L842.7,461.425a2.462,2.462,0,0,0-.808,2.739l9.778,28.3a130.446,130.446,0,0,0-20.766,36.8l-29.256,6.278a2.46,2.46,0,0,0-1.926,2.109Zm128.951-10.316a31.891,31.891,0,1,1,18.285,41.227A31.891,31.891,0,0,1,924.352,562.993Z" transform="translate(-795.384 -415.74)" fill="url(#linear-gradient-4)"/>
          </g>
          <g id="Group_9" data-name="Group 9" transform="translate(52.511 73.266)">
            <path id="Path_6" data-name="Path 6" d="M965.3,649.466a2.509,2.509,0,0,1-1.92-.894l-1.61-1.9a1.167,1.167,0,0,1,1.783-1.506l1.61,1.9a.178.178,0,0,0,.138.065l1.623-.617a1.167,1.167,0,0,1,.843,2.177l-1.555.6A2.5,2.5,0,0,1,965.3,649.466ZM918.348,648.4a2.5,2.5,0,0,1-1.016-.215l-2.774-1.224a1.166,1.166,0,0,1,.94-2.135l2.775,1.224c.1.015.16.01.208-.041l.768-.829a1.166,1.166,0,1,1,1.711,1.585l-.768.828A2.517,2.517,0,0,1,918.348,648.4Zm54.437-1.739a1.167,1.167,0,0,1-.422-2.254L977.8,642.3a1.167,1.167,0,0,1,.844,2.176l-5.439,2.109A1.164,1.164,0,0,1,972.785,646.66Zm-63.095-1.953a1.178,1.178,0,0,1-.47-.1l-5.337-2.355a1.167,1.167,0,0,1,.941-2.135l5.337,2.354a1.167,1.167,0,0,1-.471,2.235Zm14.378-1.846a1.167,1.167,0,0,1-.855-1.96l3.965-4.278a1.166,1.166,0,1,1,1.71,1.585l-3.965,4.278A1.16,1.16,0,0,1,924.069,642.862Zm34.829-.232a1.164,1.164,0,0,1-.892-.413l-3.767-4.454a1.167,1.167,0,0,1,1.782-1.506l3.767,4.454a1.166,1.166,0,0,1-.89,1.919Zm24.764-.188a1.166,1.166,0,0,1-.421-2.254l.5-.193a.186.186,0,0,0,.117-.17l-.139-3.632a1.167,1.167,0,0,1,2.332-.089l.139,3.625a2.565,2.565,0,0,1-1.605,2.442l-.5.193A1.166,1.166,0,0,1,983.661,642.442Zm-84.554-2.689a1.082,1.082,0,0,1-.945-.528,2.515,2.515,0,0,1-.356-1.29l.009-.219.415-4.966a1.151,1.151,0,0,1,1.26-1.065,1.165,1.165,0,0,1,1.065,1.259l-.415,4.976a1.23,1.23,0,0,1-.392,1.655A1.247,1.247,0,0,1,899.107,639.753Zm45.192-2.606a1.167,1.167,0,0,1-.011-2.333c1.9-.019,3.824-.114,5.73-.286a1.167,1.167,0,1,1,.209,2.324c-1.967.178-3.958.276-5.918.3Zm-5.827-.183c-.028,0-.057,0-.086,0-1.974-.145-3.956-.37-5.888-.671a1.167,1.167,0,1,1,.358-2.306c1.871.292,3.789.511,5.7.651a1.166,1.166,0,0,1-.084,2.33Zm46.188-5.476a1.167,1.167,0,0,1-1.166-1.122l-.222-5.831a1.168,1.168,0,0,1,1.121-1.21,1.134,1.134,0,0,1,1.211,1.121l.222,5.83a1.168,1.168,0,0,1-1.121,1.211ZM899.881,628.2a.922.922,0,0,1-.1,0,1.166,1.166,0,0,1-1.066-1.259l.42-5.036a1.167,1.167,0,0,1,1.71-1.517l.713.547-.518,6.2A1.165,1.165,0,0,1,899.881,628.2Zm88.308-6.45a1.166,1.166,0,0,1-.721-2.084c1.492-1.171,2.961-2.423,4.365-3.723a1.167,1.167,0,1,1,1.584,1.714c-1.451,1.342-2.969,2.634-4.509,3.843A1.153,1.153,0,0,1,988.189,621.748Zm-92.54-2.976a1.157,1.157,0,0,1-.778-.3c-1.465-1.312-2.894-2.7-4.248-4.132a1.166,1.166,0,1,1,1.693-1.6c1.311,1.384,2.694,2.729,4.112,4a1.166,1.166,0,0,1-.779,2.035Zm101.091-4.939a1.167,1.167,0,0,1-.86-1.955c1.288-1.4,2.534-2.879,3.7-4.382a1.166,1.166,0,1,1,1.842,1.431c-1.206,1.554-2.493,3.076-3.824,4.528A1.168,1.168,0,0,1,996.74,613.833ZM944.073,612.6q-.695,0-1.391-.02a1.166,1.166,0,0,1-1.134-1.2,1.133,1.133,0,0,1,1.2-1.135,46.387,46.387,0,0,0,5.683-.185,1.151,1.151,0,0,1,1.272,1.052,1.165,1.165,0,0,1-1.051,1.271C947.136,612.524,945.6,612.6,944.073,612.6Zm-7.162-.547a1.315,1.315,0,0,1-.179-.013,49.06,49.06,0,0,1-5.835-1.267,1.167,1.167,0,1,1,.633-2.246,46.814,46.814,0,0,0,5.557,1.206,1.166,1.166,0,0,1-.176,2.319Zm17.385-.568a1.166,1.166,0,0,1-.25-2.305,46.926,46.926,0,0,0,5.468-1.561,1.166,1.166,0,0,1,.776,2.2,49.132,49.132,0,0,1-5.742,1.639A1.245,1.245,0,0,1,954.3,611.481Zm-66.66-1.169a1.165,1.165,0,0,1-.91-.435c-1.049-1.3-2.066-2.663-3.03-4.049a1.167,1.167,0,0,1,.3-2.281l.94-.036.364.532c1.024,1.5,2.116,2.968,3.244,4.371a1.167,1.167,0,0,1-.908,1.9Zm129.992-.421-.217-.01a1.166,1.166,0,0,1,.212-2.323.185.185,0,0,0,.172-.109l1.682-3.814a1.167,1.167,0,0,1,2.135.941l-1.682,3.814A2.517,2.517,0,0,1,1017.628,609.891Zm-5.918-.49a.927.927,0,0,1-.1,0l-5.813-.485a1.165,1.165,0,0,1-1.065-1.259,1.153,1.153,0,0,1,1.259-1.065l5.813.485a1.166,1.166,0,0,1-.1,2.329Zm-86-.516a1.157,1.157,0,0,1-.45-.09q-.409-.171-.819-.352a49.713,49.713,0,0,1-4.537-2.288,1.167,1.167,0,0,1,1.156-2.026,47.123,47.123,0,0,0,4.323,2.178q.389.173.778.336a1.166,1.166,0,0,1-.451,2.242Zm39.558-1.274a1.167,1.167,0,0,1-.519-2.212,46.591,46.591,0,0,0,4.929-2.836,1.166,1.166,0,0,1,1.284,1.947,48.943,48.943,0,0,1-5.176,2.978A1.145,1.145,0,0,1,965.271,607.611Zm-92.89-1.29a1.166,1.166,0,0,1-.043-2.332l5.828-.22a1.136,1.136,0,0,1,1.211,1.121,1.168,1.168,0,0,1-1.121,1.21l-5.83.221Zm-5.647-.439a1.139,1.139,0,0,1-.947-.5,2.574,2.574,0,0,1-.258-.494l-2-5.162a1.166,1.166,0,1,1,2.174-.843l2,5.159a1.175,1.175,0,0,1-.968,1.841Zm48.874-2.77a1.158,1.158,0,0,1-.7-.232,48.331,48.331,0,0,1-4.556-3.865,1.166,1.166,0,1,1,1.616-1.681,45.928,45.928,0,0,0,4.336,3.677,1.166,1.166,0,0,1-.7,2.1Zm59.374-1.913a1.167,1.167,0,0,1-.757-2.054,46.375,46.375,0,0,0,4.09-3.95,1.167,1.167,0,1,1,1.722,1.575,48.413,48.413,0,0,1-4.3,4.15A1.163,1.163,0,0,1,974.982,601.2Zm47.916-1.263a1.167,1.167,0,0,1-1.067-1.638l2.354-5.336a1.167,1.167,0,0,1,2.136.941l-2.354,5.336A1.169,1.169,0,0,1,1022.9,599.936Zm-115.683-4.884a1.165,1.165,0,0,1-.905-.431c-.684-.841-1.344-1.711-1.962-2.589a1.166,1.166,0,1,1,1.906-1.344c.588.833,1.217,1.661,1.867,2.46a1.166,1.166,0,0,1-.905,1.9Zm-44.71-.02a1.166,1.166,0,0,1-1.087-.744l-2.109-5.438a1.166,1.166,0,1,1,2.174-.843l2.109,5.438a1.164,1.164,0,0,1-1.087,1.588Zm120.333-2.421a1.166,1.166,0,0,1-.95-1.842,46.369,46.369,0,0,0,3-4.829,1.167,1.167,0,0,1,2.054,1.107,48.431,48.431,0,0,1-3.151,5.072A1.162,1.162,0,0,1,982.838,592.611Zm43.441-3.284a1.157,1.157,0,0,1-.792-.311l-4.278-3.965a1.167,1.167,0,0,1,1.586-1.711l4.278,3.965a1.167,1.167,0,0,1-.793,2.023Zm-165.132-4.654a1.167,1.167,0,0,1-.755-2.058l4.453-3.768a1.167,1.167,0,0,1,1.507,1.783L861.9,584.4A1.161,1.161,0,0,1,861.147,584.674Zm127.218-2.3a1.192,1.192,0,0,1-.426-.08,1.167,1.167,0,0,1-.66-1.512,46.756,46.756,0,0,0,1.75-5.411,1.167,1.167,0,1,1,2.26.581,48.879,48.879,0,0,1-1.837,5.681A1.165,1.165,0,0,1,988.365,582.373Zm29.358-.976a1.158,1.158,0,0,1-.792-.312l-3.738-3.464.118-.632q.124-.67.237-1.339a1.167,1.167,0,0,1,2.3.385c-.042.25-.085.5-.128.748l2.8,2.592a1.166,1.166,0,0,1-.793,2.022Zm-147.67-4.257a1.168,1.168,0,0,1-.754-2.058l1.875-1.587q-.138-1.057-.247-2.12a1.166,1.166,0,1,1,2.32-.237q.138,1.341.326,2.669l.09.638-2.856,2.417A1.171,1.171,0,0,1,870.053,577.14Zm145.375-5.915a.964.964,0,0,1-.1,0,1.166,1.166,0,0,1-1.065-1.26c.16-1.9.244-3.825.248-5.732a1.167,1.167,0,0,1,1.167-1.163h0a1.165,1.165,0,0,1,1.163,1.17c0,1.968-.091,3.962-.257,5.921A1.166,1.166,0,0,1,1015.428,571.225Zm-24.167-.121a1.346,1.346,0,0,1-.152-.009,1.166,1.166,0,0,1-1.007-1.307,46.084,46.084,0,0,0,.376-5.672,1.168,1.168,0,0,1,1.167-1.162h.006a1.166,1.166,0,0,1,1.161,1.172,48.288,48.288,0,0,1-.4,5.96A1.167,1.167,0,0,1,991.261,571.1Zm-119.533-4.5a1.167,1.167,0,0,1-1.166-1.142q-.016-.754-.015-1.507c0-1.466.044-2.953.134-4.418a1.166,1.166,0,1,1,2.329.141c-.086,1.419-.129,2.857-.129,4.277q0,.73.015,1.459a1.166,1.166,0,0,1-1.143,1.19Zm143.727-7.03a1.167,1.167,0,0,1-1.162-1.074c-.112-1.429-.272-2.877-.473-4.3l-.09-.638,1.584-1.342a1.167,1.167,0,1,1,1.507,1.783l-.6.511c.167,1.266.3,2.543.4,3.805a1.168,1.168,0,0,1-1.072,1.255C1015.517,559.571,1015.486,559.572,1015.455,559.572Zm-24.144-.1a1.168,1.168,0,0,1-1.157-1.029,46.459,46.459,0,0,0-1.017-5.594,1.167,1.167,0,0,1,2.267-.555,49.071,49.071,0,0,1,1.069,5.874,1.167,1.167,0,0,1-1.021,1.3A1.145,1.145,0,0,1,991.311,559.469Zm-93.789-3.963a1.178,1.178,0,0,1-.237-.025,1.167,1.167,0,0,1-.908-1.378,48.723,48.723,0,0,1,1.563-5.764,1.166,1.166,0,1,1,2.21.748,46.65,46.65,0,0,0-1.487,5.488A1.165,1.165,0,0,1,897.522,555.506Zm-25.081-.536a1.149,1.149,0,0,1-.167-.012,1.167,1.167,0,0,1-.99-1.321q.175-1.209.389-2.418l-1.574-1.459a1.166,1.166,0,1,1,1.585-1.711l2.516,2.332-.118.633q-.277,1.475-.489,2.954A1.166,1.166,0,0,1,872.441,554.971Zm148.082-4.465a1.167,1.167,0,0,1-.754-2.058l4.454-3.768a1.167,1.167,0,0,1,1.507,1.783l-4.454,3.767A1.171,1.171,0,0,1,1020.523,550.506Zm-31.986-2.336a1.168,1.168,0,0,1-1.091-.753,46.575,46.575,0,0,0-2.34-5.183,1.167,1.167,0,0,1,2.064-1.088,49.328,49.328,0,0,1,2.457,5.442,1.165,1.165,0,0,1-.675,1.505A1.152,1.152,0,0,1,988.537,548.171Zm-121.923-2.065a1.158,1.158,0,0,1-.793-.311l-4.278-3.964a1.166,1.166,0,0,1,1.585-1.711l4.278,3.965a1.166,1.166,0,0,1-.792,2.022Zm34.629-1.625a1.168,1.168,0,0,1-1.052-1.671,49.024,49.024,0,0,1,2.9-5.218,1.167,1.167,0,1,1,1.966,1.258,46.838,46.838,0,0,0-2.765,4.967A1.167,1.167,0,0,1,901.243,544.481Zm126.356-2.186a1.167,1.167,0,0,1-1.087-.745l-2.108-5.437a1.166,1.166,0,1,1,2.175-.844l2.108,5.438a1.168,1.168,0,0,1-1.087,1.589Zm-44.488-4.419a1.164,1.164,0,0,1-.959-.5,46.365,46.365,0,0,0-3.527-4.462,1.166,1.166,0,1,1,1.738-1.555,48.765,48.765,0,0,1,3.705,4.686,1.166,1.166,0,0,1-.958,1.832Zm-121.643-.615a1.167,1.167,0,0,1-1.067-1.637l2.354-5.338a1.167,1.167,0,0,1,2.135.941l-2.354,5.337A1.167,1.167,0,0,1,861.468,537.261Zm46.047-2.584a1.167,1.167,0,0,1-.9-1.912,48.461,48.461,0,0,1,4.091-4.354,1.167,1.167,0,0,1,1.6,1.7,45.926,45.926,0,0,0-3.894,4.145A1.165,1.165,0,0,1,907.515,534.677Zm115.866-3.259a1.167,1.167,0,0,1-1.087-.744l-2.109-5.439a1.166,1.166,0,1,1,2.175-.842l2.11,5.438a1.165,1.165,0,0,1-1.088,1.588Zm-48.037-2.21a1.166,1.166,0,0,1-.766-.287,46.073,46.073,0,0,0-4.511-3.464,1.166,1.166,0,1,1,1.3-1.934,48.6,48.6,0,0,1,4.74,3.639,1.167,1.167,0,0,1-.766,2.046Zm-59.35-2.5a1.167,1.167,0,0,1-.691-2.108,49.1,49.1,0,0,1,5.027-3.223,1.166,1.166,0,1,1,1.137,2.037,46.8,46.8,0,0,0-4.786,3.071A1.162,1.162,0,0,1,915.994,526.7Zm-49.818-.115a1.188,1.188,0,0,1-.471-.1,1.168,1.168,0,0,1-.6-1.539l2.354-5.337a2.52,2.52,0,0,1,2.3-1.5l.218.009,1.645.138a1.166,1.166,0,1,1-.194,2.324l-1.654-.138c-.127.014-.153.042-.182.11l-2.354,5.336A1.167,1.167,0,0,1,866.176,526.587Zm136.281-2.1-.364-.532c-.71-1.038-1.462-2.077-2.234-3.083a1.167,1.167,0,0,1,1.852-1.42c.666.869,1.316,1.759,1.94,2.655l1.322-.05a1.142,1.142,0,0,1,1.21,1.121,1.168,1.168,0,0,1-1.122,1.21Zm8.388-.321a1.166,1.166,0,0,1-.044-2.332l5.829-.22a1.131,1.131,0,0,1,1.21,1.121,1.167,1.167,0,0,1-1.121,1.21l-5.83.22Zm-45.152-1.47a1.169,1.169,0,0,1-.53-.128q-1.153-.588-2.353-1.116c-.943-.414-1.906-.8-2.862-1.15a1.167,1.167,0,0,1,.8-2.192c1,.365,2.013.772,3,1.207q1.26.555,2.473,1.174a1.167,1.167,0,0,1-.531,2.206Zm-82.536-1.143a.923.923,0,0,1-.1,0l-5.812-.485a1.166,1.166,0,0,1-1.066-1.259,1.15,1.15,0,0,1,1.26-1.065l5.812.485a1.166,1.166,0,0,1-.1,2.329Zm43-.527a1.166,1.166,0,0,1-.441-2.247,49.147,49.147,0,0,1,5.657-1.912,1.166,1.166,0,1,1,.61,2.252,46.765,46.765,0,0,0-5.386,1.821A1.154,1.154,0,0,1,926.154,521.031Zm-38.227-1.375a1.166,1.166,0,0,1-.9-1.9c1.244-1.526,2.565-3.018,3.929-4.437a1.166,1.166,0,1,1,1.681,1.617c-1.318,1.372-2.6,2.816-3.8,4.294A1.164,1.164,0,0,1,887.926,519.655Zm66.837-.939a1.147,1.147,0,0,1-.265-.029,45.893,45.893,0,0,0-5.607-.937,1.167,1.167,0,0,1,.242-2.322,48.5,48.5,0,0,1,5.891.985,1.166,1.166,0,0,1-.261,2.3Zm-17.384-.73a1.167,1.167,0,0,1-.163-2.323,48.8,48.8,0,0,1,5.951-.484,1.194,1.194,0,0,1,1.189,1.144,1.168,1.168,0,0,1-1.144,1.189,46.2,46.2,0,0,0-5.664.462A1.159,1.159,0,0,1,937.38,517.986Zm59.675-1.133a1.164,1.164,0,0,1-.866-.384c-1.277-1.412-2.628-2.789-4.018-4.095a1.167,1.167,0,0,1,1.6-1.7c1.435,1.347,2.83,2.771,4.15,4.229a1.167,1.167,0,0,1-.865,1.949ZM896,511.255a1.167,1.167,0,0,1-.772-2.042c1.476-1.3,3.023-2.558,4.6-3.738a1.166,1.166,0,1,1,1.4,1.868c-1.525,1.142-3.023,2.359-4.451,3.62A1.163,1.163,0,0,1,896,511.255Zm92.557-2.38a1.16,1.16,0,0,1-.727-.254q-.733-.585-1.486-1.15l-.514-.387.38-4.55a1.15,1.15,0,0,1,1.26-1.065,1.167,1.167,0,0,1,1.065,1.259l-.273,3.27q.514.4,1.022.8a1.166,1.166,0,0,1-.727,2.079Zm-85.669-5.86a1.166,1.166,0,0,1-1.166-1.122l-.222-5.831a1.166,1.166,0,0,1,1.121-1.21,1.148,1.148,0,0,1,1.211,1.121l.222,5.83a1.169,1.169,0,0,1-1.122,1.211Zm84.972-5.03a.923.923,0,0,1-.1,0,1.166,1.166,0,0,1-1.066-1.259l.485-5.813a1.153,1.153,0,0,1,1.26-1.065,1.165,1.165,0,0,1,1.065,1.259l-.485,5.813A1.166,1.166,0,0,1,987.862,497.985Zm-31.5-3.676a1.162,1.162,0,0,1-.208-.019c-1.872-.336-3.784-.6-5.683-.783a1.166,1.166,0,1,1,.225-2.322c1.96.189,3.935.46,5.87.807a1.167,1.167,0,0,1-.205,2.316Zm-23.022-.876a1.165,1.165,0,0,1-.891-.414l-3.767-4.454a1.167,1.167,0,0,1,1.783-1.506l3.767,4.454a1.167,1.167,0,0,1-.139,1.644A1.153,1.153,0,0,1,933.339,493.432Zm5.59-.085a1.167,1.167,0,0,1-.077-2.331c1.975-.131,3.961-.181,5.924-.156a1.165,1.165,0,0,1,1.15,1.182,1.178,1.178,0,0,1-1.182,1.151c-1.9-.027-3.824.023-5.736.152Zm-36.482-1.991a1.166,1.166,0,0,1-1.166-1.121l-.075-1.961a2.564,2.564,0,0,1,1.605-2.442l2.05-.8a1.168,1.168,0,0,1,.845,2.177l-2.051.794a.184.184,0,0,0-.117.17l.075,1.967a1.165,1.165,0,0,1-1.121,1.21Zm58.044-.825a1.166,1.166,0,0,1-.856-1.959l3.965-4.279a1.166,1.166,0,0,1,1.711,1.585l-3.965,4.279A1.161,1.161,0,0,1,960.492,490.531Zm24.072-1.875a1.168,1.168,0,0,1-.471-.1l-5.337-2.355a1.167,1.167,0,0,1,.943-2.135l5.337,2.355a1.167,1.167,0,0,1-.471,2.234Zm-73.84-3.475a1.166,1.166,0,0,1-.422-2.254l5.439-2.109a1.167,1.167,0,0,1,.843,2.176l-5.439,2.109A1.164,1.164,0,0,1,910.723,485.181Zm15.083-.657a1.159,1.159,0,0,1-.891-.414l-2.687-3.174a.178.178,0,0,0-.138-.065l-.916-2.161a2.549,2.549,0,0,1,2.836.721L926.7,482.6a1.167,1.167,0,0,1-.89,1.92Zm48.083-.576a1.178,1.178,0,0,1-.47-.1l-4.3-1.9a1.254,1.254,0,0,1-1.619-.576,1.139,1.139,0,0,1,.5-1.547,2.548,2.548,0,0,1,2.058-.012l4.3,1.9a1.167,1.167,0,0,1-.47,2.234Z" transform="translate(-837.257 -478.543)" fill="#fff"/>
            <path id="Path_7" data-name="Path 7" d="M934.286,573.122a18.674,18.674,0,0,1-4.3-.5,1.166,1.166,0,1,1,.538-2.269,16.363,16.363,0,0,0,5.407.355,1.167,1.167,0,1,1,.234,2.322A18.711,18.711,0,0,1,934.286,573.122Zm7.365-1.618a1.167,1.167,0,0,1-.49-2.226,16.16,16.16,0,0,0,4.468-3.06,1.167,1.167,0,1,1,1.62,1.68,18.536,18.536,0,0,1-5.11,3.5A1.173,1.173,0,0,1,941.651,571.5Zm-16.743-1.114a1.167,1.167,0,0,1-.626-.183c-.5-.32-.994-.667-1.463-1.035a18.789,18.789,0,0,1-3.138-3.108,1.167,1.167,0,1,1,1.827-1.451,16.432,16.432,0,0,0,2.747,2.721c.411.321.843.625,1.282.906a1.167,1.167,0,0,1-.629,2.15Zm24.985-6.833a1.152,1.152,0,0,1-.528-.128,1.165,1.165,0,0,1-.509-1.568,16.184,16.184,0,0,0,1.619-5.169,1.166,1.166,0,0,1,2.311.316,18.486,18.486,0,0,1-1.853,5.912A1.164,1.164,0,0,1,949.893,563.557Zm-32.1-2.134a1.167,1.167,0,0,1-1.1-.782,18.72,18.72,0,0,1-1.051-6.1,1.167,1.167,0,0,1,1.161-1.172h.006a1.167,1.167,0,0,1,1.167,1.162,16.38,16.38,0,0,0,.92,5.343,1.166,1.166,0,0,1-1.1,1.552Zm33.664-9.208a1.167,1.167,0,0,1-1.143-.94,16.269,16.269,0,0,0-1.921-5.065,1.167,1.167,0,1,1,2.015-1.178,18.649,18.649,0,0,1,2.2,5.791,1.167,1.167,0,0,1-.917,1.371A1.186,1.186,0,0,1,951.454,552.215Zm-33.714-2.245a1.18,1.18,0,0,1-.377-.062,1.167,1.167,0,0,1-.727-1.482,18.756,18.756,0,0,1,6.728-9.09,1.166,1.166,0,1,1,1.368,1.889,16.415,16.415,0,0,0-3.3,3.193,16.247,16.247,0,0,0-2.583,4.763A1.168,1.168,0,0,1,917.74,549.971Zm27.928-7.635a1.165,1.165,0,0,1-.758-.28q-.276-.238-.567-.463a16.313,16.313,0,0,0-4.076-2.331,1.167,1.167,0,0,1,.854-2.172,18.627,18.627,0,0,1,4.657,2.663c.22.172.439.349.65.531a1.166,1.166,0,0,1-.759,2.052Zm-16.415-3.457a1.168,1.168,0,0,1-.336-2.285,18.645,18.645,0,0,1,6.141-.777,1.165,1.165,0,0,1,1.12,1.211,1.14,1.14,0,0,1-1.211,1.119,16.619,16.619,0,0,0-5.378.682A1.161,1.161,0,0,1,929.253,538.879Z" transform="translate(-827.859 -469.003)" fill="#fff"/>
            <g id="Group_7" data-name="Group 7" transform="translate(15.438 97.455)">
              <path id="Path_8" data-name="Path 8" d="M856.364,603.2a1.166,1.166,0,0,1-.977-.526q-.81-1.235-1.584-2.485a1.167,1.167,0,1,1,1.984-1.228q.758,1.223,1.55,2.432a1.167,1.167,0,0,1-.336,1.616A1.155,1.155,0,0,1,856.364,603.2Z" transform="translate(-853.628 -556.028)" fill="#fff"/>
              <path id="Path_10" data-name="Path 10" d="M1021.311,567.3a1.147,1.147,0,0,1-.178-.014,1.166,1.166,0,0,1-.977-1.33c.145-.948.278-1.9.4-2.854a1.167,1.167,0,0,1,2.316.287q-.182,1.463-.406,2.92A1.166,1.166,0,0,1,1021.311,567.3Z" transform="translate(-825.886 -562.081)" fill="#fff"/>
            </g>
            <g id="Group_8" data-name="Group 8" transform="translate(0 19.04)">
              <path id="Path_11" data-name="Path 11" d="M1004.8,499.514a1.165,1.165,0,0,1-.939-.472q-.856-1.155-1.75-2.291a1.166,1.166,0,0,1,1.834-1.442q.914,1.162,1.791,2.344a1.168,1.168,0,0,1-.936,1.862Z" transform="translate(-813.495 -494.863)" fill="#fff"/>
              <path id="Path_13" data-name="Path 13" d="M841.563,546.432c-.029,0-.061,0-.091,0a1.169,1.169,0,0,1-1.073-1.254q.115-1.466.27-2.934a1.167,1.167,0,0,1,2.322.246q-.152,1.433-.264,2.869A1.167,1.167,0,0,1,841.563,546.432Z" transform="translate(-840.395 -487.144)" fill="#fff"/>
            </g>
          </g>
        </g>
      </g>
      <g id="Group_14" data-name="Group 14" transform="translate(6871.014 5021.913)" opacity="0.8">
        <g id="Group_12" data-name="Group 12" transform="translate(0 110.892)" opacity="0.7">
          <path id="Path_14" data-name="Path 14" d="M254.129,558.141a38.643,38.643,0,1,1,73.2-24.8v0a41.388,41.388,0,0,0,23.2,24.885,49.16,49.16,0,0,1,27.637,29.642v0a46.211,46.211,0,0,0,28.876,28.907,55.967,55.967,0,1,1-71.019,70.948q-.8-2.348-1.373-4.714a57.73,57.73,0,0,0-27.562-36.475,49.363,49.363,0,0,1-24.936-42.82A32.351,32.351,0,0,0,268.432,577.3,38.457,38.457,0,0,1,254.129,558.141Z" transform="translate(-252.075 -507.086)" fill="url(#linear-gradient-5)"/>
          <path id="Path_15" data-name="Path 15" d="M285.024,541.093c8.508,14,18.021,27.478,27.878,40.619,2.479,3.279,4.934,6.575,7.5,9.785s5.034,6.5,7.672,9.654l7.827,9.528,8.032,9.356c10.838,12.357,21.94,24.493,33.629,36.047,5.732,5.89,11.756,11.479,17.707,17.142,2.943,2.866,6.054,5.552,9.105,8.3l9.184,8.212.048.043a2.092,2.092,0,1,1-2.789,3.12l-.014-.013-9.164-8.348c-3.044-2.793-6.147-5.524-9.08-8.435-5.932-5.75-11.935-11.427-17.643-17.4-11.64-11.726-22.682-24.025-33.452-36.539l-7.98-9.473-7.771-9.643c-2.618-3.192-5.071-6.515-7.613-9.767s-4.985-6.582-7.443-9.9c-9.787-13.306-19.178-26.873-27.654-41.12a1.166,1.166,0,0,1,2-1.2Z" transform="translate(-246.949 -501.52)" fill="#fff"/>
          <path id="Path_16" data-name="Path 16" d="M301.255,573.193a1.168,1.168,0,0,1-.957-1.834c6.321-9.076,4.906-33.806,4.89-34.054a1.166,1.166,0,1,1,2.329-.141c.064,1.049,1.476,25.795-5.3,35.529A1.165,1.165,0,0,1,301.255,573.193Z" transform="translate(-244.075 -502.258)" fill="#fff"/>
          <path id="Path_17" data-name="Path 17" d="M304.79,569.388h-.026c-.7-.016-17.324-.448-29.571-6.82a1.167,1.167,0,0,1,1.077-2.07c11.77,6.124,28.378,6.553,28.546,6.556a1.167,1.167,0,0,1-.026,2.333Z" transform="translate(-248.328 -498.209)" fill="#fff"/>
          <path id="Path_18" data-name="Path 18" d="M331.994,613.447a1.166,1.166,0,0,1-1.055-1.666c7.813-16.507,3.752-39.746,3.709-39.979a1.167,1.167,0,0,1,2.3-.414c.177.981,4.234,24.215-3.9,41.391A1.165,1.165,0,0,1,331.994,613.447Z" transform="translate(-238.955 -496.533)" fill="#fff"/>
          <path id="Path_19" data-name="Path 19" d="M326.035,610.138a65.674,65.674,0,0,1-27.93-6.55,1.167,1.167,0,0,1,.992-2.113c21.306,10,37.747,5.068,37.911,5.018a1.166,1.166,0,0,1,.7,2.226A41.9,41.9,0,0,1,326.035,610.138Z" transform="translate(-244.518 -491.379)" fill="#fff"/>
          <path id="Path_20" data-name="Path 20" d="M360.313,656.008a60.642,60.642,0,0,1-21.548-3.82,1.166,1.166,0,1,1,.828-2.18c19.584,7.437,38.779,1.119,38.97,1.053a1.167,1.167,0,0,1,.749,2.211A64.2,64.2,0,0,1,360.313,656.008Z" transform="translate(-237.758 -483.287)" fill="#fff"/>
          <path id="Path_21" data-name="Path 21" d="M373.739,658.383a1.166,1.166,0,0,1-1.01-1.749c.085-.149,8.523-15.2,3.473-38.142a1.166,1.166,0,0,1,2.278-.5c5.257,23.882-3.361,39.17-3.731,39.809A1.162,1.162,0,0,1,373.739,658.383Z" transform="translate(-232 -488.761)" fill="#fff"/>
        </g>
        <g id="Group_13" data-name="Group 13" transform="translate(44.572 0)">
          <path id="Path_22" data-name="Path 22" d="M375.182,426.91a49.515,49.515,0,1,0-70.771,69.271l0,0a53.029,53.029,0,0,1,14.99,40.933,62.992,62.992,0,0,0,17.854,48.763l0,0a59.206,59.206,0,0,1,16.294,49.751A71.712,71.712,0,1,0,475.8,595.607q-2.222-2.271-4.592-4.3a73.976,73.976,0,0,1-25.7-52.64,63.251,63.251,0,0,0-34.477-53.315,41.451,41.451,0,0,1-22.234-30.99A49.279,49.279,0,0,0,375.182,426.91Z" transform="translate(-290.281 -412.03)" fill="url(#linear-gradient-6)"/>
          <path id="Path_23" data-name="Path 23" d="M336.028,453.238c5.7,8.957,10.929,18.131,16.083,27.369,2.52,4.647,5.12,9.252,7.535,13.954,2.458,4.68,4.93,9.353,7.262,14.1,9.478,18.9,18.361,38.1,26.508,57.623,8.118,19.525,15.837,39.241,22.554,59.31,1.681,5.016,3.52,9.983,5.029,15.056l4.739,15.152c1.655,5.03,3.006,10.149,4.463,15.238l4.318,15.288a2.77,2.77,0,0,1-5.333,1.5l-.012-.042-.025-.1-3.971-15.278c-1.342-5.088-2.577-10.208-4.118-15.241-2.966-10.1-5.842-20.232-9.213-30.21-6.364-20.081-13.732-39.834-21.509-59.417l-5.994-14.627L378,538.442l-1.591-3.618-1.664-3.584-3.326-7.171c-2.179-4.8-4.523-9.519-6.832-14.257A618.19,618.19,0,0,0,334.251,454.4l-.016-.026a1.061,1.061,0,0,1,1.794-1.133Z" transform="translate(-282.986 -405.247)" fill="#fff"/>
          <path id="Path_24" data-name="Path 24" d="M357.534,491.64c-15.32,0-39.486-14.045-40.572-14.681a1.167,1.167,0,0,1,1.179-2.014c.276.161,27.818,16.174,41.96,14.2a1.166,1.166,0,1,1,.322,2.31A20.742,20.742,0,0,1,357.534,491.64Z" transform="translate(-285.932 -401.575)" fill="#fff"/>
          <path id="Path_25" data-name="Path 25" d="M354.759,494.127a1.14,1.14,0,0,1-.5-.115,1.166,1.166,0,0,1-.547-1.556c.092-.194,9.262-19.5,9.086-36.564a1.167,1.167,0,0,1,2.333-.026c.182,17.615-8.928,36.791-9.315,37.6A1.167,1.167,0,0,1,354.759,494.127Z" transform="translate(-279.733 -404.919)" fill="#fff"/>
          <path id="Path_26" data-name="Path 26" d="M388.338,550.129h-.033c-24.236-.665-48.353-18.705-49.368-19.473a1.167,1.167,0,0,1,1.408-1.861c.243.183,24.545,18.358,48.024,19a1.167,1.167,0,0,1-.031,2.333Z" transform="translate(-282.252 -392.616)" fill="#fff"/>
          <path id="Path_27" data-name="Path 27" d="M381.953,554.17a1.167,1.167,0,0,1-.837-1.981c.154-.159,15.406-16.166,16.336-46.448a1.148,1.148,0,0,1,1.2-1.132,1.168,1.168,0,0,1,1.13,1.2c-.959,31.246-16.344,47.337-17,48.007A1.161,1.161,0,0,1,381.953,554.17Z" transform="translate(-275.203 -396.606)" fill="#fff"/>
          <path id="Path_28" data-name="Path 28" d="M409.509,627.514a1.167,1.167,0,0,1-.817-2c.185-.183,18.614-18.529,21.481-45.345a1.166,1.166,0,0,1,2.319.249c-2.957,27.672-21.977,46.574-22.168,46.762A1.161,1.161,0,0,1,409.509,627.514Z" transform="translate(-270.612 -384.191)" fill="#fff"/>
          <path id="Path_29" data-name="Path 29" d="M414.513,623.934c-4.748,0-24.858-1.12-46.4-18.762a1.166,1.166,0,1,1,1.478-1.8c23.45,19.2,45.6,18.224,45.822,18.215a1.149,1.149,0,0,1,1.228,1.1,1.165,1.165,0,0,1-1.1,1.228C415.436,623.917,415.086,623.934,414.513,623.934Z" transform="translate(-277.386 -380.197)" fill="#fff"/>
        </g>
      </g>
      <g id="Group_17" data-name="Group 17" transform="translate(7398.826 4945.719)" opacity="0.8">
        <g id="Group_15" data-name="Group 15" transform="translate(44.81 182.795)">
          <path id="Path_30" data-name="Path 30" d="M948.2,558.314a41.559,41.559,0,1,0-78.721-26.672v0a44.5,44.5,0,0,1-24.947,26.761,52.874,52.874,0,0,0-29.723,31.879v0a49.7,49.7,0,0,1-31.053,31.087,60.188,60.188,0,1,0,76.375,76.3q.856-2.525,1.477-5.069a62.085,62.085,0,0,1,29.641-39.227,53.082,53.082,0,0,0,26.817-46.049,34.792,34.792,0,0,1,14.754-28.409A41.355,41.355,0,0,0,948.2,558.314Z" transform="translate(-742.92 -503.408)" fill="url(#linear-gradient-7)"/>
          <path id="Path_31" data-name="Path 31" d="M907.607,541.179c-9.117,15.313-19.221,29.9-29.748,44.2-2.645,3.564-5.264,7.149-8.006,10.639s-5.373,7.068-8.19,10.5l-8.36,10.365-8.582,10.183c-11.586,13.452-23.464,26.673-35.983,39.276-6.139,6.422-12.595,12.525-18.976,18.7-3.154,3.13-6.492,6.064-9.766,9.066l-9.855,8.972a2.093,2.093,0,1,1-2.817-3.1l.014-.012.048-.042,9.875-8.836c3.282-2.957,6.626-5.847,9.79-8.932,6.4-6.092,12.878-12.107,19.041-18.444,12.568-12.432,24.5-25.49,36.159-38.785l8.634-10.065,8.416-10.251c2.835-3.394,5.492-6.928,8.248-10.386s5.4-7,8.066-10.527c10.6-14.138,20.824-28.638,29.972-43.7l.021-.035a1.166,1.166,0,0,1,2,1.2Z" transform="translate(-738.968 -497.409)" fill="#fff"/>
          <path id="Path_32" data-name="Path 32" d="M869.04,574.4a1.165,1.165,0,0,1-.958-.5c-7.273-10.443-5.756-37.026-5.687-38.153a1.166,1.166,0,1,1,2.328.141c-.016.267-1.538,26.9,5.273,36.678a1.167,1.167,0,0,1-.957,1.834Z" transform="translate(-723.044 -498.203)" fill="#fff"/>
          <path id="Path_33" data-name="Path 33" d="M868.895,570.308a1.167,1.167,0,0,1-.026-2.333c.18,0,18.074-.471,30.738-7.06a1.166,1.166,0,0,1,1.077,2.07c-13.153,6.844-31.01,7.308-31.763,7.324Z" transform="translate(-722.126 -493.849)" fill="#fff"/>
          <path id="Path_34" data-name="Path 34" d="M835.938,617.69a1.166,1.166,0,0,1-1.055-.667c-8.732-18.446-4.375-43.407-4.185-44.461a1.167,1.167,0,0,1,2.3.413c-.045.251-4.411,25.287,4,43.05a1.165,1.165,0,0,1-1.055,1.665Z" transform="translate(-728.504 -492.047)" fill="#fff"/>
          <path id="Path_35" data-name="Path 35" d="M847.538,614.132a45.014,45.014,0,0,1-12.527-1.524,1.167,1.167,0,0,1,.7-2.226c.176.055,17.889,5.365,40.835-5.4a1.166,1.166,0,0,1,.992,2.112A70.544,70.544,0,0,1,847.538,614.132Z" transform="translate(-727.713 -486.504)" fill="#fff"/>
          <path id="Path_36" data-name="Path 36" d="M810.829,663.462a68.9,68.9,0,0,1-20.4-2.939,1.166,1.166,0,1,1,.748-2.21c.207.07,20.879,6.874,41.97-1.134a1.166,1.166,0,1,1,.828,2.18A65.15,65.15,0,0,1,810.829,663.462Z" transform="translate(-735.137 -477.802)" fill="#fff"/>
          <path id="Path_37" data-name="Path 37" d="M791.094,666.016a1.162,1.162,0,0,1-1.011-.583c-.4-.686-9.649-17.1-4-42.748a1.166,1.166,0,1,1,2.278.5c-5.453,24.774,3.652,40.921,3.744,41.081a1.164,1.164,0,0,1-1.008,1.75Z" transform="translate(-736.032 -483.689)" fill="#fff"/>
        </g>
        <g id="Group_16" data-name="Group 16">
          <path id="Path_38" data-name="Path 38" d="M834.718,362.719a53.25,53.25,0,0,1,76.109,74.5l0,0a57.026,57.026,0,0,0-16.12,44.018,67.743,67.743,0,0,1-19.2,52.442l0,0a63.674,63.674,0,0,0-17.524,53.5A77.12,77.12,0,1,1,726.517,544.14q2.39-2.443,4.937-4.626A79.557,79.557,0,0,0,759.1,482.905a68.016,68.016,0,0,1,37.077-57.335,44.582,44.582,0,0,0,23.912-33.328A53,53,0,0,1,834.718,362.719Z" transform="translate(-704.51 -346.718)" fill="url(#linear-gradient-8)"/>
          <path id="Path_39" data-name="Path 39" d="M862.449,392.225a666.805,666.805,0,0,0-32.644,59.6c-2.486,5.095-5.008,10.169-7.353,15.331l-3.58,7.71-1.791,3.856-1.713,3.891-6.834,15.568L802.08,513.9c-8.375,21.06-16.313,42.3-23.17,63.895-3.632,10.73-6.731,21.628-9.928,32.489-1.662,5.413-3,10.919-4.444,16.391l-4.283,16.43-.021.082a2.77,2.77,0,0,1-5.362-1.4l.014-.053,4.629-16.439c1.563-5.474,3.011-10.979,4.788-16.388l5.085-16.3c1.62-5.456,3.593-10.8,5.4-16.191,7.211-21.585,15.5-42.789,24.215-63.789l6.7-15.683,7-15.551,1.756-3.886,1.832-3.85,3.665-7.7c2.4-5.153,4.979-10.221,7.52-15.3,2.5-5.1,5.161-10.128,7.8-15.162,2.6-5.056,5.39-10.01,8.1-15.007,5.54-9.934,11.16-19.8,17.288-29.43a1.061,1.061,0,0,1,1.8,1.132Z" transform="translate(-696.134 -339.411)" fill="#fff"/>
          <path id="Path_40" data-name="Path 40" d="M828.972,432.233a22.46,22.46,0,0,1-3.1-.2,1.166,1.166,0,1,1,.322-2.31c15.24,2.129,44.884-15.1,45.183-15.278a1.167,1.167,0,0,1,1.179,2.015C871.389,417.139,845.42,432.233,828.972,432.233Z" transform="translate(-684.457 -335.461)" fill="#fff"/>
          <path id="Path_41" data-name="Path 41" d="M826.807,434.905a1.166,1.166,0,0,1-1.052-.661c-.417-.869-10.206-21.474-10.01-40.394a1.166,1.166,0,0,1,1.167-1.155h.012a1.168,1.168,0,0,1,1.155,1.178c-.19,18.368,9.679,39.152,9.78,39.36a1.166,1.166,0,0,1-.547,1.556A1.148,1.148,0,0,1,826.807,434.905Z" transform="translate(-685.978 -339.058)" fill="#fff"/>
          <path id="Path_42" data-name="Path 42" d="M796.76,495.133a1.167,1.167,0,0,1-.031-2.333c25.279-.692,51.436-20.255,51.7-20.452a1.166,1.166,0,0,1,1.407,1.861c-1.091.825-27,20.21-53.04,20.924Z" transform="translate(-689.334 -325.827)" fill="#fff"/>
          <path id="Path_43" data-name="Path 43" d="M798.708,499.478a1.162,1.162,0,0,1-.833-.351c-.7-.72-17.226-18-18.256-51.569a1.167,1.167,0,1,1,2.332-.071c1,32.605,17.428,49.839,17.594,50.009a1.168,1.168,0,0,1-.836,1.982Z" transform="translate(-691.996 -330.118)" fill="#fff"/>
          <path id="Path_44" data-name="Path 44" d="M769.867,578.353a1.163,1.163,0,0,1-.817-.333c-.205-.2-20.637-20.508-23.814-50.235a1.166,1.166,0,1,1,2.319-.248c3.089,28.9,22.927,48.621,23.128,48.815a1.167,1.167,0,0,1-.817,2Z" transform="translate(-697.725 -316.766)" fill="#fff"/>
          <path id="Path_45" data-name="Path 45" d="M768.3,574.5c-.615,0-.99-.016-1.1-.023a1.165,1.165,0,0,1-1.1-1.227,1.205,1.205,0,0,1,1.226-1.1c.239.027,24.141,1.027,49.34-19.607a1.166,1.166,0,1,1,1.478,1.8C794.994,573.3,773.394,574.5,768.3,574.5Z" transform="translate(-694.249 -312.471)" fill="#fff"/>
        </g>
      </g>
      <g id="Group_21" data-name="Group 21" transform="translate(6819.134 4783.831)">
        <path id="Path_49" data-name="Path 49" d="M332.215,218.368l.005-.235-.283-.005a86.569,86.569,0,0,0-111.126.012l-.293.01.005.239a86.776,86.776,0,1,0,111.692-.021Zm21.719,94.976-18.5-.162a110.428,110.428,0,0,0,3.772-27.035l19.245-.122.564-.014A82.245,82.245,0,0,1,353.934,313.343Zm-160.185-27.3,15.387.115a115.246,115.246,0,0,0,.955,13.083,105.982,105.982,0,0,0,2.832,13.977l-12.086.078-2,.074A82.237,82.237,0,0,1,193.749,286.047Zm5.906-32.033.285.285,13.482.111c-.125.42-.261.832-.382,1.255a105.868,105.868,0,0,0-2.941,14.358c-.5,3.74-.8,7.575-.928,11.445l-14.893.087-.484.018A82.1,82.1,0,0,1,199.655,254.014Zm130.091,59.136-29.252-.089c.871-8.453,1.323-17.323,1.384-26.748l15.541-.028,16.218-.1a104.771,104.771,0,0,1-3.587,25.931C329.956,312.463,329.846,312.8,329.747,313.151Zm.322-56.008a104.369,104.369,0,0,1,3.541,24.263l-31.756-.089a247.925,247.925,0,0,0-1.747-26.748l14.035-.028,15.132-.1C329.547,255.333,329.818,256.231,330.069,257.143ZM289.32,343.367H263.874a36.475,36.475,0,0,1-1.441-4.554c-.835-3.375-1.565-6.512-2.233-10.343-.608-3.5-1.128-6.895-1.572-10.6l17.748.14,18.193.009q-.651,5.394-1.519,10.45c-.664,3.855-1.387,6.638-2.208,9.994A35.333,35.333,0,0,1,289.32,343.367Zm-12.952-30.378-18.286.034c-.193-1.963-.367-3.961-.521-6.011-.5-6.713-.748-13.669-.76-20.7l19.575.049,20.1-.037c-.035,6.92-.3,13.756-.8,20.341-.165,2.185-.354,4.3-.559,6.381Zm-18.3-58.421,18.306.051,18.432-.037c.3,2.612.579,5.27.808,8.046.5,6.07.778,12.34.844,18.676l-20.091-.056-19.566.033c.043-6.63.242-12.674.6-18.365C257.589,260.034,257.817,257.276,258.071,254.568Zm28.185-36.76-9.887-.049-11.007.021c.394-1.047.791-2.031,1.2-2.956a35.1,35.1,0,0,1,2.416-4.6,15.5,15.5,0,0,1,3.081-3.681,6.8,6.8,0,0,1,1.752-1.091,4.276,4.276,0,0,1,1.634-.337c.041,0,.082,0,.123,0a4.591,4.591,0,0,1,1.775.444,8.207,8.207,0,0,1,1.8,1.165,17.6,17.6,0,0,1,3.2,3.672A43.172,43.172,0,0,1,286.255,217.807Zm-22.588,5.042,12.711.026,11.79-.034c.778,2.267,1.51,4.679,2.211,7.321.893,3.389,1.673,6.881,2.382,10.676.532,2.835.99,5.744,1.407,8.717l-17.8-.055-17.777.033c.332-2.9.7-5.736,1.126-8.5.6-3.863,1.26-7.383,2.02-10.765C262.343,227.582,262.983,225.139,263.667,222.85Zm27.866-5.015a51.574,51.574,0,0,0-5.272-10.145c-.382-.545-.759-1.043-1.137-1.516.8.2,1.608.4,2.4.641a50.415,50.415,0,0,1,12.273,5.7,57.048,57.048,0,0,1,7.075,5.4Zm-26.549-10.2a40.017,40.017,0,0,0-2.81,5.2c-.692,1.508-1.347,3.139-2,4.959l-1.179,0c-3.149,0-6.3.01-9.442.036l-7.921.06a56.816,56.816,0,0,1,7.007-5.354,50.53,50.53,0,0,1,12.269-5.712,46.62,46.62,0,0,1,5.64-1.325A26.061,26.061,0,0,0,264.984,207.634Zm-4.867,142.189a5.73,5.73,0,0,0,.7,1.921,50.533,50.533,0,0,0,5.176,10.458c.406.6.808,1.124,1.21,1.632a46.558,46.558,0,0,1-6.277-1.459,50.526,50.526,0,0,1-12.256-5.649,64.405,64.405,0,0,1-8.742-6.9Zm15.854,14.52a4.386,4.386,0,0,1-.982-.269,6.969,6.969,0,0,1-1.734-1.065,16.033,16.033,0,0,1-3.133-3.614,45.4,45.4,0,0,1-4.565-9.432c-.021-.059-.04-.141-.063-.141H287.7a47.458,47.458,0,0,1-4.446,9.333,16.9,16.9,0,0,1-3.1,3.69,7.633,7.633,0,0,1-1.738,1.145,4.924,4.924,0,0,1-.821.289C277.059,364.322,276.515,364.32,275.971,364.343Zm11.455-2.484a52.047,52.047,0,0,0,5.09-10.455c.2-.528.383-1.581.572-1.581h15.465a65.1,65.1,0,0,1-8.776,6.918A50.716,50.716,0,0,1,287.5,362.4c-.181.055-.365.084-.548.137C287.111,362.316,287.268,362.1,287.425,361.859Zm12.012-112.287c-.481-3.282-1.026-6.518-1.651-9.708-.779-3.925-1.624-7.526-2.585-11.012-.59-2.133-1.2-4.126-1.837-6.025l9.83-.029,8.568-.07a72.857,72.857,0,0,1,7.138,9.2,85.758,85.758,0,0,1,8.781,17.732ZM249.547,222.8c3,.025,5.992.03,8.988.034-.582,1.976-1.137,4.055-1.668,6.292-.822,3.481-1.543,7.106-2.2,11.083-.5,3.031-.939,6.142-1.331,9.332l-14.729.026-17.789.114a85.681,85.681,0,0,1,8.76-17.727,73.038,73.038,0,0,1,7.166-9.249Zm-29.822,31.658,33.048.091c-.267,2.6-.512,5.24-.715,8-.272,3.664-.479,7.437-.621,11.213-.081,2.28-.159,4.856-.194,7.528l-15.919.027-20.42.119c.111-3.595.392-7.168.845-10.662a102.707,102.707,0,0,1,2.687-13.607c.249-.913.52-1.811.792-2.708Zm-1.27,57.635a102.209,102.209,0,0,1-2.7-13.6,109.25,109.25,0,0,1-.883-12.287l36.365.093c.066,7.173.375,14.279.937,21.138.157,1.906.333,3.766.523,5.6l-14.1.026-19.83.127C218.67,312.82,218.555,312.464,218.455,312.1Zm34.823,5.944c.5,4.03,1.085,7.922,1.775,11.718.722,3.961,1.505,6.843,2.393,10.319.359,1.4.731,3.29,1.108,3.29H235.278c-2.011-1.291-3.916-4.134-5.668-6.814a83.481,83.481,0,0,1-9.342-18.971Zm41.373,25.327c.41-1.291.81-2.106,1.2-3.632.882-3.487,1.656-6.961,2.371-10.92.661-3.712,1.224-7.4,1.705-11.27h14.217l14.1.144a81.77,81.77,0,0,1-9.377,18.772c-1.751,2.669-3.652,5.614-5.658,6.9Zm44.516-61.94a109.95,109.95,0,0,0-3.86-25.748c-.122-.432-.26-.854-.389-1.283l16.971-.117,1.308-.032a82.085,82.085,0,0,1,5.768,27.338Zm-17.688-63.444-7.315-.036c-.093-.095-.182-.2-.275-.291a65.485,65.485,0,0,0-11.5-9.274,56.555,56.555,0,0,0-8.928-4.537,82.294,82.294,0,0,1,31.679,14.185C323.923,218.017,322.7,218,321.479,217.984Zm-75.46-9.622a65.418,65.418,0,0,0-11.509,9.266c-.1.1-.2.214-.3.317l-2.825.021c-1.247.013-2.492.03-3.738.044a82.518,82.518,0,0,1,20.88-11.108C247.685,207.372,246.843,207.846,246.019,208.362Zm-20.56,141.461h7.193c.6,1.291,1.2,1.267,1.822,1.89a65.438,65.438,0,0,0,11.514,9.263c.986.62,1.989,1.187,3,1.74a82.507,82.507,0,0,1-23.569-12.93C225.431,349.785,225.445,349.823,225.459,349.823Zm76.973,11.11a65.443,65.443,0,0,0,11.495-9.25c.609-.614,1.2-.569,1.792-1.86h11.62a82.739,82.739,0,0,1-34.412,15.943A56.953,56.953,0,0,0,302.431,360.933Zm48.865-111.1-17.9-.156a91.4,91.4,0,0,0-10.209-20.61,79.5,79.5,0,0,0-4.77-6.394l2.659-.021c2.984-.032,5.967-.064,8.914-.115l.744-.019A83.084,83.084,0,0,1,351.3,249.834Zm-129.3-27.281.732.011c2.416.04,4.831.062,7.247.086a79.56,79.56,0,0,0-4.772,6.385,91.584,91.584,0,0,0-10.257,20.687l-13.464.086A83.1,83.1,0,0,1,221.991,222.553ZM200.64,317.8l13.712.109a87.088,87.088,0,0,0,10.812,21.617,33.414,33.414,0,0,0,3.336,3.846h-3.041c-1.349,0-2.446,1.836-2.446,3.189a6.733,6.733,0,0,0,.068.921A81.8,81.8,0,0,1,200.64,317.8Zm132.368,26.339c-.106-.014-.21-.767-.32-.767h-12.82a32.816,32.816,0,0,0,3.352-3.879A89.431,89.431,0,0,0,334,317.524l17.89.061.247-.282A81.884,81.884,0,0,1,333.007,344.134Z" transform="translate(-189.604 -197.949)" fill="#fff" opacity="0.73"/>
      </g>
      <g id="Group_23" data-name="Group 23" transform="translate(6788.355 5147.589)">
        <path id="Path_50" data-name="Path 50" d="M206.692,555.146s-23.085,12.788-25,34.432-.159,111.478,46.133,133.589,107.569,17.015,131.024,14.6,36.46-18.358,39.365-29.333,7.6-51.859-17.077-65.048-50.59-33.393-76.485-53.067S234.381,538.529,206.692,555.146Z" transform="translate(-181.221 -514.632)" fill="url(#linear-gradient-9)"/>
        <path id="Path_51" data-name="Path 51" d="M347.352,636.52s-6.231.329-6.995,13.148c0,0,14.448,12.952,33.965,16.035,1.465.232-2.049-10-2.576-11.387C369.232,647.719,361.317,643.472,347.352,636.52Z" transform="translate(-154.708 -500.306)" fill="url(#linear-gradient-10)"/>
        <path id="Path_52" data-name="Path 52" d="M286.373,630.454h6.255A15.978,15.978,0,0,0,304.11,625.6c10.357-10.687,36.243-35.845,56.705-42.777a6.916,6.916,0,0,1,8.456,3.655c4.271,9.114,10.264,30.324-3.928,62.424a6.4,6.4,0,0,1-9.267,2.908,5.249,5.249,0,0,1-1.994-2.432l1.561-37.521s-34.423,30.108-40.407,35.917S278.838,650.04,286.373,630.454Z" transform="translate(-163.9 -509.312)" fill="url(#linear-gradient-11)"/>
        <path id="Path_53" data-name="Path 53" d="M399.629,705.5a49.422,49.422,0,0,0-26.963-11.8l-4.286,2.621a46.741,46.741,0,0,0,7.726,8.29c4.589,2.665,11.675,6.275,17.549,7.058C399.367,712.428,400.21,708.976,399.629,705.5Z" transform="translate(-150.039 -490.78)" fill="url(#linear-gradient-12)"/>
        <path id="Path_54" data-name="Path 54" d="M371.746,652.717c-3.395,1.1-4.888,5.908-13.5,2.728a76.294,76.294,0,0,1-17.715-9.333c-.071.619-.131,1.267-.173,1.958,0,0,15.235,14.49,34.751,17.574a1.943,1.943,0,0,0,2.1-2.618A49.03,49.03,0,0,0,371.746,652.717Z" transform="translate(-154.708 -498.708)" fill="url(#linear-gradient-13)"/>
        <path id="Path_55" data-name="Path 55" d="M402.676,708.062a45.345,45.345,0,0,0-4.151-4.123c.581,3.479-.261,6.931-5.973,6.17-5.874-.783-12.96-4.393-17.549-7.058,5.751,4.9,14.5,10.111,25.548,9.805A2.9,2.9,0,0,0,402.676,708.062Z" transform="translate(-148.936 -489.221)" fill="url(#linear-gradient-14)"/>
        <path id="Path_56" data-name="Path 56" d="M292.144,589.587s10.113,29.126,29.821,6.958l1.877-.833h0l14.126-9.656-1.574,5.592a10.453,10.453,0,0,1-6.085,6.834l-1.861.765c-3.541,7.361-11.129,18.515-22.815,20.631-17.539,3.174-26.533-20.52-26.533-20.52Z" transform="translate(-164.914 -508.713)" fill="url(#linear-gradient-15)"/>
        <path id="Path_57" data-name="Path 57" d="M290.393,631.755l61.572.666s35.163,29.092,41.54,73.453c0,0,1.059,3.263-5.3,3.821a122.062,122.062,0,0,1-35.121-38.433c-17-30.1-50.669-16.551-50.669-16.551-11.064-7.977-26.7-9.6-38.476-12.259Z" transform="translate(-167.439 -501.1)" fill="url(#linear-gradient-16)"/>
        <path id="Path_58" data-name="Path 58" d="M300.993,642.847s-7.537-20.489-9.158-40.4a87.152,87.152,0,0,1,8.961-6.784,2.493,2.493,0,0,0,.974-3.231c-2.534-5.249-17.86-25.861-19.006-26.148-6.24-1.557-31.83-13.724-49.851,10.928-7.735,10.58,1.535,43.148,36.624,76.876l7.24,1.385Z" transform="translate(-173.032 -512.735)" fill="url(#linear-gradient-17)"/>
        <path id="Path_59" data-name="Path 59" d="M256.2,550.753l-4.582,15.283a1.679,1.679,0,0,0,.652,1.871,17.071,17.071,0,0,0,15.882,1.6,2.491,2.491,0,0,0,1.6-2.14l1.086-13.313Z" transform="translate(-169.504 -514.595)" fill="url(#linear-gradient-18)"/>
        <g id="Group_22" data-name="Group 22" transform="translate(74.297)">
          <path id="Path_60" data-name="Path 60" d="M282.862,541.636s-2.253,15.842-8.338,20.714-17.942,1.2-21.947-10.74l7.98-20.42Z" transform="translate(-243.629 -517.854)" fill="url(#linear-gradient-19)"/>
          <path id="Path_61" data-name="Path 61" d="M260.935,546.309a.784.784,0,0,0,1.02-.629,20.526,20.526,0,0,1,1.878-6.328s-.58-2.079,5.253,1.062,14.6,7.752,19.754,5.006c5.029-2.679,10.124-16.154-3.169-13.657a.785.785,0,0,1-.933-.821c.163-2.215-.056-7.311-5.216-8.946-4.829-1.531-7.472.649-8.562,1.965a.78.78,0,0,1-1.221-.02c-1.447-1.889-5.375-5.908-11.157-3.36-4.763,2.1-5.5,5.034-5.426,6.862a.781.781,0,0,1-1.114.745c-1.458-.672-3.805-1.021-6.053,1.8-3.107,3.894,1.333,7.27,2.666,8.156a.783.783,0,0,1,.356.648c.013,2.024.328,10.856,4.755,15.839a.791.791,0,0,0,1.315-.227l3.408-8.121a.79.79,0,0,1,.968-.446Z" transform="translate(-244.907 -519.759)" fill="url(#linear-gradient-20)"/>
          <path id="Path_62" data-name="Path 62" d="M259.621,544.826s-2.081-8.477-5.243-5.725.824,8.81,4.446,9.965Z" transform="translate(-243.52 -516.628)" fill="url(#linear-gradient-21)"/>
        </g>
        <path id="Path_63" data-name="Path 63" d="M283.647,600.394h0a.583.583,0,0,1-.582-.586c.03-9.1-3.486-21.2-3.522-21.316a.584.584,0,0,1,1.12-.329c.036.124,3.6,12.378,3.569,21.65A.583.583,0,0,1,283.647,600.394Z" transform="translate(-164.844 -510.098)" fill="#e78456"/>
        <path id="Path_64" data-name="Path 64" d="M264.17,607.072a.582.582,0,0,1-.533-.345c-.258-.581-6.325-14.324-7.448-23.247a.584.584,0,0,1,1.158-.146c1.1,8.752,7.292,22.778,7.355,22.918a.583.583,0,0,1-.3.77A.563.563,0,0,1,264.17,607.072Z" transform="translate(-168.731 -509.252)" fill="#e78456"/>
        <path id="Path_65" data-name="Path 65" d="M250.207,620.317l-.373-.287c-12-9.223-16.2-27.43-16.24-27.614a.583.583,0,1,1,1.137-.255c.041.176,4.064,17.6,15.443,26.655l1.734-1.472a.583.583,0,1,1,.755.888Z" transform="translate(-172.498 -507.772)" fill="#e78456"/>
        <path id="Path_66" data-name="Path 66" d="M339.01,579.767l.99,1.357a1.446,1.446,0,0,1-.351,2.046l-22.254,15.2a1.447,1.447,0,0,1-1.872-.207h0a1.446,1.446,0,0,1,.168-2.128l21.264-16.56A1.445,1.445,0,0,1,339.01,579.767Z" transform="translate(-158.91 -509.86)" fill="url(#linear-gradient-22)"/>
        <path id="Path_67" data-name="Path 67" d="M324.294,618.49a2.344,2.344,0,0,1,1.947,2.487c-.026,4.334-.786,13.338-6.527,15.082-7.171,2.178-15.314-1.28-13.391-16.061a2.837,2.837,0,0,1,2.807-2.724Z" transform="translate(-160.426 -503.513)" fill="#fff"/>
        <path id="Path_68" data-name="Path 68" d="M318.845,633.3s-37.254,0-56.179-29.4l-11.118,10.165S273.8,652.186,315.7,637.9c0,0,9.675,2,15.127.484,3.06-.849,4.722-3.587,5.592-5.825a1.627,1.627,0,0,0-2.06-2.11C330.5,631.775,323.643,633.794,318.845,633.3Z" transform="translate(-169.504 -505.741)" fill="url(#linear-gradient-23)"/>
        <path id="Path_69" data-name="Path 69" d="M308.623,621.749s-2.261-6.1-6.135-1.676,2.422,7.812,6.135,8.3v-1.608s-4.336-1.945-3.783-4.528,3.783.646,3.783.646Z" transform="translate(-161.22 -503.314)" fill="#fff"/>
        <path id="Path_70" data-name="Path 70" d="M320.709,596.467a9.77,9.77,0,0,0-3.6,1.951,6.1,6.1,0,0,0-2.009,3.424,4.623,4.623,0,0,0,.866,3.793,17.778,17.778,0,0,0,3.173,2.838,7.957,7.957,0,0,1,2.728,3.514,3.612,3.612,0,0,1,.04,2.277,3.818,3.818,0,0,1-1.345,1.808,23.82,23.82,0,0,1-3.9,1.99,6.6,6.6,0,0,0-1.725,1.27,2.989,2.989,0,0,0-.856,1.917.029.029,0,1,1-.058,0,3.07,3.07,0,0,1,.819-2,6.76,6.76,0,0,1,1.725-1.358,23.775,23.775,0,0,0,3.783-2.079,3.448,3.448,0,0,0,1.17-1.668,3.173,3.173,0,0,0-.1-2,7.442,7.442,0,0,0-2.656-3.186,18.235,18.235,0,0,1-3.388-2.859,5.461,5.461,0,0,1-1.151-4.406,7.066,7.066,0,0,1,2.19-4.028,10.88,10.88,0,0,1,3.931-2.3.583.583,0,1,1,.384,1.1Z" transform="translate(-159.095 -507.169)" fill="#fff"/>
        <path id="Path_71" data-name="Path 71" d="M313.679,605.235c.434,1.1,1.759,1.859,2.588,3.234a2.944,2.944,0,0,1,.371,2.429,3.674,3.674,0,0,1-1.527,1.825c-1.262.828-2.681,1.19-3.349,2.27a2.338,2.338,0,0,0,.941,3.181.287.287,0,0,1,.141.381.291.291,0,0,1-.38.141,2.977,2.977,0,0,1-1.324-4.073c.859-1.43,2.45-1.844,3.472-2.614a2.792,2.792,0,0,0,1.123-1.391A1.963,1.963,0,0,0,315.4,609c-.633-1.071-2.023-1.75-2.782-3.288a.584.584,0,0,1,1.044-.524C313.665,605.2,313.673,605.22,313.679,605.235Z" transform="translate(-159.634 -505.58)" fill="#fff"/>
      </g>
      <g id="Group_26" data-name="Group 26" transform="translate(7404.247 4652.401)">
        <g id="Group_24" data-name="Group 24">
          <path id="Path_72" data-name="Path 72" d="M802.78,121.145l2.6,23.424-16.982-8.31Z" transform="translate(-695.955 -90.981)" fill="url(#linear-gradient-24)"/>
          <path id="Path_73" data-name="Path 73" d="M709.157,123.7l69.415,48.468A5.965,5.965,0,0,0,787,170.5l46.037-71.528a2.39,2.39,0,0,0-2.554-3.622Z" transform="translate(-709.157 -95.289)" fill="url(#linear-gradient-25)"/>
          <path id="Path_74" data-name="Path 74" d="M815.975,121.4l-106.818-1.76,99.425,13.326,1,6.465Z" transform="translate(-709.157 -91.232)" fill="url(#linear-gradient-26)"/>
          <path id="Path_75" data-name="Path 75" d="M790.58,137.888l14.436,5.03-10-11.854Z" transform="translate(-695.591 -89.329)" fill="url(#linear-gradient-27)"/>
        </g>
        <g id="Group_25" data-name="Group 25" transform="translate(128.914 52.053)">
          <path id="Path_76" data-name="Path 76" d="M820.785,140.256l5.856-.21a1.165,1.165,0,0,1,.083,2.329H826.7l-5.795.211h-.04a1.166,1.166,0,0,1-.085-2.331Z" transform="translate(-819.66 -139.885)" fill="#ce41a4"/>
          <path id="Path_77" data-name="Path 77" d="M830.816,139.955l5.844-.047a1.161,1.161,0,0,1,.018,2.322h-.012l-5.817.05h-.013a1.163,1.163,0,1,1-.02-2.325Z" transform="translate(-817.994 -139.908)" fill="#ce41a4"/>
          <path id="Path_78" data-name="Path 78" d="M840.833,139.922l5.842.075a1.157,1.157,0,0,1-.029,2.313h-.01l-5.82-.07H840.8a1.159,1.159,0,0,1,.028-2.318Z" transform="translate(-816.328 -139.906)" fill="#ce41a4"/>
          <path id="Path_79" data-name="Path 79" d="M850.849,140.1l5.836.186a1.153,1.153,0,1,1-.072,2.3h-.01l-5.816-.18h-.01a1.155,1.155,0,0,1,.071-2.309Z" transform="translate(-814.663 -139.877)" fill="#ce41a4"/>
          <path id="Path_80" data-name="Path 80" d="M860.858,140.461l5.832.294a1.149,1.149,0,0,1-.115,2.3h-.011l-5.81-.289h-.01a1.151,1.151,0,1,1,.114-2.3Z" transform="translate(-812.998 -139.816)" fill="#ce41a4"/>
          <path id="Path_81" data-name="Path 81" d="M870.857,141.012l5.828.4a1.145,1.145,0,1,1-.159,2.285h-.009l-5.807-.4h-.01a1.147,1.147,0,1,1,.158-2.289Z" transform="translate(-811.335 -139.724)" fill="#ce41a4"/>
          <path id="Path_82" data-name="Path 82" d="M880.85,141.755l5.818.519a1.141,1.141,0,1,1-.2,2.274h-.01l-5.8-.512h-.012a1.144,1.144,0,0,1,.2-2.278Z" transform="translate(-809.673 -139.601)" fill="#ce41a4"/>
          <path id="Path_83" data-name="Path 83" d="M890.824,142.7l5.809.637a1.138,1.138,0,0,1-.248,2.262h-.01l-5.786-.631h-.012a1.14,1.14,0,0,1,.247-2.267Z" transform="translate(-808.015 -139.445)" fill="#ce41a4"/>
          <path id="Path_84" data-name="Path 84" d="M900.781,143.842l5.79.763a1.134,1.134,0,1,1-.3,2.248h-.012L900.5,146.1h-.012a1.135,1.135,0,1,1,.3-2.252Z" transform="translate(-806.359 -139.254)" fill="#ce41a4"/>
          <path id="Path_85" data-name="Path 85" d="M910.706,145.209l5.777.9a1.13,1.13,0,1,1-.348,2.233l-.013,0-5.75-.89-.014,0a1.132,1.132,0,0,1,.346-2.238Z" transform="translate(-804.709 -139.027)" fill="#ce41a4"/>
          <path id="Path_86" data-name="Path 86" d="M920.6,146.811l5.755,1.043a1.126,1.126,0,0,1-.4,2.217l-.014,0-5.726-1.034-.014,0a1.128,1.128,0,1,1,.4-2.22Z" transform="translate(-803.064 -138.761)" fill="#ce41a4"/>
          <path id="Path_87" data-name="Path 87" d="M930.46,148.665l5.724,1.2a1.122,1.122,0,1,1-.461,2.2l-.015,0-5.693-1.189-.016,0a1.124,1.124,0,1,1,.46-2.2Z" transform="translate(-801.427 -138.453)" fill="#ce41a4"/>
          <path id="Path_88" data-name="Path 88" d="M940.263,150.795l5.687,1.37a1.118,1.118,0,1,1-.523,2.175l-.017,0-5.654-1.358-.016,0a1.12,1.12,0,1,1,.523-2.179Z" transform="translate(-799.798 -138.1)" fill="#ce41a4"/>
          <path id="Path_89" data-name="Path 89" d="M950,153.222l5.642,1.556a1.115,1.115,0,0,1-.593,2.149l-.018,0-5.605-1.542-.019-.006a1.116,1.116,0,1,1,.593-2.152Z" transform="translate(-798.181 -137.697)" fill="#ce41a4"/>
          <path id="Path_90" data-name="Path 90" d="M959.653,155.977l5.583,1.762a1.111,1.111,0,0,1-.669,2.119l-.021-.006L959,158.106l-.021-.007a1.112,1.112,0,0,1,.669-2.122Z" transform="translate(-796.578 -137.239)" fill="#ce41a4"/>
          <path id="Path_91" data-name="Path 91" d="M969.2,159.1l5.509,1.989a1.106,1.106,0,0,1-.751,2.081l-.022-.008-5.465-1.969-.022-.008a1.109,1.109,0,1,1,.751-2.086Z" transform="translate(-794.994 -136.722)" fill="#ce41a4"/>
          <path id="Path_92" data-name="Path 92" d="M978.613,162.614l5.414,2.241a1.1,1.1,0,0,1-.843,2.038l-.024-.009-5.366-2.219-.025-.009a1.105,1.105,0,1,1,.843-2.043Z" transform="translate(-793.433 -136.139)" fill="#ce41a4"/>
          <path id="Path_93" data-name="Path 93" d="M987.854,166.578l5.293,2.523a1.1,1.1,0,1,1-.945,1.983l-.028-.013-5.239-2.493-.028-.014a1.1,1.1,0,1,1,.946-1.988Z" transform="translate(-791.901 -135.483)" fill="#ce41a4"/>
          <path id="Path_94" data-name="Path 94" d="M996.873,171.039l5.138,2.836a1.1,1.1,0,1,1-1.059,1.918l-.029-.017-5.078-2.8-.031-.016a1.1,1.1,0,1,1,1.058-1.921Z" transform="translate(-790.407 -134.744)" fill="#ce41a4"/>
          <path id="Path_95" data-name="Path 95" d="M1005.609,176.051l4.936,3.182a1.091,1.091,0,0,1-1.183,1.834l-.033-.021-4.872-3.136-.033-.021a1.093,1.093,0,1,1,1.183-1.839Z" transform="translate(-788.961 -133.915)" fill="#ce41a4"/>
          <path id="Path_96" data-name="Path 96" d="M1013.979,181.675l4.686,3.514a1.088,1.088,0,0,1-1.305,1.741l-.015-.012-4.65-3.481-.022-.017a1.089,1.089,0,1,1,1.305-1.744Z" transform="translate(-787.576 -132.986)" fill="#ce41a4"/>
          <path id="Path_97" data-name="Path 97" d="M1021.959,187.772l4.551,3.683a1.084,1.084,0,0,1-1.364,1.685l-.016-.013-4.521-3.653-.016-.014a1.085,1.085,0,1,1,1.365-1.688Z" transform="translate(-786.251 -131.974)" fill="#ce41a4"/>
          <path id="Path_98" data-name="Path 98" d="M1029.7,194.169l4.4,3.871a1.08,1.08,0,1,1-1.428,1.62l-.018-.015-4.362-3.836-.019-.016a1.082,1.082,0,1,1,1.429-1.624Z" transform="translate(-784.966 -130.913)" fill="#ce41a4"/>
          <path id="Path_99" data-name="Path 99" d="M1037.166,200.9l4.207,4.081a1.076,1.076,0,0,1-1.5,1.545l-.02-.02-4.171-4.038-.019-.02a1.077,1.077,0,1,1,1.5-1.548Z" transform="translate(-783.728 -129.798)" fill="#ce41a4"/>
          <path id="Path_100" data-name="Path 100" d="M1044.29,208l3.975,4.313a1.072,1.072,0,1,1-1.577,1.452l-.021-.023-3.934-4.263-.022-.023a1.074,1.074,0,1,1,1.578-1.457Z" transform="translate(-782.547 -128.622)" fill="#ce41a4"/>
          <path id="Path_101" data-name="Path 101" d="M1050.993,215.5l3.685,4.572a1.068,1.068,0,0,1-1.664,1.34l-.024-.029-3.639-4.51-.025-.029a1.07,1.07,0,1,1,1.666-1.344Z" transform="translate(-781.437 -127.38)" fill="#ce41a4"/>
          <path id="Path_102" data-name="Path 102" d="M1057.168,223.47l3.321,4.857a1.064,1.064,0,1,1-1.757,1.2l-.026-.037-3.272-4.778-.026-.037a1.066,1.066,0,0,1,1.759-1.2Z" transform="translate(-780.415 -126.063)" fill="#ce41a4"/>
          <path id="Path_103" data-name="Path 103" d="M1062.679,231.932l2.854,5.151a1.06,1.06,0,0,1-1.855,1.028l-.026-.048-2.8-5.053-.027-.047a1.063,1.063,0,0,1,1.858-1.031Z" transform="translate(-779.504 -124.667)" fill="#ce41a4"/>
          <path id="Path_104" data-name="Path 104" d="M1067.34,240.9l2.268,5.442a1.056,1.056,0,1,1-1.949.813l-.025-.058-2.222-5.323-.025-.058a1.058,1.058,0,1,1,1.953-.815Z" transform="translate(-778.735 -123.191)" fill="#ce41a4"/>
          <path id="Path_105" data-name="Path 105" d="M1070.939,250.364l1.546,5.694a1.052,1.052,0,1,1-2.03.552l-.02-.071-1.512-5.552-.019-.07a1.054,1.054,0,0,1,2.034-.554Z" transform="translate(-778.141 -121.635)" fill="#ce41a4"/>
          <path id="Path_106" data-name="Path 106" d="M1073.243,260.236l.7,5.87a1.048,1.048,0,1,1-2.081.249l-.009-.079-.686-5.711-.01-.078a1.05,1.05,0,0,1,2.086-.251Z" transform="translate(-777.761 -120.015)" fill="#ce41a4"/>
          <path id="Path_107" data-name="Path 107" d="M1074.084,270.355l-.219,5.909a1.044,1.044,0,0,1-2.087-.078l0-.082.21-5.744,0-.082a1.046,1.046,0,1,1,2.091.076Z" transform="translate(-777.657 -118.356)" fill="#ce41a4"/>
          <path id="Path_108" data-name="Path 108" d="M1073.438,280.475l-1.134,5.8a1.04,1.04,0,1,1-2.042-.4l.014-.076,1.1-5.645.015-.078a1.042,1.042,0,0,1,2.046.4Z" transform="translate(-777.912 -116.696)" fill="#ce41a4"/>
          <path id="Path_109" data-name="Path 109" d="M1071.24,290.35l-1.959,5.568a1.037,1.037,0,0,1-1.956-.688l.023-.066,1.908-5.434.023-.069a1.039,1.039,0,0,1,1.96.688Z" transform="translate(-778.408 -115.074)" fill="#ce41a4"/>
          <path id="Path_110" data-name="Path 110" d="M1067.659,299.785l-2.653,5.263a1.033,1.033,0,0,1-1.846-.93l.027-.054,2.595-5.154.028-.056a1.035,1.035,0,0,1,1.849.931Z" transform="translate(-779.111 -113.522)" fill="#ce41a4"/>
          <path id="Path_111" data-name="Path 111" d="M1062.928,308.68l-3.208,4.929a1.029,1.029,0,0,1-1.725-1.123l.028-.042,3.147-4.844.029-.044a1.031,1.031,0,1,1,1.729,1.125Z" transform="translate(-779.98 -112.055)" fill="#ce41a4"/>
          <path id="Path_112" data-name="Path 112" d="M1057.284,317l-3.646,4.607a1.025,1.025,0,0,1-1.609-1.272l.026-.034,3.59-4.542.027-.034a1.027,1.027,0,1,1,1.612,1.274Z" transform="translate(-780.984 -110.681)" fill="#ce41a4"/>
          <path id="Path_113" data-name="Path 113" d="M1050.92,324.774l-3.988,4.307a1.022,1.022,0,1,1-1.5-1.388l.023-.026,3.935-4.256.024-.028a1.024,1.024,0,0,1,1.5,1.391Z" transform="translate(-782.091 -109.395)" fill="#ce41a4"/>
          <path id="Path_114" data-name="Path 114" d="M1043.993,332.043l-4.255,4.034a1.018,1.018,0,0,1-1.4-1.477l.022-.02,4.208-4,.022-.021a1.02,1.02,0,0,1,1.4,1.479Z" transform="translate(-783.281 -108.191)" fill="#ce41a4"/>
          <path id="Path_115" data-name="Path 115" d="M1036.672,338.889l-4.236,4-.008.009a1.015,1.015,0,0,1-1.393-1.476l4.251-4.014a1.016,1.016,0,1,1,1.4,1.477h0Z" transform="translate(-784.497 -107.051)" fill="#ce41a4"/>
          <path id="Path_116" data-name="Path 116" d="M1029.442,345.781l-4.12,4.11-.012.012a1.01,1.01,0,0,1-1.427-1.43l4.139-4.136a1.013,1.013,0,0,1,1.431,1.433h0Z" transform="translate(-785.685 -105.898)" fill="#ce41a4"/>
          <path id="Path_117" data-name="Path 117" d="M1022.423,352.881l-3.959,4.257-.016.016a1.006,1.006,0,1,1-1.473-1.37l3.986-4.292a1.008,1.008,0,0,1,1.477,1.372h0Z" transform="translate(-786.832 -104.711)" fill="#ce41a4"/>
          <path id="Path_118" data-name="Path 118" d="M1015.7,360.251l-3.729,4.448-.02.025a1,1,0,0,1-1.538-1.287l3.765-4.5a1,1,0,1,1,1.541,1.289h0Z" transform="translate(-787.92 -103.477)" fill="#ce41a4"/>
          <path id="Path_119" data-name="Path 119" d="M1009.394,367.971l-3.382,4.7-.026.037a1,1,0,0,1-1.622-1.165l3.429-4.776a1,1,0,1,1,1.625,1.168h0Z" transform="translate(-788.919 -102.182)" fill="#ce41a4"/>
          <path id="Path_120" data-name="Path 120" d="M1003.734,376.15l-2.839,5.022-.033.058a.995.995,0,0,1-1.732-.978l2.9-5.138a1,1,0,1,1,1.736.979h0Z" transform="translate(-789.781 -100.806)" fill="#ce41a4"/>
          <path id="Path_121" data-name="Path 121" d="M999.08,384.9l-1.991,5.389-.034.09a.99.99,0,1,1-1.857-.686l2.054-5.566a.992.992,0,0,1,1.861.687h0Z" transform="translate(-790.425 -99.329)" fill="#ce41a4"/>
          <path id="Path_122" data-name="Path 122" d="M995.98,394.234a49.412,49.412,0,0,0-.8,5.657.987.987,0,1,1-1.967-.16,51.241,51.241,0,0,1,.823-5.883.989.989,0,1,1,1.94.386Z" transform="translate(-790.745 -97.733)" fill="#ce41a4"/>
          <path id="Path_123" data-name="Path 123" d="M995.069,403.957l.49,5.709.008.1a.982.982,0,1,1-1.956.169l-.511-5.911a.984.984,0,0,1,1.96-.17h0Z" transform="translate(-790.765 -96.083)" fill="#ce41a4"/>
          <path id="Path_124" data-name="Path 124" d="M996.371,413.668l1.468,5.576.016.061a.979.979,0,0,1-1.893.5l-1.5-5.7a.981.981,0,0,1,1.9-.5h0Z" transform="translate(-790.544 -94.431)" fill="#ce41a4"/>
          <path id="Path_125" data-name="Path 125" d="M999.161,423.141l2.028,5.432.01.029a.975.975,0,1,1-1.827.682l-2.054-5.494a.977.977,0,1,1,1.83-.685h0Z" transform="translate(-790.072 -92.832)" fill="#ce41a4"/>
          <path id="Path_126" data-name="Path 126" d="M1002.767,432.4l2.28,5.355,0,.009a.971.971,0,0,1-1.787.762l-2.292-5.375a.973.973,0,1,1,1.791-.764h0Z" transform="translate(-789.466 -91.278)" fill="#ce41a4"/>
          <path id="Path_127" data-name="Path 127" d="M1006.714,441.588l2.079,5.517a.967.967,0,0,1-1.811.682l-.021-.058-2.036-5.391-.026-.065a.97.97,0,0,1,1.814-.685Z" transform="translate(-788.809 -89.751)" fill="#ce41a4"/>
          <path id="Path_128" data-name="Path 128" d="M1009.993,451.144l1.47,5.687a.964.964,0,0,1-1.867.482l-.009-.04-1.452-5.6-.011-.043a.965.965,0,1,1,1.869-.484Z" transform="translate(-788.267 -88.175)" fill="#ce41a4"/>
          <path id="Path_129" data-name="Path 129" d="M1012.308,460.948l1.006,5.777a.96.96,0,1,1-1.891.329l-.007-.034-1-5.706-.006-.035a.962.962,0,1,1,1.894-.331Z" transform="translate(-787.883 -86.554)" fill="#ce41a4"/>
          <path id="Path_130" data-name="Path 130" d="M1013.85,470.889l.589,5.835a.957.957,0,0,1-1.9.191l0-.033-.586-5.768,0-.033a.958.958,0,1,1,1.906-.194Z" transform="translate(-787.626 -84.909)" fill="#ce41a4"/>
          <path id="Path_131" data-name="Path 131" d="M1014.685,480.912l.184,5.859a.952.952,0,1,1-1.9.061V486.8l-.187-5.793v-.031a.954.954,0,0,1,1.907-.062Z" transform="translate(-787.486 -83.249)" fill="#ce41a4"/>
          <path id="Path_132" data-name="Path 132" d="M1014.859,490.968l-.217,5.86a.949.949,0,0,1-1.9-.07v-.033l.21-5.793,0-.033a.95.95,0,1,1,1.9.069Z" transform="translate(-787.492 -81.584)" fill="#ce41a4"/>
          <path id="Path_133" data-name="Path 133" d="M1014.369,501.013l-.623,5.832a.944.944,0,0,1-1.878-.2l0-.033.612-5.765,0-.033a.946.946,0,1,1,1.882.2Z" transform="translate(-787.639 -79.921)" fill="#ce41a4"/>
          <path id="Path_134" data-name="Path 134" d="M1013.18,511l-1.035,5.769a.941.941,0,1,1-1.853-.331l.006-.034,1.02-5.7.006-.034a.943.943,0,0,1,1.856.331Z" transform="translate(-787.903 -78.268)" fill="#ce41a4"/>
          <path id="Path_135" data-name="Path 135" d="M1011.284,520.862l-1.452,5.681a.937.937,0,0,1-1.815-.464l.008-.033,1.432-5.615.009-.034a.938.938,0,1,1,1.819.464Z" transform="translate(-788.284 -76.635)" fill="#ce41a4"/>
          <path id="Path_136" data-name="Path 136" d="M1008.671,530.561l-1.871,5.559a.933.933,0,1,1-1.768-.595l.012-.033,1.844-5.494.011-.033a.935.935,0,1,1,1.773.595Z" transform="translate(-788.785 -75.029)" fill="#ce41a4"/>
          <path id="Path_137" data-name="Path 137" d="M1005.339,540.036l-2.284,5.4a.929.929,0,1,1-1.711-.724l.013-.032,2.254-5.34.014-.031a.931.931,0,1,1,1.715.724Z" transform="translate(-789.403 -73.461)" fill="#ce41a4"/>
          <path id="Path_138" data-name="Path 138" d="M1001.3,549.228l-2.689,5.214a.925.925,0,0,1-1.645-.848l.016-.03,2.653-5.153.016-.031a.927.927,0,1,1,1.648.848Z" transform="translate(-790.137 -71.939)" fill="#ce41a4"/>
          <path id="Path_139" data-name="Path 139" d="M996.573,558.083l-3.075,5a.921.921,0,0,1-1.569-.966l.018-.029,3.036-4.938.017-.03a.924.924,0,1,1,1.574.967Z" transform="translate(-790.983 -70.473)" fill="#ce41a4"/>
          <path id="Path_140" data-name="Path 140" d="M991.188,566.553l-3.437,4.753a.918.918,0,0,1-1.487-1.076l.019-.027,3.395-4.7.02-.027a.92.92,0,1,1,1.491,1.077Z" transform="translate(-791.932 -69.07)" fill="#ce41a4"/>
          <path id="Path_141" data-name="Path 141" d="M985.192,574.595l-3.768,4.488a.914.914,0,0,1-1.4-1.175l.021-.024,3.724-4.441.021-.025a.915.915,0,1,1,1.4,1.176Z" transform="translate(-792.979 -67.738)" fill="#ce41a4"/>
          <path id="Path_142" data-name="Path 142" d="M978.634,582.179l-4.07,4.216a.91.91,0,0,1-1.309-1.263l.021-.022,4.025-4.174.022-.022a.912.912,0,1,1,1.312,1.266Z" transform="translate(-794.113 -66.481)" fill="#ce41a4"/>
          <path id="Path_143" data-name="Path 143" d="M971.567,589.293l-4.34,3.937a.906.906,0,1,1-1.218-1.343l.021-.019,4.294-3.9.022-.02a.908.908,0,0,1,1.221,1.344Z" transform="translate(-795.327 -65.302)" fill="#ce41a4"/>
          <path id="Path_144" data-name="Path 144" d="M964.048,595.927l-4.576,3.657a.9.9,0,1,1-1.126-1.409l.02-.016,4.532-3.627.021-.018a.9.9,0,1,1,1.13,1.412Z" transform="translate(-796.611 -64.202)" fill="#ce41a4"/>
          <path id="Path_145" data-name="Path 145" d="M956.133,602.084l-4.782,3.383A.9.9,0,1,1,950.314,604l.02-.014,4.738-3.357.021-.015a.9.9,0,1,1,1.041,1.469Z" transform="translate(-797.956 -63.18)" fill="#ce41a4"/>
          <path id="Path_146" data-name="Path 146" d="M947.878,607.769l-4.954,3.116a.894.894,0,1,1-.952-1.514l.019-.012,4.914-3.094.02-.013a.9.9,0,0,1,.956,1.517Z" transform="translate(-799.353 -62.236)" fill="#ce41a4"/>
          <path id="Path_147" data-name="Path 147" d="M939.332,613l-5.105,2.862a.891.891,0,1,1-.872-1.554l.019-.01,5.066-2.843.019-.012a.893.893,0,0,1,.874,1.557Z" transform="translate(-800.794 -61.367)" fill="#ce41a4"/>
          <path id="Path_148" data-name="Path 148" d="M930.534,617.807l-5.233,2.619a.887.887,0,0,1-.795-1.587l.018-.008,5.2-2.6.019-.009a.888.888,0,0,1,.8,1.589Z" transform="translate(-802.274 -60.569)" fill="#ce41a4"/>
          <path id="Path_149" data-name="Path 149" d="M921.522,622.2l-5.337,2.388a.883.883,0,1,1-.721-1.611l.015-.007,5.3-2.378.016-.007a.885.885,0,1,1,.725,1.615Z" transform="translate(-803.786 -59.839)" fill="#ce41a4"/>
          <path id="Path_150" data-name="Path 150" d="M912.337,626.2l-5.43,2.173a.879.879,0,0,1-.655-1.632l.015-.006,5.4-2.165.015-.006a.881.881,0,1,1,.657,1.634Z" transform="translate(-805.326 -59.173)" fill="#ce41a4"/>
        </g>
      </g>
      <g id="Group_33" data-name="Group 33" transform="translate(7519.603 5146.792)">
        <g id="Group_27" data-name="Group 27" transform="translate(129.434 142.694)">
          <rect id="Rectangle_1" data-name="Rectangle 1" width="4.997" height="54.044" transform="translate(24.153 12.11)" fill="url(#linear-gradient-28)"/>
          <path id="Rectangle_2" data-name="Rectangle 2" d="M2.621,0H41.15a2.621,2.621,0,0,1,2.621,2.621v.632a0,0,0,0,1,0,0H0a0,0,0,0,1,0,0V2.621A2.621,2.621,0,0,1,2.621,0Z" transform="translate(4.766 63.943)" fill="url(#linear-gradient-29)"/>
          <rect id="Rectangle_3" data-name="Rectangle 3" width="55.033" height="15.608" rx="4.607" fill="url(#linear-gradient-30)"/>
        </g>
        <g id="Group_28" data-name="Group 28" transform="translate(54.65 108.618)">
          <path id="Path_151" data-name="Path 151" d="M912.728,620.882a43.5,43.5,0,0,0-15.776,6.734,4.161,4.161,0,0,0-1.836,3.977c1,7.919,5.11,33.552,18.664,58.586a6.3,6.3,0,0,1,.606,4.325l-2.355,10.959-4.367,4.1h11.248l7.49-20.268-3.2-1.014a6.059,6.059,0,0,1-4.232-5.673l-.376-21.742a24.737,24.737,0,0,0-5.939-16.371l17.965-.874Z" transform="translate(-848.186 -610.733)" fill="url(#linear-gradient-31)"/>
          <path id="Path_152" data-name="Path 152" d="M902.111,701.917c-1.025,1.342,11.025,3.11,17.114.177,0,0,8.439-14.683,8.439-22.244,0,0-.67-1.541-5.625-1.192,0,0-2.834,17.387-5.826,19.334s-8.372.2-8.372.2S903.622,699.94,902.111,701.917Z" transform="translate(-847.025 -601.115)" fill="url(#linear-gradient-32)"/>
          <path id="Path_153" data-name="Path 153" d="M934.3,644.409c-.1-.164-19.342-2.313-19.342-2.313A44.485,44.485,0,0,1,913.622,656c-1.969,8.055-30.227,42.957-30.227,42.957l2.963,9.393a47.668,47.668,0,0,1-27.04,1.626l18.362-11.02s17.185-58.562,27.711-69.011l19.292-6.674Z" transform="translate(-854.144 -610.334)" fill="url(#linear-gradient-31)"/>
          <path id="Path_154" data-name="Path 154" d="M970.857,612.182s11.089,16.493,12,24.017-3.037,10.58-14.672,11.084-42.694.5-42.694.5l-26.51-22.655s19.319-6.893,24.341-8.843S970.857,612.182,970.857,612.182Z" transform="translate(-847.536 -612.182)" fill="url(#linear-gradient-34)"/>
          <path id="Path_155" data-name="Path 155" d="M885.978,693.491s3.19,3.09,1.035,6.527c0,0-25.269,4.48-32.129,2.448,0,0,1.424-3.253,9.15-6.953l-.57.437a.923.923,0,0,0,.61,1.655C869.164,697.316,879.7,696.383,885.978,693.491Z" transform="translate(-854.883 -598.636)" fill="url(#linear-gradient-35)"/>
        </g>
        <g id="Group_29" data-name="Group 29" transform="translate(121.676)">
          <path id="Path_156" data-name="Path 156" d="M938.159,618.848s-12.913-12.295-19.269-20.439a17.277,17.277,0,0,1-2.926-15.551c2.9-9.777,8.059-19.9,8.529-21.48.721-2.415,15.2-2.315,15.2-2.315s28.491,18.491,39.685,49.813l-12.572,3.914s-7.438-12.48-14.789-20.414c0,0,12.718,16.8,13.166,23.679Z" transform="translate(-911.852 -512.414)" fill="url(#linear-gradient-36)"/>
          <path id="Path_157" data-name="Path 157" d="M921.672,549.754c.152.5,3.93,13.031,4.225,13.291s8.288.69,12.05-1.882l-6.383-13.36Z" transform="translate(-910.782 -514.29)" fill="url(#linear-gradient-37)"/>
          <path id="Path_158" data-name="Path 158" d="M928.945,526.978s-6.822,2.88-11.461,12.739-1.175,14.41,3.177,15.035,10.859.53,17.742-5.839S937.813,523.564,928.945,526.978Z" transform="translate(-911.847 -517.827)" fill="url(#linear-gradient-38)"/>
          <path id="Path_159" data-name="Path 159" d="M932.857,544.9s5.147-14.423-7.641-14.593l-3.009,2.1s-4.692-8,3.009-11.813a16.377,16.377,0,0,1,22.469,9.956c3.277,10.376,1.359,17.074-4.092,22.038s-7.7-.664-7.7-.664,2.969-4.643,1.76-7.127-4,.513-4,.513Z" transform="translate(-910.929 -519.076)" fill="url(#linear-gradient-39)"/>
          <path id="Path_160" data-name="Path 160" d="M932.363,543.326s2.6-7.429,6.073-4.47-2.821,6.863-5.285,8.128Z" transform="translate(-909.001 -515.897)" fill="url(#linear-gradient-40)"/>
          <path id="Path_161" data-name="Path 161" d="M912.337,612.648l9.488-9.144,13.124,5.544s13.064,2.024,20.54,0l7.477-2.024,16.9-5.26,2.653,7.5a4.514,4.514,0,0,1-1.65,5.188,29.792,29.792,0,0,1-4.267,2.658c-2.225.974-54.85-.673-54.85-.673Z" transform="translate(-912.337 -505.3)" fill="url(#linear-gradient-41)"/>
          <path id="Path_162" data-name="Path 162" d="M943.1,531.05a2.925,2.925,0,0,1,1.746-4.879c7.5-1.169,18.926.023,23.726,16.071,5.408,18.077,8.928,27.113,12.541,28.7a2.94,2.94,0,0,1,.161,5.4c-1.748.785-4.249,1.063-7.83.275C945.819,570.536,952.742,540.9,943.1,531.05Z" transform="translate(-907.344 -517.949)" fill="url(#linear-gradient-42)"/>
        </g>
        <g id="Group_30" data-name="Group 30" transform="translate(49.281 61.691)">
          <path id="Path_163" data-name="Path 163" d="M951.342,615.5c-.042,0-.084,0-.127,0l-55.033-.061a2.463,2.463,0,0,1,0-4.927l55.034.061a2.463,2.463,0,0,1,.121,4.923Z" transform="translate(-843.044 -565.533)" fill="url(#linear-gradient-43)"/>
          <path id="Path_164" data-name="Path 164" d="M853.945,571.957h45.832a8.737,8.737,0,0,1,7.9,5.009l21.188,44.928H871.91a5.31,5.31,0,0,1-4.938-3.357l-16.43-41.575A3.66,3.66,0,0,1,853.945,571.957Z" transform="translate(-850.281 -571.957)" fill="url(#linear-gradient-44)"/>
          <path id="Path_165" data-name="Path 165" d="M882.145,592.359c.994,3.086.26,6.083-1.639,6.694s-4.242-1.4-5.235-4.481-.26-6.083,1.638-6.694S881.152,589.273,882.145,592.359Z" transform="translate(-846.192 -569.323)" fill="url(#linear-gradient-45)"/>
        </g>
        <g id="Group_32" data-name="Group 32" transform="translate(0 111.135)">
          <path id="Path_166" data-name="Path 166" d="M1042.537,616.874a2.033,2.033,0,0,0-.478-1.759,2.33,2.33,0,0,0-1.752-.775H810.652a2.659,2.659,0,0,0-2.2,1.13,2.315,2.315,0,0,0-.17,2.347l2.488,5.049a3.506,3.506,0,0,0,3.163,1.9h224.8a2.6,2.6,0,0,0,2.59-2Z" transform="translate(-808.038 -614.34)" fill="url(#linear-gradient-46)"/>
          <g id="Group_31" data-name="Group 31" transform="translate(13.471 4.29)">
            <path id="Path_167" data-name="Path 167" d="M821.6,722.676a1.971,1.971,0,0,1-.8-.169,2.08,2.08,0,0,1-1.055-2.709l42.268-100.533a2,2,0,0,1,2.647-1.079,2.08,2.08,0,0,1,1.056,2.709L823.452,721.428A2.015,2.015,0,0,1,821.6,722.676Z" transform="translate(-819.585 -618.017)" fill="url(#linear-gradient-46)"/>
            <path id="Path_168" data-name="Path 168" d="M868.453,722.676a2.015,2.015,0,0,1-1.853-1.248L824.333,620.895a2.079,2.079,0,0,1,1.056-2.709,2,2,0,0,1,2.647,1.079L870.3,719.8a2.08,2.08,0,0,1-1.056,2.709A1.966,1.966,0,0,1,868.453,722.676Z" transform="translate(-818.821 -618.017)" fill="url(#linear-gradient-46)"/>
            <path id="Path_169" data-name="Path 169" d="M964.276,722.676a1.971,1.971,0,0,1-.8-.169,2.079,2.079,0,0,1-1.055-2.709l42.267-100.533a2,2,0,0,1,2.648-1.079,2.08,2.08,0,0,1,1.055,2.709L966.128,721.428A2.017,2.017,0,0,1,964.276,722.676Z" transform="translate(-795.815 -618.017)" fill="url(#linear-gradient-46)"/>
            <path id="Path_170" data-name="Path 170" d="M1011.128,722.676a2.015,2.015,0,0,1-1.852-1.248L967.008,620.895a2.079,2.079,0,0,1,1.056-2.709,2,2,0,0,1,2.647,1.079L1012.979,719.8a2.08,2.08,0,0,1-1.055,2.709A1.971,1.971,0,0,1,1011.128,722.676Z" transform="translate(-795.051 -618.017)" fill="url(#linear-gradient-46)"/>
          </g>
        </g>
      </g>
      <g id="Group_44" data-name="Group 44" transform="translate(7476.309 4729.304)">
        <g id="Group_38" data-name="Group 38" transform="translate(0 60.301)">
          <circle id="Ellipse_1" data-name="Ellipse 1" cx="31.068" cy="31.068" r="31.068" transform="translate(0 26.765) rotate(-25.514)" fill="url(#linear-gradient-51)"/>
          <circle id="Ellipse_2" data-name="Ellipse 2" cx="30.035" cy="30.035" r="30.035" transform="translate(2.283 24.914) rotate(-22.132)" fill="url(#linear-gradient-52)"/>
          <path id="Path_181" data-name="Path 181" d="M785.369,241.221a1.144,1.144,0,0,1-.525-.126,1.166,1.166,0,0,1-.516-1.567,28.771,28.771,0,0,1,25.809-15.89,29.1,29.1,0,0,1,5.21.469,1.167,1.167,0,1,1-.418,2.3,26.83,26.83,0,0,0-4.792-.432,26.45,26.45,0,0,0-23.726,14.609A1.167,1.167,0,0,1,785.369,241.221Z" transform="translate(-768.715 -211.11)" fill="#fff"/>
          <circle id="Ellipse_3" data-name="Ellipse 3" cx="25.421" cy="25.421" r="25.421" transform="translate(11.452 60.908) rotate(-76.59)" fill="#fff" opacity="0.78"/>
          <g id="Group_37" data-name="Group 37" transform="translate(31.804 27.77)">
            <path id="Path_182" data-name="Path 182" d="M818.682,258.278a.706.706,0,0,0-.6-.23H807.016a.859.859,0,0,1-.726-1.09l6.163-19.234a.775.775,0,0,0-.11-.688.765.765,0,0,0-.612-.317l-4.686-.016a.76.76,0,0,0-.727.526l-8.041,24.828a.455.455,0,0,0,.109.513c.143.2.372.145.616.145H817.18c.35,0,.654-.069.74-.408l.9-3.492A.535.535,0,0,0,818.682,258.278Z" transform="translate(-798.181 -236.703)" fill="url(#linear-gradient-53)"/>
            <path id="Path_183" data-name="Path 183" d="M812.265,245.47l-.163-.222a.76.76,0,0,0-.982-.215,10.387,10.387,0,0,1-5.217,1.277c-3.13-.072-6.121,1.822-7.4,2.758a.763.763,0,0,0-.13,1.108l.178.21a.761.761,0,0,0,1.027.123c1.092-.792,3.622-2.4,6.141-2.4h.142c.1,0,.193,0,.288,0a12.246,12.246,0,0,0,5.875-1.524.768.768,0,0,0,.373-.5A.759.759,0,0,0,812.265,245.47Z" transform="translate(-798.189 -235.331)" fill="url(#linear-gradient-54)"/>
          </g>
        </g>
        <g id="Group_40" data-name="Group 40" transform="translate(64.979 0)">
          <circle id="Ellipse_4" data-name="Ellipse 4" cx="54.085" cy="54.085" r="54.085" transform="matrix(0.225, -0.974, 0.974, 0.225, 0, 105.389)" fill="url(#linear-gradient-51)"/>
          <circle id="Ellipse_5" data-name="Ellipse 5" cx="52.287" cy="52.287" r="52.287" transform="translate(2.065 103.895) rotate(-76.846)" fill="url(#linear-gradient-52)"/>
          <path id="Path_184" data-name="Path 184" d="M845.447,203.329a1.167,1.167,0,0,1-1.039-1.693,49.223,49.223,0,0,1,44.156-27.187,49.874,49.874,0,0,1,8.916.8,1.167,1.167,0,0,1-.419,2.3,47.466,47.466,0,0,0-8.5-.764,46.906,46.906,0,0,0-42.074,25.9A1.166,1.166,0,0,1,845.447,203.329Z" transform="translate(-823.685 -159.004)" fill="#fff"/>
          <circle id="Ellipse_6" data-name="Ellipse 6" cx="44.254" cy="44.254" r="44.254" transform="matrix(0.123, -0.992, 0.992, 0.123, 16.645, 104.477)" fill="#fff" opacity="0.78"/>
          <g id="Group_39" data-name="Group 39" transform="translate(35.08 37.493)">
            <path id="Path_185" data-name="Path 185" d="M906.072,205.809a12.461,12.461,0,1,1-12.461-12.461A12.459,12.459,0,0,1,906.072,205.809Z" transform="translate(-852.623 -193.348)" fill="url(#linear-gradient-57)"/>
            <path id="Path_186" data-name="Path 186" d="M881.617,219.617a12.46,12.46,0,1,1-12.459-12.46A12.46,12.46,0,0,1,881.617,219.617Z" transform="translate(-856.697 -191.047)" fill="url(#linear-gradient-58)"/>
            <circle id="Ellipse_7" data-name="Ellipse 7" cx="12.46" cy="12.46" r="12.46" transform="translate(27.773 32.556)" fill="url(#linear-gradient-59)"/>
            <path id="Path_187" data-name="Path 187" d="M886.712,209.654s-1.189,10.8-12.834,10.168l-.961,4.6s11.773-5.139,13.459,11.064a31.372,31.372,0,0,0,7.357-7.122s-11.381-7.969-.054-14.375C890.733,213.3,886.712,209.654,886.712,209.654Z" transform="translate(-853.995 -190.631)" fill="url(#linear-gradient-60)"/>
          </g>
        </g>
        <g id="Group_41" data-name="Group 41" transform="translate(91.958 110.479)">
          <circle id="Ellipse_8" data-name="Ellipse 8" cx="55.653" cy="55.653" r="55.653" transform="matrix(0.467, -0.884, 0.884, 0.467, 0, 98.424)" fill="url(#linear-gradient-51)"/>
          <circle id="Ellipse_9" data-name="Ellipse 9" cx="53.802" cy="53.802" r="53.802" transform="matrix(0.807, -0.59, 0.59, 0.807, 0.012, 63.541)" fill="url(#linear-gradient-52)"/>
          <path id="Path_188" data-name="Path 188" d="M876.35,306.449a1.151,1.151,0,0,1-.525-.126,1.166,1.166,0,0,1-.516-1.567A50.62,50.62,0,0,1,920.716,276.8a51.346,51.346,0,0,1,9.169.825,1.167,1.167,0,0,1-.419,2.3,48.942,48.942,0,0,0-8.751-.788,48.3,48.3,0,0,0-43.323,26.676A1.167,1.167,0,0,1,876.35,306.449Z" transform="translate(-845.515 -252.431)" fill="#fff"/>
          <circle id="Ellipse_10" data-name="Ellipse 10" cx="45.537" cy="45.537" r="45.537" transform="translate(18.705 105.036) rotate(-71.429)" fill="#fff" opacity="0.78"/>
          <path id="Path_189" data-name="Path 189" d="M941,329.823a16.08,16.08,0,0,0-9.394-3.881.037.037,0,0,1-.033-.036v-.077a.036.036,0,0,1,.028-.035,13.345,13.345,0,0,0,6.809-4.154,9.673,9.673,0,0,0-1.921-15.506A21.287,21.287,0,0,0,926,303.18a.575.575,0,0,1-.542-.574v-9.1a.576.576,0,0,0-.576-.576H920.7a.576.576,0,0,0-.576.576v9.2a.576.576,0,0,1-.576.576h-4.81a.576.576,0,0,1-.576-.576v-9.2a.576.576,0,0,0-.576-.576H909.4a.576.576,0,0,0-.576.576v9.2a.576.576,0,0,1-.576.576H896.065a.576.576,0,0,0-.576.576v4.654a.577.577,0,0,0,.576.576h6.849a.576.576,0,0,1,.576.575v35.878a.576.576,0,0,1-.576.576h-6.849a.576.576,0,0,0-.576.576v5.28a.576.576,0,0,0,.576.576h12.184a.576.576,0,0,1,.576.576v9.517a.576.576,0,0,0,.576.576h4.182a.576.576,0,0,0,.576-.576v-9.517a.576.576,0,0,1,.576-.576h4.81a.576.576,0,0,1,.576.576v9.517a.576.576,0,0,0,.576.576h4.182a.576.576,0,0,0,.576-.576v-9.687a.576.576,0,0,1,.553-.576c5.4-.21,9.888-1.522,13.145-3.94a12.669,12.669,0,0,0,5.336-10.744A10.367,10.367,0,0,0,941,329.823Zm-20.413-18.38c5.973,0,8.96,1.735,8.96,5.356a5.456,5.456,0,0,1-2.183,4.589,9.63,9.63,0,0,1-5.979,1.666h-6.651a.576.576,0,0,1-.576-.576V312.02a.576.576,0,0,1,.576-.576Zm8.713,31.245a10.981,10.981,0,0,1-6.664,1.862h-7.9a.576.576,0,0,1-.576-.576V331.946a.576.576,0,0,1,.576-.576h7.98c2.834,0,5.042.493,6.624,1.617a5.692,5.692,0,0,1,2.373,4.816A5.759,5.759,0,0,1,929.3,342.688Z" transform="translate(-842.132 -249.744)" fill="url(#linear-gradient-63)"/>
        </g>
        <g id="Group_43" data-name="Group 43" transform="translate(183.763 55.08)">
          <circle id="Ellipse_11" data-name="Ellipse 11" cx="40.776" cy="40.776" r="40.776" transform="translate(6.785 86.742) rotate(-78.648)" fill="url(#linear-gradient-51)"/>
          <circle id="Ellipse_12" data-name="Ellipse 12" cx="39.42" cy="39.42" r="39.42" transform="matrix(0.564, -0.826, 0.826, 0.564, 0, 65.086)" fill="url(#linear-gradient-52)"/>
          <path id="Path_190" data-name="Path 190" d="M947.714,245.543a1.166,1.166,0,0,1-1.041-1.692A37.4,37.4,0,0,1,980.221,223.2a37.945,37.945,0,0,1,6.775.609,1.166,1.166,0,1,1-.419,2.295,35.535,35.535,0,0,0-6.356-.57A35.078,35.078,0,0,0,948.756,244.9,1.162,1.162,0,0,1,947.714,245.543Z" transform="translate(-925.431 -205.963)" fill="#fff"/>
          <circle id="Ellipse_13" data-name="Ellipse 13" cx="33.364" cy="33.364" r="33.364" transform="matrix(0.489, -0.872, 0.872, 0.489, 10.234, 68.451)" fill="#fff" opacity="0.78"/>
          <g id="Group_42" data-name="Group 42" transform="translate(33.631 33.153)">
            <path id="Path_191" data-name="Path 191" d="M979.292,236.842a22.018,22.018,0,0,0-22.017,22.018,22.566,22.566,0,0,0,.595,5.111,1.336,1.336,0,0,0,1.219,1.053h4.677c.272,0,1.354-.4,1.354-.674v-16.49c0-.206-.307-.392-.117-.471s.195-.035.341.111L978.6,260.865a.859.859,0,0,0,1.249,0L992.086,248.6a.65.65,0,0,1,.637-.111.6.6,0,0,1,.4.471v14.959c0,.51.223,1.1.733,1.1h5.878a.919.919,0,0,0,.9-.722,23.264,23.264,0,0,0,.682-5.352A22.1,22.1,0,0,0,979.292,236.842Z" transform="translate(-957.275 -236.842)" fill="url(#linear-gradient-66)"/>
            <path id="Path_192" data-name="Path 192" d="M997.355,265.934h-7.066c-.509,0-1.071-.933-1.071-1.442V254a.435.435,0,0,0-.758-.36l-9.375,9.393a.5.5,0,0,1-.712,0L967.884,252.54a.479.479,0,0,0-.537-.111.494.494,0,0,0-.3.471v11.26c0,.692-.6,1.773-1.287,1.773h-4.83c-.448,0-.862-.021-1.085.367a1.023,1.023,0,0,0,0,1.123,22.16,22.16,0,0,0,19.038,11.188,22.809,22.809,0,0,0,19.256-11.288.922.922,0,0,0-.792-1.391Z" transform="translate(-956.874 -234.252)" fill="url(#linear-gradient-67)"/>
          </g>
        </g>
      </g>
    </g>
    <g id="Group_727" data-name="Group 727" transform="translate(27.294)">
      <g id="Group_20" data-name="Group 20" transform="translate(7031.706 4702.751)">
        <g id="Group_18" data-name="Group 18">
          <path id="Path_46" data-name="Path 46" d="M427.056,138.451l390.384,4.3c21.58.237,38.506,18.857,38.492,42.25l-.348,578.687c-.009,16.189-13.116,29.617-28.926,29.687L408.127,795.22c-14.767.065-26.881-12.286-26.881-27.449V187.81C381.246,160.332,401.753,138.173,427.056,138.451Z" transform="translate(-381.246 -138.449)" fill="url(#linear-gradient-68)"/>
          <path id="Path_47" data-name="Path 47" d="M777.6,186H449.458A24.2,24.2,0,0,0,425,210.271v477.6a24.2,24.2,0,0,0,24.458,24.271H777.6c13.762,0,25.377-10.867,25.377-24.271v-477.6C802.98,196.867,791.365,186,777.6,186Z" transform="translate(-373.956 -130.527)" fill="url(#linear-gradient-69)"/>
        </g>
      </g>
    </g>
  </g>
</svg>
