<svg xmlns="http://www.w3.org/2000/svg" width="384" height="384" viewBox="0 0 384 384">
  <g id="Group_1" data-name="Group 1" transform="translate(956.186 -276.689)">
    <path id="Path_1" data-name="Path 1" d="M-956.186,624.689v-214.5a20.381,20.381,0,0,0,.687-2.1c3.662-17.122,14-27.984,30.776-32.76,2.224-.633,4.55-.909,7.086-1.4-1.556-4.275-3-8.248-4.448-12.221-5.952-16.332.584-30.364,16.887-36.28q67.133-24.363,134.262-48.735h7.5a6.848,6.848,0,0,0,1.344.606c10.017,2.118,16.616,8.124,20.093,17.662,2.605,7.145,5.322,14.255,7.661,21.487.927,2.866,2.2,3.788,5.252,3.768,22.355-.15,44.712-.116,67.068-.069,16.439.035,27.52,11.122,27.578,27.479.021,5.745,0,11.49,0,17.236v9.135c25.088,2.915,39.744,19.384,39.749,44.139,0,13.114.044,26.228-.041,39.341-.014,2.188.436,3.287,2.837,3.805,5.267,1.137,10.009,3.755,13.081,8.143,2.725,3.894,4.455,8.485,6.624,12.768v69c-.833,2.179-1.52,4.429-2.526,6.526-4,8.331-10.8,13.094-19.974,14.967,0,1.529,0,2.879,0,4.229-.009,14.464.154,28.93-.071,43.391a41.024,41.024,0,0,1-29.147,38.45c-2.478.752-5.02,1.3-7.532,1.937h-288a14.876,14.876,0,0,0-2.081-.683c-12.915-2.268-22.855-9.021-29.177-20.437C-953.226,635-954.4,629.671-956.186,624.689Zm339-164.307c0-15.065.032-29.556-.01-44.046-.034-11.824-7.9-19.688-19.8-19.691q-138.366-.034-276.733,0c-12.14,0-19.941,7.821-19.944,19.923q-.024,100.68,0,201.361c0,12.311,7.844,20.193,20.123,20.2q138.179.023,276.357,0c12.055,0,19.972-7.923,20-19.942.037-14,.013-28,0-42,0-1.064-.14-2.129-.222-3.3-11.375,0-22.372.053-33.368-.024a128.416,128.416,0,0,1-14.586-.568,56.2,56.2,0,0,1-49.2-51.5,55.994,55.994,0,0,1,41.006-58.215,69.425,69.425,0,0,1,16.632-2.1C-643.843,460.18-630.742,460.382-617.187,460.382ZM-756.978,319.823c-2.251-6.226-4.306-12.225-6.612-18.128-.91-2.328-2.879-2.838-5.286-1.939-6.311,2.356-12.657,4.618-18.987,6.92q-54.686,19.89-109.368,39.784c-4.892,1.78-5.378,2.848-3.578,7.82,1.954,5.395,4.125,10.72,5.85,16.186.9,2.847,2.2,3.761,5.257,3.749,32.491-.135,64.983-.084,97.474-.084h3.866c.069-1.57.166-2.788.169-4.006.016-8-.075-16,.033-23.994a25.919,25.919,0,0,1,20.883-25.373C-764.134,320.108-760.847,320.153-756.978,319.823Zm126.993,163.058c-2.5,0-5-.019-7.5,0-8.494.077-17.082-.608-25.461.416a33.4,33.4,0,0,0-29.164,35.8,33.807,33.807,0,0,0,33.754,31.242c19.367.159,38.736.05,58.105.031,4.407,0,5.55-1.147,5.554-5.528q.027-28.3,0-56.606c0-4.257-1.075-5.333-5.3-5.346C-609.991,482.861-619.988,482.882-629.985,482.881ZM-765.674,373.862h108.738c0-8.618.01-16.97,0-25.322-.008-5-.893-5.9-5.869-5.9q-27.345-.018-54.689,0c-14.359,0-28.718.025-43.077-.019-2.887-.009-5.046.81-5.073,4.065C-765.723,355.652-765.674,364.627-765.674,373.862Z"/>
    <path id="Path_3" data-name="Path 3" d="M-956.186,624.689c1.79,4.982,2.96,10.308,5.492,14.88,6.322,11.416,16.262,18.169,29.177,20.437a14.876,14.876,0,0,1,2.081.683h-36.75Z" fill="#fff"/>
    <path id="Path_8" data-name="Path 8" d="M-658.264,527.867a11.447,11.447,0,0,1-11.409-11,11.268,11.268,0,0,1,10.875-11.46,11.254,11.254,0,0,1,11.6,11.112A11.435,11.435,0,0,1-658.264,527.867Z"/>
  </g>
</svg>
