<svg xmlns="http://www.w3.org/2000/svg" width="478.621" height="478.503" viewBox="0 0 478.621 478.503">
  <g id="Group_728" data-name="Group 728" transform="translate(-11156 -968.92)">
    <path id="Path_625" data-name="Path 625" d="M-1358.65,389.92h1.87c2.14.28,4.27.58,6.42.82,12,1.31,24.24,1.9,36.15,4A230.1,230.1,0,0,1-1205.4,445.5c53.32,44.64,82.11,102,86.51,171.62a227.379,227.379,0,0,1-2.53,51.23c-7.44,45.36-25.9,85.82-57,119.75-56.82,62-127.65,88.07-211,78.34-42.8-5-81.35-21.78-115.24-48.44-48.29-38-77.74-87.51-88.72-148-1.61-8.84-2.47-17.81-3.67-26.73V613.4c1.1-8,2-16,3.32-24a232.318,232.318,0,0,1,40-97.11c1.85-2.61,2-4.72.81-7.65-7-17.77-6.15-35.54,2-52.57,19.59-40.93,68-53.92,105.91-28.71a7.29,7.29,0,0,0,7.3.88,232.69,232.69,0,0,1,62.38-13.07C-1369.8,390.82-1364.22,390.35-1358.65,389.92Zm194.17,351.85c-8-3.63-15.56-6.93-23-10.41-3.64-1.7-5.46-.71-7.66,2.75q-21.19,33.27-43,66.14c-4.89,7.4-10.88,7.34-15.95.15-8.35-11.83-16.52-23.79-24.71-35.73-2.53-3.68-4.88-7.48-7.66-11.76-2.32,3-4.3,5.52-6.26,8.08-3.79,4.93-7.29,10.13-11.41,14.77-7.13,8-17.54,8.17-25.1.57-2.06-2.07-4.25-4.4-5.26-7-3.64-9.55-8.2-19.06-9.79-29-1.84-11.54-1.13-23.52-1.15-35.32,0-13-4.68-19.88-17.1-23.15-19.55-5.16-39.19-6.46-59.11-1.56-15,3.69-27.92-.46-38.29-12.2-20-22.64-12.71-51.6,15.5-61.28,3.24-1.11,6.44-2.35,9.71-3.35a133.281,133.281,0,0,0,38-18.5c12.69-8.9,24.6-18.67,32.65-32.27,7.66-12.93,8.63-25.8-.91-38.34-3.39-4.46-7-8.75-10.39-13.22-14-18.52-19.77-39.12-14.23-61.95,2.58-10.64,6.75-20.89,10.27-31.54a202,202,0,0,0-49.14,10.21c0,.52-.12.7-.06.79,1.32,2.11,2.73,4.16,4,6.31,8.09,13.84,12.75,28.72,9.6,44.66a131.806,131.806,0,0,1-9.72,29.07c-14.27,31.15-33.52,59.31-53.76,86.8-4.65,6.32-10.36,6.17-15.19-.39-17.78-24.08-34.31-49-48.31-75.46-.6-1.14-1.33-2.2-2.23-3.68-2.56,4.12-5,7.59-7,11.27-2.68,4.9-6.57,9.75-7.27,15-1.86,13.85-3.63,28-3,41.84.92,18.91,3.86,37.74,6.41,56.54,4.12,30.36,15.83,57.09,38.45,78.5,11.92,11.3,25.19,18.56,42.31,16.77,19.23-2,36.81-9,53.71-17.77,15.43-8,30.5-7.79,45.43.65,18.81,10.63,28.47,27.69,31.08,48.44,3,23.79-5,44-28.9,52.4a20,20,0,0,0-9.79,8.13c-6.25,10.58-5.78,21.71,0,32.49a5.81,5.81,0,0,0,4,2.49,214.8,214.8,0,0,0,64.15-3.29,221.34,221.34,0,0,0,102.48-50,220,220,0,0,0,47.6-57.65Zm-152.8,24.16a16.918,16.918,0,0,0,2-1.71c6.44-8.19,12.92-16.36,19.17-24.69.59-.8.06-2.85-.52-4-4.18-8.51-8.62-16.91-12.77-25.43-5.17-10.61-8.83-21.81-8.45-33.66,1.39-43.4,36.62-74,79.71-69.77,41.89,4.07,72.46,47,61.35,86.32-2.12,7.54-5,14.86-7.43,22l27.29,12.73a16.209,16.209,0,0,0,.94-1.59A221.939,221.939,0,0,0-1134.53,621c-.17-4.49-.06-9.24-1.49-13.38-10-28.7-43.93-48-73.67-42.4a134.449,134.449,0,0,1-15.7,2.2c-16.32,1.11-31.78-3.21-47.11-8-41.31-13-45.9-62.73-24.61-89.43,7.54-9.46,17.75-13.18,29.8-12.2,13.25,1.07,23.8-4.24,32.62-13.9a12.781,12.781,0,0,0-1.33-1.14c-36.52-23.48-76.45-35.72-119.9-36.12a6.35,6.35,0,0,0-4.56,2.74,124.664,124.664,0,0,0-7,13.18c-12.32,26.57-11.09,51.35,8.93,74.26,5.54,6.35,10.6,13.74,13.64,21.52,7.05,18,1.17,34.34-9.76,49-14.77,19.78-34.29,33.86-56.54,44-11.15,5.09-23,8.58-34.4,13.16-7.49,3-9.6,7-9.22,15,.86,18.12,13.62,28.46,31.26,24.71a133.31,133.31,0,0,1,65.12,2.36c21,6,30.78,20.28,28.82,41.87-1.16,12.68-1.23,25.22,2.77,37.45C-1324.55,752.85-1322.72,760.16-1317.28,765.93Zm-83.41,83.65c-.16-1.51-.15-2-.26-2.43-6.43-25.42,2.58-43.93,26.49-54.34,6.84-3,11.58-8,13.47-15.18,4.72-18,.29-34-12.24-47.46-10.25-11-25.8-16.35-42.25-6.79-14.27,8.3-30,13.51-46.29,16.92-23,4.82-43.47.1-61.27-15.63-26.44-23.36-41.56-52.75-46.93-87.39-2.47-15.9-4.89-31.82-7.29-47.51-13.62,28.88.13,109.76,26,152.5,34.6,57.26,84.59,92.82,150.57,107.31Zm179.23-396.12c-.65.62-1.13,1-1.55,1.47-12.84,13.57-28.21,20.56-47.23,18.62a15.42,15.42,0,0,0-12.73,4.73c-7.78,7.79-10.48,17.56-10.45,28.11,0,14.74,4.47,28.08,18.65,34.55,18.43,8.39,37.85,13.43,58.5,9.22,13.33-2.71,26.56-2.77,39.67,1.45a111.44,111.44,0,0,1,33.31,17.79c-5.77-35.77-47.71-98.01-78.17-115.94Zm-25.07,331.31c3.93-5.6,7.14-10,10.17-14.5,14.07-20.93,27.9-42,38-65.22,3.68-8.43,7.19-17.63,7.68-26.65,1.64-30.6-25.75-57.18-56.45-56.41-38,1-67,39.82-49.51,77.6A369.5,369.5,0,0,0-1278.93,734C-1268.81,750.92-1257.75,767.28-1246.53,784.77ZM-1485.84,568.5l7.77-11.15c15.56-22.37,30.47-45.18,41.15-70.36,3.35-7.9,6.47-16.57,6.76-25,1.14-33.61-31.47-60.56-64.75-55-32.43,5.46-59.56,41.6-40.22,79.1,11.25,21.8,24.05,42.81,36.44,64C-1495,556.39-1490.4,562.05-1485.84,568.5Z" transform="translate(12753.05 579)" fill="#e61632"/>
    <path id="Path_626" data-name="Path 626" d="M-1214.34,669.77a32,32,0,0,1-31.5,32.13c-17.29.39-32.33-14.49-32.29-32a32.37,32.37,0,0,1,31.89-31.9C-1228.91,637.89-1214.5,652.24-1214.34,669.77Zm-16,.35a15.891,15.891,0,0,0-4.625-11.4,15.89,15.89,0,0,0-11.375-4.682,16.11,16.11,0,0,0-15.89,15.79,16.16,16.16,0,0,0,16.08,16.09,15.88,15.88,0,0,0,15.84-15.8Z" transform="translate(12753.05 579)" fill="#e61632"/>
    <path id="Path_627" data-name="Path 627" d="M-1485.59,422.47A31.78,31.78,0,0,1-1454,454.38a32,32,0,0,1-31.84,31.82,32,32,0,0,1-22.629-9.514,32,32,0,0,1-9.231-22.746,31.79,31.79,0,0,1,32.11-31.47Zm15.68,31.75a15.76,15.76,0,0,0-4.725-11.275,15.76,15.76,0,0,0-11.365-4.5,15.79,15.79,0,0,0-15.74,15.67,16.07,16.07,0,0,0,15.86,16.14,16,16,0,0,0,15.97-16.03Z" transform="translate(12753.05 579)" fill="#e61632"/>
  </g>
</svg>
